<svg xmlns="http://www.w3.org/2000/svg" width="326.966" height="73.961" viewBox="0 0 326.966 73.961">
  <g id="グループ_32212" data-name="グループ 32212" transform="translate(-876 -82)">
    <g id="グループ_32208" data-name="グループ 32208" transform="translate(42)">
      <g id="Oisix_ra_daichi" data-name="Oisix ra daichi" transform="translate(482.287 -225.201)">
        <g id="グループ_32187" data-name="グループ 32187">
          <path id="パス_38087" data-name="パス 38087" d="M356.854,322.836a5.2,5.2,0,0,1-2.919-.738,4.506,4.506,0,0,1-1.668-2.017,6.214,6.214,0,0,1-.554-2.481,10,10,0,0,1,1.395-4.929,10.927,10.927,0,0,1,3.767-3.971,8.753,8.753,0,0,1,4.682-1.491,5.217,5.217,0,0,1,2.57.677,4.776,4.776,0,0,1,1.894,1.9,5.07,5.07,0,0,1,.677,2.468,10.412,10.412,0,0,1-1.771,5.592,11.568,11.568,0,0,1-3.985,4.047A8.2,8.2,0,0,1,356.854,322.836Zm4.348-14.724a3.2,3.2,0,0,0-1.484.314,4.693,4.693,0,0,0-1.271,1.046,9.323,9.323,0,0,0-1.347,2.1,19.016,19.016,0,0,0-1.278,3.725,16.558,16.558,0,0,0-.6,3.938,3.045,3.045,0,0,0,.581,2.023,1.868,1.868,0,0,0,1.5.684,2.894,2.894,0,0,0,2.051-.793,11.576,11.576,0,0,0,2.748-4.69,17.116,17.116,0,0,0,1.066-5.5,3.387,3.387,0,0,0-.567-2.181,1.76,1.76,0,0,0-1.4-.666Z" fill="#fff"/>
          <path id="パス_38088" data-name="パス 38088" d="M372.537,312.282l-2.256,7.82a4.339,4.339,0,0,0-.178.889.331.331,0,0,0,.1.218.273.273,0,0,0,.2.11.549.549,0,0,0,.369-.164,6.515,6.515,0,0,0,1.189-1.477l.383.219q-1.668,2.9-3.541,2.9a1.583,1.583,0,0,1-1.134-.4,1.345,1.345,0,0,1-.424-1.019,3.674,3.674,0,0,1,.191-1.039l1.531-5.263a4.534,4.534,0,0,0,.219-1.135.58.58,0,0,0-.212-.438.81.81,0,0,0-.567-.191c-.119,0-.251,0-.4.014l.137-.438,3.732-.6Zm-.684-5.073a1.552,1.552,0,0,1,1.155.479,1.579,1.579,0,0,1,.472,1.148,1.552,1.552,0,0,1-.478,1.142,1.589,1.589,0,0,1-1.149.472,1.612,1.612,0,0,1-1.6-1.614,1.587,1.587,0,0,1,.465-1.148,1.519,1.519,0,0,1,1.136-.479Z" fill="#fff"/>
          <path id="パス_38089" data-name="パス 38089" d="M381.437,312.282l-.478,3.4h-.411a3.194,3.194,0,0,0-.806-2.085,2.132,2.132,0,0,0-1.545-.759,1.2,1.2,0,0,0-.834.294.925.925,0,0,0-.328.718,1.552,1.552,0,0,0,.143.663,3.625,3.625,0,0,0,.636.827,16.693,16.693,0,0,1,2.112,2.577,3.172,3.172,0,0,1,.376,1.511,3.237,3.237,0,0,1-1.763,2.892,3.8,3.8,0,0,1-1.819.471,6.068,6.068,0,0,1-1.572-.26,3.651,3.651,0,0,0-.93-.177.88.88,0,0,0-.423.082,1.115,1.115,0,0,0-.342.355h-.41l.546-3.677h.342a9.128,9.128,0,0,0,.732,1.907,2.546,2.546,0,0,0,.9.9,2.1,2.1,0,0,0,1.08.335,1.379,1.379,0,0,0,1-.384,1.215,1.215,0,0,0,.4-.9,2.115,2.115,0,0,0-.26-1,9.329,9.329,0,0,0-1.189-1.511,11.2,11.2,0,0,1-1.7-2.16,2.62,2.62,0,0,1-.287-1.244,2.578,2.578,0,0,1,.861-1.982,3.439,3.439,0,0,1,2.42-.793,7.708,7.708,0,0,1,1.682.232,3.37,3.37,0,0,0,.793.123.808.808,0,0,0,.684-.355Z" fill="#fff"/>
          <path id="パス_38090" data-name="パス 38090" d="M387.576,312.282l-2.256,7.82a4.339,4.339,0,0,0-.178.889.331.331,0,0,0,.1.218.273.273,0,0,0,.2.11.549.549,0,0,0,.369-.164,6.547,6.547,0,0,0,1.19-1.477l.382.219q-1.668,2.9-3.541,2.9a1.583,1.583,0,0,1-1.134-.4,1.345,1.345,0,0,1-.424-1.019,3.674,3.674,0,0,1,.191-1.039l1.531-5.263a4.534,4.534,0,0,0,.219-1.135.58.58,0,0,0-.212-.438.81.81,0,0,0-.567-.191c-.119,0-.251,0-.4.014l.137-.438,3.733-.6Zm-.684-5.073a1.552,1.552,0,0,1,1.155.479,1.579,1.579,0,0,1,.472,1.148,1.552,1.552,0,0,1-.478,1.142,1.588,1.588,0,0,1-1.149.472,1.61,1.61,0,0,1-1.6-1.614,1.586,1.586,0,0,1,.464-1.148A1.519,1.519,0,0,1,386.892,307.209Z" fill="#fff"/>
          <path id="パス_38091" data-name="パス 38091" d="M389.121,312.938l3.841-.656a11.244,11.244,0,0,1,1.477,3.609q1.08-1.6,1.627-2.242a5.017,5.017,0,0,1,1.217-1.108,2.082,2.082,0,0,1,1.012-.259,1.247,1.247,0,0,1,.936.328,1.361,1.361,0,0,1,0,1.756,1.076,1.076,0,0,1-.813.334,2.9,2.9,0,0,1-.807-.129,2.756,2.756,0,0,0-.629-.13,1.435,1.435,0,0,0-.889.328,7.239,7.239,0,0,0-1.408,1.928,15.566,15.566,0,0,0,1.5,4.033.89.89,0,0,0,.67.424.866.866,0,0,0,.492-.137,6.119,6.119,0,0,0,.985-1.162l.4.232a7.183,7.183,0,0,1-1.9,2.2,2.35,2.35,0,0,1-1.381.506,2.043,2.043,0,0,1-1.176-.314,2.65,2.65,0,0,1-.827-1.026,16.55,16.55,0,0,1-.868-2.283q-1.285,1.641-2.017,2.4a4.8,4.8,0,0,1-1.217.991,2.349,2.349,0,0,1-1.032.232,1.227,1.227,0,0,1-.909-.334,1.156,1.156,0,0,1-.335-.854,1.275,1.275,0,0,1,.362-.931,1.24,1.24,0,0,1,.923-.369,1.588,1.588,0,0,1,.67.178,2.188,2.188,0,0,0,.793.273,1.151,1.151,0,0,0,.574-.137,3.321,3.321,0,0,0,.834-.711q.315-.339,1.135-1.462a18.8,18.8,0,0,0-1.641-4.69,1.169,1.169,0,0,0-.957-.492,3.535,3.535,0,0,0-.724.1Z" fill="#fff"/>
          <path id="パス_38092" data-name="パス 38092" d="M410.326,312.282l-1.655,6.179a23.682,23.682,0,0,1,3.077-5.564,1.81,1.81,0,0,1,1.285-.615.923.923,0,0,1,.738.335,1.427,1.427,0,0,1,.287.95,3.011,3.011,0,0,1-.519,1.791.917.917,0,0,1-.725.465.714.714,0,0,1-.67-.411,1.979,1.979,0,0,0-.308-.479.308.308,0,0,0-.184-.068.485.485,0,0,0-.232.068,2.24,2.24,0,0,0-.636.636,10.286,10.286,0,0,0-.957,1.715q-.568,1.2-.889,2.031a30.259,30.259,0,0,0-.9,3.165h-2.666l1.818-7.3a6.062,6.062,0,0,0,.191-1.08.856.856,0,0,0-.1-.451A.639.639,0,0,0,407,313.4a2.166,2.166,0,0,0-.751-.082l.1-.315,3.323-.724Z" fill="#fff"/>
          <path id="パス_38093" data-name="パス 38093" d="M424.572,312.432l-2.133,7.313-.232.9a1.39,1.39,0,0,0-.028.232.314.314,0,0,0,.1.233.281.281,0,0,0,.191.1,1.2,1.2,0,0,0,.643-.341,10.768,10.768,0,0,0,.793-1.012l.383.191a6.305,6.305,0,0,1-1.668,2.092,3.172,3.172,0,0,1-1.914.656,1.291,1.291,0,0,1-.957-.328,1.111,1.111,0,0,1-.328-.82,6.649,6.649,0,0,1,.355-1.6l.26-.888a10.878,10.878,0,0,1-2.447,3.1,2.336,2.336,0,0,1-1.463.533,1.538,1.538,0,0,1-1.463-.834,3.867,3.867,0,0,1-.451-1.873,8.51,8.51,0,0,1,.95-3.568,8.879,8.879,0,0,1,2.481-3.227,3.91,3.91,0,0,1,2.379-1.011,1.381,1.381,0,0,1,.991.355,2.4,2.4,0,0,1,.554,1.3l.4-1.354Zm-3.527,2.092a2.325,2.325,0,0,0-.274-1.285.637.637,0,0,0-.533-.275,1.1,1.1,0,0,0-.711.328,8.274,8.274,0,0,0-1.593,2.77,9.737,9.737,0,0,0-.854,3.6,1.412,1.412,0,0,0,.191.84.537.537,0,0,0,.424.254,1.413,1.413,0,0,0,1.012-.561,8.831,8.831,0,0,0,1.3-2,8.372,8.372,0,0,0,1.038-3.671Z" fill="#fff"/>
          <path id="パス_38094" data-name="パス 38094" d="M442.961,307.209l-3.569,12.319a8.128,8.128,0,0,0-.342,1.394.3.3,0,0,0,.082.212.253.253,0,0,0,.192.089.773.773,0,0,0,.424-.178,5.357,5.357,0,0,0,1-1.176l.4.219q-1.56,2.707-3.418,2.707a1.41,1.41,0,0,1-1.018-.348,1.186,1.186,0,0,1-.363-.9,5.565,5.565,0,0,1,.287-1.463l.329-1.135a11.639,11.639,0,0,1-2.379,3.241,2.5,2.5,0,0,1-1.5.6,1.747,1.747,0,0,1-1.388-.677,2.979,2.979,0,0,1-.567-1.961,7.746,7.746,0,0,1,.724-3.235,10.375,10.375,0,0,1,1.682-2.659,6.952,6.952,0,0,1,1.818-1.524,3.6,3.6,0,0,1,1.7-.458,1.641,1.641,0,0,1,.765.177,2.888,2.888,0,0,1,.766.657l.82-2.748a6.171,6.171,0,0,0,.287-1.45.585.585,0,0,0-.2-.444.747.747,0,0,0-.526-.185,3.276,3.276,0,0,0-.383.028l.109-.424,3.623-.684Zm-4.84,6.987a1.474,1.474,0,0,0-.267-.978.791.791,0,0,0-.608-.308,1.209,1.209,0,0,0-.766.356,8.138,8.138,0,0,0-1.634,2.837,9.982,9.982,0,0,0-.854,3.589,1.309,1.309,0,0,0,.184.772.52.52,0,0,0,.417.253,1.155,1.155,0,0,0,.78-.355,11.428,11.428,0,0,0,2.748-6.166Z" fill="#fff"/>
          <path id="パス_38095" data-name="パス 38095" d="M452.736,312.432l-2.133,7.313-.232.9a1.39,1.39,0,0,0-.028.232.314.314,0,0,0,.1.233.281.281,0,0,0,.191.1,1.2,1.2,0,0,0,.643-.341,10.446,10.446,0,0,0,.793-1.012l.383.191a6.305,6.305,0,0,1-1.668,2.092,3.172,3.172,0,0,1-1.914.656,1.291,1.291,0,0,1-.957-.328,1.111,1.111,0,0,1-.328-.82,6.649,6.649,0,0,1,.355-1.6l.26-.888a10.878,10.878,0,0,1-2.447,3.1,2.336,2.336,0,0,1-1.463.533,1.538,1.538,0,0,1-1.463-.834,3.856,3.856,0,0,1-.451-1.873,8.509,8.509,0,0,1,.95-3.568,8.879,8.879,0,0,1,2.481-3.227,3.91,3.91,0,0,1,2.379-1.011,1.381,1.381,0,0,1,.991.355,2.4,2.4,0,0,1,.554,1.3l.4-1.354Zm-3.527,2.092a2.325,2.325,0,0,0-.274-1.285.637.637,0,0,0-.533-.275,1.1,1.1,0,0,0-.711.328,8.274,8.274,0,0,0-1.593,2.77,9.737,9.737,0,0,0-.854,3.6,1.4,1.4,0,0,0,.191.84.536.536,0,0,0,.424.254,1.413,1.413,0,0,0,1.012-.561,8.887,8.887,0,0,0,1.3-2A8.372,8.372,0,0,0,449.209,314.524Z" fill="#fff"/>
          <path id="パス_38096" data-name="パス 38096" d="M458.943,312.282l-2.256,7.82a4.335,4.335,0,0,0-.178.889.331.331,0,0,0,.1.218.272.272,0,0,0,.2.11.549.549,0,0,0,.369-.164,6.471,6.471,0,0,0,1.19-1.477l.383.219q-1.671,2.9-3.541,2.9a1.584,1.584,0,0,1-1.135-.4,1.345,1.345,0,0,1-.424-1.019,3.675,3.675,0,0,1,.191-1.039l1.532-5.263a4.531,4.531,0,0,0,.218-1.135.577.577,0,0,0-.212-.438.81.81,0,0,0-.567-.191c-.119,0-.251,0-.4.014l.136-.438,3.733-.6Zm-.684-5.073a1.56,1.56,0,0,1,1.156.479,1.58,1.58,0,0,1,.471,1.148,1.548,1.548,0,0,1-.478,1.142,1.588,1.588,0,0,1-1.149.472,1.61,1.61,0,0,1-1.6-1.614,1.587,1.587,0,0,1,.465-1.148,1.513,1.513,0,0,1,1.13-.479Z" fill="#fff"/>
          <path id="パス_38097" data-name="パス 38097" d="M467.925,319.828l.328.3a8.249,8.249,0,0,1-2.1,1.873,5.6,5.6,0,0,1-2.844.793,3.539,3.539,0,0,1-1.757-.424,2.656,2.656,0,0,1-1.127-1.189,3.561,3.561,0,0,1-.37-1.572,7.132,7.132,0,0,1,.985-3.548,7.652,7.652,0,0,1,2.591-2.762,5.864,5.864,0,0,1,3.151-1.018,2.786,2.786,0,0,1,1.873.546,1.743,1.743,0,0,1,.629,1.368,1.782,1.782,0,0,1-.472,1.251,1.417,1.417,0,0,1-1.059.512,1.15,1.15,0,0,1-.841-.328,1.051,1.051,0,0,1-.335-.779,1.288,1.288,0,0,1,.6-1.039c.266-.2.4-.378.4-.533a.379.379,0,0,0-.164-.315.891.891,0,0,0-.574-.178,2.544,2.544,0,0,0-1.737.752,6.3,6.3,0,0,0-1.647,2.5,8.217,8.217,0,0,0-.568,2.885,2.472,2.472,0,0,0,.581,1.723,1.813,1.813,0,0,0,1.388.642,3.805,3.805,0,0,0,1.518-.362A5.172,5.172,0,0,0,467.925,319.828Z" fill="#fff"/>
          <path id="パス_38098" data-name="パス 38098" d="M476.88,307.209l-2.871,9.926q1.491-2.187,2.161-2.967a7.291,7.291,0,0,1,1.729-1.5,2.874,2.874,0,0,1,1.374-.389,1.284,1.284,0,0,1,.964.423,1.565,1.565,0,0,1,.4,1.121,5.509,5.509,0,0,1-.26,1.49L478.983,320a3.5,3.5,0,0,0-.191.82.276.276,0,0,0,.075.185.215.215,0,0,0,.171.089.432.432,0,0,0,.273-.109,4.149,4.149,0,0,0,.738-.889q.109-.15.328-.465l.424.246a7.061,7.061,0,0,1-1.791,2.147,2.857,2.857,0,0,1-1.613.588,1.5,1.5,0,0,1-1.066-.356,1.16,1.16,0,0,1-.383-.889,5.271,5.271,0,0,1,.26-1.367l1.367-4.689a2.913,2.913,0,0,0,.136-.711.293.293,0,0,0-.1-.2.3.3,0,0,0-.219-.1,1.889,1.889,0,0,0-1.08.657,15.1,15.1,0,0,0-2.871,4.251l-.971,3.268h-2.731l3.609-12.442a4.967,4.967,0,0,0,.219-1.134.486.486,0,0,0-.219-.424,1.4,1.4,0,0,0-.875-.178l.068-.437,3.665-.657Z" fill="#fff"/>
          <path id="パス_38099" data-name="パス 38099" d="M487.754,312.282,485.5,320.1a4.337,4.337,0,0,0-.178.889.331.331,0,0,0,.1.218.271.271,0,0,0,.2.11.549.549,0,0,0,.369-.164,6.516,6.516,0,0,0,1.189-1.477l.383.219q-1.668,2.9-3.541,2.9a1.585,1.585,0,0,1-1.135-.4,1.348,1.348,0,0,1-.423-1.019,3.675,3.675,0,0,1,.191-1.039l1.531-5.263a4.532,4.532,0,0,0,.219-1.135.58.58,0,0,0-.212-.438.81.81,0,0,0-.567-.191c-.119,0-.251,0-.4.014l.137-.438,3.732-.6Zm-.684-5.073a1.552,1.552,0,0,1,1.155.479,1.579,1.579,0,0,1,.472,1.148,1.549,1.549,0,0,1-.479,1.142,1.586,1.586,0,0,1-1.148.472,1.612,1.612,0,0,1-1.6-1.614,1.587,1.587,0,0,1,.465-1.148,1.515,1.515,0,0,1,1.131-.479Z" fill="#fff"/>
        </g>
      </g>
      <g id="グループ_32207" data-name="グループ 32207" transform="translate(691.343 -333.515)">
        <path id="パス_38120" data-name="パス 38120" d="M291.662,421.235c-1.649.51-3.345,1.079-4.5,1.485a2.07,2.07,0,0,0-.644.344.558.558,0,0,1-.406.151,1.453,1.453,0,0,1-1.005-.63,1.612,1.612,0,0,1-.45-.84c0-.21.061-.375.136-.375a.3.3,0,0,1,.194.12,1.33,1.33,0,0,0,1.125.525,5.364,5.364,0,0,0,.9-.165c2.174-.555,4.424-1.14,6.63-1.71a1.817,1.817,0,0,0,.585-.225,1.017,1.017,0,0,1,.509-.15,2.419,2.419,0,0,1,.975.255c.21.09.4.24.4.465.015.315-.15.45-.525.465a9.636,9.636,0,0,0-2.64.33,4.821,4.821,0,0,0-2.16,1.395,4.321,4.321,0,0,0-1.185,2.909,2.831,2.831,0,0,0,1.036,2.251,5.1,5.1,0,0,0,2.744.914,2.01,2.01,0,0,1,1.035.256.682.682,0,0,1,.4.644c0,.255-.165.435-.795.435a6.685,6.685,0,0,1-3.51-1.109A3.622,3.622,0,0,1,288.917,426a4.78,4.78,0,0,1,.676-2.565,6.417,6.417,0,0,1,2.084-2.144Zm2.49,1.994a3.39,3.39,0,0,1,1.3.75c.36.316.57.585.57.9a.417.417,0,0,1-.42.449q-.293,0-.495-.4a5.207,5.207,0,0,0-1.259-1.441.229.229,0,0,1-.106-.149.155.155,0,0,1,.165-.15A.9.9,0,0,1,294.152,423.229Zm1.3-1a3.524,3.524,0,0,1,1.2.585,1.378,1.378,0,0,1,.69.945.425.425,0,0,1-.4.479c-.195,0-.315-.075-.48-.36a4.572,4.572,0,0,0-1.38-1.409.18.18,0,0,1-.1-.151.149.149,0,0,1,.149-.15A1.881,1.881,0,0,1,295.457,422.225Z" fill="#fff"/>
        <path id="パス_38121" data-name="パス 38121" d="M300.062,424.1a8.607,8.607,0,0,0,1.486.12h9.4c.87-.991.976-1.05,1.066-1.05s.21.059,1.094.779c.42.33.465.42.465.51s-.045.136-.2.136h-11.82a9.848,9.848,0,0,0-1.349.09Z" fill="#fff"/>
        <path id="パス_38122" data-name="パス 38122" d="M316.323,430.189a15.191,15.191,0,0,0,.78-2.79,10.035,10.035,0,0,0,.15-1.5c1.17.375,1.365.435,1.365.63,0,.106-.105.2-.45.271a9.831,9.831,0,0,1-1.65,3.479C316.458,430.354,316.293,430.279,316.323,430.189Zm1.755-6.165a21.673,21.673,0,0,0,1.694-2.969,7.931,7.931,0,0,0,.54-1.425c1.036.495,1.335.69,1.335.855,0,.12-.12.21-.554.2a18.08,18.08,0,0,1-2.625,3.33c.8-.016,1.59-.075,2.385-.136a3.633,3.633,0,0,0-.525-1.154c-.03-.045.045-.12.105-.09a2.473,2.473,0,0,1,1.5,1.814.6.6,0,0,1-.555.66c-.271,0-.375-.134-.42-.69l-.03-.225c-.361.106-.72.2-1.08.286v2.94c0,1.635.045,3.119.045,3.569,0,.316-.21.465-.616.465-.33,0-.479-.1-.479-.375s.09-1.215.09-3.059v-3.33c-.42.075-.915.165-1.545.285-.106.344-.18.434-.316.434s-.255-.24-.465-1.41a6.062,6.062,0,0,0,.691.03Zm.75-2.264c0,.359-.21.644-.495.644s-.346-.059-.54-.674a3.976,3.976,0,0,0-1.11-1.665c-.045-.045.03-.135.089-.12a5.3,5.3,0,0,1,1.17.555,18.442,18.442,0,0,0,.691-1.755,7.4,7.4,0,0,0,.255-1.185c1.17.45,1.469.6,1.469.765,0,.135-.12.21-.569.24a14.608,14.608,0,0,1-1.6,2.115A1.39,1.39,0,0,1,318.828,421.76Zm2.085,6.51a5.058,5.058,0,0,0-.6-2.146c-.03-.045.09-.135.135-.09a3.365,3.365,0,0,1,1.455,2.325c0,.451-.224.795-.554.795C321.048,429.154,320.973,429.005,320.913,428.27Zm3.164,2.714c0,.286-.194.451-.659.451-.3,0-.436-.106-.436-.375,0-.375.045-1.021.045-3.255,0-.721,0-1.29-.014-1.8-.42.27-.856.54-1.321.78-.089.045-.24-.149-.149-.21A17.131,17.131,0,0,0,323,425.449c-.015-.3-.029-.6-.06-.9a7.365,7.365,0,0,1,.72.314,18.468,18.468,0,0,0,1.681-1.755h-2.851a5.446,5.446,0,0,0-.9.09l-.165-.585a4.619,4.619,0,0,0,1.064.12h1.62v-2.2h-.929a5.573,5.573,0,0,0-.96.09l-.151-.57a4.8,4.8,0,0,0,1.111.105h.929v-1.08a10.688,10.688,0,0,0-.075-1.5c1.455.165,1.62.3,1.62.465,0,.1-.1.225-.495.4v1.71h.481c.4-.585.569-.675.644-.675s.21.09.7.54a.926.926,0,0,1,.255.3,11.417,11.417,0,0,0,.945-2.205c1.156.525,1.44.675,1.44.885,0,.135-.149.24-.63.27a19.112,19.112,0,0,1-2.265,3.464H328.4c.571-.734.69-.824.81-.824.09,0,.21.09.8.629.255.24.33.346.33.436s-.06.134-.194.134h-3.721a14.963,14.963,0,0,1-2.145,2.01h3.286c.45-.495.54-.555.629-.555s.18.06.645.42c.226.2.285.3.285.39,0,.12-.09.21-.389.4v1.305c0,2.341.075,3.511.075,3.87,0,.3-.241.45-.676.45-.3,0-.435-.12-.435-.375v-.554h-3.615Zm3.615-5.49h-3.615v1.981h3.615Zm-3.615,4.606h3.615v-2.25h-3.615Zm1.561-7.366a17.173,17.173,0,0,0,1.335-1.934,2.586,2.586,0,0,0,.149-.27h-1.965v2.2Z" fill="#fff"/>
        <path id="パス_38123" data-name="パス 38123" d="M336.678,424.52a.191.191,0,0,1,.179.165.656.656,0,0,1-.029.149c-.36,1.2-.645,2.145-.78,2.73a4.552,4.552,0,0,0-.151.96c0,.271.045.765.045.975,0,.3-.165.421-.359.421-.271,0-.465-.165-.69-.705a8.178,8.178,0,0,1-.5-2.836,19.959,19.959,0,0,1,.675-4.409,6.328,6.328,0,0,0,.226-1.23,1.528,1.528,0,0,0-.45-1.065.2.2,0,0,1-.076-.15c0-.06.061-.1.136-.1a1.7,1.7,0,0,1,1.1.795,1.919,1.919,0,0,1,.4,1.035.662.662,0,0,1-.21.495,2.332,2.332,0,0,0-.344.659,12.276,12.276,0,0,0-.75,3.87,5.027,5.027,0,0,0,.105,1.215c.015.075.06.106.1.106s.076-.031.106-.106c.345-.885.7-1.859,1.064-2.79C336.527,424.564,336.6,424.52,336.678,424.52Zm1.71.615c.059-.106.1-.151.179-.151.09,0,.165.045.165.135a5.059,5.059,0,0,0-.149.99,1.694,1.694,0,0,0,.555,1.411,4.167,4.167,0,0,0,2.564.615,7.04,7.04,0,0,0,1.066-.061,4.278,4.278,0,0,0,.554-.12,2.388,2.388,0,0,1,.571-.074,2.2,2.2,0,0,1,.615.12.587.587,0,0,1,.4.51.449.449,0,0,1-.375.45,8.362,8.362,0,0,1-2.085.194,5.481,5.481,0,0,1-3.614-.9,2.293,2.293,0,0,1-.75-1.756A3.356,3.356,0,0,1,338.388,425.135Zm2.46-3.645a10.271,10.271,0,0,0-2.1.659.66.66,0,0,1-.226.076.17.17,0,0,1-.179-.165c0-.105.059-.165.179-.24a7.984,7.984,0,0,1,2.026-.9,8.592,8.592,0,0,1,2.264-.285c1.036,0,1.246.33,1.246.66,0,.375-.21.45-.6.45-.21,0-.614-.045-.854-.045a2.559,2.559,0,0,0-.96.165,5.958,5.958,0,0,0-1.59,1.2.226.226,0,0,1-.181.09.175.175,0,0,1-.149-.134.276.276,0,0,1,.089-.2,12.526,12.526,0,0,1,1.14-1.259C341,421.52,340.982,421.46,340.848,421.49Z" fill="#fff"/>
        <path id="パス_38124" data-name="パス 38124" d="M350.447,425.164c0,3.6.031,5.266.031,5.775,0,.331-.225.51-.661.51-.344,0-.45-.149-.45-.465,0-.3.046-1.38.075-4.9.016-.96.016-1.92.031-2.88a13.7,13.7,0,0,1-1.395,1.9c-.075.076-.256-.06-.2-.15a18.783,18.783,0,0,0,2.175-5.474,11.639,11.639,0,0,0,.285-1.815c1.094.255,1.59.45,1.59.645,0,.15-.09.21-.555.33a18.046,18.046,0,0,1-1.4,3.63c.705.12.871.2.871.36,0,.1-.015.135-.406.33Zm2.056.931c0,.284-.165.4-.511.4-.284,0-.4-.1-.4-.345s.045-.689.045-2.264c0-.915-.016-1.441-.061-2.115a5.214,5.214,0,0,1,1.08.539h1.231v-1.169H352.2a5.387,5.387,0,0,0-.915.09l-.149-.585a3.481,3.481,0,0,0,1.035.12h1.71v-1.29c-.585.075-1.261.135-2.13.195-.091,0-.106-.18-.016-.195a14.127,14.127,0,0,0,3.361-1.02,4.033,4.033,0,0,0,1.005-.66c.794.63,1,.84,1,.99,0,.09-.075.15-.225.15a1.671,1.671,0,0,1-.4-.075,13.075,13.075,0,0,1-1.7.465v1.44h1.351c.465-.6.569-.675.659-.675.105,0,.21.075.721.51.224.195.3.315.3.4s-.044.135-.209.135h-2.821v1.169h1.335c.361-.4.45-.464.54-.464s.2.06.585.375c.21.165.271.269.271.36,0,.119-.091.194-.375.375v.7c0,1.44.029,2.115.029,2.325,0,.285-.165.42-.54.42-.255,0-.375-.09-.375-.314v-.045h-1.47v1.244h1c.436-.555.54-.614.63-.614.105,0,.21.059.676.479.194.165.269.285.269.375s-.045.136-.179.136h-2.4v1.409c.691-.1,1.4-.239,2.115-.39.09-.014.15.165.06.2a21.959,21.959,0,0,1-4.949,1.484c-.106.391-.181.5-.3.5-.181,0-.226-.075-.6-1.484a6.5,6.5,0,0,0,.765,0c.631-.03,1.306-.075,2.011-.165V427.67h-1.606a4.953,4.953,0,0,0-.884.09l-.151-.571a4.011,4.011,0,0,0,1.021.105h1.62V426.05H352.5Zm0-3.406v1.26h1.38v-1.26Zm1.38,2.986v-1.351H352.5v1.351Zm2.369-2.986h-1.47v1.26h1.47Zm0,1.635h-1.47v1.351h1.47Zm4.365-2.624c.45-.5.526-.54.615-.54.105,0,.2.045.661.465.21.225.269.3.269.39s-.059.165-.375.4a39.969,39.969,0,0,1-.479,6.644,3.156,3.156,0,0,1-.766,1.831,1.262,1.262,0,0,1-.885.314c-.224,0-.285-.045-.3-.255-.045-.42-.3-.644-1.214-.915-.09-.029-.09-.239,0-.225a8.093,8.093,0,0,0,1.5.18c.375,0,.494-.33.689-1.215a39.478,39.478,0,0,0,.465-6.7h-1.14a18.738,18.738,0,0,1-.735,5.04,7.656,7.656,0,0,1-3.51,4.17c-.09.061-.239-.12-.165-.194,2.49-2.176,3.255-3.976,3.42-9.016h-.045a4.6,4.6,0,0,0-1.05.106l-.15-.585a6.886,6.886,0,0,0,1.17.105h.091c.014-.72.029-1.485.029-2.34a9.891,9.891,0,0,0-.074-1.485c1.349.18,1.559.255,1.559.45,0,.135-.1.24-.45.375-.015,1.125-.045,2.115-.075,3Z" fill="#fff"/>
        <path id="パス_38125" data-name="パス 38125" d="M371.117,419c.316.33.526.585.526.825a.516.516,0,0,1-.345.48,1.847,1.847,0,0,0-.526.315c-.45.375-1.035.885-1.589,1.409-.691.675-1.425,1.425-1.935,2.01a.567.567,0,0,0-.195.375c0,.136.075.256.255.436.15.134.389.344.66.569a24.316,24.316,0,0,1,3.375,3.211c.54.659.764,1.034.764,1.409,0,.495-.269.75-.585.75-.24,0-.4-.18-.66-.63a19.972,19.972,0,0,0-4.019-4.665,1.41,1.41,0,0,1-.555-.974,1.116,1.116,0,0,1,.345-.826c.42-.509.945-1.094,1.71-1.964.42-.465.9-1.005,1.439-1.65.285-.345.42-.555.42-.75,0-.165-.21-.39-.569-.645-.135-.105-.181-.12-.181-.18,0-.09.165-.165.375-.165A2.178,2.178,0,0,1,371.117,419Z" fill="#fff"/>
        <path id="パス_38126" data-name="パス 38126" d="M379.128,425.135c0,3.585.015,5.234.015,5.745,0,.345-.21.524-.645.524-.315,0-.51-.12-.51-.45,0-.314.06-1.38.074-4.9.016-.976.016-1.95.031-2.926a13.666,13.666,0,0,1-1.935,2.025c-.075.076-.255-.1-.18-.179a14.513,14.513,0,0,0,2.834-5.19,10.4,10.4,0,0,0,.5-2.16c1.08.3,1.679.555,1.679.735,0,.15-.164.255-.569.3a18.117,18.117,0,0,1-1.74,3.629c.764.12.9.181.9.33,0,.12-.075.2-.45.361Zm5.114-3.825a30.291,30.291,0,0,0-.119-3.555c1.529.135,1.739.2,1.739.42,0,.12-.059.18-.524.39v2.745h2.67c.465-.525.54-.585.63-.585s.179.06.689.51c.24.225.285.315.285.405,0,.12-.075.195-.389.42V423.1c0,1.934.059,2.88.059,3.165,0,.33-.224.479-.705.479-.345,0-.465-.12-.465-.4v-.465h-2.759c.014,3.165.06,4.441.06,4.936,0,.359-.24.54-.735.54-.361,0-.526-.136-.526-.436,0-.42.061-1.649.09-5.04h-2.489v.42c0,.33-.21.495-.691.495-.344,0-.464-.135-.464-.434,0-.375.075-1.036.075-3.255,0-1.125-.015-1.68-.075-2.415.525.225.764.36,1.275.63Zm-2.489.375v3.809h2.489v-3.809Zm3.585,3.809h2.774v-3.809h-2.774Z" fill="#fff"/>
        <path id="パス_38127" data-name="パス 38127" d="M394.533,430.954c0,.316-.225.481-.69.481-.33,0-.465-.121-.465-.42,0-.946.075-2.76.075-7.186,0-3.179-.016-4.709-.09-6.119a6.208,6.208,0,0,1,1.275.6h2.985c.45-.51.524-.555.614-.555.106,0,.2.045.676.45.225.2.284.27.284.36,0,.12-.074.21-.4.42v.915c0,1.74.029,2.579.029,2.834,0,.286-.224.42-.644.42-.316,0-.42-.1-.42-.344v-.21h-3.225Zm3.225-12.269h-3.225v1.53h3.225Zm-3.225,3.54h3.225V420.59h-3.225Zm3.329,7.29c0,.344-.179.479-.614.479-.33,0-.465-.12-.465-.39,0-.33.045-.99.045-2.985,0-1.229,0-1.934-.075-2.745a7.725,7.725,0,0,1,1.229.57h3.255c.42-.465.526-.524.616-.524s.2.059.629.434c.241.2.3.286.3.375s-.074.18-.389.375v1.036c0,1.889.03,2.88.03,3.165,0,.33-.2.465-.615.465-.33,0-.435-.121-.435-.361v-.434h-3.511Zm3.511-4.7h-3.511v1.606h3.511Zm-3.511,3.781h3.511v-1.8h-3.511Zm3.676-5.88c0,.3-.2.434-.6.434-.33,0-.464-.1-.464-.375,0-.42.045-1.079.045-3.029a18.537,18.537,0,0,0-.076-2.04,7.734,7.734,0,0,1,1.231.6h3.074c.466-.495.54-.555.631-.555s.194.06.689.465c.241.21.286.285.286.39,0,.12-.045.2-.406.405v3.24c0,7.064.031,7.5.031,7.949a1.074,1.074,0,0,1-.406.87,1.448,1.448,0,0,1-.944.316c-.165,0-.226-.045-.24-.241-.061-.495-.33-.674-1.455-.915-.076-.014-.076-.2,0-.2.884.061,1.214.075,1.695.075.165,0,.225-.059.225-.224V422.6h-3.315Zm3.315-4.035h-3.315v1.53h3.315Zm-3.315,3.54h3.315V420.59h-3.315Z" fill="#fff"/>
        <path id="パス_38128" data-name="パス 38128" d="M414.753,424.864c0-.854-.21-1.215-.75-1.215a2.917,2.917,0,0,0-1.845,1.05,11.788,11.788,0,0,0-1.185,1.5c-.12.165-.315.361-.51.361-.285,0-.5-.181-.5-.6,0-.225.165-.435.465-.734a16.348,16.348,0,0,0,1.455-1.726A19.824,19.824,0,0,0,413,421.73a8.708,8.708,0,0,1-1.29.09,1.811,1.811,0,0,1-1.74-.96.363.363,0,0,1-.06-.195.123.123,0,0,1,.12-.135.292.292,0,0,1,.18.12,1.929,1.929,0,0,0,1.484.495,8.278,8.278,0,0,0,1.7-.24,8.649,8.649,0,0,0,.495-1.275,1.714,1.714,0,0,0,.075-.39c0-.195-.105-.285-.3-.345a3.722,3.722,0,0,0-.615-.12c-.075-.015-.12-.045-.12-.09a.286.286,0,0,1,.12-.165.915.915,0,0,1,.585-.195,2.564,2.564,0,0,1,1.125.345c.359.21.495.4.495.585a.4.4,0,0,1-.165.345,1.4,1.4,0,0,0-.375.4c-.09.15-.255.45-.375.69a6.332,6.332,0,0,0,1.3-.525,1.546,1.546,0,0,1,.764-.255c.33,0,.571.18.571.45s-.21.36-.495.465a25.025,25.025,0,0,1-2.625.75c-.465.779-.93,1.574-1.44,2.294a3.374,3.374,0,0,1,1.8-.72,1.3,1.3,0,0,1,1.38,1.276c.03.179.03.45.045.705,1.2-.691,2.025-1.186,3-1.875a.452.452,0,0,0,.224-.316c0-.075-.059-.134-.179-.21a2,2,0,0,0-.451-.165c-.089-.03-.149-.059-.149-.1,0-.061.1-.151.225-.2a.931.931,0,0,1,.375-.06,2.637,2.637,0,0,1,1.139.375c.45.239.691.494.691.8a.388.388,0,0,1-.391.39,2.023,2.023,0,0,0-.585.165c-.734.314-1.484.66-2.519,1.2-.435.224-.93.524-1.35.75v2.1c0,.42-.165.63-.465.63a.475.475,0,0,1-.511-.54c0-.359.031-.99.061-1.724-1.32.75-2.1,1.335-2.1,2.264,0,.615.54,1.1,1.936,1.1a16.155,16.155,0,0,0,2.1-.106,8.936,8.936,0,0,0,.885-.179,2.463,2.463,0,0,1,.511-.09c.524,0,1.034.3,1.034.659,0,.24-.165.391-.75.481a20.157,20.157,0,0,1-2.835.149c-2.039,0-3.419-.494-3.419-1.92,0-1.305,1.034-2.16,2.64-3.12Z" fill="#fff"/>
        <path id="パス_38129" data-name="パス 38129" d="M429.273,424.3c.975.255,1.185.359,1.185.51s-.135.239-.705.285c-.149.18-.3.345-.465.51h5.955c.585-.661.7-.72.795-.72.105,0,.225.059.87.539.3.24.36.315.36.4,0,.106-.045.151-.2.151h-4.86a7.908,7.908,0,0,0,2.13,1.17,12.652,12.652,0,0,0,3.27.66c.074,0,.06.165-.015.179-.375.09-.465.21-.661.691-.074.194-.134.239-.239.239a2.49,2.49,0,0,1-.6-.149,12.647,12.647,0,0,1-1.53-.646,3.135,3.135,0,0,1-.345.285,7.477,7.477,0,0,1-.51,2.085,1.6,1.6,0,0,1-.645.72,1.792,1.792,0,0,1-.93.24c-.225,0-.3-.059-.329-.24-.076-.375-.316-.54-1.441-.824-.09-.016-.09-.226,0-.21a14.536,14.536,0,0,0,1.8.149.6.6,0,0,0,.645-.42,7,7,0,0,0,.345-1.859h-3.03c-.87,2.159-2.88,3.18-5.73,3.465-.105.014-.165-.2-.059-.226,2.279-.569,3.944-1.694,4.664-3.239h-1.154a6.5,6.5,0,0,0-1.2.1l-.089-.359a13.3,13.3,0,0,1-2.79,1.124c-.106.03-.18-.18-.09-.225a12.228,12.228,0,0,0,3.989-2.714H425a6.913,6.913,0,0,0-1.05.089l-.149-.57a7.085,7.085,0,0,0,1.2.106h3a6.88,6.88,0,0,0,.885-1.3h-1.874v.1c0,.286-.211.435-.615.435-.345,0-.465-.119-.465-.375s.059-.645.059-2.189a13.425,13.425,0,0,0-.09-2.01,5.909,5.909,0,0,1,1.215.555h6.495c.435-.45.51-.495.6-.495s.2.045.63.4c.24.18.285.285.285.375s-.03.165-.39.39v.69c0,1.41.045,2.009.045,2.205,0,.285-.2.449-.645.449-.3,0-.42-.119-.42-.375V424.3Zm3.525-4.875c.015.3.015.48.015.54,0,.315-.209.435-.645.435-.33,0-.45-.09-.45-.345,0-.06.015-.24.03-.63h-2.79c.016.315.03.495.03.555,0,.3-.255.435-.66.435-.33,0-.45-.105-.45-.36,0-.06.016-.24.03-.63h-2.925a6.963,6.963,0,0,0-1.065.09l-.149-.57a5.943,5.943,0,0,0,1.214.105h2.925v-.21a8.181,8.181,0,0,0-.059-1.23c1.5.18,1.619.225,1.619.4,0,.12-.09.21-.525.36v.675h2.8v-.18a9.146,9.146,0,0,0-.075-1.26c1.335.15,1.59.225,1.59.4,0,.12-.09.21-.465.36v.675h2.37c.615-.705.735-.78.825-.78s.21.075.915.585c.33.24.39.33.39.435,0,.09-.045.135-.2.135Zm-3.869,6.555a10.534,10.534,0,0,1-2.085,1.634,7.3,7.3,0,0,0,.989.061h1.32a4.07,4.07,0,0,0,.255-1.306c1.111.12,1.59.21,1.59.45,0,.15-.12.255-.585.345a5.078,5.078,0,0,1-.15.511h2.82l.285-.285a13.182,13.182,0,0,1-1.605-1.41Zm4.784-4.785h-6.7v1.169h6.7Zm-6.7,2.73h6.7v-1.186h-6.7Z" fill="#fff"/>
        <path id="パス_38130" data-name="パス 38130" d="M447.588,427.189a8.008,8.008,0,0,0,2.58,1.651,13.335,13.335,0,0,0,3.765.824c.075,0,.075.165,0,.181-.465.134-.645.33-.855.854-.045.135-.12.181-.21.181a2.385,2.385,0,0,1-.556-.12,10.194,10.194,0,0,1-2.684-1.245,8.006,8.006,0,0,1-2.25-2.116c.045,1.335.105,2.941.105,3.555,0,.375-.21.511-.72.511-.329,0-.45-.106-.45-.4,0-.526.09-2.191.121-3.3a12.216,12.216,0,0,1-6.165,3.255c-.106.029-.18-.2-.076-.226a12.72,12.72,0,0,0,5.385-3.6h-3.93a5.082,5.082,0,0,0-1.019.105l-.136-.585a5.071,5.071,0,0,0,1.141.1h4.724v-.075a9.42,9.42,0,0,0-.045-1.229c1.47.165,1.56.21,1.56.389,0,.121-.06.21-.45.345v.57h4.08c.675-.794.78-.87.87-.87.105,0,.21.076.9.646.3.269.361.374.361.465s-.045.134-.2.134Zm-4.125-1.889c0,.345-.21.494-.645.494-.375,0-.48-.105-.48-.435,0-.42.06-1.08.075-3.7V420.8a9.763,9.763,0,0,1-1.979,1.335c-.076.045-.21-.12-.135-.18a11.949,11.949,0,0,0,2.474-2.91,6.334,6.334,0,0,0,.661-1.53c1.154.36,1.574.57,1.574.735s-.135.24-.645.315a11.07,11.07,0,0,1-.705.96h3.151a5.586,5.586,0,0,0,.434-.915,9.549,9.549,0,0,0,.255-1.05c1.231.39,1.56.54,1.56.72s-.18.27-.69.3a8.531,8.531,0,0,1-1.019.945H450.9c.6-.72.675-.78.795-.78s.21.06.84.6c.285.225.33.315.33.42,0,.09-.06.135-.21.135h-4.95v1.3h2.67c.525-.66.63-.72.735-.72.09,0,.2.06.81.54.255.225.33.33.33.42s-.045.135-.195.135h-4.35v1.364h2.67c.555-.644.66-.719.75-.719.105,0,.21.075.809.54.256.224.331.314.331.4s-.045.149-.2.149h-4.365V424.8h3.33c.63-.721.735-.795.825-.795s.21.059.87.585c.3.239.36.344.36.434,0,.106-.045.151-.2.151h-9.434Zm3.181-4.1v-1.3h-3.181v1.3Zm0,1.739V421.58h-3.181v1.364Zm0,1.861v-1.486h-3.181V424.8Z" fill="#fff"/>
        <path id="パス_38131" data-name="パス 38131" d="M462.889,421.145a27.686,27.686,0,0,0-.12-3.42c1.6.15,1.754.2,1.754.42,0,.135-.044.2-.51.4v2.6H467.9c.495-.57.585-.63.675-.63.105,0,.21.045.75.525.255.225.3.315.3.4,0,.12-.075.21-.465.45v1.065c0,2.039.045,3,.045,3.3,0,.33-.24.479-.705.479-.33,0-.465-.1-.465-.4v-.54h-4c.015,3.3.06,4.5.06,5.011,0,.375-.239.554-.75.554-.39,0-.54-.15-.54-.434,0-.42.06-1.771.075-5.131h-3.81v.631c0,.314-.225.479-.7.479-.33,0-.464-.12-.464-.42,0-.42.059-1.32.059-3.464,0-1.2-.015-1.8-.075-2.58a10.1,10.1,0,0,1,1.335.7Zm-3.826.375v3.9h3.826v-3.9Zm4.95,3.9h4.02v-3.9h-4.02Z" fill="#fff"/>
      </g>
    </g>
    <g id="グループ_32211" data-name="グループ 32211">
      <g id="グループ_32205" data-name="グループ 32205" transform="translate(699 -62)">
        <g id="長方形_1663" data-name="長方形 1663" transform="translate(428 187)" fill="none" stroke="#f4d685" stroke-width="1">
          <rect width="28" height="28" rx="14" stroke="none"/>
          <rect x="-0.5" y="-0.5" width="29" height="29" rx="14.5" fill="none"/>
        </g>
        <g id="グループ_32200" data-name="グループ 32200" transform="translate(-9)">
          <g id="グループ_32199" data-name="グループ 32199" transform="translate(47.274 2.589)">
            <path id="パス_38108" data-name="パス 38108" d="M278.464,178.3l3.245,3.245-3.245,3.245" transform="translate(125.52 17.204)" fill="none" stroke="#fff" stroke-linecap="round" stroke-width="1"/>
            <line id="線_92" data-name="線 92" x1="7.083" transform="translate(399.5 198.72)" fill="none" stroke="#fff" stroke-linecap="round" stroke-width="1"/>
          </g>
        </g>
      </g>
      <g id="グループ_32210" data-name="グループ 32210" transform="translate(764.202 -817.421)">
        <path id="パス_38132" data-name="パス 38132" d="M200.255,939.461v6.745H183.369v6.988h15.189v6.454H183.369v7.036h17.42v6.7H175.8v-33.92Z" fill="#fff"/>
        <path id="パス_38133" data-name="パス 38133" d="M227.288,939.461h7.57v33.92h-7.57l-16.159-21.255v21.255h-7.57v-33.92h7.085L227.288,961.3Z" transform="translate(5.918)" fill="#fff"/>
        <path id="パス_38134" data-name="パス 38134" d="M252.7,946.012v27.369h-7.57V946.012h-9.607v-6.551H262.3v6.551Z" transform="translate(12.73)" fill="#fff"/>
        <path id="パス_38135" data-name="パス 38135" d="M291.272,950.719q0,8.152-6.455,10.53l8.589,12.132H284.09l-7.523-10.822h-5.24v10.822h-7.571v-33.92h12.86q7.911,0,11.283,2.669T291.272,950.719Zm-9.123,4.028a5.129,5.129,0,0,0,1.406-4q0-2.741-1.456-3.761t-5.1-1.019h-5.676v10.045h5.532Q280.739,956.009,282.149,954.747Z" transform="translate(18.75)" fill="#fff"/>
        <path id="パス_38136" data-name="パス 38136" d="M309.15,973.381h-7.569V959.988l-11.745-20.527h8.2l7.328,12.617,7.328-12.617h8.2L309.15,959.988Z" transform="translate(24.309)" fill="#fff"/>
      </g>
    </g>
  </g>
</svg>
