<svg xmlns="http://www.w3.org/2000/svg" width="457.564" height="93.614" viewBox="0 0 457.564 93.614">
  <g id="グループ_32209" data-name="グループ 32209" transform="translate(-163 -81)">
    <g id="グループ_32060" data-name="グループ 32060" transform="translate(-17.83 -3702)">
      <path id="パス_37905" data-name="パス 37905" d="M230.231,439.075a12.3,12.3,0,0,1-6.9-1.746,10.666,10.666,0,0,1-3.945-4.77,14.718,14.718,0,0,1-1.31-5.868,23.632,23.632,0,0,1,3.3-11.657,25.87,25.87,0,0,1,8.908-9.393,20.733,20.733,0,0,1,11.074-3.524,12.322,12.322,0,0,1,6.079,1.6,11.3,11.3,0,0,1,4.478,4.494,11.949,11.949,0,0,1,1.6,5.836,24.611,24.611,0,0,1-4.187,13.225,27.342,27.342,0,0,1-9.425,9.571A19.376,19.376,0,0,1,230.231,439.075Zm10.282-34.825a7.565,7.565,0,0,0-3.507.744A11.122,11.122,0,0,0,234,407.467a22.273,22.273,0,0,0-3.185,4.98,45.252,45.252,0,0,0-3.023,8.811,39.268,39.268,0,0,0-1.406,9.313,7.213,7.213,0,0,0,1.374,4.785,4.432,4.432,0,0,0,3.541,1.617,6.843,6.843,0,0,0,4.849-1.875q3.978-3.783,6.5-11.091a40.476,40.476,0,0,0,2.522-13q0-3.556-1.342-5.156A4.162,4.162,0,0,0,240.513,404.249Z" transform="translate(124.757 3419.256)" fill="#fff"/>
      <path id="パス_37906" data-name="パス 37906" d="M264.04,420.923l-3.1,10.7a13.108,13.108,0,0,0-.679,3.33,1.894,1.894,0,0,0,.808,1.6,6.429,6.429,0,0,0,3.363.63l-.388.97H247.064l.291-.97a5.776,5.776,0,0,0,3.735-.987q1.18-.985,2.182-4.414l6.565-22.666a11.279,11.279,0,0,0,.55-2.975,1.919,1.919,0,0,0-.679-1.584,6.531,6.531,0,0,0-3.137-.744l.258-.97h14.615q6.273,0,8.827,2.2a7.092,7.092,0,0,1,2.555,5.627,8.943,8.943,0,0,1-2.976,6.531q-1.874,1.811-6.628,3.137l3.169,10.7q1.26,4.3,2.215,5.189a4.822,4.822,0,0,0,3.184.954v.97H270.8l-5.012-17.235-.84.065Q264.654,420.988,264.04,420.923Zm.388-1.552c.6.021,1.11.032,1.52.032a8.2,8.2,0,0,0,6.257-2.6,9.551,9.551,0,0,0,2.441-6.806,5.147,5.147,0,0,0-1.31-3.8,4.655,4.655,0,0,0-3.443-1.309c-.344,0-.744.011-1.2.032Z" transform="translate(127.763 3419.332)" fill="#fff"/>
      <path id="パス_37907" data-name="パス 37907" d="M278.057,438.158l.323-.97a6.073,6.073,0,0,0,3.864-1.051,7.939,7.939,0,0,0,2.182-3.929l6.4-22.279a13.687,13.687,0,0,0,.615-3.589,2.09,2.09,0,0,0-.728-1.761q-.727-.566-3.7-.76l.291-.97H299.4q9.536,0,13.774,3.881t4.236,10.831a15.955,15.955,0,0,1-1.972,8.245,24.519,24.519,0,0,1-9.07,9.442q-5.256,2.91-13.5,2.91Zm22.051-33.208-7.76,26.741a11.066,11.066,0,0,0-.55,2.652,1.417,1.417,0,0,0,.614,1.2,3.866,3.866,0,0,0,2.329.582,10.193,10.193,0,0,0,6.531-2.3,18.341,18.341,0,0,0,5.658-7.906,26.9,26.9,0,0,0,1.94-9.846,15.8,15.8,0,0,0-1.116-6.193,8.108,8.108,0,0,0-3.477-3.993A8.355,8.355,0,0,0,300.108,404.949Z" transform="translate(130.976 3419.332)" fill="#fff"/>
      <path id="パス_37908" data-name="パス 37908" d="M328.187,414.112l-5.335,18.5a10.569,10.569,0,0,0-.42,2.1.787.787,0,0,0,.226.518.645.645,0,0,0,.484.259,1.281,1.281,0,0,0,.873-.389,15.265,15.265,0,0,0,2.813-3.492l.906.518q-3.947,6.854-8.375,6.855a3.728,3.728,0,0,1-2.684-.955,3.183,3.183,0,0,1-1-2.408,8.787,8.787,0,0,1,.452-2.458l3.621-12.449a10.631,10.631,0,0,0,.518-2.683,1.363,1.363,0,0,0-.5-1.035,1.931,1.931,0,0,0-1.342-.453c-.28,0-.594.011-.938.032l.323-1.034,8.827-1.423Zm-1.617-12a3.689,3.689,0,0,1,2.732,1.131,3.732,3.732,0,0,1,1.116,2.716,3.651,3.651,0,0,1-1.131,2.7,3.735,3.735,0,0,1-2.716,1.116,3.81,3.81,0,0,1-3.783-3.815,3.76,3.76,0,0,1,1.1-2.716A3.6,3.6,0,0,1,326.57,402.116Z" transform="translate(134.876 3419.256)" fill="#fff"/>
      <path id="パス_37909" data-name="パス 37909" d="M349.012,414.569h6.92l-.841,2.846H351.5a6.2,6.2,0,0,1,.841,2.942,7.908,7.908,0,0,1-1.294,4.365,8.991,8.991,0,0,1-3.8,3.2,12.8,12.8,0,0,1-5.578,1.2,15.958,15.958,0,0,1-1.794-.113c-.659-.075-1.363-.189-2.118-.34a8.651,8.651,0,0,0-2.167,1.423,1.1,1.1,0,0,0-.323.744,1.072,1.072,0,0,0,.389.809,4.565,4.565,0,0,0,2,.873,53.554,53.554,0,0,1,7.017,1.843,8.419,8.419,0,0,1,3.507,2.489,5.78,5.78,0,0,1,1.181,3.654,7.189,7.189,0,0,1-2.991,5.675q-2.991,2.44-9.264,2.441-6.337,0-9.345-2.1a4.309,4.309,0,0,1-2.133-3.589,4.052,4.052,0,0,1,1.406-2.942q1.407-1.358,6.1-2.393A6.228,6.228,0,0,1,331,435.974a3.214,3.214,0,0,1-.776-2.036,4.122,4.122,0,0,1,1.391-3.071,15.191,15.191,0,0,1,4.688-2.652,7.87,7.87,0,0,1-3.686-2.6,6.294,6.294,0,0,1-1.132-3.735,7.629,7.629,0,0,1,1.359-4.3,9.742,9.742,0,0,1,4.025-3.314A14.033,14.033,0,0,1,343,412.985a14.525,14.525,0,0,1,3.945.485A7.544,7.544,0,0,1,349.012,414.569Zm-14.421,23.637a8.087,8.087,0,0,0-3.379,2.086,3.78,3.78,0,0,0-.888,2.408,3.88,3.88,0,0,0,1.778,3.056q1.776,1.374,5.691,1.374a7.451,7.451,0,0,0,4.688-1.18,3.484,3.484,0,0,0,1.456-2.765,2.677,2.677,0,0,0-1.342-2.312,18.352,18.352,0,0,0-5.125-1.827Q335.69,438.562,334.591,438.206Zm8.956-23.961a2.96,2.96,0,0,0-2.133.841,10.112,10.112,0,0,0-2.474,4.268,17.215,17.215,0,0,0-1.051,5.66,2.747,2.747,0,0,0,.744,2.036,2.5,2.5,0,0,0,1.843.744,2.57,2.57,0,0,0,1.843-.744,11.476,11.476,0,0,0,2.57-4.559,17.61,17.61,0,0,0,1.083-5.69,2.524,2.524,0,0,0-.694-1.843A2.323,2.323,0,0,0,343.548,414.245Z" transform="translate(135.908 3420.382)" fill="#fff"/>
    </g>
    <g id="グループ_32201" data-name="グループ 32201" transform="translate(68 -60)">
      <g id="長方形_1663" data-name="長方形 1663" transform="translate(428 187)" fill="none" stroke="#99b260" stroke-width="1">
        <rect width="28" height="28" rx="14" stroke="none"/>
        <rect x="-0.5" y="-0.5" width="29" height="29" rx="14.5" fill="none"/>
      </g>
      <g id="グループ_32200" data-name="グループ 32200" transform="translate(-9)">
        <g id="グループ_32199" data-name="グループ 32199" transform="translate(47.274 2.589)">
          <path id="パス_38108" data-name="パス 38108" d="M278.464,178.3l3.245,3.245-3.245,3.245" transform="translate(125.52 17.204)" fill="none" stroke="#fff" stroke-linecap="round" stroke-width="1"/>
          <line id="線_92" data-name="線 92" x1="7.083" transform="translate(399.5 198.72)" fill="none" stroke="#fff" stroke-linecap="round" stroke-width="1"/>
        </g>
      </g>
    </g>
    <g id="グループ_32204" data-name="グループ 32204" transform="translate(60.785 -212.275)">
      <path id="パス_38115" data-name="パス 38115" d="M311.622,379.789a1.07,1.07,0,0,1,.36-.108,2.914,2.914,0,0,1,.972.192.572.572,0,0,1,.384.444.352.352,0,0,1-.349.384h-.107c-.564-.048-1.247-.084-2.028-.084-.347,0-.647.012-1.283.036,0,.539.013,1.175.025,1.571.023,1.379.059,2.47.084,3.274a.961.961,0,0,1-.252.815,1.67,1.67,0,0,1-.924.384c-.216,0-.287-.011-.312-.143a.79.79,0,0,0-.288-.564,4.028,4.028,0,0,0-.935-.444c-.132-.048-.156-.084-.156-.168,0-.06.06-.084.156-.084.048,0,.1.012.216.024a8.977,8.977,0,0,0,1.235.12c.2,0,.24-.084.24-.276,0-1.571-.012-2.566-.036-3.706a12.769,12.769,0,0,1-2.255,2.4,11.443,11.443,0,0,1-2.77,1.763.8.8,0,0,1-.276.084c-.084,0-.108-.084-.108-.144s.06-.12.18-.2a15.826,15.826,0,0,0,2.459-2.1,17.667,17.667,0,0,0,1.991-2.494c-.876.108-1.547.239-2.039.347a1.968,1.968,0,0,0-.66.228.576.576,0,0,1-.4.12c-.191,0-.455-.167-.815-.563a1.186,1.186,0,0,1-.384-.708c0-.132.072-.276.156-.276.048,0,.1.036.155.1a1.414,1.414,0,0,0,.984.432c.133,0,.324-.012.612-.036.707-.072,1.607-.168,3.143-.3,0-1.247-.013-1.571-.025-1.751-.024-.312-.059-.4-.192-.468a2.1,2.1,0,0,0-.564-.192c-.12-.023-.155-.023-.155-.107,0-.061.084-.145.18-.205a.747.747,0,0,1,.467-.119,3.13,3.13,0,0,1,1.091.227c.325.144.481.288.481.492a.8.8,0,0,1-.181.42c-.048.072-.1.168-.132.6-.011.239-.023.564-.023,1.043.575-.048.972-.072,1.6-.132A.975.975,0,0,0,311.622,379.789Z" fill="#fff"/>
      <path id="パス_38116" data-name="パス 38116" d="M324.63,382.452c-.372,0-1.188-.06-1.776-.06-.947,0-3.009.048-4.485.18a3.415,3.415,0,0,0-1.187.227.521.521,0,0,1-.324.1c-.312,0-.587-.289-.96-.828a.978.978,0,0,1-.227-.648c0-.191.072-.288.143-.288.037,0,.1.049.157.108a1.184,1.184,0,0,0,1.008.456c.323,0,.551-.012,1.258-.06,1.488-.1,3.071-.168,4.246-.192a2.29,2.29,0,0,0,.936-.168.79.79,0,0,1,.335-.1,1.376,1.376,0,0,1,.54.119c.456.192.768.372.768.672A.456.456,0,0,1,324.63,382.452Z" fill="#fff"/>
      <path id="パス_38117" data-name="パス 38117" d="M332.288,380.4c1.224-.1,1.655-.12,2.267-.192a2.128,2.128,0,0,0,.456-.132,1.259,1.259,0,0,1,.443-.108,2.394,2.394,0,0,1,1.14.324.524.524,0,0,1,.263.468.338.338,0,0,1-.275.36,3.659,3.659,0,0,1-.731-.049,12.583,12.583,0,0,0-1.488-.084c-.408,0-1.079,0-1.619.036.384.265.552.5.552.672a.364.364,0,0,1-.061.192,2.24,2.24,0,0,0-.239.54,7.94,7.94,0,0,1-1.308,2.363,7.331,7.331,0,0,1-2.446,2.026.507.507,0,0,1-.2.072c-.084,0-.12-.035-.12-.119,0-.061.1-.145.3-.325a10.047,10.047,0,0,0,1.763-2.206,9.1,9.1,0,0,0,.887-2.123,3.758,3.758,0,0,0,.109-.636.566.566,0,0,0-.132-.408c-.852.084-1.74.192-2.291.3a1.481,1.481,0,0,0-.564.2.555.555,0,0,1-.36.108c-.216,0-.432-.12-.8-.539a1.073,1.073,0,0,1-.312-.66c0-.18.06-.288.131-.288s.109.072.181.132a1.274,1.274,0,0,0,.816.384c.287,0,.707-.036,1.054-.072C330.514,380.557,331.209,380.485,332.288,380.4Zm.768-2.543a1.313,1.313,0,0,0,.36-.131,1.482,1.482,0,0,1,.455-.133,2.191,2.191,0,0,1,1.032.24.4.4,0,0,1,.192.36.4.4,0,0,1-.444.42c-.264.012-.576.012-.96.048-.731.06-1.978.156-2.65.216-.228.024-.456.048-.624.048a1.025,1.025,0,0,1-.959-.432.849.849,0,0,1-.276-.636c0-.108.024-.18.084-.18.036,0,.072.049.156.108a1.285,1.285,0,0,0,.959.372,12.319,12.319,0,0,0,1.3-.1C332.2,378,332.672,377.942,333.056,377.858Zm3.394-.372a.9.9,0,0,1,.444.72.4.4,0,0,1-.4.42.43.43,0,0,1-.408-.276,4.517,4.517,0,0,0-.755-1.056c-.048-.047-.132-.107-.132-.155,0-.072.06-.084.144-.084a1.042,1.042,0,0,1,.275.048A2.191,2.191,0,0,1,336.45,377.486Zm1.1-.827a.729.729,0,0,1,.431.612.4.4,0,0,1-.372.443.458.458,0,0,1-.443-.263,3.045,3.045,0,0,0-.84-.936c-.048-.036-.143-.1-.143-.144a.094.094,0,0,1,.1-.1,1.656,1.656,0,0,1,.312.036A2.817,2.817,0,0,1,337.554,376.659Z" fill="#fff"/>
      <path id="パス_38118" data-name="パス 38118" d="M340.8,384.586a.467.467,0,0,1-.2.084.112.112,0,0,1-.12-.119c0-.049.059-.12.168-.192a20.372,20.372,0,0,0,2.95-2.855,8.557,8.557,0,0,0,1.079-1.487.832.832,0,0,0,.144-.4c0-.084-.12-.2-.3-.311-.1-.06-.193-.084-.193-.157,0-.132.18-.192.408-.192a2.506,2.506,0,0,1,1.08.384c.251.156.456.336.456.516,0,.144-.1.264-.313.336a.338.338,0,0,0-.2.132c-.517.564-.984,1.067-1.332,1.427.36.252.588.456.588.636a.4.4,0,0,1-.036.18,5.915,5.915,0,0,0-.024.743v1.248c.012.851.012,1.367.012,1.643,0,.431-.192.564-.408.564a.51.51,0,0,1-.432-.228,1.138,1.138,0,0,1-.191-.648.83.83,0,0,1,.048-.216,2.54,2.54,0,0,0,.072-.636c.012-.275.023-.516.023-.971,0-.336.012-1,.012-1.3a1.323,1.323,0,0,0-.071-.611A12.7,12.7,0,0,1,340.8,384.586Z" fill="#fff"/>
      <path id="パス_38119" data-name="パス 38119" d="M359.719,379.765a.429.429,0,0,1-.313.408c-.191.084-.252.216-.371.408a20.711,20.711,0,0,1-2.77,3.6,10.5,10.5,0,0,1-3.886,2.614.8.8,0,0,1-.276.072c-.073,0-.121-.024-.121-.108s.061-.12.205-.215a15.146,15.146,0,0,0,3.5-3.071,16.384,16.384,0,0,0,2.364-3.622.41.41,0,0,0,.035-.12.055.055,0,0,0-.06-.048c-.288.036-.683.132-1.211.228a4.9,4.9,0,0,1-.648.12,1.93,1.93,0,0,1-.659-.2,13.459,13.459,0,0,1-1.428,1.607,11.338,11.338,0,0,1-1.738,1.332.926.926,0,0,1-.384.179c-.108,0-.145-.047-.145-.131s.168-.216.457-.5a16.854,16.854,0,0,0,1.487-1.739c.336-.444.659-.923.971-1.427a2.456,2.456,0,0,0,.4-.924c0-.2-.2-.348-.432-.468-.108-.06-.144-.1-.144-.144s.156-.191.4-.191a2.52,2.52,0,0,1,1.175.431c.372.228.444.384.444.564a.534.534,0,0,1-.263.372,2.338,2.338,0,0,0-.492.6.73.73,0,0,0,.179.013,8.538,8.538,0,0,0,.936-.132c.492-.084.8-.157.96-.193a.5.5,0,0,0,.252-.143.49.49,0,0,1,.311-.168c.288,0,.552.144.972.528A.769.769,0,0,1,359.719,379.765Zm.611-1.631a.9.9,0,0,1,.443.72.4.4,0,0,1-.4.419.429.429,0,0,1-.407-.275,4.521,4.521,0,0,0-.756-1.056c-.048-.048-.132-.108-.132-.156,0-.072.06-.084.144-.084a1.051,1.051,0,0,1,.276.048A2.194,2.194,0,0,1,360.33,378.134Zm1.1-.827a.728.728,0,0,1,.431.611.4.4,0,0,1-.372.444.458.458,0,0,1-.443-.264,3.041,3.041,0,0,0-.84-.935c-.048-.037-.144-.1-.144-.144a.1.1,0,0,1,.1-.1,1.656,1.656,0,0,1,.312.036A2.781,2.781,0,0,1,361.434,377.307Z" fill="#fff"/>
    </g>
    <g id="グループ_32206" data-name="グループ 32206">
      <g id="グループ_32203" data-name="グループ 32203">
        <g id="グループ_32202" data-name="グループ 32202" transform="translate(87.449 -259.539)">
          <path id="パス_38109" data-name="パス 38109" d="M454.5,347.8h-.885a3.805,3.805,0,0,0-.87.09l-.15-.57a4.807,4.807,0,0,0,1.006.105h.9v-.645a20.161,20.161,0,0,0-.09-2.864c1.485.179,1.65.254,1.65.419,0,.135-.09.226-.495.4v2.685h.3c.4-.63.525-.705.63-.705.09,0,.18.075.66.555.18.165.24.286.24.375,0,.1-.045.15-.2.15h-1.635v2.985c.6-.195,1.17-.42,1.65-.63.075-.03.18.135.105.195a17.955,17.955,0,0,1-1.755,1.1c0,3.78.03,4.335.03,4.935a1.237,1.237,0,0,1-.375.96,1.35,1.35,0,0,1-.915.315c-.119,0-.2-.105-.21-.27-.03-.45-.24-.63-1.32-.87-.075-.015-.075-.2,0-.2.78.045,1.185.06,1.47.06.2,0,.255-.045.255-.24V352c-.33.15-.66.3-1.005.45-.059.4-.135.54-.3.54s-.225-.09-.645-1.44c.255-.03.615-.105,1.035-.2.3-.075.6-.15.915-.24Zm7.29,4.14a6.551,6.551,0,0,0,1.755,2.07,7.78,7.78,0,0,0,2.955,1.35c.074.015.06.15-.016.18-.359.12-.524.36-.674.855-.045.09-.105.165-.18.165a1.139,1.139,0,0,1-.585-.225,7.677,7.677,0,0,1-1.845-1.545,10.5,10.5,0,0,1-1.62-2.73c.06,2.6.105,4.68.105,5.1,0,.33-.2.51-.645.51-.391,0-.51-.15-.51-.435,0-.315.074-2.13.119-4.2a9.927,9.927,0,0,1-4.514,3.51c-.1.045-.24-.15-.15-.21a11.792,11.792,0,0,0,4.14-4.4h-2.355a4.929,4.929,0,0,0-.9.09l-.15-.585a4.512,4.512,0,0,0,1.05.12h2.82v-.18a14.682,14.682,0,0,0-.045-1.56c1.365.135,1.515.21,1.515.36,0,.12-.09.21-.42.345v1.035h2.58c.585-.735.7-.81.795-.81.105,0,.224.075.855.585.284.255.359.36.359.45,0,.105-.044.15-.2.15ZM457.276,346a24.132,24.132,0,0,0,5.445-1.44,6.229,6.229,0,0,0,1.455-.766c.929.706,1.139.915,1.139,1.065,0,.09-.044.165-.254.165a1.967,1.967,0,0,1-.5-.075,23.5,23.5,0,0,1-7.274,1.26C457.2,346.208,457.186,346.013,457.276,346Zm.93,3.119a3.78,3.78,0,0,0-.735-2.055c-.03-.044.045-.12.1-.09,1.08.526,1.71,1.29,1.71,1.965,0,.45-.21.72-.63.72C458.4,349.658,458.266,349.479,458.206,349.118Zm2.745-.33a3.877,3.877,0,0,0-.66-2.13c-.03-.045.045-.119.105-.09a2.57,2.57,0,0,1,1.665,2.04c0,.435-.21.72-.645.72C461.131,349.328,460.98,349.133,460.951,348.788Zm1.845,1.23a15.47,15.47,0,0,0,1.335-2.624,9.546,9.546,0,0,0,.375-1.261c1.394.6,1.455.645,1.455.84,0,.151-.09.225-.57.27a13.7,13.7,0,0,1-2.43,2.91C462.886,350.213,462.751,350.093,462.8,350.018Z" fill="#fff"/>
          <path id="パス_38110" data-name="パス 38110" d="M470.926,351.953a12.922,12.922,0,0,1-.36,2.04,6.592,6.592,0,0,1-2.129,3.495c-.076.075-.271-.015-.21-.105a10.068,10.068,0,0,0,1.394-3.555,29,29,0,0,0,.316-5.34c0-2.61-.031-3.315-.106-4.155a6.69,6.69,0,0,1,1.38.69h8.234c.54-.524.616-.585.721-.585s.18.061.689.5c.226.179.286.27.286.359,0,.121-.06.2-.42.436V348.7c0,6.135.059,6.63.059,7.335a1.061,1.061,0,0,1-.554,1.1,1.6,1.6,0,0,1-.871.27c-.209,0-.269-.09-.3-.315-.076-.51-.39-.66-1.62-.9-.105-.015-.105-.24,0-.24.9.06,1.395.09,1.89.09a.247.247,0,0,0,.284-.285v-3.795h-3.795c.016,2.28.046,3.99.046,4.59,0,.36-.211.495-.7.495-.39,0-.525-.12-.525-.465,0-.21.059-1.035.059-3.18v-1.44Zm.15-3.36c0,.99-.045,2-.12,2.985h3.734v-2.985Zm0-3.195v2.82h3.614V345.4Zm4.739,2.82h3.795V345.4h-3.795Zm3.795.375h-3.795v2.985h3.795Z" fill="#fff"/>
          <path id="パス_38111" data-name="パス 38111" d="M491.37,347.093a2.5,2.5,0,0,0,.181-.81.612.612,0,0,0-.3-.48,2.707,2.707,0,0,0-.585-.329.126.126,0,0,1-.091-.165c.016-.091.375-.2.6-.2a2.452,2.452,0,0,1,1.274.526c.391.255.721.539.721.884a.524.524,0,0,1-.316.45,1.253,1.253,0,0,0-.45.615c-.434.915-.825,1.68-1.41,2.685a8.291,8.291,0,0,1,1.29,1.215,1.673,1.673,0,0,1,.495,1.065.533.533,0,0,1-.524.57c-.21,0-.391-.12-.6-.435a8.466,8.466,0,0,0-1.229-1.5,17.175,17.175,0,0,1-2.851,3.2,14.336,14.336,0,0,1-3.074,2.04,1.159,1.159,0,0,1-.42.15.2.2,0,0,1-.181-.2c0-.09.046-.165.181-.255a18.678,18.678,0,0,0,3.09-2.52,20.613,20.613,0,0,0,2.489-3.105,13.332,13.332,0,0,0-2.43-1.575c-.12-.06-.149-.12-.149-.21,0-.12.105-.194.239-.194a1.925,1.925,0,0,1,.375.074,11.8,11.8,0,0,1,2.431,1.11A23.4,23.4,0,0,0,491.37,347.093Z" fill="#fff"/>
          <path id="パス_38112" data-name="パス 38112" d="M500.131,350.183a3.234,3.234,0,0,0-1.08.315.674.674,0,0,1-.36.09,1.6,1.6,0,0,1-.945-.585,1.216,1.216,0,0,1-.45-.795c0-.18.06-.3.135-.3.046,0,.12.06.256.165a1.614,1.614,0,0,0,1,.465c.27,0,.54-.03.871-.059,1.154-.136,2.129-.241,3.509-.346,1.125-.075,2.145-.15,3.195-.255a1.693,1.693,0,0,0,.54-.135,1.253,1.253,0,0,1,.48-.119,2.557,2.557,0,0,1,1.185.359.553.553,0,0,1,.315.48.331.331,0,0,1-.346.345,9,9,0,0,1-.96-.06,15.684,15.684,0,0,0-1.679-.03c-.645,0-1.5.03-2.19.075.375.21.69.48.69.7a.435.435,0,0,1-.09.24,1.4,1.4,0,0,0-.21.45,9.287,9.287,0,0,1-1.56,3.165,9.623,9.623,0,0,1-2.955,2.7.431.431,0,0,1-.225.075.191.191,0,0,1-.21-.18c0-.09.045-.18.225-.33a12.307,12.307,0,0,0,2.4-2.805,9.789,9.789,0,0,0,1.215-2.85,2.576,2.576,0,0,0,.105-.615.667.667,0,0,0-.2-.495A24.956,24.956,0,0,0,500.131,350.183Zm6.18-4.289a.476.476,0,0,1,.27.48c0,.179-.165.344-.465.359s-.585.016-.975.06c-1.05.09-2.325.2-3.36.285-.3.03-.855.075-1.005.075a1.276,1.276,0,0,1-.945-.435,1.093,1.093,0,0,1-.42-.78c0-.12.03-.194.09-.194s.12.045.21.134a1.577,1.577,0,0,0,1.215.451,15.01,15.01,0,0,0,1.515-.091,17.114,17.114,0,0,0,1.725-.239,4.618,4.618,0,0,0,.75-.181,1.912,1.912,0,0,1,.555-.165A1.8,1.8,0,0,1,506.311,345.894Zm.75-1.29a3.354,3.354,0,0,1,1.3.75c.361.314.571.584.571.9a.418.418,0,0,1-.42.451c-.2,0-.361-.136-.495-.406a5.221,5.221,0,0,0-1.26-1.44.232.232,0,0,1-.1-.15.153.153,0,0,1,.164-.149A.82.82,0,0,1,507.061,344.6Zm1.3-1.005a3.507,3.507,0,0,1,1.2.585c.361.254.691.6.691.944a.426.426,0,0,1-.4.48c-.2,0-.316-.075-.48-.359a4.58,4.58,0,0,0-1.381-1.411.179.179,0,0,1-.1-.15.149.149,0,0,1,.15-.149A1.869,1.869,0,0,1,508.365,343.6Z" fill="#fff"/>
          <path id="パス_38113" data-name="パス 38113" d="M516.181,351.518a.979.979,0,0,1-.045.2,4.617,4.617,0,0,0-.031.765c0,.48-.014,1.14,0,1.86.015.825.015,1.545.015,2.16,0,.33-.149.525-.359.525a.547.547,0,0,1-.465-.3,1.714,1.714,0,0,1-.255-.735,1.252,1.252,0,0,1,.09-.375,1.752,1.752,0,0,0,.075-.57c.029-.42.029-.9.045-1.545,0-.615.015-1.29.015-1.86,0-.27-.015-.36-.076-.45a18.07,18.07,0,0,1-3.974,3.165.779.779,0,0,1-.3.12.257.257,0,0,1-.21-.195c0-.075.06-.165.18-.255a26.816,26.816,0,0,0,3.434-3.135,16.574,16.574,0,0,0,1.71-2.145.831.831,0,0,0,.2-.465c0-.12-.151-.27-.375-.42-.165-.12-.286-.194-.286-.27s.135-.165.391-.165a2.346,2.346,0,0,1,1.185.451c.3.194.525.419.525.629a.334.334,0,0,1-.256.345.893.893,0,0,0-.345.256c-.479.584-.945,1.094-1.484,1.679C515.985,351.1,516.181,351.323,516.181,351.518Z" fill="#fff"/>
          <path id="パス_38114" data-name="パス 38114" d="M527.386,353.093a7.958,7.958,0,0,1-3.3,3.585,1.038,1.038,0,0,1-.45.165.177.177,0,0,1-.165-.165c0-.09.06-.165.21-.285a8.839,8.839,0,0,0,2.865-3.735,9.938,9.938,0,0,0,.75-3.54.918.918,0,0,0-.12-.585,1.245,1.245,0,0,0-.705-.195c-.09,0-.15,0-.15-.089s.105-.2.24-.286a1.006,1.006,0,0,1,.525-.12,3.166,3.166,0,0,1,1.17.2c.224.09.315.211.315.4a.985.985,0,0,1-.075.255,2.3,2.3,0,0,0-.075.45,17.65,17.65,0,0,0,2.82-2.37.192.192,0,0,0,.074-.165c0-.045-.059-.06-.179-.06-.435.03-1.8.12-2.986.256-1.034.105-2.114.254-3.059.42a4.58,4.58,0,0,0-1.215.3.718.718,0,0,1-.45.165,1.687,1.687,0,0,1-1.02-.69,1.285,1.285,0,0,1-.389-.81c0-.18.045-.344.1-.344.09,0,.165.074.24.164a1.2,1.2,0,0,0,.975.51,13,13,0,0,0,1.515-.089c1.9-.181,3.825-.346,5.73-.511a1.69,1.69,0,0,0,.69-.134.7.7,0,0,1,.39-.165c.225,0,.48.149.869.494.346.3.585.555.585.84,0,.21-.149.3-.434.345a1.792,1.792,0,0,0-.84.33,32.054,32.054,0,0,1-3.495,2.1A10.519,10.519,0,0,1,527.386,353.093Z" fill="#fff"/>
        </g>
        <g id="グループ_32068" data-name="グループ 32068" transform="translate(-50 -3696)">
          <g id="グループ_32067" data-name="グループ 32067" transform="translate(982.602 2584.592)">
            <path id="パス_37980" data-name="パス 37980" d="M-622.737,1199.684a5.993,5.993,0,0,1-.39,1.754,15.1,15.1,0,0,1-2.145,3.885,2.008,2.008,0,0,1-1.515.975,1.381,1.381,0,0,1-1.125-.6,3.294,3.294,0,0,1-.69-2.219,5.458,5.458,0,0,1,1.41-3.541,6.411,6.411,0,0,1,4.8-1.964,5.511,5.511,0,0,1,3.48,1.155,4.28,4.28,0,0,1,1.665,3.4,4.24,4.24,0,0,1-1.62,3.51,8.951,8.951,0,0,1-4.995,1.68.212.212,0,0,1-.21-.18c0-.12.075-.165.27-.21a8.345,8.345,0,0,0,4.08-1.9,4.238,4.238,0,0,0,1.35-3.106,3.785,3.785,0,0,0-1.26-2.865,4.344,4.344,0,0,0-2.79-.975,6.319,6.319,0,0,0-.795.031A1.749,1.749,0,0,1-622.737,1199.684Zm-3.78.359a4.678,4.678,0,0,0-1.3,3.24,2.59,2.59,0,0,0,.33,1.4.84.84,0,0,0,.705.509c.315,0,.615-.27,1.05-.855a15.952,15.952,0,0,0,2.145-3.9,3.291,3.291,0,0,0,.21-1.186.929.929,0,0,0-.24-.689A5.293,5.293,0,0,0-626.517,1200.043Z" fill="#f9fbf9"/>
            <path id="パス_37981" data-name="パス 37981" d="M-607,1195.979h-4.17v11.879h-.6v-12.45H-607Z" fill="#f9fbf9"/>
            <path id="パス_37982" data-name="パス 37982" d="M-594.952,1204.349a9.731,9.731,0,0,0,4.62,3.509.1.1,0,0,1-.016.18c-.4.106-.6.271-.779.78-.075.195-.15.255-.27.255a2.063,2.063,0,0,1-.69-.344,11.763,11.763,0,0,1-3.765-4.321,12.816,12.816,0,0,1-1.32-4.514,10.9,10.9,0,0,1-3.42,7.169,15.134,15.134,0,0,1-3.314,2.145c-.091.045-.21-.15-.12-.21,3.689-2.519,5.309-5.444,5.729-10.244a12.4,12.4,0,0,0,0-2.6c1.56.151,1.815.21,1.815.466,0,.135-.1.21-.525.39-.014.4-.03.795-.045,1.2A11.374,11.374,0,0,0-594.952,1204.349Z" fill="#f9fbf9"/>
            <path id="パス_37983" data-name="パス 37983" d="M-587.557,1209.028h4.17v-11.88h.6v12.45h-4.77Z" fill="#f9fbf9"/>
            <path id="パス_37984" data-name="パス 37984" d="M-574.837,1201.168c-.074-.779-.09-1.89-.149-3.149-.016-.331-.031-.435-.135-.555a.83.83,0,0,0-.421-.195,3.32,3.32,0,0,0-.359-.045c-.076-.015-.106-.031-.106-.09a.39.39,0,0,1,.181-.255.907.907,0,0,1,.555-.21,2.23,2.23,0,0,1,1.3.569.7.7,0,0,1,.285.54.578.578,0,0,1-.165.361.773.773,0,0,0-.1.359,20.042,20.042,0,0,0-.046,2.88c.03.391.136.645.375.645a1.6,1.6,0,0,0,.495-.1c.646-.284,1.44-.645,2.085-.989.136-.075.2-.12.2-.226,0-.165-.224-.4-.48-.569-.09-.061-.135-.075-.135-.12,0-.061.15-.181.316-.181a2,2,0,0,1,1.094.615,1.272,1.272,0,0,1,.51.811c0,.269-.225.389-.465.449s-.525.136-.84.226c-.764.224-1.575.495-2.4.809a9.252,9.252,0,0,0-2.234,1.231,2.175,2.175,0,0,0-1.021,1.755,1.28,1.28,0,0,0,.75,1.125,5.269,5.269,0,0,0,2.4.359,12.033,12.033,0,0,0,2.25-.225,4.209,4.209,0,0,1,.75-.165,1.66,1.66,0,0,1,.645.135c.33.15.495.33.495.57,0,.3-.18.435-.825.54a21.552,21.552,0,0,1-2.8.15,7.36,7.36,0,0,1-3.12-.555,1.986,1.986,0,0,1-1.215-1.845,2.618,2.618,0,0,1,.736-1.755,8.577,8.577,0,0,1,2.174-1.634A1.5,1.5,0,0,1-574.837,1201.168Z" fill="#f9fbf9"/>
            <path id="パス_37985" data-name="パス 37985" d="M-559.282,1195.979h-4.17v11.879h-.6v-12.45h4.77Z" fill="#f9fbf9"/>
            <path id="パス_37986" data-name="パス 37986" d="M-554.257,1203.224a.576.576,0,0,1-.045.21,2.637,2.637,0,0,0-.179.989,1.513,1.513,0,0,0,.96,1.471,5.674,5.674,0,0,0,2.714.495,8.92,8.92,0,0,0,2.565-.316,2.869,2.869,0,0,1,.915-.135c.556,0,.96.255.96.645s-.315.54-.855.615a22.679,22.679,0,0,1-3.344.24,7.248,7.248,0,0,1-2.835-.48,2.411,2.411,0,0,1-1.635-2.279,2.449,2.449,0,0,1,.4-1.441.255.255,0,0,1,.2-.15C-554.347,1203.088-554.257,1203.148-554.257,1203.224Zm.976-3.84a2.309,2.309,0,0,1-.946-.736.262.262,0,0,1-.059-.179.163.163,0,0,1,.149-.165.356.356,0,0,1,.2.075,2.856,2.856,0,0,0,1,.39,6.027,6.027,0,0,0,1.111.089,10.1,10.1,0,0,0,1.425-.134,8.866,8.866,0,0,0,1.335-.3,1.82,1.82,0,0,1,.434-.106,1.933,1.933,0,0,1,.54.076c.375.12.495.315.495.585,0,.285-.179.434-.69.479a10,10,0,0,0-2.085.36,10.888,10.888,0,0,0-2.475,1.486.8.8,0,0,1-.33.134.231.231,0,0,1-.165-.165.567.567,0,0,1,.165-.24c.33-.3.99-.87,1.531-1.349A4.007,4.007,0,0,1-553.281,1199.384Z" fill="#f9fbf9"/>
            <path id="パス_37987" data-name="パス 37987" d="M-538.371,1202.293a30.167,30.167,0,0,1,2.414-2.369,3.984,3.984,0,0,1,2.085-1.141,1.491,1.491,0,0,1,1.516,1.59c0,.585-.181,1.545-.3,2.445-.136,1.125-.256,2.281-.256,2.866,0,.764.24.989.855.989a3.887,3.887,0,0,0,2.79-2.2c.06-.106.135-.226.27-.226a.193.193,0,0,1,.165.18.677.677,0,0,1-.06.27,5.276,5.276,0,0,1-1.29,2.01,2.809,2.809,0,0,1-1.875.87c-1.125,0-1.724-.63-1.724-1.86,0-.75.074-1.8.179-3,.09-.975.165-1.68.165-2.265,0-.84-.15-1.08-.525-1.08a3.579,3.579,0,0,0-1.875,1.1,24.462,24.462,0,0,0-2.564,2.595c0,.839,0,1.679.014,2.324,0,.136.016.48.045,1.035.016.21.03.45.045.645a4.406,4.406,0,0,1,.03.541c0,.644-.21,1.109-.554,1.109-.181,0-.316-.12-.375-.39a2.788,2.788,0,0,0-.42-1.02,11.382,11.382,0,0,0-1.141-1.4c-.329.45-.465.66-.6.825a.527.527,0,0,1-.435.241c-.24-.016-.375-.181-.375-.511a1.105,1.105,0,0,1,.345-.734c.075-.076.2-.181.314-.3a17.811,17.811,0,0,0,2.4-3.241c.03-.48.044-.87.059-1.214a6.5,6.5,0,0,0-1.349.689.54.54,0,0,1-.39.21.833.833,0,0,1-.585-.359,1.721,1.721,0,0,1-.45-.9c0-.179.045-.33.1-.33.075,0,.12.045.181.135.3.421.465.511.689.511a1.59,1.59,0,0,0,.54-.12c.436-.165.9-.345,1.29-.526.031-.9.076-1.92.076-2.4,0-.646-.121-.825-.81-1.05-.2-.061-.226-.091-.226-.15s.015-.106.135-.18a.851.851,0,0,1,.436-.106,2.14,2.14,0,0,1,1.125.42c.33.226.554.406.554.72a.445.445,0,0,1-.165.346.907.907,0,0,0-.224.524c-.03.316-.09.84-.12,1.59a.7.7,0,0,1,.24-.045c.074,0,.165.045.3.181a.471.471,0,0,1,.165.3.451.451,0,0,1-.151.285,6.425,6.425,0,0,0-.66,1.125Zm-.9,4.4c.1.076.15.045.15-.075,0-1.035,0-2.085.015-2.955-.51.675-1.081,1.455-1.425,1.981C-540.142,1206-539.632,1206.4-539.271,1206.688Z" fill="#f9fbf9"/>
            <path id="パス_37988" data-name="パス 37988" d="M-519.682,1200.014a1.388,1.388,0,0,1,1.186.615,3.135,3.135,0,0,1,.434,1.784,9.672,9.672,0,0,1-.584,3.18,4.915,4.915,0,0,1-1.17,1.92,1.979,1.979,0,0,1-1.335.675c-.345,0-.495-.09-.555-.39a.988.988,0,0,0-.226-.54c-.24-.284-.509-.57-.87-.945a.2.2,0,0,1-.074-.15c0-.059.074-.165.149-.165a.268.268,0,0,1,.165.075c.436.3.795.54,1.186.765a.977.977,0,0,0,.435.1.774.774,0,0,0,.57-.285,5.181,5.181,0,0,0,1.064-2.04,9.95,9.95,0,0,0,.39-2.55,2.03,2.03,0,0,0-.255-1.259.683.683,0,0,0-.644-.255,4.342,4.342,0,0,0-1.036.179c-.464.96-.884,1.906-1.335,2.776-.78,1.514-1.455,2.834-2.264,4.214a.561.561,0,0,1-.526.3.444.444,0,0,1-.479-.419.933.933,0,0,1,.194-.556c.886-1.335,1.7-2.685,2.446-4.065.389-.735.719-1.349,1.019-1.979-.555.194-1.14.434-1.574.614a1.627,1.627,0,0,0-.436.226.543.543,0,0,1-.375.165,1,1,0,0,1-.674-.361,1.68,1.68,0,0,1-.57-1.049c0-.165.074-.361.15-.361.06,0,.089.031.165.135.27.346.495.556.735.556a4.562,4.562,0,0,0,1.08-.2c.525-.12,1.1-.269,1.815-.464a17.029,17.029,0,0,0,.674-1.816,1.7,1.7,0,0,0,.106-.585c0-.135-.03-.21-.226-.345a2.147,2.147,0,0,0-.659-.224c-.15-.03-.211-.061-.211-.135s.091-.136.2-.195a1.3,1.3,0,0,1,.54-.12,2.435,2.435,0,0,1,1.5.63.627.627,0,0,1,.241.495c0,.149-.09.255-.285.344a1.023,1.023,0,0,0-.361.481c-.179.4-.389.84-.6,1.305A4.569,4.569,0,0,1-519.682,1200.014Zm5.97,4.619a.693.693,0,0,1-.434-.164.848.848,0,0,0-.556-.165c-.48,0-1,.029-1.694.074a.185.185,0,0,1-.21-.194c0-.09.044-.151.165-.181a12.878,12.878,0,0,0,1.679-.42c.18-.06.241-.1.241-.27a2.448,2.448,0,0,0-.51-1.155,6.454,6.454,0,0,0-1.651-1.575.312.312,0,0,1-.15-.21c0-.074.091-.149.226-.149a.269.269,0,0,1,.134.03,5.907,5.907,0,0,1,2.1,1.425,3.56,3.56,0,0,1,1.2,2.309C-513.172,1204.438-513.427,1204.633-513.712,1204.633Z" fill="#f9fbf9"/>
            <path id="パス_37989" data-name="パス 37989" d="M-506.691,1197.9a2.117,2.117,0,0,1-.63-1.379c0-.135.059-.18.12-.18s.12.029.195.165a3.342,3.342,0,0,0,1.875,1.38,2.427,2.427,0,0,1,.885.479.854.854,0,0,1,.314.646.407.407,0,0,1-.4.42,1.4,1.4,0,0,1-.466-.075,2.2,2.2,0,0,0-.719-.09,5.528,5.528,0,0,0-1.89.434c-.24.106-.375.255-.375.406a1.027,1.027,0,0,0,.12.405,1.632,1.632,0,0,1,.12.644,8.645,8.645,0,0,1-.105,1.05,16.222,16.222,0,0,0-.2,2.16c0,.06.016.106.076.106.044,0,.089-.016.18-.091a15.784,15.784,0,0,1,2.01-1.35,5.361,5.361,0,0,1,2.774-.884,3.207,3.207,0,0,1,2.34.839,2.259,2.259,0,0,1,.705,1.65c0,1.365-.944,2.341-2.415,3.015a12.5,12.5,0,0,1-4.755.99c-.165,0-.3-.045-.3-.18a.255.255,0,0,1,.225-.225,12.817,12.817,0,0,0,4.2-1.29c1.2-.69,1.891-1.514,1.891-2.474a1.871,1.871,0,0,0-.525-1.4,2.142,2.142,0,0,0-1.455-.465,3.7,3.7,0,0,0-1.98.645,9.231,9.231,0,0,0-1.83,1.545,3.922,3.922,0,0,0-.8,1.11c-.09.285-.2.39-.436.39-.194,0-.389-.15-.569-.435a1.6,1.6,0,0,1-.24-.87,17,17,0,0,1,.36-3.059,5.861,5.861,0,0,0,.119-1.141c0-.164-.029-.375-.029-.569a.989.989,0,0,1,.585-.87,9.142,9.142,0,0,1,1.89-.75A3.311,3.311,0,0,1-506.691,1197.9Z" fill="#f9fbf9"/>
            <path id="パス_37990" data-name="パス 37990" d="M-489.246,1199.684a5.965,5.965,0,0,1-.391,1.754,15.1,15.1,0,0,1-2.144,3.885,2.008,2.008,0,0,1-1.515.975,1.381,1.381,0,0,1-1.125-.6,3.294,3.294,0,0,1-.69-2.219,5.458,5.458,0,0,1,1.41-3.541,6.407,6.407,0,0,1,4.8-1.964,5.506,5.506,0,0,1,3.479,1.155,4.28,4.28,0,0,1,1.665,3.4,4.237,4.237,0,0,1-1.62,3.51,8.945,8.945,0,0,1-4.994,1.68.211.211,0,0,1-.21-.18c0-.12.074-.165.269-.21a8.345,8.345,0,0,0,4.081-1.9,4.241,4.241,0,0,0,1.349-3.106,3.785,3.785,0,0,0-1.26-2.865,4.342,4.342,0,0,0-2.79-.975,6.327,6.327,0,0,0-.795.031A1.746,1.746,0,0,1-489.246,1199.684Zm-3.78.359a4.678,4.678,0,0,0-1.3,3.24,2.59,2.59,0,0,0,.33,1.4.839.839,0,0,0,.705.509c.315,0,.614-.27,1.05-.855a15.915,15.915,0,0,0,2.144-3.9,3.269,3.269,0,0,0,.21-1.186.929.929,0,0,0-.24-.689A5.289,5.289,0,0,0-493.026,1200.043Z" fill="#f9fbf9"/>
            <path id="パス_37991" data-name="パス 37991" d="M-477.2,1203.358c0-1.214-.015-2.19-.045-3.1a18.413,18.413,0,0,1-2.88,1.394c-.1.045-.18-.179-.09-.224a18.4,18.4,0,0,0,5.13-4.276,5.212,5.212,0,0,0,.93-1.665c1.26.375,1.65.585,1.65.736,0,.12-.136.195-.495.24a9.625,9.625,0,0,0,3,2.564,11.568,11.568,0,0,0,3.914,1.305c.075.016.061.151-.015.165-.389.061-.554.21-.75.78-.059.2-.134.255-.254.255a1.489,1.489,0,0,1-.406-.12,12.529,12.529,0,0,1-1.949-1.005c0,.12-.046.2-.315.361v.854c0,1.74.059,2.415.059,2.64,0,.33-.194.466-.63.466-.314,0-.434-.061-.465-.255h-2.834a7.92,7.92,0,0,0,1.785,2.01,16.456,16.456,0,0,0,1.815-1.576,5.9,5.9,0,0,0,.72-.929c1.05.63,1.215.8,1.215.96,0,.134-.165.179-.646.134a13.961,13.961,0,0,1-2.849,1.59,8.743,8.743,0,0,0,.9.54,10.9,10.9,0,0,0,4.019.99c.06,0,.06.135,0,.15a.949.949,0,0,0-.809.766c-.061.179-.165.284-.316.284a2.635,2.635,0,0,1-.674-.15,10.986,10.986,0,0,1-2.505-1.125,7.911,7.911,0,0,1-3.015-3.644h-2.145v3.284a29.21,29.21,0,0,0,3.33-.84c.09-.03.134.15.06.2a26.622,26.622,0,0,1-5.235,2.055c-.105.39-.2.48-.315.48-.15,0-.27-.24-.66-1.515a16.492,16.492,0,0,0,1.77-.18Zm6.3-3.254a3.1,3.1,0,0,1,.45-.375,10.872,10.872,0,0,1-2.805-3.1,13.231,13.231,0,0,1-3.36,3.225c.165.075.315.149.54.255h1.98v-.706a9.57,9.57,0,0,0-.075-1.049c1.44.134,1.59.24,1.59.405,0,.1-.106.225-.465.4v.946Zm.075.375h-5.325v1.589h5.325Zm-5.325,3.615h5.325v-1.651h-5.325Z" fill="#f9fbf9"/>
            <path id="パス_37992" data-name="パス 37992" d="M-463.461,1209.028h4.17v-11.88h.6v12.45h-4.77Z" fill="#f9fbf9"/>
            <path id="パス_37993" data-name="パス 37993" d="M-449.136,1202.878c0-.855-.21-1.215-.75-1.215a2.913,2.913,0,0,0-1.845,1.05,11.782,11.782,0,0,0-1.185,1.5.762.762,0,0,1-.51.36c-.285,0-.495-.179-.495-.6,0-.226.165-.436.465-.736a16.2,16.2,0,0,0,1.455-1.724,19.28,19.28,0,0,0,1.109-1.771,8.563,8.563,0,0,1-1.289.09,1.812,1.812,0,0,1-1.74-.96.36.36,0,0,1-.06-.194.123.123,0,0,1,.12-.135.291.291,0,0,1,.18.119,1.927,1.927,0,0,0,1.485.495,8.334,8.334,0,0,0,1.7-.239,8.58,8.58,0,0,0,.495-1.275,1.7,1.7,0,0,0,.074-.39c0-.2-.1-.285-.3-.346a3.734,3.734,0,0,0-.615-.119c-.075-.016-.12-.046-.12-.091a.291.291,0,0,1,.12-.165.92.92,0,0,1,.585-.194,2.556,2.556,0,0,1,1.125.345c.36.21.494.405.494.585a.4.4,0,0,1-.165.344,1.446,1.446,0,0,0-.375.406c-.089.15-.255.45-.375.69a6.35,6.35,0,0,0,1.306-.525,1.547,1.547,0,0,1,.765-.255c.33,0,.57.179.57.45s-.21.359-.5.465a25.163,25.163,0,0,1-2.625.75c-.465.779-.93,1.574-1.441,2.3a3.376,3.376,0,0,1,1.8-.721,1.3,1.3,0,0,1,1.38,1.275c.029.18.029.451.045.7a35.229,35.229,0,0,0,3-1.875.448.448,0,0,0,.225-.315c0-.074-.06-.135-.18-.21a2.093,2.093,0,0,0-.45-.165c-.09-.029-.151-.06-.151-.1,0-.061.106-.151.226-.2a.937.937,0,0,1,.375-.059,2.645,2.645,0,0,1,1.14.375c.45.24.69.495.69.8a.386.386,0,0,1-.391.389,2.129,2.129,0,0,0-.585.165c-.734.316-1.484.66-2.519,1.2-.436.225-.93.525-1.351.75v2.1c0,.42-.164.63-.465.63a.475.475,0,0,1-.509-.54c0-.359.03-.989.06-1.725-1.32.75-2.1,1.335-2.1,2.265,0,.615.54,1.095,1.935,1.095a16.393,16.393,0,0,0,2.1-.1,8.683,8.683,0,0,0,.885-.18,2.509,2.509,0,0,1,.509-.089c.526,0,1.036.3,1.036.659,0,.24-.166.39-.75.48a19.989,19.989,0,0,1-2.835.15c-2.04,0-3.42-.494-3.42-1.92,0-1.305,1.035-2.159,2.64-3.119Z" fill="#f9fbf9"/>
            <path id="パス_37994" data-name="パス 37994" d="M-439.161,1208.383c0-.48.075-.975.075-1.409,0-1.066-.24-1.321-1.185-1.591-.09-.029-.06-.225.03-.21a5.284,5.284,0,0,0,.57.06.771.771,0,0,0,.75-.405,45.1,45.1,0,0,0,2.49-4.724c.03-.076.21,0,.18.075-.675,1.769-1.275,3.33-1.92,4.859a2.591,2.591,0,0,0-.165.96c0,.735.54,1.425.54,2.19,0,.57-.315.945-.78.945C-438.951,1209.133-439.161,1208.908-439.161,1208.383Zm.33-6.959a3.361,3.361,0,0,0-1.32-1.726c-.045-.029.015-.135.075-.12,1.395.181,2.28.825,2.28,1.53a.655.655,0,0,1-.585.691C-438.576,1201.8-438.711,1201.693-438.831,1201.424Zm.78-3.795a3.1,3.1,0,0,0-1.17-1.455c-.045-.03.015-.135.075-.12,1.455.224,2.265.809,2.265,1.545a.619.619,0,0,1-.585.644C-437.721,1198.243-437.812,1198.153-438.051,1197.629Zm6.749,5.774a6.685,6.685,0,0,0,2.04,2.145,8.747,8.747,0,0,0,3.045,1.2c.061.016.061.15,0,.165a.887.887,0,0,0-.675.765c-.059.21-.089.285-.2.285a1.563,1.563,0,0,1-.539-.194,8.622,8.622,0,0,1-2.2-1.636,8.682,8.682,0,0,1-1.7-2.52c.045,3.12.12,4.83.12,5.2,0,.315-.24.465-.675.465-.345,0-.495-.12-.495-.36,0-.36.075-1.845.15-4.485a10.9,10.9,0,0,1-4.815,3.615c-.09.045-.21-.15-.12-.21a12.584,12.584,0,0,0,4.395-4.44h-2.52a5.023,5.023,0,0,0-.9.09l-.165-.569a5.771,5.771,0,0,0,1.08.1h2.985v-.36a11.292,11.292,0,0,0-.06-1.649c1.335.165,1.529.24,1.529.434,0,.106-.059.181-.464.375v1.2h2.669c.63-.735.75-.809.84-.809s.21.074.87.585c.3.255.375.344.375.434,0,.12-.059.165-.21.165Zm-3.554-6.255c0,1.186-.435,2.04-1.125,2.026a.526.526,0,0,1-.525-.57c0-.27.12-.42.42-.645a1.985,1.985,0,0,0,.93-1.815c0-.09.2-.105.21-.015a5.1,5.1,0,0,1,.09.644h6.48c.42-.495.494-.57.569-.57.09,0,.255.046.885.631.24.21.256.3.256.42,0,.18-.136.269-.511.255a.511.511,0,0,0-.42.194,7.782,7.782,0,0,1-1.005.841c-.059.045-.165-.046-.134-.106a5.671,5.671,0,0,0,.509-1.29h-1.859v2.581c0,.45.165.57,1.02.57.735,0,.96-.075,1.139-.256a2.61,2.61,0,0,0,.54-1.26c.016-.074.165-.059.165.016-.014.33-.045.764-.045.96,0,.165.045.224.226.3a.418.418,0,0,1,.27.405c0,.255-.18.434-.555.555a7.514,7.514,0,0,1-1.875.165c-1.455,0-1.891-.316-1.891-1.246,0-.209.03-.584.03-1.139v-1.651h-1.229c-.075,2.536-1.215,3.826-3.885,4.545-.105.031-.165-.179-.075-.224a4.241,4.241,0,0,0,2.939-4.321Z" fill="#f9fbf9"/>
            <path id="パス_37995" data-name="パス 37995" d="M-420.381,1199.384a3.548,3.548,0,0,0-.3.675,13.85,13.85,0,0,0-.84,4.229,8.684,8.684,0,0,0,.09,1.561c.015.059.045.089.09.089s.075-.03.105-.1c.375-.9.855-2.1,1.17-2.864.045-.106.105-.181.2-.181a.192.192,0,0,1,.165.15.745.745,0,0,1-.045.21c-.285,1.1-.735,2.565-.87,3.165a3.858,3.858,0,0,0-.135.78,5.5,5.5,0,0,0,.029.66,3.649,3.649,0,0,1,.046.435c0,.255-.12.42-.39.42s-.555-.24-.75-.765a10.219,10.219,0,0,1-.4-3.374,21.773,21.773,0,0,1,.69-4.726,6.288,6.288,0,0,0,.18-1.2,1.89,1.89,0,0,0-.36-1.216.541.541,0,0,1-.105-.255c0-.1.105-.149.18-.149a.428.428,0,0,1,.24.09,2.323,2.323,0,0,1,.855.929,2.022,2.022,0,0,1,.315.976A1,1,0,0,1-420.381,1199.384Zm5.88,1.6c0-.465,0-.585-.061-.705a.489.489,0,0,0-.33-.194,2.184,2.184,0,0,0-.269-.03c-.061,0-.106-.031-.106-.076,0-.089.09-.15.165-.2a1.124,1.124,0,0,1,.5-.135,1.587,1.587,0,0,1,.839.271.377.377,0,0,1,.226.345.389.389,0,0,1-.075.224,1.628,1.628,0,0,0-.09.526c-.016.3-.016.464-.016.66a10.189,10.189,0,0,0,1.29-.465,1.061,1.061,0,0,1,.436-.12.378.378,0,0,1,.4.375c0,.224-.1.375-.465.554a7.263,7.263,0,0,1-1.679.555c0,1.05.03,2.07.1,3.015a7.266,7.266,0,0,1,2.46,1.23.916.916,0,0,1,.375.66.48.48,0,0,1-.449.525.755.755,0,0,1-.585-.27,6.346,6.346,0,0,0-1.755-1.23c-.016,1.23-.96,1.815-2.176,1.815s-2.114-.51-2.114-1.44c0-1.14,1.274-1.529,2.324-1.529a6.433,6.433,0,0,1,1.1.075c-.016-.9-.03-1.816-.045-2.731a10.2,10.2,0,0,1-1.261.12,3.786,3.786,0,0,1-1.5-.195.932.932,0,0,1-.509-.81,1.806,1.806,0,0,1,.464-1.275.26.26,0,0,1,.2-.12c.06,0,.134.046.134.091a.509.509,0,0,1-.074.21,1.978,1.978,0,0,0-.225.719.481.481,0,0,0,.2.451c.135.12.39.149.825.149a10.562,10.562,0,0,0,1.755-.194Zm2.069-3.014c0,.285-.224.42-.585.42-.495,0-.8-.015-1.335.014a12.334,12.334,0,0,0-3.089.66.649.649,0,0,1-.225.076.175.175,0,0,1-.15-.151.289.289,0,0,1,.15-.224,6.669,6.669,0,0,1,1.979-1.02,7.147,7.147,0,0,1,2.13-.375C-412.882,1197.374-412.432,1197.554-412.432,1197.974Zm-3.6,7.979c-.87,0-1.35.375-1.35.87,0,.571.659.75,1.56.75a1.235,1.235,0,0,0,1.365-1.349A4.046,4.046,0,0,0-416.031,1205.953Zm3.78-9.51a3.345,3.345,0,0,1,1.274.8c.345.33.555.6.54.915a.417.417,0,0,1-.434.436c-.2,0-.36-.151-.481-.42a4.939,4.939,0,0,0-1.214-1.485.206.206,0,0,1-.09-.151.154.154,0,0,1,.165-.149A.836.836,0,0,1-412.251,1196.443Zm1.334-.96a3.558,3.558,0,0,1,1.186.63,1.468,1.468,0,0,1,.66.976.443.443,0,0,1-.436.465c-.194-.016-.3-.09-.465-.39a4.656,4.656,0,0,0-1.319-1.455.18.18,0,0,1-.105-.15.164.164,0,0,1,.165-.151A1.906,1.906,0,0,1-410.917,1195.483Z" fill="#f9fbf9"/>
            <path id="パス_37996" data-name="パス 37996" d="M-403.521,1203.118a5.167,5.167,0,0,1,3.15-1.184c2.205,0,3.42,1.379,3.42,3,0,2.264-2.04,3.539-4.245,3.539-1.635,0-2.79-.675-2.79-1.7,0-.81.674-1.245,1.5-1.245a2.864,2.864,0,0,1,2.52,1.92,2.685,2.685,0,0,0,1.89-2.595,2.2,2.2,0,0,0-2.37-2.384,4.792,4.792,0,0,0-3.39,1.529,11.853,11.853,0,0,0-1.17,1.32.488.488,0,0,1-.375.2.559.559,0,0,1-.54-.585.752.752,0,0,1,.255-.54c1.155-1.246,2.4-2.536,3.479-3.856.646-.795,1.261-1.545,2.01-2.534.106-.136.061-.165,0-.165a1.413,1.413,0,0,0-.284.074c-.676.226-1.44.511-2.04.75a1.1,1.1,0,0,0-.51.316.568.568,0,0,1-.4.165,1.2,1.2,0,0,1-.75-.435,1.7,1.7,0,0,1-.54-1.1c0-.149.09-.314.18-.314.06,0,.12.059.2.165.33.434.54.585.795.585a3.555,3.555,0,0,0,.78-.106c.675-.165,1.305-.344,1.98-.569a.962.962,0,0,0,.45-.27.477.477,0,0,1,.345-.151,2.106,2.106,0,0,1,.945.466c.3.21.45.4.45.644,0,.151-.12.255-.391.316-.149.029-.285.1-.615.434-.494.5-1.109,1.14-1.994,2.175-.556.646-1.365,1.425-1.965,2.1Zm.855,2.88a.729.729,0,0,0-.825.69c0,.615.795,1.035,1.995,1.035a3.041,3.041,0,0,0,.6-.045A2.22,2.22,0,0,0-402.666,1206Z" fill="#f9fbf9"/>
          </g>
        </g>
      </g>
      <g id="Oisix_ra_daichi" data-name="Oisix ra daichi" transform="translate(-188.713 -226.201)">
        <g id="グループ_32187" data-name="グループ 32187">
          <path id="パス_38087" data-name="パス 38087" d="M356.854,322.836a5.2,5.2,0,0,1-2.919-.738,4.506,4.506,0,0,1-1.668-2.017,6.214,6.214,0,0,1-.554-2.481,10,10,0,0,1,1.395-4.929,10.927,10.927,0,0,1,3.767-3.971,8.753,8.753,0,0,1,4.682-1.491,5.217,5.217,0,0,1,2.57.677,4.776,4.776,0,0,1,1.894,1.9,5.07,5.07,0,0,1,.677,2.468,10.412,10.412,0,0,1-1.771,5.592,11.568,11.568,0,0,1-3.985,4.047A8.2,8.2,0,0,1,356.854,322.836Zm4.348-14.724a3.2,3.2,0,0,0-1.484.314,4.693,4.693,0,0,0-1.271,1.046,9.323,9.323,0,0,0-1.347,2.1,19.016,19.016,0,0,0-1.278,3.725,16.558,16.558,0,0,0-.6,3.938,3.045,3.045,0,0,0,.581,2.023,1.868,1.868,0,0,0,1.5.684,2.894,2.894,0,0,0,2.051-.793,11.576,11.576,0,0,0,2.748-4.69,17.116,17.116,0,0,0,1.066-5.5,3.387,3.387,0,0,0-.567-2.181,1.76,1.76,0,0,0-1.4-.666Z" fill="#fff"/>
          <path id="パス_38088" data-name="パス 38088" d="M372.537,312.282l-2.256,7.82a4.339,4.339,0,0,0-.178.889.331.331,0,0,0,.1.218.273.273,0,0,0,.2.11.549.549,0,0,0,.369-.164,6.515,6.515,0,0,0,1.189-1.477l.383.219q-1.668,2.9-3.541,2.9a1.583,1.583,0,0,1-1.134-.4,1.345,1.345,0,0,1-.424-1.019,3.674,3.674,0,0,1,.191-1.039l1.531-5.263a4.534,4.534,0,0,0,.219-1.135.58.58,0,0,0-.212-.438.81.81,0,0,0-.567-.191c-.119,0-.251,0-.4.014l.137-.438,3.732-.6Zm-.684-5.073a1.552,1.552,0,0,1,1.155.479,1.579,1.579,0,0,1,.472,1.148,1.552,1.552,0,0,1-.478,1.142,1.589,1.589,0,0,1-1.149.472,1.612,1.612,0,0,1-1.6-1.614,1.587,1.587,0,0,1,.465-1.148,1.519,1.519,0,0,1,1.136-.479Z" fill="#fff"/>
          <path id="パス_38089" data-name="パス 38089" d="M381.437,312.282l-.478,3.4h-.411a3.194,3.194,0,0,0-.806-2.085,2.132,2.132,0,0,0-1.545-.759,1.2,1.2,0,0,0-.834.294.925.925,0,0,0-.328.718,1.552,1.552,0,0,0,.143.663,3.625,3.625,0,0,0,.636.827,16.693,16.693,0,0,1,2.112,2.577,3.172,3.172,0,0,1,.376,1.511,3.237,3.237,0,0,1-1.763,2.892,3.8,3.8,0,0,1-1.819.471,6.068,6.068,0,0,1-1.572-.26,3.651,3.651,0,0,0-.93-.177.88.88,0,0,0-.423.082,1.115,1.115,0,0,0-.342.355h-.41l.546-3.677h.342a9.128,9.128,0,0,0,.732,1.907,2.546,2.546,0,0,0,.9.9,2.1,2.1,0,0,0,1.08.335,1.379,1.379,0,0,0,1-.384,1.215,1.215,0,0,0,.4-.9,2.115,2.115,0,0,0-.26-1,9.329,9.329,0,0,0-1.189-1.511,11.2,11.2,0,0,1-1.7-2.16,2.62,2.62,0,0,1-.287-1.244,2.578,2.578,0,0,1,.861-1.982,3.439,3.439,0,0,1,2.42-.793,7.708,7.708,0,0,1,1.682.232,3.37,3.37,0,0,0,.793.123.808.808,0,0,0,.684-.355Z" fill="#fff"/>
          <path id="パス_38090" data-name="パス 38090" d="M387.576,312.282l-2.256,7.82a4.339,4.339,0,0,0-.178.889.331.331,0,0,0,.1.218.273.273,0,0,0,.2.11.549.549,0,0,0,.369-.164,6.547,6.547,0,0,0,1.19-1.477l.382.219q-1.668,2.9-3.541,2.9a1.583,1.583,0,0,1-1.134-.4,1.345,1.345,0,0,1-.424-1.019,3.674,3.674,0,0,1,.191-1.039l1.531-5.263a4.534,4.534,0,0,0,.219-1.135.58.58,0,0,0-.212-.438.81.81,0,0,0-.567-.191c-.119,0-.251,0-.4.014l.137-.438,3.733-.6Zm-.684-5.073a1.552,1.552,0,0,1,1.155.479,1.579,1.579,0,0,1,.472,1.148,1.552,1.552,0,0,1-.478,1.142,1.588,1.588,0,0,1-1.149.472,1.61,1.61,0,0,1-1.6-1.614,1.586,1.586,0,0,1,.464-1.148A1.519,1.519,0,0,1,386.892,307.209Z" fill="#fff"/>
          <path id="パス_38091" data-name="パス 38091" d="M389.121,312.938l3.841-.656a11.244,11.244,0,0,1,1.477,3.609q1.08-1.6,1.627-2.242a5.017,5.017,0,0,1,1.217-1.108,2.082,2.082,0,0,1,1.012-.259,1.247,1.247,0,0,1,.936.328,1.361,1.361,0,0,1,0,1.756,1.076,1.076,0,0,1-.813.334,2.9,2.9,0,0,1-.807-.129,2.756,2.756,0,0,0-.629-.13,1.435,1.435,0,0,0-.889.328,7.239,7.239,0,0,0-1.408,1.928,15.566,15.566,0,0,0,1.5,4.033.89.89,0,0,0,.67.424.866.866,0,0,0,.492-.137,6.119,6.119,0,0,0,.985-1.162l.4.232a7.183,7.183,0,0,1-1.9,2.2,2.35,2.35,0,0,1-1.381.506,2.043,2.043,0,0,1-1.176-.314,2.65,2.65,0,0,1-.827-1.026,16.55,16.55,0,0,1-.868-2.283q-1.285,1.641-2.017,2.4a4.8,4.8,0,0,1-1.217.991,2.349,2.349,0,0,1-1.032.232,1.227,1.227,0,0,1-.909-.334,1.156,1.156,0,0,1-.335-.854,1.275,1.275,0,0,1,.362-.931,1.24,1.24,0,0,1,.923-.369,1.588,1.588,0,0,1,.67.178,2.188,2.188,0,0,0,.793.273,1.151,1.151,0,0,0,.574-.137,3.321,3.321,0,0,0,.834-.711q.315-.339,1.135-1.462a18.8,18.8,0,0,0-1.641-4.69,1.169,1.169,0,0,0-.957-.492,3.535,3.535,0,0,0-.724.1Z" fill="#fff"/>
          <path id="パス_38092" data-name="パス 38092" d="M410.326,312.282l-1.655,6.179a23.682,23.682,0,0,1,3.077-5.564,1.81,1.81,0,0,1,1.285-.615.923.923,0,0,1,.738.335,1.427,1.427,0,0,1,.287.95,3.011,3.011,0,0,1-.519,1.791.917.917,0,0,1-.725.465.714.714,0,0,1-.67-.411,1.979,1.979,0,0,0-.308-.479.308.308,0,0,0-.184-.068.485.485,0,0,0-.232.068,2.24,2.24,0,0,0-.636.636,10.286,10.286,0,0,0-.957,1.715q-.568,1.2-.889,2.031a30.259,30.259,0,0,0-.9,3.165h-2.666l1.818-7.3a6.062,6.062,0,0,0,.191-1.08.856.856,0,0,0-.1-.451A.639.639,0,0,0,407,313.4a2.166,2.166,0,0,0-.751-.082l.1-.315,3.323-.724Z" fill="#fff"/>
          <path id="パス_38093" data-name="パス 38093" d="M424.572,312.432l-2.133,7.313-.232.9a1.39,1.39,0,0,0-.028.232.314.314,0,0,0,.1.233.281.281,0,0,0,.191.1,1.2,1.2,0,0,0,.643-.341,10.768,10.768,0,0,0,.793-1.012l.383.191a6.305,6.305,0,0,1-1.668,2.092,3.172,3.172,0,0,1-1.914.656,1.291,1.291,0,0,1-.957-.328,1.111,1.111,0,0,1-.328-.82,6.649,6.649,0,0,1,.355-1.6l.26-.888a10.878,10.878,0,0,1-2.447,3.1,2.336,2.336,0,0,1-1.463.533,1.538,1.538,0,0,1-1.463-.834,3.867,3.867,0,0,1-.451-1.873,8.51,8.51,0,0,1,.95-3.568,8.879,8.879,0,0,1,2.481-3.227,3.91,3.91,0,0,1,2.379-1.011,1.381,1.381,0,0,1,.991.355,2.4,2.4,0,0,1,.554,1.3l.4-1.354Zm-3.527,2.092a2.325,2.325,0,0,0-.274-1.285.637.637,0,0,0-.533-.275,1.1,1.1,0,0,0-.711.328,8.274,8.274,0,0,0-1.593,2.77,9.737,9.737,0,0,0-.854,3.6,1.412,1.412,0,0,0,.191.84.537.537,0,0,0,.424.254,1.413,1.413,0,0,0,1.012-.561,8.831,8.831,0,0,0,1.3-2,8.372,8.372,0,0,0,1.038-3.671Z" fill="#fff"/>
          <path id="パス_38094" data-name="パス 38094" d="M442.961,307.209l-3.569,12.319a8.128,8.128,0,0,0-.342,1.394.3.3,0,0,0,.082.212.253.253,0,0,0,.192.089.773.773,0,0,0,.424-.178,5.357,5.357,0,0,0,1-1.176l.4.219q-1.56,2.707-3.418,2.707a1.41,1.41,0,0,1-1.018-.348,1.186,1.186,0,0,1-.363-.9,5.565,5.565,0,0,1,.287-1.463l.329-1.135a11.639,11.639,0,0,1-2.379,3.241,2.5,2.5,0,0,1-1.5.6,1.747,1.747,0,0,1-1.388-.677,2.979,2.979,0,0,1-.567-1.961,7.746,7.746,0,0,1,.724-3.235,10.375,10.375,0,0,1,1.682-2.659,6.952,6.952,0,0,1,1.818-1.524,3.6,3.6,0,0,1,1.7-.458,1.641,1.641,0,0,1,.765.177,2.888,2.888,0,0,1,.766.657l.82-2.748a6.171,6.171,0,0,0,.287-1.45.585.585,0,0,0-.2-.444.747.747,0,0,0-.526-.185,3.276,3.276,0,0,0-.383.028l.109-.424,3.623-.684Zm-4.84,6.987a1.474,1.474,0,0,0-.267-.978.791.791,0,0,0-.608-.308,1.209,1.209,0,0,0-.766.356,8.138,8.138,0,0,0-1.634,2.837,9.982,9.982,0,0,0-.854,3.589,1.309,1.309,0,0,0,.184.772.52.52,0,0,0,.417.253,1.155,1.155,0,0,0,.78-.355,11.428,11.428,0,0,0,2.748-6.166Z" fill="#fff"/>
          <path id="パス_38095" data-name="パス 38095" d="M452.736,312.432l-2.133,7.313-.232.9a1.39,1.39,0,0,0-.028.232.314.314,0,0,0,.1.233.281.281,0,0,0,.191.1,1.2,1.2,0,0,0,.643-.341,10.446,10.446,0,0,0,.793-1.012l.383.191a6.305,6.305,0,0,1-1.668,2.092,3.172,3.172,0,0,1-1.914.656,1.291,1.291,0,0,1-.957-.328,1.111,1.111,0,0,1-.328-.82,6.649,6.649,0,0,1,.355-1.6l.26-.888a10.878,10.878,0,0,1-2.447,3.1,2.336,2.336,0,0,1-1.463.533,1.538,1.538,0,0,1-1.463-.834,3.856,3.856,0,0,1-.451-1.873,8.509,8.509,0,0,1,.95-3.568,8.879,8.879,0,0,1,2.481-3.227,3.91,3.91,0,0,1,2.379-1.011,1.381,1.381,0,0,1,.991.355,2.4,2.4,0,0,1,.554,1.3l.4-1.354Zm-3.527,2.092a2.325,2.325,0,0,0-.274-1.285.637.637,0,0,0-.533-.275,1.1,1.1,0,0,0-.711.328,8.274,8.274,0,0,0-1.593,2.77,9.737,9.737,0,0,0-.854,3.6,1.4,1.4,0,0,0,.191.84.536.536,0,0,0,.424.254,1.413,1.413,0,0,0,1.012-.561,8.887,8.887,0,0,0,1.3-2A8.372,8.372,0,0,0,449.209,314.524Z" fill="#fff"/>
          <path id="パス_38096" data-name="パス 38096" d="M458.943,312.282l-2.256,7.82a4.335,4.335,0,0,0-.178.889.331.331,0,0,0,.1.218.272.272,0,0,0,.2.11.549.549,0,0,0,.369-.164,6.471,6.471,0,0,0,1.19-1.477l.383.219q-1.671,2.9-3.541,2.9a1.584,1.584,0,0,1-1.135-.4,1.345,1.345,0,0,1-.424-1.019,3.675,3.675,0,0,1,.191-1.039l1.532-5.263a4.531,4.531,0,0,0,.218-1.135.577.577,0,0,0-.212-.438.81.81,0,0,0-.567-.191c-.119,0-.251,0-.4.014l.136-.438,3.733-.6Zm-.684-5.073a1.56,1.56,0,0,1,1.156.479,1.58,1.58,0,0,1,.471,1.148,1.548,1.548,0,0,1-.478,1.142,1.588,1.588,0,0,1-1.149.472,1.61,1.61,0,0,1-1.6-1.614,1.587,1.587,0,0,1,.465-1.148,1.513,1.513,0,0,1,1.13-.479Z" fill="#fff"/>
          <path id="パス_38097" data-name="パス 38097" d="M467.925,319.828l.328.3a8.249,8.249,0,0,1-2.1,1.873,5.6,5.6,0,0,1-2.844.793,3.539,3.539,0,0,1-1.757-.424,2.656,2.656,0,0,1-1.127-1.189,3.561,3.561,0,0,1-.37-1.572,7.132,7.132,0,0,1,.985-3.548,7.652,7.652,0,0,1,2.591-2.762,5.864,5.864,0,0,1,3.151-1.018,2.786,2.786,0,0,1,1.873.546,1.743,1.743,0,0,1,.629,1.368,1.782,1.782,0,0,1-.472,1.251,1.417,1.417,0,0,1-1.059.512,1.15,1.15,0,0,1-.841-.328,1.051,1.051,0,0,1-.335-.779,1.288,1.288,0,0,1,.6-1.039c.266-.2.4-.378.4-.533a.379.379,0,0,0-.164-.315.891.891,0,0,0-.574-.178,2.544,2.544,0,0,0-1.737.752,6.3,6.3,0,0,0-1.647,2.5,8.217,8.217,0,0,0-.568,2.885,2.472,2.472,0,0,0,.581,1.723,1.813,1.813,0,0,0,1.388.642,3.805,3.805,0,0,0,1.518-.362A5.172,5.172,0,0,0,467.925,319.828Z" fill="#fff"/>
          <path id="パス_38098" data-name="パス 38098" d="M476.88,307.209l-2.871,9.926q1.491-2.187,2.161-2.967a7.291,7.291,0,0,1,1.729-1.5,2.874,2.874,0,0,1,1.374-.389,1.284,1.284,0,0,1,.964.423,1.565,1.565,0,0,1,.4,1.121,5.509,5.509,0,0,1-.26,1.49L478.983,320a3.5,3.5,0,0,0-.191.82.276.276,0,0,0,.075.185.215.215,0,0,0,.171.089.432.432,0,0,0,.273-.109,4.149,4.149,0,0,0,.738-.889q.109-.15.328-.465l.424.246a7.061,7.061,0,0,1-1.791,2.147,2.857,2.857,0,0,1-1.613.588,1.5,1.5,0,0,1-1.066-.356,1.16,1.16,0,0,1-.383-.889,5.271,5.271,0,0,1,.26-1.367l1.367-4.689a2.913,2.913,0,0,0,.136-.711.293.293,0,0,0-.1-.2.3.3,0,0,0-.219-.1,1.889,1.889,0,0,0-1.08.657,15.1,15.1,0,0,0-2.871,4.251l-.971,3.268h-2.731l3.609-12.442a4.967,4.967,0,0,0,.219-1.134.486.486,0,0,0-.219-.424,1.4,1.4,0,0,0-.875-.178l.068-.437,3.665-.657Z" fill="#fff"/>
          <path id="パス_38099" data-name="パス 38099" d="M487.754,312.282,485.5,320.1a4.337,4.337,0,0,0-.178.889.331.331,0,0,0,.1.218.271.271,0,0,0,.2.11.549.549,0,0,0,.369-.164,6.516,6.516,0,0,0,1.189-1.477l.383.219q-1.668,2.9-3.541,2.9a1.585,1.585,0,0,1-1.135-.4,1.348,1.348,0,0,1-.423-1.019,3.675,3.675,0,0,1,.191-1.039l1.531-5.263a4.532,4.532,0,0,0,.219-1.135.58.58,0,0,0-.212-.438.81.81,0,0,0-.567-.191c-.119,0-.251,0-.4.014l.137-.438,3.732-.6Zm-.684-5.073a1.552,1.552,0,0,1,1.155.479,1.579,1.579,0,0,1,.472,1.148,1.549,1.549,0,0,1-.479,1.142,1.586,1.586,0,0,1-1.148.472,1.612,1.612,0,0,1-1.6-1.614,1.587,1.587,0,0,1,.465-1.148,1.515,1.515,0,0,1,1.131-.479Z" fill="#fff"/>
        </g>
      </g>
    </g>
  </g>
</svg>
