<svg xmlns="http://www.w3.org/2000/svg" width="287" height="80.56" viewBox="0 0 287 80.56">
  <g id="グループ_32219" data-name="グループ 32219" transform="translate(-46 -14)">
    <rect id="長方形_376" data-name="長方形 376" width="287" height="24" rx="12" transform="translate(46 14)" fill="#fff"/>
    <g id="ORDig" transform="translate(-85.073 -350.116)" style="isolation: isolate">
      <g id="グループ_31967" data-name="グループ 31967" transform="translate(218.073 402.116)" style="isolation: isolate">
        <path id="パス_37905" data-name="パス 37905" d="M227.026,429.33a9.061,9.061,0,0,1-5.083-1.286,7.853,7.853,0,0,1-2.9-3.512,10.838,10.838,0,0,1-.965-4.321,17.4,17.4,0,0,1,2.429-8.584,19.049,19.049,0,0,1,6.559-6.917,15.267,15.267,0,0,1,8.155-2.595,9.074,9.074,0,0,1,4.476,1.178,8.318,8.318,0,0,1,3.3,3.309,8.8,8.8,0,0,1,1.179,4.3,18.123,18.123,0,0,1-3.083,9.738,20.133,20.133,0,0,1-6.94,7.048A14.267,14.267,0,0,1,227.026,429.33Zm7.571-25.643a5.571,5.571,0,0,0-2.583.548,8.189,8.189,0,0,0-2.215,1.821,16.4,16.4,0,0,0-2.345,3.667,33.32,33.32,0,0,0-2.226,6.488,28.915,28.915,0,0,0-1.035,6.857,5.311,5.311,0,0,0,1.012,3.524,3.263,3.263,0,0,0,2.607,1.191,5.039,5.039,0,0,0,3.571-1.381,20.152,20.152,0,0,0,4.786-8.167,29.8,29.8,0,0,0,1.857-9.572,5.885,5.885,0,0,0-.988-3.8A3.064,3.064,0,0,0,234.6,403.687Z" transform="translate(-218.073 -402.116)" fill="#070203"/>
      </g>
      <g id="グループ_31968" data-name="グループ 31968" transform="translate(241.634 402.116)" style="isolation: isolate">
        <path id="パス_37906" data-name="パス 37906" d="M259.564,416.157l-2.285,7.881a9.652,9.652,0,0,0-.5,2.452,1.4,1.4,0,0,0,.595,1.179,4.734,4.734,0,0,0,2.476.464l-.286.714h-12.5l.215-.714a4.253,4.253,0,0,0,2.75-.727,6.974,6.974,0,0,0,1.607-3.25l4.834-16.69a8.307,8.307,0,0,0,.4-2.191,1.413,1.413,0,0,0-.5-1.166,4.809,4.809,0,0,0-2.31-.548l.19-.714h10.762q4.619,0,6.5,1.619a5.222,5.222,0,0,1,1.881,4.143,6.585,6.585,0,0,1-2.191,4.809,11.7,11.7,0,0,1-4.88,2.31l2.333,7.881q.928,3.166,1.631,3.821a3.551,3.551,0,0,0,2.345.7v.714h-8.1l-3.69-12.691-.618.048Q260.017,416.205,259.564,416.157Zm.286-1.143c.444.015.818.024,1.119.024a6.038,6.038,0,0,0,4.607-1.916,7.033,7.033,0,0,0,1.8-5.012,3.79,3.79,0,0,0-.965-2.8,3.428,3.428,0,0,0-2.536-.964c-.254,0-.548.008-.881.024Z" transform="translate(-247.064 -402.253)" fill="#070203"/>
        <path id="パス_37907" data-name="パス 37907" d="M278.057,428.848l.238-.714a4.472,4.472,0,0,0,2.845-.774,5.846,5.846,0,0,0,1.607-2.893l4.714-16.4a10.08,10.08,0,0,0,.453-2.643,1.539,1.539,0,0,0-.536-1.3,6.012,6.012,0,0,0-2.726-.56l.215-.714h8.9q7.022,0,10.142,2.857a10.272,10.272,0,0,1,3.119,7.976,11.748,11.748,0,0,1-1.452,6.072,18.055,18.055,0,0,1-6.679,6.953,20.388,20.388,0,0,1-9.94,2.143ZM294.294,404.4l-5.714,19.691a8.15,8.15,0,0,0-.4,1.953,1.043,1.043,0,0,0,.452.881,2.847,2.847,0,0,0,1.715.428,7.506,7.506,0,0,0,4.809-1.69,13.506,13.506,0,0,0,4.167-5.821,19.806,19.806,0,0,0,1.429-7.25,11.634,11.634,0,0,0-.822-4.56,5.971,5.971,0,0,0-2.56-2.94A6.152,6.152,0,0,0,294.294,404.4Z" transform="translate(-252.869 -402.253)" fill="#070203"/>
        <path id="パス_37908" data-name="パス 37908" d="M324.888,410.949l-3.928,13.619a7.781,7.781,0,0,0-.31,1.547.579.579,0,0,0,.167.381.475.475,0,0,0,.357.191.943.943,0,0,0,.643-.286,11.24,11.24,0,0,0,2.072-2.571l.667.381q-2.906,5.047-6.167,5.048a2.745,2.745,0,0,1-1.976-.7,2.344,2.344,0,0,1-.738-1.773,6.469,6.469,0,0,1,.333-1.81l2.666-9.167a7.828,7.828,0,0,0,.381-1.976,1,1,0,0,0-.369-.762,1.422,1.422,0,0,0-.988-.333c-.206,0-.437.008-.691.024l.238-.762,6.5-1.048Zm-1.191-8.833a2.716,2.716,0,0,1,2.011.833,2.748,2.748,0,0,1,.822,2,2.689,2.689,0,0,1-.833,1.988,2.75,2.75,0,0,1-2,.822,2.805,2.805,0,0,1-2.786-2.809,2.769,2.769,0,0,1,.809-2A2.651,2.651,0,0,1,323.7,402.116Z" transform="translate(-259.916 -402.116)" fill="#070203"/>
        <path id="パス_37909" data-name="パス 37909" d="M342.849,414.151h5.1l-.619,2.1h-2.643a4.563,4.563,0,0,1,.619,2.167,5.823,5.823,0,0,1-.953,3.214,6.62,6.62,0,0,1-2.8,2.358,9.421,9.421,0,0,1-4.107.88,11.744,11.744,0,0,1-1.321-.083c-.485-.055-1-.139-1.56-.25a6.369,6.369,0,0,0-1.6,1.048.811.811,0,0,0-.238.548.789.789,0,0,0,.286.6,3.362,3.362,0,0,0,1.476.643,39.44,39.44,0,0,1,5.167,1.357,6.2,6.2,0,0,1,2.583,1.833,4.256,4.256,0,0,1,.87,2.691,5.294,5.294,0,0,1-2.2,4.179q-2.2,1.8-6.822,1.8-4.666,0-6.881-1.548a3.173,3.173,0,0,1-1.571-2.643,2.984,2.984,0,0,1,1.035-2.167q1.036-1,4.488-1.762a4.586,4.586,0,0,1-1.572-1.191,2.367,2.367,0,0,1-.571-1.5,3.035,3.035,0,0,1,1.024-2.262,11.187,11.187,0,0,1,3.452-1.953,5.8,5.8,0,0,1-2.714-1.916,4.634,4.634,0,0,1-.834-2.75,5.617,5.617,0,0,1,1-3.167,7.174,7.174,0,0,1,2.964-2.44,10.333,10.333,0,0,1,4.512-.94,10.7,10.7,0,0,1,2.9.357A5.555,5.555,0,0,1,342.849,414.151ZM332.23,431.557a5.955,5.955,0,0,0-2.488,1.536,2.784,2.784,0,0,0-.654,1.773,2.857,2.857,0,0,0,1.309,2.25,6.891,6.891,0,0,0,4.19,1.012,5.486,5.486,0,0,0,3.452-.869,2.566,2.566,0,0,0,1.072-2.036,1.971,1.971,0,0,0-.988-1.7,13.515,13.515,0,0,0-3.774-1.345Q333.039,431.819,332.23,431.557Zm6.595-17.643a2.179,2.179,0,0,0-1.571.619,7.446,7.446,0,0,0-1.822,3.143,12.677,12.677,0,0,0-.774,4.167,2.023,2.023,0,0,0,.548,1.5,1.841,1.841,0,0,0,1.357.548,1.892,1.892,0,0,0,1.357-.548,8.45,8.45,0,0,0,1.893-3.357,12.967,12.967,0,0,0,.8-4.19,1.859,1.859,0,0,0-.511-1.357A1.711,1.711,0,0,0,338.825,413.913Z" transform="translate(-261.781 -404.152)" fill="#070203"/>
      </g>
    </g>
    <g id="グループ_32188" data-name="グループ 32188" transform="translate(-208.381 -39)">
      <g id="グループ_32187" data-name="グループ 32187" transform="translate(-187.18 -1219.279)" style="isolation: isolate">
        <path id="パス_38087" data-name="パス 38087" d="M465.224,1287.46a2.7,2.7,0,0,1-1.513-.382,2.334,2.334,0,0,1-.864-1.045,3.225,3.225,0,0,1-.287-1.286,5.18,5.18,0,0,1,.723-2.554,5.665,5.665,0,0,1,1.952-2.058,4.541,4.541,0,0,1,2.426-.773,2.7,2.7,0,0,1,1.332.351,2.475,2.475,0,0,1,.982.985,2.621,2.621,0,0,1,.351,1.279,5.393,5.393,0,0,1-.918,2.9,5.985,5.985,0,0,1-2.065,2.1A4.245,4.245,0,0,1,465.224,1287.46Zm2.253-7.63a1.658,1.658,0,0,0-.769.163,2.456,2.456,0,0,0-.659.542,4.864,4.864,0,0,0-.7,1.091,9.9,9.9,0,0,0-.662,1.931,8.589,8.589,0,0,0-.308,2.041,1.58,1.58,0,0,0,.3,1.048.971.971,0,0,0,.776.354,1.5,1.5,0,0,0,1.063-.411,6,6,0,0,0,1.424-2.431,8.861,8.861,0,0,0,.552-2.848,1.753,1.753,0,0,0-.294-1.13A.912.912,0,0,0,467.478,1279.83Z" fill="#070203"/>
        <path id="パス_38088" data-name="パス 38088" d="M480.834,1281.991l-1.169,4.053a2.3,2.3,0,0,0-.092.461.172.172,0,0,0,.05.113.14.14,0,0,0,.106.057.283.283,0,0,0,.191-.085,3.354,3.354,0,0,0,.616-.766l.2.114q-.864,1.5-1.835,1.5a.818.818,0,0,1-.588-.209.7.7,0,0,1-.22-.528,1.919,1.919,0,0,1,.1-.538l.793-2.728a2.323,2.323,0,0,0,.114-.588.3.3,0,0,0-.11-.227.42.42,0,0,0-.294-.1c-.062,0-.13,0-.206.007l.071-.227,1.934-.311Zm-.354-2.629a.806.806,0,0,1,.6.248.817.817,0,0,1,.245.595.8.8,0,0,1-.248.592.821.821,0,0,1-.6.245.835.835,0,0,1-.829-.836.824.824,0,0,1,.241-.595A.787.787,0,0,1,480.479,1279.362Z" transform="translate(-7.483)" fill="#070203"/>
        <path id="パス_38089" data-name="パス 38089" d="M488.239,1284.435l-.248,1.764h-.213a1.654,1.654,0,0,0-.418-1.08,1.1,1.1,0,0,0-.8-.393.624.624,0,0,0-.432.152.481.481,0,0,0-.17.372.808.808,0,0,0,.074.344,1.881,1.881,0,0,0,.33.428,8.642,8.642,0,0,1,1.094,1.335,1.636,1.636,0,0,1,.195.783,1.677,1.677,0,0,1-.914,1.5,1.963,1.963,0,0,1-.943.244,3.126,3.126,0,0,1-.815-.135,1.926,1.926,0,0,0-.482-.092.46.46,0,0,0-.219.043.587.587,0,0,0-.177.184h-.212l.283-1.906h.177a4.751,4.751,0,0,0,.379.988,1.316,1.316,0,0,0,.464.467,1.09,1.09,0,0,0,.56.173.715.715,0,0,0,.517-.2.629.629,0,0,0,.206-.468,1.09,1.09,0,0,0-.135-.521,4.791,4.791,0,0,0-.616-.783,5.83,5.83,0,0,1-.879-1.119,1.367,1.367,0,0,1-.149-.645,1.338,1.338,0,0,1,.446-1.027,1.783,1.783,0,0,1,1.254-.411,3.956,3.956,0,0,1,.872.12,1.784,1.784,0,0,0,.411.064.419.419,0,0,0,.354-.184Z" transform="translate(-10.276 -2.444)" fill="#070203"/>
        <path id="パス_38090" data-name="パス 38090" d="M495.873,1281.991l-1.169,4.053a2.3,2.3,0,0,0-.092.461.172.172,0,0,0,.05.113.14.14,0,0,0,.106.057.283.283,0,0,0,.191-.085,3.365,3.365,0,0,0,.617-.766l.2.114q-.864,1.5-1.835,1.5a.818.818,0,0,1-.588-.209.7.7,0,0,1-.22-.528,1.919,1.919,0,0,1,.1-.538l.793-2.728a2.324,2.324,0,0,0,.113-.588.3.3,0,0,0-.11-.227.42.42,0,0,0-.294-.1c-.062,0-.13,0-.206.007l.071-.227,1.935-.311Zm-.354-2.629a.806.806,0,0,1,.6.248.817.817,0,0,1,.245.595.8.8,0,0,1-.248.592.821.821,0,0,1-.6.245.834.834,0,0,1-.829-.836.823.823,0,0,1,.24-.595A.787.787,0,0,1,495.518,1279.362Z" transform="translate(-14.728)" fill="#070203"/>
        <path id="パス_38091" data-name="パス 38091" d="M498.979,1284.775l1.991-.34a5.822,5.822,0,0,1,.765,1.87q.56-.828.843-1.162a2.605,2.605,0,0,1,.631-.574,1.083,1.083,0,0,1,.524-.134.648.648,0,0,1,.485.17.706.706,0,0,1,0,.91.559.559,0,0,1-.421.173,1.52,1.52,0,0,1-.418-.067,1.4,1.4,0,0,0-.326-.067.742.742,0,0,0-.461.17,3.764,3.764,0,0,0-.73,1,8.085,8.085,0,0,0,.779,2.09.463.463,0,0,0,.347.22.45.45,0,0,0,.255-.071,3.141,3.141,0,0,0,.51-.6l.205.12a3.728,3.728,0,0,1-.985,1.141,1.22,1.22,0,0,1-.716.262,1.063,1.063,0,0,1-.609-.163,1.378,1.378,0,0,1-.429-.532,8.641,8.641,0,0,1-.45-1.183q-.666.851-1.045,1.244a2.484,2.484,0,0,1-.631.513,1.222,1.222,0,0,1-.535.12.635.635,0,0,1-.471-.174.6.6,0,0,1-.174-.443.661.661,0,0,1,.188-.482.643.643,0,0,1,.478-.191.817.817,0,0,1,.347.092,1.151,1.151,0,0,0,.411.141.6.6,0,0,0,.3-.071,1.719,1.719,0,0,0,.432-.369q.163-.176.588-.758a9.745,9.745,0,0,0-.85-2.43.6.6,0,0,0-.5-.255,1.813,1.813,0,0,0-.375.05Z" transform="translate(-17.033 -2.444)" fill="#070203"/>
        <path id="パス_38092" data-name="パス 38092" d="M518.788,1284.435l-.858,3.2a12.306,12.306,0,0,1,1.595-2.883.941.941,0,0,1,.666-.319.479.479,0,0,1,.382.174.735.735,0,0,1,.149.492,1.553,1.553,0,0,1-.269.928.473.473,0,0,1-.376.241.37.37,0,0,1-.347-.213,1,1,0,0,0-.16-.248.153.153,0,0,0-.1-.035.246.246,0,0,0-.12.035,1.157,1.157,0,0,0-.33.33,5.345,5.345,0,0,0-.5.889q-.295.623-.461,1.052a15.788,15.788,0,0,0-.464,1.64h-1.382l.942-3.784a3.075,3.075,0,0,0,.1-.56.44.44,0,0,0-.053-.234.327.327,0,0,0-.146-.128,1.115,1.115,0,0,0-.389-.042l.049-.163,1.722-.375Z" transform="translate(-25.853 -2.444)" fill="#070203"/>
        <path id="パス_38093" data-name="パス 38093" d="M530.425,1284.513l-1.105,3.79-.12.468a.793.793,0,0,0-.015.12.164.164,0,0,0,.05.121.142.142,0,0,0,.1.049.615.615,0,0,0,.333-.177,5.392,5.392,0,0,0,.411-.524l.2.1a3.258,3.258,0,0,1-.864,1.084,1.64,1.64,0,0,1-.992.34.671.671,0,0,1-.5-.17.576.576,0,0,1-.17-.425,3.462,3.462,0,0,1,.184-.829l.135-.46a5.635,5.635,0,0,1-1.268,1.608,1.21,1.21,0,0,1-.758.276.8.8,0,0,1-.758-.432,2,2,0,0,1-.234-.971,4.417,4.417,0,0,1,.492-1.849,4.6,4.6,0,0,1,1.286-1.672,2.03,2.03,0,0,1,1.233-.524.717.717,0,0,1,.514.184,1.246,1.246,0,0,1,.287.673l.206-.7ZM528.6,1285.6a1.2,1.2,0,0,0-.142-.666.329.329,0,0,0-.276-.142.569.569,0,0,0-.368.17,4.283,4.283,0,0,0-.826,1.435,5.058,5.058,0,0,0-.443,1.867.737.737,0,0,0,.1.436.278.278,0,0,0,.22.131.73.73,0,0,0,.524-.29,4.575,4.575,0,0,0,.673-1.035A4.329,4.329,0,0,0,528.6,1285.6Z" transform="translate(-30.108 -2.444)" fill="#070203"/>
        <path id="パス_38094" data-name="パス 38094" d="M548.1,1279.362l-1.85,6.384a4.258,4.258,0,0,0-.177.723.158.158,0,0,0,.042.11.131.131,0,0,0,.1.046.4.4,0,0,0,.22-.092,2.757,2.757,0,0,0,.517-.609l.205.114q-.808,1.4-1.771,1.4a.73.73,0,0,1-.528-.18.617.617,0,0,1-.188-.464,2.9,2.9,0,0,1,.149-.758l.171-.588a6.028,6.028,0,0,1-1.233,1.68,1.29,1.29,0,0,1-.779.311.9.9,0,0,1-.719-.351,1.544,1.544,0,0,1-.294-1.016,4.012,4.012,0,0,1,.375-1.676,5.4,5.4,0,0,1,.872-1.378,3.6,3.6,0,0,1,.942-.79,1.861,1.861,0,0,1,.879-.237.85.85,0,0,1,.4.092,1.485,1.485,0,0,1,.4.34l.425-1.424a3.182,3.182,0,0,0,.149-.751.3.3,0,0,0-.1-.23.384.384,0,0,0-.273-.1,1.7,1.7,0,0,0-.2.015l.057-.22,1.878-.354Zm-2.508,3.621a.764.764,0,0,0-.138-.507.41.41,0,0,0-.315-.16.628.628,0,0,0-.4.184,4.227,4.227,0,0,0-.847,1.47,5.171,5.171,0,0,0-.443,1.86.681.681,0,0,0,.1.4.269.269,0,0,0,.216.131.6.6,0,0,0,.4-.184,5.918,5.918,0,0,0,1.424-3.2Z" transform="translate(-38.256)" fill="#070203"/>
        <path id="パス_38095" data-name="パス 38095" d="M558.589,1284.513l-1.105,3.79-.12.468a.793.793,0,0,0-.015.12.165.165,0,0,0,.05.121.143.143,0,0,0,.1.049.615.615,0,0,0,.333-.177,5.354,5.354,0,0,0,.411-.524l.2.1a3.258,3.258,0,0,1-.864,1.084,1.64,1.64,0,0,1-.992.34.671.671,0,0,1-.5-.17.576.576,0,0,1-.17-.425,3.463,3.463,0,0,1,.184-.829l.135-.46a5.635,5.635,0,0,1-1.268,1.608,1.208,1.208,0,0,1-.758.276.8.8,0,0,1-.758-.432,2,2,0,0,1-.234-.971,4.416,4.416,0,0,1,.492-1.849,4.6,4.6,0,0,1,1.286-1.672,2.03,2.03,0,0,1,1.233-.524.717.717,0,0,1,.514.184,1.245,1.245,0,0,1,.287.673l.206-.7Zm-1.828,1.084a1.2,1.2,0,0,0-.142-.666.329.329,0,0,0-.276-.142.569.569,0,0,0-.368.17,4.29,4.29,0,0,0-.826,1.435,5.059,5.059,0,0,0-.443,1.867.736.736,0,0,0,.1.436.278.278,0,0,0,.22.131.73.73,0,0,0,.524-.29,4.6,4.6,0,0,0,.673-1.035A4.336,4.336,0,0,0,556.762,1285.6Z" transform="translate(-43.677 -2.444)" fill="#070203"/>
        <path id="パス_38096" data-name="パス 38096" d="M567.24,1281.991l-1.169,4.053a2.293,2.293,0,0,0-.092.461.172.172,0,0,0,.05.113.14.14,0,0,0,.106.057.281.281,0,0,0,.191-.085,3.354,3.354,0,0,0,.617-.766l.2.114q-.865,1.5-1.835,1.5a.818.818,0,0,1-.588-.209.7.7,0,0,1-.22-.528,1.917,1.917,0,0,1,.1-.538l.794-2.728a2.343,2.343,0,0,0,.113-.588.3.3,0,0,0-.11-.227.42.42,0,0,0-.294-.1c-.062,0-.13,0-.205.007l.07-.227,1.935-.311Zm-.354-2.629a.808.808,0,0,1,.6.248.818.818,0,0,1,.244.595.8.8,0,0,1-.248.592.821.821,0,0,1-.6.245.834.834,0,0,1-.829-.836.824.824,0,0,1,.241-.595A.786.786,0,0,1,566.885,1279.362Z" transform="translate(-49.111)" fill="#070203"/>
        <path id="パス_38097" data-name="パス 38097" d="M574.977,1288.346l.17.156a4.267,4.267,0,0,1-1.091.971,2.9,2.9,0,0,1-1.474.411,1.834,1.834,0,0,1-.911-.22,1.377,1.377,0,0,1-.584-.616,1.851,1.851,0,0,1-.192-.815,3.7,3.7,0,0,1,.51-1.839,3.97,3.97,0,0,1,1.343-1.431,3.042,3.042,0,0,1,1.633-.528,1.445,1.445,0,0,1,.971.283.9.9,0,0,1,.326.709.922.922,0,0,1-.245.648.734.734,0,0,1-.549.265.6.6,0,0,1-.436-.17.545.545,0,0,1-.174-.4.669.669,0,0,1,.311-.538q.206-.156.206-.276a.2.2,0,0,0-.085-.163.46.46,0,0,0-.3-.092,1.32,1.32,0,0,0-.9.39,3.275,3.275,0,0,0-.854,1.3,4.267,4.267,0,0,0-.294,1.5,1.282,1.282,0,0,0,.3.893.938.938,0,0,0,.719.333,1.968,1.968,0,0,0,.787-.188A2.664,2.664,0,0,0,574.977,1288.346Z" transform="translate(-52.193 -2.444)" fill="#070203"/>
        <path id="パス_38098" data-name="パス 38098" d="M584.288,1279.362l-1.488,5.144q.773-1.133,1.12-1.538a3.8,3.8,0,0,1,.9-.776,1.494,1.494,0,0,1,.712-.2.666.666,0,0,1,.5.219.81.81,0,0,1,.209.581,2.857,2.857,0,0,1-.135.773l-.722,2.43a1.833,1.833,0,0,0-.1.425.146.146,0,0,0,.039.1.113.113,0,0,0,.089.046.226.226,0,0,0,.141-.057,2.162,2.162,0,0,0,.382-.461c.038-.052.094-.132.17-.241l.22.127a3.657,3.657,0,0,1-.928,1.113,1.487,1.487,0,0,1-.836.3.779.779,0,0,1-.552-.185.6.6,0,0,1-.2-.461,2.734,2.734,0,0,1,.135-.708l.708-2.43a1.5,1.5,0,0,0,.07-.368.149.149,0,0,0-.049-.106.156.156,0,0,0-.114-.05.98.98,0,0,0-.56.34,7.832,7.832,0,0,0-1.488,2.2l-.5,1.694H580.59l1.87-6.448a2.562,2.562,0,0,0,.114-.588.251.251,0,0,0-.114-.22.723.723,0,0,0-.453-.092l.035-.227,1.9-.34Z" transform="translate(-56.863)" fill="#070203"/>
        <path id="パス_38099" data-name="パス 38099" d="M596.047,1281.991l-1.169,4.053a2.3,2.3,0,0,0-.092.461.172.172,0,0,0,.05.113.14.14,0,0,0,.106.057.283.283,0,0,0,.191-.085,3.354,3.354,0,0,0,.616-.766l.2.114q-.864,1.5-1.835,1.5a.82.82,0,0,1-.588-.209.7.7,0,0,1-.219-.528,1.919,1.919,0,0,1,.1-.538l.793-2.728a2.321,2.321,0,0,0,.114-.588.3.3,0,0,0-.11-.227.422.422,0,0,0-.294-.1c-.062,0-.13,0-.206.007l.071-.227,1.934-.311Zm-.354-2.629a.806.806,0,0,1,.6.248.816.816,0,0,1,.245.595.8.8,0,0,1-.248.592.819.819,0,0,1-.595.245.835.835,0,0,1-.829-.836.824.824,0,0,1,.241-.595A.787.787,0,0,1,595.692,1279.362Z" transform="translate(-62.989)" fill="#070203"/>
      </g>
    </g>
    <g id="グループ_32209" data-name="グループ 32209" transform="translate(-162 -62)">
      <g id="グループ_32202" data-name="グループ 32202" transform="translate(430.973 84)">
        <path id="パス_38109" data-name="パス 38109" d="M453.6,345.948h-.476a2.047,2.047,0,0,0-.468.048l-.081-.307a2.587,2.587,0,0,0,.541.057h.484V345.4a10.846,10.846,0,0,0-.048-1.541c.8.1.888.137.888.225,0,.073-.048.122-.266.218v1.445h.161c.218-.339.282-.379.339-.379s.1.04.355.3c.1.089.129.154.129.2s-.024.081-.1.081h-.88v1.606c.323-.1.629-.226.888-.339.04-.016.1.073.056.1a9.664,9.664,0,0,1-.944.589c0,2.034.016,2.332.016,2.655a.665.665,0,0,1-.2.516.726.726,0,0,1-.492.169c-.064,0-.1-.057-.113-.145-.016-.242-.129-.339-.71-.468-.04-.008-.04-.1,0-.1.42.024.638.032.791.032.1,0,.137-.024.137-.129v-2.227c-.178.081-.355.161-.541.242-.032.218-.073.291-.161.291s-.121-.048-.347-.775c.137-.016.331-.056.557-.1.161-.04.323-.081.492-.129Zm3.922,2.227a3.524,3.524,0,0,0,.944,1.114,4.185,4.185,0,0,0,1.59.726c.04.008.032.081-.009.1-.193.065-.282.194-.363.46-.024.048-.057.089-.1.089a.613.613,0,0,1-.315-.121,4.129,4.129,0,0,1-.993-.831,5.646,5.646,0,0,1-.872-1.469c.032,1.4.056,2.518.056,2.744,0,.178-.1.274-.347.274-.21,0-.274-.081-.274-.234,0-.169.04-1.146.064-2.26a5.341,5.341,0,0,1-2.429,1.888c-.056.024-.129-.081-.081-.113a6.345,6.345,0,0,0,2.227-2.365h-1.267a2.65,2.65,0,0,0-.484.048l-.081-.315a2.428,2.428,0,0,0,.565.065h1.517v-.1a7.9,7.9,0,0,0-.024-.839c.734.073.815.113.815.194,0,.065-.048.113-.226.186v.557h1.388c.315-.4.379-.436.428-.436s.121.04.46.315c.153.137.193.194.193.242s-.024.081-.1.081Zm-2.429-3.2a12.984,12.984,0,0,0,2.93-.775,3.352,3.352,0,0,0,.783-.412c.5.38.613.492.613.573,0,.048-.024.089-.137.089a1.059,1.059,0,0,1-.267-.04,12.646,12.646,0,0,1-3.914.678C455.053,345.092,455.045,344.987,455.093,344.98Zm.5,1.678a2.034,2.034,0,0,0-.4-1.106c-.016-.024.024-.065.057-.048.581.283.92.694.92,1.057,0,.242-.113.387-.339.387C455.7,346.948,455.626,346.852,455.594,346.658Zm1.477-.178a2.086,2.086,0,0,0-.355-1.146c-.016-.024.024-.064.057-.048a1.383,1.383,0,0,1,.9,1.1c0,.234-.113.387-.347.387C457.167,346.771,457.086,346.666,457.07,346.48Zm.993.662a8.323,8.323,0,0,0,.718-1.412,5.137,5.137,0,0,0,.2-.678c.75.323.783.347.783.452,0,.081-.048.121-.307.145a7.374,7.374,0,0,1-1.307,1.566C458.111,347.247,458.039,347.183,458.063,347.142Z" transform="translate(-452.551 -343.656)"/>
        <path id="パス_38110" data-name="パス 38110" d="M469.674,348.433a6.952,6.952,0,0,1-.194,1.1,3.547,3.547,0,0,1-1.145,1.88c-.041.04-.146-.008-.113-.057a5.416,5.416,0,0,0,.75-1.913,15.6,15.6,0,0,0,.17-2.873c0-1.4-.017-1.784-.057-2.235a3.6,3.6,0,0,1,.742.371h4.43c.29-.282.331-.315.388-.315s.1.033.371.267c.122.1.154.145.154.193,0,.065-.032.1-.226.235v1.6c0,3.3.032,3.567.032,3.946a.571.571,0,0,1-.3.589.861.861,0,0,1-.469.145c-.112,0-.145-.048-.161-.169-.041-.274-.21-.355-.872-.484-.056-.008-.056-.129,0-.129.484.032.751.048,1.017.048a.133.133,0,0,0,.153-.153v-2.042H472.3c.009,1.227.025,2.147.025,2.47,0,.194-.114.266-.379.266-.21,0-.282-.065-.282-.25,0-.113.032-.557.032-1.711v-.775Zm.081-1.808c0,.533-.024,1.073-.065,1.606H471.7v-1.606Zm0-1.719v1.517H471.7v-1.517Zm2.55,1.517h2.042v-1.517H472.3Zm2.042.2H472.3v1.606h2.042Z" transform="translate(-459.788 -343.906)"/>
        <path id="パス_38111" data-name="パス 38111" d="M487.919,346.178a1.345,1.345,0,0,0,.1-.436.329.329,0,0,0-.161-.258,1.457,1.457,0,0,0-.315-.177.068.068,0,0,1-.049-.089c.009-.049.2-.105.323-.105a1.319,1.319,0,0,1,.685.283c.21.137.388.29.388.476a.282.282,0,0,1-.17.242.675.675,0,0,0-.242.331c-.233.492-.444.9-.759,1.445a4.459,4.459,0,0,1,.694.654.9.9,0,0,1,.266.573.287.287,0,0,1-.282.307c-.113,0-.21-.065-.323-.234a4.556,4.556,0,0,0-.661-.807,9.24,9.24,0,0,1-1.534,1.719,7.714,7.714,0,0,1-1.654,1.1.624.624,0,0,1-.226.081.106.106,0,0,1-.1-.1c0-.048.025-.089.1-.137a10.049,10.049,0,0,0,1.662-1.356A11.089,11.089,0,0,0,487,348.01a7.173,7.173,0,0,0-1.307-.847c-.065-.032-.08-.065-.08-.113,0-.065.056-.1.129-.1a1.038,1.038,0,0,1,.2.04,6.349,6.349,0,0,1,1.308.6A12.587,12.587,0,0,0,487.919,346.178Z" transform="translate(-467.034 -344.266)"/>
        <path id="パス_38112" data-name="パス 38112" d="M498.821,347.114a1.739,1.739,0,0,0-.581.169.363.363,0,0,1-.194.048.858.858,0,0,1-.508-.315.654.654,0,0,1-.242-.428c0-.1.032-.161.073-.161.025,0,.065.032.138.089a.869.869,0,0,0,.54.25c.145,0,.291-.016.469-.032.621-.073,1.145-.13,1.888-.186.605-.04,1.154-.081,1.719-.137a.911.911,0,0,0,.291-.073.674.674,0,0,1,.258-.064,1.376,1.376,0,0,1,.638.193.3.3,0,0,1,.169.258.178.178,0,0,1-.186.186,4.849,4.849,0,0,1-.516-.032,8.424,8.424,0,0,0-.9-.016c-.347,0-.807.016-1.178.04.2.113.371.258.371.379a.234.234,0,0,1-.048.129.754.754,0,0,0-.113.242,5,5,0,0,1-.839,1.7,5.178,5.178,0,0,1-1.59,1.453.232.232,0,0,1-.121.04.1.1,0,0,1-.113-.1c0-.048.024-.1.121-.178a6.622,6.622,0,0,0,1.291-1.509,5.266,5.266,0,0,0,.654-1.533,1.386,1.386,0,0,0,.057-.331.359.359,0,0,0-.1-.266A13.422,13.422,0,0,0,498.821,347.114Zm3.325-2.308a.256.256,0,0,1,.145.258c0,.1-.089.185-.25.193s-.315.009-.525.032c-.565.048-1.251.1-1.808.153-.161.016-.46.04-.541.04a.686.686,0,0,1-.508-.234.588.588,0,0,1-.226-.42c0-.065.016-.1.048-.1s.065.024.113.072a.849.849,0,0,0,.654.243,8.075,8.075,0,0,0,.815-.049,9.214,9.214,0,0,0,.928-.129,2.483,2.483,0,0,0,.4-.1,1.029,1.029,0,0,1,.3-.089A.971.971,0,0,1,502.146,344.806Zm.4-.694a1.8,1.8,0,0,1,.7.4c.194.169.307.314.307.484a.225.225,0,0,1-.226.243c-.105,0-.194-.073-.266-.218a2.808,2.808,0,0,0-.678-.775.125.125,0,0,1-.056-.081.082.082,0,0,1,.088-.08A.441.441,0,0,1,502.55,344.112Zm.7-.541a1.886,1.886,0,0,1,.646.315c.194.137.372.323.372.508a.229.229,0,0,1-.218.258c-.105,0-.17-.04-.258-.193a2.464,2.464,0,0,0-.743-.759.1.1,0,0,1-.056-.081.08.08,0,0,1,.081-.08A1,1,0,0,1,503.251,343.571Z" transform="translate(-473.222 -343.539)"/>
        <path id="パス_38113" data-name="パス 38113" d="M513.652,349.626a.525.525,0,0,1-.024.1,2.485,2.485,0,0,0-.017.412c0,.258-.008.613,0,1,.008.444.008.831.008,1.162,0,.178-.08.282-.193.282a.294.294,0,0,1-.25-.161.921.921,0,0,1-.137-.4.674.674,0,0,1,.048-.2.941.941,0,0,0,.04-.307c.016-.226.016-.484.024-.831,0-.331.008-.694.008-1,0-.145-.008-.194-.041-.242a9.725,9.725,0,0,1-2.138,1.7.419.419,0,0,1-.161.065.138.138,0,0,1-.113-.1c0-.04.032-.089.1-.137a14.425,14.425,0,0,0,1.848-1.687,8.912,8.912,0,0,0,.92-1.154.447.447,0,0,0,.105-.25c0-.065-.081-.145-.2-.226-.089-.065-.154-.1-.154-.145s.073-.089.21-.089a1.262,1.262,0,0,1,.638.243c.161.1.282.225.282.338a.18.18,0,0,1-.138.186.48.48,0,0,0-.186.138c-.258.314-.508.589-.8.9C513.546,349.4,513.652,349.521,513.652,349.626Z" transform="translate(-479.417 -345.333)"/>
        <path id="パス_38114" data-name="パス 38114" d="M524.906,349.642a4.281,4.281,0,0,1-1.775,1.929.558.558,0,0,1-.242.089.1.1,0,0,1-.089-.089c0-.048.032-.089.113-.153a4.756,4.756,0,0,0,1.541-2.01,5.347,5.347,0,0,0,.4-1.9.494.494,0,0,0-.065-.315.67.67,0,0,0-.379-.1c-.048,0-.081,0-.081-.048s.057-.105.129-.154a.541.541,0,0,1,.282-.065,1.7,1.7,0,0,1,.629.1c.121.048.169.114.169.218a.53.53,0,0,1-.04.137,1.24,1.24,0,0,0-.04.242,9.5,9.5,0,0,0,1.517-1.275.1.1,0,0,0,.04-.089c0-.024-.032-.032-.1-.032-.234.016-.968.065-1.607.138-.556.057-1.137.137-1.646.226a2.463,2.463,0,0,0-.654.161.386.386,0,0,1-.242.089.908.908,0,0,1-.549-.371.691.691,0,0,1-.209-.436c0-.1.024-.185.056-.185.048,0,.089.04.129.088a.648.648,0,0,0,.525.274,6.991,6.991,0,0,0,.815-.048c1.025-.1,2.058-.186,3.083-.275a.909.909,0,0,0,.371-.072.376.376,0,0,1,.21-.089c.121,0,.258.08.468.266.186.161.315.3.315.452,0,.113-.08.161-.233.186a.964.964,0,0,0-.452.178,17.246,17.246,0,0,1-1.88,1.13A5.66,5.66,0,0,1,524.906,349.642Z" transform="translate(-484.643 -344.502)"/>
      </g>
      <g id="グループ_32068" data-name="グループ 32068" transform="translate(304 84)">
        <g id="グループ_32067" data-name="グループ 32067">
          <path id="パス_37980" data-name="パス 37980" d="M-625.447,1198.894a3.222,3.222,0,0,1-.21.944,8.125,8.125,0,0,1-1.154,2.09,1.08,1.08,0,0,1-.815.525.743.743,0,0,1-.605-.323,1.772,1.772,0,0,1-.371-1.194,2.936,2.936,0,0,1,.759-1.905,3.449,3.449,0,0,1,2.583-1.057,2.964,2.964,0,0,1,1.872.621,2.3,2.3,0,0,1,.9,1.831,2.281,2.281,0,0,1-.872,1.889,4.817,4.817,0,0,1-2.687.9.114.114,0,0,1-.113-.1c0-.065.04-.089.145-.113a4.488,4.488,0,0,0,2.2-1.024,2.28,2.28,0,0,0,.726-1.671,2.037,2.037,0,0,0-.678-1.541,2.338,2.338,0,0,0-1.5-.525,3.391,3.391,0,0,0-.428.017A.942.942,0,0,1-625.447,1198.894Zm-2.034.193a2.517,2.517,0,0,0-.7,1.743,1.393,1.393,0,0,0,.178.751.452.452,0,0,0,.379.274c.169,0,.331-.145.565-.46a8.579,8.579,0,0,0,1.154-2.1,1.771,1.771,0,0,0,.113-.638.5.5,0,0,0-.129-.371A2.848,2.848,0,0,0-627.48,1199.087Z" transform="translate(628.602 -1196.593)"/>
          <path id="パス_37981" data-name="パス 37981" d="M-609.2,1195.715h-2.244v6.391h-.323v-6.7h2.566Z" transform="translate(620.825 -1195.408)"/>
          <path id="パス_37982" data-name="パス 37982" d="M-599.159,1200.565a5.235,5.235,0,0,0,2.486,1.888.054.054,0,0,1-.009.1c-.217.057-.322.146-.419.42-.04.1-.081.137-.145.137a1.107,1.107,0,0,1-.371-.185,6.328,6.328,0,0,1-2.026-2.325,6.9,6.9,0,0,1-.71-2.429,5.863,5.863,0,0,1-1.84,3.857,8.147,8.147,0,0,1-1.783,1.154c-.049.024-.113-.081-.065-.113a6.625,6.625,0,0,0,3.082-5.511,6.667,6.667,0,0,0,0-1.4c.839.081.977.113.977.251,0,.073-.057.113-.282.21-.008.218-.016.428-.024.646A6.12,6.12,0,0,0-599.159,1200.565Z" transform="translate(617.263 -1195.754)"/>
          <path id="パス_37983" data-name="パス 37983" d="M-587.557,1203.54h2.244v-6.392h.323v6.7h-2.566Z" transform="translate(609.64 -1196.212)"/>
          <path id="パス_37984" data-name="パス 37984" d="M-575.918,1199.09c-.04-.419-.048-1.017-.08-1.694-.009-.178-.017-.234-.073-.3a.446.446,0,0,0-.227-.1,1.779,1.779,0,0,0-.193-.024c-.041-.008-.057-.017-.057-.048a.21.21,0,0,1,.1-.137.488.488,0,0,1,.3-.113,1.2,1.2,0,0,1,.7.306.374.374,0,0,1,.153.291.311.311,0,0,1-.089.194.415.415,0,0,0-.056.193,10.776,10.776,0,0,0-.025,1.55c.016.21.073.347.2.347a.861.861,0,0,0,.266-.057c.348-.153.775-.347,1.122-.532.073-.04.1-.065.1-.122,0-.089-.121-.217-.258-.306-.048-.033-.073-.04-.073-.064s.081-.1.17-.1a1.075,1.075,0,0,1,.589.331.684.684,0,0,1,.274.436c0,.145-.121.209-.25.242s-.282.073-.452.122c-.411.12-.847.266-1.291.435a4.975,4.975,0,0,0-1.2.662,1.17,1.17,0,0,0-.549.944.689.689,0,0,0,.4.605,2.834,2.834,0,0,0,1.291.193,6.474,6.474,0,0,0,1.211-.121,2.26,2.26,0,0,1,.4-.089.892.892,0,0,1,.347.073c.177.081.266.177.266.307,0,.161-.1.234-.444.291a11.587,11.587,0,0,1-1.509.081,3.96,3.96,0,0,1-1.679-.3,1.068,1.068,0,0,1-.654-.993,1.408,1.408,0,0,1,.4-.944,4.615,4.615,0,0,1,1.17-.879A.809.809,0,0,1-575.918,1199.09Z" transform="translate(604.845 -1195.99)"/>
          <path id="パス_37985" data-name="パス 37985" d="M-561.486,1195.715h-2.244v6.391h-.323v-6.7h2.566Z" transform="translate(598.781 -1195.408)"/>
          <path id="パス_37986" data-name="パス 37986" d="M-554.617,1200.951a.309.309,0,0,1-.024.113,1.419,1.419,0,0,0-.1.532.814.814,0,0,0,.517.791,3.052,3.052,0,0,0,1.46.266,4.8,4.8,0,0,0,1.38-.17,1.542,1.542,0,0,1,.492-.073c.3,0,.517.137.517.347s-.169.291-.46.331a12.2,12.2,0,0,1-1.8.129,3.9,3.9,0,0,1-1.525-.258,1.3,1.3,0,0,1-.88-1.226,1.318,1.318,0,0,1,.217-.775.137.137,0,0,1,.1-.081C-554.665,1200.878-554.617,1200.91-554.617,1200.951Zm.525-2.066a1.242,1.242,0,0,1-.509-.4.141.141,0,0,1-.032-.1.088.088,0,0,1,.08-.089.192.192,0,0,1,.105.04,1.537,1.537,0,0,0,.54.21,3.242,3.242,0,0,0,.6.048,5.422,5.422,0,0,0,.767-.072,4.754,4.754,0,0,0,.718-.161.977.977,0,0,1,.233-.057,1.039,1.039,0,0,1,.291.041c.2.065.266.169.266.315s-.1.234-.371.258a5.394,5.394,0,0,0-1.122.194,5.86,5.86,0,0,0-1.332.8.43.43,0,0,1-.178.072.125.125,0,0,1-.089-.089.305.305,0,0,1,.089-.129c.178-.161.533-.468.824-.726A2.155,2.155,0,0,1-554.092,1198.885Z" transform="translate(594.616 -1196.746)"/>
          <path id="パス_37987" data-name="パス 37987" d="M-540.124,1199.57a16.215,16.215,0,0,1,1.3-1.275,2.144,2.144,0,0,1,1.122-.614.8.8,0,0,1,.816.855c0,.315-.1.831-.161,1.315-.073.605-.138,1.227-.138,1.542,0,.411.129.532.46.532a2.091,2.091,0,0,0,1.5-1.186c.032-.057.073-.122.145-.122a.1.1,0,0,1,.089.1.363.363,0,0,1-.032.145,2.839,2.839,0,0,1-.694,1.082,1.512,1.512,0,0,1-1.009.468c-.605,0-.927-.339-.927-1,0-.4.04-.969.1-1.614.048-.525.089-.9.089-1.219,0-.452-.081-.581-.282-.581a1.926,1.926,0,0,0-1.009.59,13.161,13.161,0,0,0-1.38,1.4c0,.451,0,.9.008,1.25,0,.073.009.258.024.557.009.113.016.242.024.347a2.383,2.383,0,0,1,.016.291c0,.347-.113.6-.3.6-.1,0-.17-.064-.2-.21a1.5,1.5,0,0,0-.226-.549,6.11,6.11,0,0,0-.614-.75c-.177.242-.25.355-.322.444a.284.284,0,0,1-.234.13c-.129-.009-.2-.1-.2-.275a.6.6,0,0,1,.186-.4c.04-.041.1-.1.169-.161a9.587,9.587,0,0,0,1.292-1.744c.016-.258.024-.468.032-.653a3.5,3.5,0,0,0-.726.371.291.291,0,0,1-.21.113.448.448,0,0,1-.315-.193.926.926,0,0,1-.242-.485c0-.1.024-.178.056-.178s.065.024.1.073c.161.227.25.275.371.275a.856.856,0,0,0,.29-.064c.235-.089.485-.186.694-.283.017-.484.041-1.033.041-1.291,0-.348-.065-.444-.436-.565-.1-.033-.122-.049-.122-.081s.008-.057.073-.1a.458.458,0,0,1,.235-.057,1.151,1.151,0,0,1,.605.226c.178.122.3.218.3.387a.239.239,0,0,1-.089.186.488.488,0,0,0-.121.282c-.016.17-.048.452-.065.856a.375.375,0,0,1,.129-.024c.04,0,.089.024.161.1a.253.253,0,0,1,.089.161.243.243,0,0,1-.081.153,3.454,3.454,0,0,0-.355.605Zm-.484,2.365c.056.041.081.024.081-.04,0-.557,0-1.122.008-1.59-.274.363-.582.783-.767,1.066C-541.077,1201.563-540.8,1201.781-540.608,1201.934Z" transform="translate(588.671 -1195.865)"/>
          <path id="パス_37988" data-name="パス 37988" d="M-522.349,1198.552a.747.747,0,0,1,.638.331,1.686,1.686,0,0,1,.234.96,5.2,5.2,0,0,1-.314,1.711,2.643,2.643,0,0,1-.629,1.033,1.065,1.065,0,0,1-.718.363c-.186,0-.266-.048-.3-.21a.531.531,0,0,0-.122-.29c-.129-.153-.274-.307-.468-.508a.11.11,0,0,1-.04-.081c0-.032.04-.089.08-.089a.144.144,0,0,1,.089.04c.235.161.428.291.638.412a.526.526,0,0,0,.234.056.416.416,0,0,0,.307-.153,2.787,2.787,0,0,0,.572-1.1,5.353,5.353,0,0,0,.21-1.372,1.092,1.092,0,0,0-.137-.677.368.368,0,0,0-.346-.137,2.338,2.338,0,0,0-.557.1c-.25.516-.476,1.025-.718,1.494-.42.815-.783,1.525-1.218,2.267a.3.3,0,0,1-.283.161.239.239,0,0,1-.258-.225.5.5,0,0,1,.1-.3c.477-.718.913-1.445,1.316-2.187.209-.4.387-.726.548-1.065-.3.1-.613.234-.847.33a.879.879,0,0,0-.235.122.292.292,0,0,1-.2.089.539.539,0,0,1-.363-.194.9.9,0,0,1-.307-.564c0-.089.04-.194.081-.194s.048.017.089.073c.145.186.266.3.4.3a2.456,2.456,0,0,0,.581-.105c.282-.065.589-.145.977-.25a9.152,9.152,0,0,0,.363-.977.914.914,0,0,0,.057-.315c0-.073-.016-.113-.122-.186a1.157,1.157,0,0,0-.355-.121c-.081-.016-.114-.033-.114-.073s.049-.073.1-.1a.7.7,0,0,1,.291-.065,1.31,1.31,0,0,1,.807.339.337.337,0,0,1,.13.266c0,.08-.048.137-.153.185a.55.55,0,0,0-.194.259c-.1.217-.209.452-.322.7A2.449,2.449,0,0,1-522.349,1198.552Zm3.212,2.485a.374.374,0,0,1-.234-.088.456.456,0,0,0-.3-.089c-.258,0-.541.016-.911.04a.1.1,0,0,1-.113-.1c0-.048.024-.081.089-.1a6.9,6.9,0,0,0,.9-.226c.1-.032.13-.056.13-.145a1.318,1.318,0,0,0-.274-.621,3.474,3.474,0,0,0-.888-.847.167.167,0,0,1-.081-.113c0-.04.049-.08.122-.08a.145.145,0,0,1,.072.016,3.179,3.179,0,0,1,1.13.767,1.915,1.915,0,0,1,.646,1.242C-518.847,1200.932-518.984,1201.037-519.137,1201.037Z" transform="translate(580.951 -1196.074)"/>
          <path id="パス_37989" data-name="パス 37989" d="M-507.64,1197.178a1.139,1.139,0,0,1-.339-.742c0-.073.032-.1.065-.1s.065.016.1.089a1.8,1.8,0,0,0,1.009.742,1.306,1.306,0,0,1,.476.258.459.459,0,0,1,.169.348.219.219,0,0,1-.217.226.755.755,0,0,1-.251-.04,1.182,1.182,0,0,0-.387-.048,2.974,2.974,0,0,0-1.017.234c-.129.057-.2.137-.2.218a.552.552,0,0,0,.065.218.879.879,0,0,1,.065.346,4.654,4.654,0,0,1-.057.565,8.726,8.726,0,0,0-.105,1.162c0,.032.009.057.041.057s.048-.009.1-.049a8.487,8.487,0,0,1,1.081-.726,2.885,2.885,0,0,1,1.492-.476,1.725,1.725,0,0,1,1.259.451,1.216,1.216,0,0,1,.379.888,1.845,1.845,0,0,1-1.3,1.622,6.725,6.725,0,0,1-2.558.533c-.089,0-.161-.024-.161-.1a.137.137,0,0,1,.121-.121,6.9,6.9,0,0,0,2.259-.694c.646-.371,1.017-.815,1.017-1.331a1.006,1.006,0,0,0-.282-.751,1.152,1.152,0,0,0-.783-.25,1.993,1.993,0,0,0-1.065.347,4.968,4.968,0,0,0-.985.831,2.109,2.109,0,0,0-.428.6c-.048.153-.1.21-.235.21-.1,0-.209-.081-.306-.234a.862.862,0,0,1-.129-.468,9.149,9.149,0,0,1,.194-1.646,3.149,3.149,0,0,0,.064-.614c0-.088-.016-.2-.016-.306a.532.532,0,0,1,.315-.468,4.912,4.912,0,0,1,1.017-.4A1.785,1.785,0,0,1-507.64,1197.178Z" transform="translate(573.231 -1195.838)"/>
          <path id="パス_37990" data-name="パス 37990" d="M-491.956,1198.894a3.208,3.208,0,0,1-.21.944,8.123,8.123,0,0,1-1.154,2.09,1.08,1.08,0,0,1-.815.525.743.743,0,0,1-.605-.323,1.772,1.772,0,0,1-.371-1.194,2.936,2.936,0,0,1,.759-1.905,3.447,3.447,0,0,1,2.583-1.057,2.961,2.961,0,0,1,1.872.621,2.3,2.3,0,0,1,.9,1.831,2.28,2.28,0,0,1-.872,1.889,4.813,4.813,0,0,1-2.687.9.114.114,0,0,1-.113-.1c0-.065.04-.089.145-.113a4.488,4.488,0,0,0,2.2-1.024,2.281,2.281,0,0,0,.726-1.671,2.036,2.036,0,0,0-.678-1.541,2.337,2.337,0,0,0-1.5-.525,3.4,3.4,0,0,0-.428.017A.94.94,0,0,1-491.956,1198.894Zm-2.034.193a2.517,2.517,0,0,0-.7,1.743,1.394,1.394,0,0,0,.178.751.451.451,0,0,0,.379.274c.169,0,.33-.145.565-.46a8.56,8.56,0,0,0,1.154-2.1,1.759,1.759,0,0,0,.113-.638.5.5,0,0,0-.129-.371A2.846,2.846,0,0,0-493.989,1199.087Z" transform="translate(566.932 -1196.593)"/>
          <path id="パス_37991" data-name="パス 37991" d="M-478.612,1199.72c0-.653-.008-1.178-.024-1.67a9.912,9.912,0,0,1-1.549.75c-.056.024-.1-.1-.048-.12a9.9,9.9,0,0,0,2.76-2.3,2.8,2.8,0,0,0,.5-.9c.678.2.888.315.888.4,0,.065-.073.1-.266.129a5.178,5.178,0,0,0,1.614,1.38,6.223,6.223,0,0,0,2.106.7c.04.009.033.081-.008.089-.209.033-.3.113-.4.42-.032.105-.072.137-.137.137a.8.8,0,0,1-.218-.065,6.741,6.741,0,0,1-1.049-.541c0,.064-.025.105-.169.194v.459c0,.936.032,1.3.032,1.42,0,.177-.1.251-.339.251-.169,0-.234-.033-.25-.137H-476.7a4.261,4.261,0,0,0,.96,1.082,8.854,8.854,0,0,0,.977-.848,3.179,3.179,0,0,0,.387-.5c.565.339.654.428.654.516,0,.072-.089.1-.348.072a7.508,7.508,0,0,1-1.533.855,4.694,4.694,0,0,0,.484.291,5.862,5.862,0,0,0,2.162.533c.032,0,.032.073,0,.081a.511.511,0,0,0-.435.412c-.033.1-.089.153-.17.153a1.417,1.417,0,0,1-.363-.081,5.914,5.914,0,0,1-1.348-.605,4.257,4.257,0,0,1-1.622-1.961h-1.154v1.767a15.71,15.71,0,0,0,1.792-.452c.048-.016.072.081.032.1a14.321,14.321,0,0,1-2.817,1.106c-.057.21-.1.258-.169.258-.081,0-.145-.129-.355-.815a8.867,8.867,0,0,0,.952-.1Zm3.39-1.751a1.666,1.666,0,0,1,.242-.2,5.848,5.848,0,0,1-1.509-1.671,7.117,7.117,0,0,1-1.808,1.735c.089.04.169.08.291.137h1.065v-.38a5.141,5.141,0,0,0-.04-.564c.775.072.855.129.855.218,0,.056-.057.121-.25.217v.509Zm.04.2h-2.865v.855h2.865Zm-2.865,1.945h2.865v-.888h-2.865Z" transform="translate(560.07 -1195.443)"/>
          <path id="パス_37992" data-name="パス 37992" d="M-463.461,1203.54h2.244v-6.392h.323v6.7h-2.566Z" transform="translate(552.311 -1196.212)"/>
          <path id="パス_37993" data-name="パス 37993" d="M-451.374,1199.857c0-.46-.113-.654-.4-.654a1.567,1.567,0,0,0-.993.565,6.344,6.344,0,0,0-.638.807c-.065.089-.169.194-.274.194-.153,0-.266-.1-.266-.322,0-.122.089-.235.25-.4a8.727,8.727,0,0,0,.783-.927,10.394,10.394,0,0,0,.6-.953,4.616,4.616,0,0,1-.694.048.975.975,0,0,1-.936-.516.194.194,0,0,1-.032-.1.066.066,0,0,1,.065-.073.157.157,0,0,1,.1.064,1.037,1.037,0,0,0,.8.266,4.483,4.483,0,0,0,.912-.129,4.618,4.618,0,0,0,.266-.686.915.915,0,0,0,.04-.21c0-.1-.056-.153-.161-.186a2.007,2.007,0,0,0-.331-.064c-.04-.009-.065-.025-.065-.049a.156.156,0,0,1,.065-.089.5.5,0,0,1,.315-.1,1.376,1.376,0,0,1,.605.186c.194.113.266.218.266.315a.212.212,0,0,1-.089.185.777.777,0,0,0-.2.219c-.048.081-.137.242-.2.371a3.409,3.409,0,0,0,.7-.282.833.833,0,0,1,.412-.137c.178,0,.307.1.307.242s-.113.193-.266.25a13.549,13.549,0,0,1-1.412.4c-.25.419-.5.847-.775,1.235a1.816,1.816,0,0,1,.969-.388.7.7,0,0,1,.742.686c.016.1.016.243.024.379a18.97,18.97,0,0,0,1.614-1.009.241.241,0,0,0,.121-.169c0-.04-.032-.073-.1-.113a1.125,1.125,0,0,0-.242-.089c-.048-.016-.081-.032-.081-.056s.057-.081.122-.105a.5.5,0,0,1,.2-.032,1.424,1.424,0,0,1,.613.2c.242.129.371.266.371.428a.208.208,0,0,1-.21.209,1.151,1.151,0,0,0-.315.089c-.395.17-.8.355-1.355.646-.235.121-.5.282-.727.4v1.13c0,.226-.088.339-.25.339a.255.255,0,0,1-.274-.291c0-.193.016-.532.032-.928-.71.4-1.13.718-1.13,1.219,0,.331.29.589,1.041.589a8.8,8.8,0,0,0,1.13-.057,4.718,4.718,0,0,0,.476-.1,1.348,1.348,0,0,1,.274-.048c.283,0,.557.161.557.355,0,.129-.089.21-.4.258a10.768,10.768,0,0,1-1.525.081c-1.1,0-1.84-.266-1.84-1.033,0-.7.557-1.162,1.42-1.678Z" transform="translate(547.931 -1195.838)"/>
          <path id="パス_37994" data-name="パス 37994" d="M-439.7,1202.687c0-.258.04-.525.04-.758,0-.573-.129-.711-.638-.856-.048-.016-.032-.121.016-.113a2.856,2.856,0,0,0,.307.032.415.415,0,0,0,.4-.218,24.257,24.257,0,0,0,1.34-2.542c.016-.041.113,0,.1.04-.363.952-.686,1.792-1.033,2.614a1.393,1.393,0,0,0-.089.516c0,.4.291.767.291,1.178,0,.307-.169.508-.42.508C-439.586,1203.09-439.7,1202.969-439.7,1202.687Zm.178-3.744a1.808,1.808,0,0,0-.71-.928c-.024-.016.008-.073.04-.065.751.1,1.227.444,1.227.823a.352.352,0,0,1-.315.372C-439.384,1199.144-439.457,1199.087-439.521,1198.942Zm.42-2.042a1.668,1.668,0,0,0-.63-.783c-.024-.016.008-.073.04-.065.783.121,1.219.435,1.219.831a.333.333,0,0,1-.315.347C-438.924,1197.231-438.973,1197.183-439.1,1196.9Zm3.631,3.107a3.6,3.6,0,0,0,1.1,1.154,4.7,4.7,0,0,0,1.638.646c.033.009.033.081,0,.089a.477.477,0,0,0-.363.411c-.032.113-.048.153-.1.153a.842.842,0,0,1-.29-.1,4.638,4.638,0,0,1-1.186-.88,4.671,4.671,0,0,1-.912-1.356c.024,1.679.065,2.6.065,2.8,0,.169-.129.25-.363.25-.186,0-.266-.065-.266-.194,0-.194.04-.993.081-2.413a5.863,5.863,0,0,1-2.591,1.945c-.048.024-.113-.081-.065-.113a6.77,6.77,0,0,0,2.365-2.389h-1.356a2.707,2.707,0,0,0-.484.048l-.089-.306a3.111,3.111,0,0,0,.581.056h1.606v-.194a6.074,6.074,0,0,0-.032-.887c.718.089.823.129.823.233,0,.057-.032.1-.25.2v.646h1.436c.339-.4.4-.435.452-.435s.113.04.468.315c.161.137.2.185.2.234,0,.065-.032.089-.113.089Zm-1.912-3.365c0,.638-.234,1.1-.605,1.09a.283.283,0,0,1-.282-.307c0-.145.065-.226.226-.347a1.068,1.068,0,0,0,.5-.976c0-.049.1-.057.113-.008a2.747,2.747,0,0,1,.048.346h3.486c.226-.266.266-.307.306-.307s.137.025.476.339c.129.113.138.161.138.226,0,.1-.073.145-.275.137a.275.275,0,0,0-.226.1,4.183,4.183,0,0,1-.541.453c-.032.024-.089-.025-.072-.057a3.051,3.051,0,0,0,.274-.694h-1v1.389c0,.242.089.307.549.307.4,0,.517-.04.613-.138a1.4,1.4,0,0,0,.291-.678c.009-.04.089-.032.089.009-.008.178-.024.411-.024.516,0,.089.024.121.122.161a.225.225,0,0,1,.145.218c0,.137-.1.233-.3.3a4.045,4.045,0,0,1-1.009.089c-.783,0-1.017-.17-1.017-.67,0-.113.016-.314.016-.613v-.888H-436a2.349,2.349,0,0,1-2.09,2.445c-.057.017-.089-.1-.04-.12a2.282,2.282,0,0,0,1.581-2.325Z" transform="translate(541.622 -1195.706)"/>
          <path id="パス_37995" data-name="パス 37995" d="M-421.233,1197.547a1.908,1.908,0,0,0-.161.363,7.452,7.452,0,0,0-.452,2.275,4.672,4.672,0,0,0,.048.84c.008.032.024.048.048.048s.04-.016.057-.056c.2-.484.46-1.13.629-1.541.024-.057.057-.1.1-.1a.1.1,0,0,1,.089.081.4.4,0,0,1-.024.113c-.153.589-.4,1.38-.468,1.7a2.076,2.076,0,0,0-.073.42,2.956,2.956,0,0,0,.016.355,1.965,1.965,0,0,1,.025.234c0,.137-.065.226-.21.226s-.3-.129-.4-.412a5.5,5.5,0,0,1-.218-1.815,11.718,11.718,0,0,1,.371-2.543,3.38,3.38,0,0,0,.1-.645,1.017,1.017,0,0,0-.194-.654.291.291,0,0,1-.057-.137c0-.056.057-.08.1-.08a.231.231,0,0,1,.129.048,1.25,1.25,0,0,1,.46.5,1.088,1.088,0,0,1,.169.525A.536.536,0,0,1-421.233,1197.547Zm3.164.863c0-.25,0-.315-.033-.379a.263.263,0,0,0-.178-.1,1.166,1.166,0,0,0-.145-.016c-.033,0-.057-.017-.057-.041,0-.048.048-.081.089-.1a.605.605,0,0,1,.267-.073.854.854,0,0,1,.451.146.2.2,0,0,1,.122.186.209.209,0,0,1-.04.12.875.875,0,0,0-.048.283c-.009.161-.009.25-.009.355a5.476,5.476,0,0,0,.694-.25.572.572,0,0,1,.235-.065.2.2,0,0,1,.217.2c0,.12-.056.2-.25.3a3.91,3.91,0,0,1-.9.3c0,.565.016,1.114.056,1.622a3.91,3.91,0,0,1,1.324.662.493.493,0,0,1,.2.355.258.258,0,0,1-.242.282.406.406,0,0,1-.315-.145,3.417,3.417,0,0,0-.944-.662c-.009.662-.517.976-1.171.976s-1.137-.274-1.137-.775c0-.613.685-.823,1.25-.823a3.466,3.466,0,0,1,.59.04c-.009-.485-.016-.977-.024-1.469a5.467,5.467,0,0,1-.678.065,2.035,2.035,0,0,1-.807-.1.5.5,0,0,1-.274-.436.972.972,0,0,1,.25-.686.14.14,0,0,1,.105-.064c.032,0,.072.025.072.049a.274.274,0,0,1-.04.113,1.065,1.065,0,0,0-.121.387.259.259,0,0,0,.1.243c.073.065.21.08.444.08a5.673,5.673,0,0,0,.944-.1Zm1.113-1.622c0,.153-.121.226-.315.226-.266,0-.428-.008-.718.007a6.629,6.629,0,0,0-1.662.355.35.35,0,0,1-.121.041.094.094,0,0,1-.081-.081.155.155,0,0,1,.081-.12,3.586,3.586,0,0,1,1.065-.549,3.846,3.846,0,0,1,1.146-.2C-417.2,1196.466-416.957,1196.563-416.957,1196.789Zm-1.936,4.293c-.468,0-.726.2-.726.468,0,.307.355.4.839.4a.664.664,0,0,0,.734-.726A2.177,2.177,0,0,0-418.893,1201.081Zm2.034-5.117a1.8,1.8,0,0,1,.685.428c.186.177.3.323.29.492a.224.224,0,0,1-.233.235c-.1,0-.194-.081-.259-.226a2.657,2.657,0,0,0-.653-.8.111.111,0,0,1-.048-.081.083.083,0,0,1,.089-.08A.449.449,0,0,1-416.859,1195.965Zm.718-.517a1.915,1.915,0,0,1,.638.339.789.789,0,0,1,.355.525.238.238,0,0,1-.235.25c-.1-.009-.161-.048-.25-.21a2.507,2.507,0,0,0-.71-.783.1.1,0,0,1-.057-.081.088.088,0,0,1,.089-.081A1.024,1.024,0,0,1-416.142,1195.448Z" transform="translate(533.261 -1195.408)"/>
          <path id="パス_37996" data-name="パス 37996" d="M-404.63,1200.27a2.78,2.78,0,0,1,1.695-.637,1.65,1.65,0,0,1,1.84,1.614,2.055,2.055,0,0,1-2.284,1.9c-.88,0-1.5-.363-1.5-.912,0-.436.363-.67.807-.67a1.541,1.541,0,0,1,1.356,1.033,1.445,1.445,0,0,0,1.017-1.4,1.182,1.182,0,0,0-1.275-1.283,2.578,2.578,0,0,0-1.824.823,6.381,6.381,0,0,0-.629.71.263.263,0,0,1-.2.105.3.3,0,0,1-.29-.315.4.4,0,0,1,.137-.291c.621-.67,1.291-1.364,1.872-2.075.348-.428.678-.831,1.081-1.363.057-.073.033-.089,0-.089a.757.757,0,0,0-.153.04c-.364.122-.775.275-1.1.4a.594.594,0,0,0-.274.17.305.305,0,0,1-.218.089.647.647,0,0,1-.4-.234.915.915,0,0,1-.291-.59c0-.08.048-.169.1-.169.032,0,.065.032.1.089.178.234.291.315.428.315a1.908,1.908,0,0,0,.42-.057c.363-.089.7-.185,1.065-.306a.515.515,0,0,0,.242-.145.257.257,0,0,1,.186-.081,1.134,1.134,0,0,1,.508.251c.161.113.242.218.242.347,0,.081-.065.137-.21.17-.08.016-.153.056-.331.234-.266.267-.6.613-1.073,1.17-.3.347-.734.767-1.057,1.13Zm.46,1.549a.392.392,0,0,0-.444.371c0,.331.428.557,1.073.557a1.629,1.629,0,0,0,.323-.024A1.194,1.194,0,0,0-404.17,1201.819Z" transform="translate(525.728 -1196.122)"/>
        </g>
      </g>
    </g>
    <g id="グループ_32204" data-name="グループ 32204" transform="translate(-147.215 -291.275)">
      <path id="パス_38115" data-name="パス 38115" d="M310.788,379.538a.964.964,0,0,1,.324-.1,2.625,2.625,0,0,1,.876.173.515.515,0,0,1,.346.4.317.317,0,0,1-.314.346h-.1c-.508-.043-1.123-.076-1.827-.076-.313,0-.583.011-1.156.032,0,.486.012,1.058.023,1.415.021,1.242.053,2.225.076,2.949a.866.866,0,0,1-.227.734,1.5,1.5,0,0,1-.832.346c-.195,0-.259-.01-.281-.129a.711.711,0,0,0-.259-.508,3.63,3.63,0,0,0-.842-.4c-.119-.043-.141-.076-.141-.151,0-.054.054-.076.141-.076.043,0,.086.011.195.022a8.089,8.089,0,0,0,1.112.108c.184,0,.216-.076.216-.249,0-1.415-.011-2.311-.032-3.338a11.5,11.5,0,0,1-2.031,2.161,10.307,10.307,0,0,1-2.5,1.588.716.716,0,0,1-.249.076c-.076,0-.1-.076-.1-.13s.054-.108.162-.184a14.256,14.256,0,0,0,2.215-1.891,15.912,15.912,0,0,0,1.793-2.247c-.789.1-1.393.215-1.837.313a1.773,1.773,0,0,0-.595.205.519.519,0,0,1-.357.108c-.172,0-.41-.15-.734-.507a1.069,1.069,0,0,1-.346-.638c0-.119.065-.249.141-.249.043,0,.086.032.14.086a1.273,1.273,0,0,0,.886.389c.12,0,.292-.011.551-.032.637-.065,1.448-.151,2.831-.27,0-1.123-.012-1.415-.023-1.577-.022-.281-.053-.357-.173-.422a1.886,1.886,0,0,0-.508-.173c-.108-.021-.14-.021-.14-.1,0-.055.076-.131.162-.185a.673.673,0,0,1,.421-.107,2.819,2.819,0,0,1,.983.2c.293.13.433.259.433.443a.718.718,0,0,1-.163.378c-.043.065-.086.151-.119.54-.01.215-.021.508-.021.94.518-.043.876-.065,1.437-.119A.879.879,0,0,0,310.788,379.538Z" transform="translate(0 -0.098)" fill="#070203"/>
      <path id="パス_38116" data-name="パス 38116" d="M323.741,382.321c-.335,0-1.07-.054-1.6-.054-.853,0-2.71.043-4.04.162a3.076,3.076,0,0,0-1.069.2.469.469,0,0,1-.292.087c-.281,0-.529-.26-.865-.746a.881.881,0,0,1-.2-.584c0-.172.065-.259.129-.259.033,0,.087.044.141.1a1.066,1.066,0,0,0,.908.411c.291,0,.5-.011,1.133-.054,1.34-.086,2.766-.151,3.825-.173a2.063,2.063,0,0,0,.843-.151.712.712,0,0,1,.3-.086,1.24,1.24,0,0,1,.486.107c.411.173.692.335.692.605A.41.41,0,0,1,323.741,382.321Z" transform="translate(-1.236 -0.482)" fill="#070203"/>
      <path id="パス_38117" data-name="パス 38117" d="M331.814,379.992c1.1-.086,1.491-.108,2.042-.173a1.917,1.917,0,0,0,.411-.119,1.135,1.135,0,0,1,.4-.1,2.157,2.157,0,0,1,1.027.292.472.472,0,0,1,.237.422.3.3,0,0,1-.248.324,3.294,3.294,0,0,1-.658-.044,11.341,11.341,0,0,0-1.34-.076c-.368,0-.972,0-1.458.032.346.239.5.454.5.605a.328.328,0,0,1-.055.173,2.019,2.019,0,0,0-.215.486,7.152,7.152,0,0,1-1.178,2.128,6.6,6.6,0,0,1-2.2,1.825.456.456,0,0,1-.184.065c-.076,0-.108-.031-.108-.107,0-.055.086-.131.27-.293a9.05,9.05,0,0,0,1.588-1.987,8.193,8.193,0,0,0,.8-1.912,3.386,3.386,0,0,0,.1-.573.51.51,0,0,0-.119-.368c-.767.076-1.567.173-2.064.27a1.334,1.334,0,0,0-.508.184.5.5,0,0,1-.324.1c-.195,0-.389-.108-.723-.485a.966.966,0,0,1-.281-.595c0-.162.054-.259.118-.259s.1.065.163.119a1.148,1.148,0,0,0,.735.346c.259,0,.637-.032.949-.065C330.216,380.132,330.842,380.067,331.814,379.992Zm.692-2.291a1.182,1.182,0,0,0,.324-.118,1.335,1.335,0,0,1,.41-.12,1.974,1.974,0,0,1,.93.216.358.358,0,0,1,.173.324.364.364,0,0,1-.4.378c-.238.011-.519.011-.865.043-.658.054-1.782.141-2.387.195-.205.022-.411.043-.562.043a.923.923,0,0,1-.864-.389.765.765,0,0,1-.249-.573c0-.1.022-.162.076-.162.032,0,.065.044.141.1a1.157,1.157,0,0,0,.864.335,11.1,11.1,0,0,0,1.167-.086C331.739,377.831,332.16,377.777,332.506,377.7Zm3.057-.335a.812.812,0,0,1,.4.649.363.363,0,0,1-.357.378.387.387,0,0,1-.367-.249,4.069,4.069,0,0,0-.68-.951c-.043-.042-.119-.1-.119-.14,0-.065.054-.076.13-.076a.939.939,0,0,1,.248.043A1.973,1.973,0,0,1,335.563,377.366Zm.994-.745a.657.657,0,0,1,.388.551.362.362,0,0,1-.335.4.412.412,0,0,1-.4-.237,2.743,2.743,0,0,0-.757-.843c-.043-.032-.129-.086-.129-.13a.085.085,0,0,1,.086-.086,1.494,1.494,0,0,1,.281.032A2.539,2.539,0,0,1,336.558,376.621Z" transform="translate(-2.411 0)" fill="#070203"/>
      <path id="パス_38118" data-name="パス 38118" d="M340.766,384.028a.42.42,0,0,1-.183.076.1.1,0,0,1-.108-.107c0-.044.053-.108.151-.173a18.349,18.349,0,0,0,2.657-2.572,7.71,7.71,0,0,0,.972-1.339.75.75,0,0,0,.13-.357c0-.076-.108-.184-.269-.28-.087-.054-.174-.076-.174-.141,0-.119.162-.173.367-.173a2.257,2.257,0,0,1,.973.346c.226.141.411.3.411.465,0,.13-.087.238-.282.3a.3.3,0,0,0-.183.119c-.466.508-.886.961-1.2,1.285.324.227.53.411.53.573a.363.363,0,0,1-.032.162,5.328,5.328,0,0,0-.022.669v1.124c.011.767.011,1.231.011,1.48,0,.388-.173.508-.367.508a.459.459,0,0,1-.389-.205,1.025,1.025,0,0,1-.172-.584.747.747,0,0,1,.043-.195,2.287,2.287,0,0,0,.065-.573c.011-.248.021-.465.021-.875,0-.3.011-.9.011-1.167a1.192,1.192,0,0,0-.064-.55A11.443,11.443,0,0,1,340.766,384.028Z" transform="translate(-3.698 -0.267)" fill="#070203"/>
      <path id="パス_38119" data-name="パス 38119" d="M358.935,379.483a.386.386,0,0,1-.282.367c-.172.076-.227.195-.334.368a18.656,18.656,0,0,1-2.5,3.241,9.459,9.459,0,0,1-3.5,2.355.717.717,0,0,1-.249.065c-.066,0-.109-.022-.109-.1s.055-.108.185-.194a13.642,13.642,0,0,0,3.154-2.766,14.758,14.758,0,0,0,2.129-3.263.37.37,0,0,0,.032-.108.049.049,0,0,0-.054-.043c-.259.032-.615.119-1.091.205a4.411,4.411,0,0,1-.584.108,1.738,1.738,0,0,1-.594-.184,12.122,12.122,0,0,1-1.286,1.448,10.214,10.214,0,0,1-1.566,1.2.834.834,0,0,1-.346.161c-.1,0-.131-.042-.131-.118s.151-.195.412-.454a15.188,15.188,0,0,0,1.339-1.566c.3-.4.594-.831.875-1.285a2.213,2.213,0,0,0,.357-.832c0-.184-.184-.313-.389-.422-.1-.054-.13-.086-.13-.13s.141-.172.357-.172a2.27,2.27,0,0,1,1.058.388c.335.205.4.346.4.508a.481.481,0,0,1-.237.335,2.105,2.105,0,0,0-.443.54.659.659,0,0,0,.161.012,7.684,7.684,0,0,0,.843-.119c.443-.076.724-.141.865-.174a.446.446,0,0,0,.227-.129.441.441,0,0,1,.28-.151c.259,0,.5.13.876.476A.692.692,0,0,1,358.935,379.483Zm.55-1.469a.809.809,0,0,1,.4.649.362.362,0,0,1-.356.377.387.387,0,0,1-.367-.248,4.073,4.073,0,0,0-.681-.951c-.043-.043-.119-.1-.119-.141,0-.065.054-.076.13-.076a.947.947,0,0,1,.249.043A1.976,1.976,0,0,1,359.485,378.014Zm.994-.745a.655.655,0,0,1,.388.55.362.362,0,0,1-.335.4.412.412,0,0,1-.4-.238,2.74,2.74,0,0,0-.757-.842c-.043-.033-.13-.086-.13-.13a.085.085,0,0,1,.086-.086,1.491,1.491,0,0,1,.281.032A2.5,2.5,0,0,1,360.479,377.269Z" transform="translate(-4.823 -0.064)" fill="#070203"/>
    </g>
  </g>
</svg>
