<svg xmlns="http://www.w3.org/2000/svg" width="223.549" height="59.654" viewBox="0 0 223.549 59.654">
  <g id="グループ_32191" data-name="グループ 32191" transform="translate(-45.999 -392.083)">
    <g id="グループ_32190" data-name="グループ 32190" transform="translate(0 -8)">
      <g id="ORDig" transform="translate(-118.073 20.883)" style="isolation: isolate">
        <g id="グループ_31967" data-name="グループ 31967" transform="translate(218.073 402.116)" style="isolation: isolate">
          <path id="パス_37905" data-name="パス 37905" d="M227.451,430.624a9.491,9.491,0,0,1-5.325-1.347,8.227,8.227,0,0,1-3.043-3.679,11.353,11.353,0,0,1-1.01-4.526,18.228,18.228,0,0,1,2.545-8.992,19.955,19.955,0,0,1,6.871-7.246,15.992,15.992,0,0,1,8.542-2.718,9.5,9.5,0,0,1,4.689,1.234,8.713,8.713,0,0,1,3.454,3.467,9.216,9.216,0,0,1,1.235,4.5,18.984,18.984,0,0,1-3.23,10.2,21.09,21.09,0,0,1-7.27,7.383A14.945,14.945,0,0,1,227.451,430.624Zm7.931-26.862a5.835,5.835,0,0,0-2.705.574,8.578,8.578,0,0,0-2.32,1.908,17.178,17.178,0,0,0-2.457,3.841,34.9,34.9,0,0,0-2.332,6.8,30.289,30.289,0,0,0-1.085,7.183,5.564,5.564,0,0,0,1.06,3.691A3.418,3.418,0,0,0,228.274,429a5.278,5.278,0,0,0,3.741-1.446A21.11,21.11,0,0,0,237.028,419a31.22,31.22,0,0,0,1.945-10.027A6.164,6.164,0,0,0,237.938,405,3.21,3.21,0,0,0,235.382,403.762Z" transform="translate(-218.073 -402.116)" fill="#070203"/>
        </g>
        <g id="グループ_31968" data-name="グループ 31968" transform="translate(242.753 402.116)" style="isolation: isolate">
          <path id="パス_37906" data-name="パス 37906" d="M260.158,416.79l-2.394,8.256a10.11,10.11,0,0,0-.524,2.568,1.461,1.461,0,0,0,.623,1.235,4.959,4.959,0,0,0,2.594.486l-.3.748H247.064l.225-.748a4.455,4.455,0,0,0,2.881-.761,7.306,7.306,0,0,0,1.683-3.4l5.064-17.483a8.7,8.7,0,0,0,.424-2.3,1.48,1.48,0,0,0-.524-1.222,5.037,5.037,0,0,0-2.419-.574l.2-.748h11.273q4.838,0,6.809,1.7a5.47,5.47,0,0,1,1.971,4.34,6.9,6.9,0,0,1-2.3,5.038,12.254,12.254,0,0,1-5.112,2.419l2.444,8.256q.972,3.316,1.709,4a3.719,3.719,0,0,0,2.456.736v.748h-8.48L261.5,416.79l-.648.05Q260.632,416.84,260.158,416.79Zm.3-1.2c.465.016.856.025,1.172.025a6.325,6.325,0,0,0,4.826-2.007,7.367,7.367,0,0,0,1.883-5.25,3.97,3.97,0,0,0-1.01-2.931,3.591,3.591,0,0,0-2.656-1.01c-.266,0-.574.009-.923.025Z" transform="translate(-247.064 -402.225)" fill="#070203"/>
          <path id="パス_37907" data-name="パス 37907" d="M278.057,430.084l.249-.748a4.684,4.684,0,0,0,2.98-.81,6.123,6.123,0,0,0,1.683-3.031l4.938-17.185a10.558,10.558,0,0,0,.474-2.768,1.612,1.612,0,0,0-.562-1.359,6.3,6.3,0,0,0-2.855-.587l.225-.748h9.328q7.355,0,10.624,2.993t3.267,8.355a12.307,12.307,0,0,1-1.521,6.36,18.912,18.912,0,0,1-7,7.283,21.357,21.357,0,0,1-10.412,2.245Zm17.009-25.615L289.081,425.1a8.537,8.537,0,0,0-.424,2.046,1.093,1.093,0,0,0,.473.923,2.982,2.982,0,0,0,1.8.449,7.862,7.862,0,0,0,5.038-1.771,14.148,14.148,0,0,0,4.365-6.1,20.748,20.748,0,0,0,1.5-7.595,12.187,12.187,0,0,0-.861-4.777,6.254,6.254,0,0,0-2.682-3.08A6.444,6.444,0,0,0,295.066,404.469Z" transform="translate(-251.672 -402.225)" fill="#070203"/>
          <path id="パス_37908" data-name="パス 37908" d="M325.326,411.369l-4.115,14.266a8.15,8.15,0,0,0-.324,1.621.607.607,0,0,0,.175.4.5.5,0,0,0,.374.2.988.988,0,0,0,.673-.3,11.775,11.775,0,0,0,2.17-2.694l.7.4q-3.044,5.287-6.46,5.288a2.876,2.876,0,0,1-2.07-.736,2.456,2.456,0,0,1-.773-1.858,6.776,6.776,0,0,1,.349-1.9l2.793-9.6a8.2,8.2,0,0,0,.4-2.07,1.052,1.052,0,0,0-.386-.8,1.49,1.49,0,0,0-1.035-.349c-.216,0-.458.008-.724.025l.249-.8,6.809-1.1Zm-1.247-9.253a2.845,2.845,0,0,1,2.107.873,2.878,2.878,0,0,1,.861,2.1,2.816,2.816,0,0,1-.873,2.082,2.881,2.881,0,0,1-2.1.861,2.939,2.939,0,0,1-2.918-2.943,2.9,2.9,0,0,1,.848-2.1A2.777,2.777,0,0,1,324.079,402.116Z" transform="translate(-257.266 -402.116)" fill="#070203"/>
          <path id="パス_37909" data-name="パス 37909" d="M343.667,414.207H349l-.649,2.2h-2.768a4.78,4.78,0,0,1,.649,2.27,6.1,6.1,0,0,1-1,3.367,6.935,6.935,0,0,1-2.93,2.47,9.869,9.869,0,0,1-4.3.922,12.3,12.3,0,0,1-1.384-.087c-.508-.058-1.051-.146-1.634-.262a6.673,6.673,0,0,0-1.671,1.1.849.849,0,0,0-.249.574.827.827,0,0,0,.3.624,3.522,3.522,0,0,0,1.546.673,41.323,41.323,0,0,1,5.413,1.422,6.5,6.5,0,0,1,2.705,1.92,4.458,4.458,0,0,1,.911,2.819,5.545,5.545,0,0,1-2.307,4.377q-2.307,1.882-7.146,1.883-4.888,0-7.208-1.622a3.324,3.324,0,0,1-1.646-2.768,3.125,3.125,0,0,1,1.085-2.27q1.085-1.047,4.7-1.846a4.8,4.8,0,0,1-1.646-1.247,2.48,2.48,0,0,1-.6-1.571,3.179,3.179,0,0,1,1.073-2.369,11.719,11.719,0,0,1,3.616-2.046,6.07,6.07,0,0,1-2.843-2.007,4.855,4.855,0,0,1-.873-2.881,5.885,5.885,0,0,1,1.048-3.318,7.514,7.514,0,0,1,3.1-2.556,10.825,10.825,0,0,1,4.726-.985,11.206,11.206,0,0,1,3.043.374A5.819,5.819,0,0,1,343.667,414.207Zm-11.123,18.232a6.237,6.237,0,0,0-2.607,1.609,2.916,2.916,0,0,0-.685,1.858,2.993,2.993,0,0,0,1.371,2.357,7.219,7.219,0,0,0,4.389,1.06,5.747,5.747,0,0,0,3.616-.91,2.688,2.688,0,0,0,1.123-2.133,2.065,2.065,0,0,0-1.035-1.783,14.157,14.157,0,0,0-3.953-1.409Q333.391,432.714,332.543,432.439Zm6.908-18.482a2.283,2.283,0,0,0-1.646.649A7.8,7.8,0,0,0,335.9,417.9a13.281,13.281,0,0,0-.81,4.366,2.119,2.119,0,0,0,.574,1.571,1.928,1.928,0,0,0,1.422.574,1.982,1.982,0,0,0,1.422-.574,8.851,8.851,0,0,0,1.983-3.517,13.584,13.584,0,0,0,.835-4.389,1.947,1.947,0,0,0-.535-1.422A1.792,1.792,0,0,0,339.452,413.957Z" transform="translate(-258.747 -403.732)" fill="#070203"/>
        </g>
      </g>
    </g>
    <g id="グループ_32188" data-name="グループ 32188" transform="translate(-229.381 332)">
      <g id="グループ_32067" data-name="グループ 32067" transform="translate(978.602 -1135.325)">
        <path id="パス_37980" data-name="パス 37980" d="M-624.831,1199.073a3.853,3.853,0,0,1-.251,1.128,9.708,9.708,0,0,1-1.379,2.5,1.291,1.291,0,0,1-.974.627.888.888,0,0,1-.723-.386,2.118,2.118,0,0,1-.444-1.427,3.509,3.509,0,0,1,.906-2.277,4.122,4.122,0,0,1,3.086-1.263,3.543,3.543,0,0,1,2.237.743,2.752,2.752,0,0,1,1.07,2.188,2.726,2.726,0,0,1-1.042,2.257,5.754,5.754,0,0,1-3.211,1.08.136.136,0,0,1-.135-.116c0-.077.048-.106.174-.135a5.366,5.366,0,0,0,2.623-1.224,2.725,2.725,0,0,0,.868-2,2.433,2.433,0,0,0-.81-1.842,2.792,2.792,0,0,0-1.794-.627,4.069,4.069,0,0,0-.511.02A1.125,1.125,0,0,1-624.831,1199.073Zm-2.43.231a3.008,3.008,0,0,0-.839,2.083,1.665,1.665,0,0,0,.212.9.54.54,0,0,0,.453.327c.2,0,.4-.174.675-.55a10.26,10.26,0,0,0,1.379-2.507,2.117,2.117,0,0,0,.135-.762.6.6,0,0,0-.154-.443A3.4,3.4,0,0,0-627.262,1199.3Z" transform="translate(0 -0.916)" fill="#070203"/>
        <path id="パス_37981" data-name="パス 37981" d="M-608.7,1195.775h-2.681v7.637h-.386v-8h3.067Z" transform="translate(-6.012)" fill="#070203"/>
        <path id="パス_37982" data-name="パス 37982" d="M-598.2,1201.424a6.256,6.256,0,0,0,2.97,2.256.064.064,0,0,1-.01.116c-.26.068-.385.174-.5.5-.048.125-.1.164-.174.164a1.325,1.325,0,0,1-.444-.221,7.563,7.563,0,0,1-2.421-2.778,8.241,8.241,0,0,1-.849-2.9,7.005,7.005,0,0,1-2.2,4.609,9.73,9.73,0,0,1-2.131,1.379c-.059.029-.135-.1-.077-.135a7.917,7.917,0,0,0,3.683-6.586,7.964,7.964,0,0,0,0-1.669c1,.1,1.167.135,1.167.3,0,.087-.067.135-.338.251-.009.26-.019.511-.029.771A7.313,7.313,0,0,0-598.2,1201.424Z" transform="translate(-8.765 -0.268)" fill="#070203"/>
        <path id="パス_37983" data-name="パス 37983" d="M-587.557,1204.786h2.681v-7.638h.386v8h-3.067Z" transform="translate(-14.657 -0.621)" fill="#070203"/>
        <path id="パス_37984" data-name="パス 37984" d="M-575.673,1199.561c-.048-.5-.058-1.215-.1-2.024-.01-.213-.02-.28-.087-.357a.535.535,0,0,0-.271-.125,2.144,2.144,0,0,0-.231-.029c-.049-.01-.068-.02-.068-.058a.25.25,0,0,1,.116-.164.583.583,0,0,1,.357-.135,1.433,1.433,0,0,1,.838.366.447.447,0,0,1,.183.347.371.371,0,0,1-.106.232.5.5,0,0,0-.067.231,12.885,12.885,0,0,0-.03,1.852c.019.251.087.415.241.415a1.027,1.027,0,0,0,.318-.068c.415-.182.926-.415,1.34-.636.087-.048.125-.077.125-.145,0-.106-.144-.26-.309-.366-.058-.039-.087-.048-.087-.077s.1-.116.2-.116a1.285,1.285,0,0,1,.7.4.818.818,0,0,1,.328.521c0,.173-.145.25-.3.289s-.338.087-.54.145c-.491.144-1.013.318-1.543.52a5.952,5.952,0,0,0-1.436.791,1.4,1.4,0,0,0-.656,1.128.823.823,0,0,0,.482.723,3.388,3.388,0,0,0,1.543.231,7.736,7.736,0,0,0,1.447-.145,2.708,2.708,0,0,1,.482-.106,1.067,1.067,0,0,1,.415.087c.212.1.318.212.318.366,0,.193-.116.28-.53.347a13.826,13.826,0,0,1-1.8.1,4.734,4.734,0,0,1-2.006-.357,1.277,1.277,0,0,1-.781-1.186,1.683,1.683,0,0,1,.473-1.128,5.51,5.51,0,0,1,1.4-1.051A.968.968,0,0,1-575.673,1199.561Z" transform="translate(-18.364 -0.45)" fill="#070203"/>
        <path id="パス_37985" data-name="パス 37985" d="M-560.985,1195.775h-2.681v7.637h-.386v-8h3.067Z" transform="translate(-23.051)" fill="#070203"/>
        <path id="パス_37986" data-name="パス 37986" d="M-554.535,1201.467a.371.371,0,0,1-.029.135,1.7,1.7,0,0,0-.115.636.972.972,0,0,0,.617.946,3.648,3.648,0,0,0,1.745.318,5.731,5.731,0,0,0,1.649-.2,1.848,1.848,0,0,1,.588-.087c.357,0,.617.164.617.415s-.2.347-.55.4a14.579,14.579,0,0,1-2.15.154,4.662,4.662,0,0,1-1.823-.309,1.55,1.55,0,0,1-1.051-1.465,1.574,1.574,0,0,1,.26-.926.164.164,0,0,1,.125-.1C-554.593,1201.38-554.535,1201.418-554.535,1201.467Zm.627-2.469a1.484,1.484,0,0,1-.608-.473.168.168,0,0,1-.038-.115.1.1,0,0,1,.1-.106.229.229,0,0,1,.126.048,1.836,1.836,0,0,0,.645.251,3.869,3.869,0,0,0,.714.057,6.5,6.5,0,0,0,.916-.086,5.694,5.694,0,0,0,.858-.193,1.167,1.167,0,0,1,.279-.068,1.244,1.244,0,0,1,.347.049c.241.077.318.2.318.376s-.115.279-.444.308a6.422,6.422,0,0,0-1.34.231,6.992,6.992,0,0,0-1.591.955.515.515,0,0,1-.212.086.149.149,0,0,1-.106-.106.365.365,0,0,1,.106-.154c.212-.193.636-.559.984-.867A2.575,2.575,0,0,1-553.908,1199Z" transform="translate(-26.27 -1.034)" fill="#070203"/>
        <path id="パス_37987" data-name="パス 37987" d="M-539.726,1200.188a19.383,19.383,0,0,1,1.552-1.523,2.562,2.562,0,0,1,1.34-.734.958.958,0,0,1,.975,1.022c0,.376-.116.993-.193,1.572-.087.723-.165,1.466-.165,1.843,0,.491.154.636.55.636a2.5,2.5,0,0,0,1.794-1.417c.039-.068.087-.145.174-.145a.124.124,0,0,1,.106.116.436.436,0,0,1-.039.174,3.392,3.392,0,0,1-.829,1.292,1.806,1.806,0,0,1-1.205.559c-.723,0-1.108-.405-1.108-1.2,0-.482.048-1.157.115-1.929.058-.627.106-1.08.106-1.456,0-.54-.1-.694-.338-.694a2.3,2.3,0,0,0-1.205.7,15.731,15.731,0,0,0-1.648,1.668c0,.539,0,1.079.009,1.494,0,.087.01.309.029.665.01.135.019.289.029.415a2.836,2.836,0,0,1,.019.348c0,.414-.135.713-.356.713-.116,0-.2-.077-.241-.251a1.793,1.793,0,0,0-.27-.656,7.309,7.309,0,0,0-.734-.9c-.212.289-.3.424-.385.53a.339.339,0,0,1-.28.155c-.154-.01-.241-.116-.241-.328a.71.71,0,0,1,.222-.472c.048-.049.125-.116.2-.193a11.451,11.451,0,0,0,1.544-2.084c.019-.309.028-.559.038-.781a4.177,4.177,0,0,0-.867.443.347.347,0,0,1-.251.135.535.535,0,0,1-.376-.231,1.106,1.106,0,0,1-.289-.579c0-.115.029-.212.067-.212s.077.029.116.087c.193.271.3.328.443.328a1.023,1.023,0,0,0,.347-.077c.28-.106.579-.222.829-.338.02-.578.049-1.234.049-1.542,0-.415-.078-.53-.521-.675-.125-.039-.145-.058-.145-.1s.01-.068.087-.116a.547.547,0,0,1,.28-.068,1.375,1.375,0,0,1,.723.27c.212.145.356.261.356.463a.286.286,0,0,1-.106.222.583.583,0,0,0-.144.337c-.019.2-.058.54-.077,1.022a.448.448,0,0,1,.154-.029c.048,0,.106.029.193.116a.3.3,0,0,1,.106.193.29.29,0,0,1-.1.183,4.134,4.134,0,0,0-.424.723Zm-.579,2.826c.068.049.1.029.1-.048,0-.665,0-1.34.01-1.9-.328.434-.695.935-.916,1.274C-540.865,1202.57-540.537,1202.83-540.3,1203.013Z" transform="translate(-30.866 -0.354)" fill="#070203"/>
        <path id="パス_37988" data-name="パス 37988" d="M-521.744,1198.884a.892.892,0,0,1,.762.4,2.015,2.015,0,0,1,.279,1.147,6.218,6.218,0,0,1-.375,2.045,3.16,3.16,0,0,1-.752,1.234,1.272,1.272,0,0,1-.858.434c-.222,0-.318-.058-.357-.251a.635.635,0,0,0-.145-.347c-.154-.183-.327-.367-.559-.608a.131.131,0,0,1-.048-.1c0-.038.048-.106.1-.106a.172.172,0,0,1,.106.048c.28.193.511.347.763.492a.629.629,0,0,0,.28.067.5.5,0,0,0,.366-.183,3.331,3.331,0,0,0,.684-1.311,6.4,6.4,0,0,0,.251-1.64,1.3,1.3,0,0,0-.164-.809.439.439,0,0,0-.414-.164,2.789,2.789,0,0,0-.666.115c-.3.617-.568,1.225-.858,1.785-.5.973-.935,1.822-1.456,2.709a.361.361,0,0,1-.338.193.286.286,0,0,1-.308-.269.6.6,0,0,1,.125-.358c.57-.858,1.09-1.726,1.573-2.613.25-.473.462-.867.655-1.272-.357.125-.733.279-1.012.395a1.047,1.047,0,0,0-.28.145.349.349,0,0,1-.241.106.644.644,0,0,1-.433-.232,1.08,1.08,0,0,1-.366-.674c0-.106.048-.232.1-.232s.057.02.106.087c.174.222.318.357.473.357a2.934,2.934,0,0,0,.694-.126c.338-.077.7-.173,1.167-.3a10.944,10.944,0,0,0,.433-1.168,1.094,1.094,0,0,0,.068-.376c0-.087-.019-.135-.145-.222a1.386,1.386,0,0,0-.424-.144c-.1-.019-.136-.039-.136-.087s.058-.087.125-.125a.834.834,0,0,1,.347-.077,1.565,1.565,0,0,1,.964.405.4.4,0,0,1,.155.318c0,.1-.058.164-.183.221a.658.658,0,0,0-.232.309c-.115.26-.25.54-.385.839A2.932,2.932,0,0,1-521.744,1198.884Zm3.838,2.97a.446.446,0,0,1-.279-.105.545.545,0,0,0-.357-.106c-.309,0-.646.019-1.089.048a.119.119,0,0,1-.135-.125c0-.058.028-.1.106-.116a8.284,8.284,0,0,0,1.079-.27c.116-.039.155-.067.155-.174a1.574,1.574,0,0,0-.328-.743,4.148,4.148,0,0,0-1.061-1.012.2.2,0,0,1-.1-.135c0-.048.058-.1.145-.1a.173.173,0,0,1,.086.019,3.8,3.8,0,0,1,1.35.916,2.288,2.288,0,0,1,.771,1.484C-517.559,1201.728-517.722,1201.853-517.906,1201.853Z" transform="translate(-36.833 -0.515)" fill="#070203"/>
        <path id="パス_37989" data-name="パス 37989" d="M-507.425,1197.341a1.361,1.361,0,0,1-.405-.886c0-.087.038-.116.077-.116s.077.019.125.106a2.149,2.149,0,0,0,1.205.887,1.56,1.56,0,0,1,.569.308.549.549,0,0,1,.2.415.261.261,0,0,1-.26.27.9.9,0,0,1-.3-.048,1.415,1.415,0,0,0-.462-.058,3.555,3.555,0,0,0-1.215.279c-.154.068-.241.164-.241.261a.66.66,0,0,0,.077.26,1.049,1.049,0,0,1,.077.414,5.559,5.559,0,0,1-.068.675,10.439,10.439,0,0,0-.126,1.389c0,.038.01.068.049.068s.057-.01.116-.058a10.142,10.142,0,0,1,1.292-.868,3.448,3.448,0,0,1,1.783-.568,2.062,2.062,0,0,1,1.5.539,1.452,1.452,0,0,1,.453,1.061,2.2,2.2,0,0,1-1.553,1.938,8.035,8.035,0,0,1-3.057.636c-.106,0-.192-.029-.192-.116a.164.164,0,0,1,.145-.145,8.238,8.238,0,0,0,2.7-.829c.772-.443,1.216-.973,1.216-1.59a1.2,1.2,0,0,0-.338-.9,1.377,1.377,0,0,0-.935-.3,2.38,2.38,0,0,0-1.273.415,5.938,5.938,0,0,0-1.177.993,2.524,2.524,0,0,0-.511.714c-.058.183-.125.251-.28.251-.125,0-.25-.1-.366-.28a1.03,1.03,0,0,1-.154-.559,10.927,10.927,0,0,1,.231-1.967,3.767,3.767,0,0,0,.076-.734c0-.105-.019-.241-.019-.366a.636.636,0,0,1,.376-.559,5.87,5.87,0,0,1,1.215-.482A2.13,2.13,0,0,1-507.425,1197.341Z" transform="translate(-42.8 -0.332)" fill="#070203"/>
        <path id="パス_37990" data-name="パス 37990" d="M-491.34,1199.073a3.834,3.834,0,0,1-.251,1.128,9.705,9.705,0,0,1-1.378,2.5,1.291,1.291,0,0,1-.974.627.888.888,0,0,1-.723-.386,2.117,2.117,0,0,1-.444-1.427,3.509,3.509,0,0,1,.907-2.277,4.12,4.12,0,0,1,3.086-1.263,3.539,3.539,0,0,1,2.237.743,2.752,2.752,0,0,1,1.07,2.188,2.724,2.724,0,0,1-1.042,2.257,5.75,5.75,0,0,1-3.211,1.08.136.136,0,0,1-.135-.116c0-.077.048-.106.173-.135a5.366,5.366,0,0,0,2.624-1.224,2.727,2.727,0,0,0,.867-2,2.433,2.433,0,0,0-.81-1.842,2.791,2.791,0,0,0-1.794-.627,4.075,4.075,0,0,0-.511.02A1.122,1.122,0,0,1-491.34,1199.073Zm-2.43.231a3.008,3.008,0,0,0-.839,2.083,1.665,1.665,0,0,0,.212.9.539.539,0,0,0,.453.327c.2,0,.395-.174.675-.55a10.235,10.235,0,0,0,1.378-2.507,2.1,2.1,0,0,0,.135-.762.6.6,0,0,0-.154-.443A3.4,3.4,0,0,0-493.771,1199.3Z" transform="translate(-47.669 -0.916)" fill="#070203"/>
        <path id="パス_37991" data-name="パス 37991" d="M-478.292,1200.546c0-.781-.01-1.408-.029-2a11.835,11.835,0,0,1-1.852.9c-.067.029-.116-.115-.058-.144a11.832,11.832,0,0,0,3.3-2.749,3.354,3.354,0,0,0,.6-1.07c.81.241,1.061.376,1.061.473,0,.077-.087.125-.318.154a6.187,6.187,0,0,0,1.929,1.648,7.437,7.437,0,0,0,2.516.839c.048.01.039.1-.01.106-.25.039-.356.135-.482.5-.038.126-.086.164-.163.164a.959.959,0,0,1-.261-.077,8.05,8.05,0,0,1-1.253-.646c0,.077-.03.126-.2.232v.549c0,1.119.038,1.552.038,1.7,0,.212-.125.3-.405.3-.2,0-.279-.039-.3-.164h-1.822a5.093,5.093,0,0,0,1.148,1.292,10.582,10.582,0,0,0,1.167-1.013,3.8,3.8,0,0,0,.463-.6c.675.405.781.511.781.617,0,.086-.106.115-.415.086a8.982,8.982,0,0,1-1.832,1.022,5.644,5.644,0,0,0,.579.347,7.009,7.009,0,0,0,2.584.636c.039,0,.039.087,0,.1a.61.61,0,0,0-.52.492c-.039.115-.106.183-.2.183a1.694,1.694,0,0,1-.433-.1,7.065,7.065,0,0,1-1.61-.723,5.086,5.086,0,0,1-1.938-2.343h-1.379v2.111a18.775,18.775,0,0,0,2.141-.54c.058-.019.086.1.039.125a17.1,17.1,0,0,1-3.366,1.321c-.068.251-.125.309-.2.309-.1,0-.174-.154-.424-.974a10.6,10.6,0,0,0,1.138-.116Zm4.05-2.092a1.986,1.986,0,0,1,.289-.241,6.991,6.991,0,0,1-1.8-2,8.506,8.506,0,0,1-2.16,2.073c.106.048.2.1.347.164h1.273V1198a6.15,6.15,0,0,0-.048-.674c.926.086,1.022.154,1.022.26,0,.067-.068.145-.3.26v.608Zm.048.241h-3.423v1.022h3.423Zm-3.423,2.324h3.423v-1.062h-3.423Z" transform="translate(-52.974 -0.027)" fill="#070203"/>
        <path id="パス_37992" data-name="パス 37992" d="M-463.461,1204.786h2.681v-7.638h.386v8h-3.067Z" transform="translate(-58.971 -0.621)" fill="#070203"/>
        <path id="パス_37993" data-name="パス 37993" d="M-450.866,1200.543c0-.55-.135-.781-.482-.781a1.873,1.873,0,0,0-1.186.675,7.577,7.577,0,0,0-.762.964.49.49,0,0,1-.328.231c-.183,0-.318-.115-.318-.385,0-.145.106-.28.3-.473a10.424,10.424,0,0,0,.935-1.108,12.389,12.389,0,0,0,.713-1.139,5.518,5.518,0,0,1-.829.058,1.165,1.165,0,0,1-1.119-.617.232.232,0,0,1-.039-.125.079.079,0,0,1,.077-.087.188.188,0,0,1,.116.077,1.239,1.239,0,0,0,.955.318,5.358,5.358,0,0,0,1.09-.154,5.516,5.516,0,0,0,.318-.82,1.094,1.094,0,0,0,.048-.251c0-.125-.067-.183-.192-.223a2.407,2.407,0,0,0-.4-.077c-.048-.01-.077-.029-.077-.058a.187.187,0,0,1,.077-.106.591.591,0,0,1,.376-.125,1.643,1.643,0,0,1,.723.222c.231.135.318.26.318.376a.254.254,0,0,1-.106.221.928.928,0,0,0-.241.261c-.057.1-.164.289-.241.444a4.089,4.089,0,0,0,.84-.338.993.993,0,0,1,.492-.164c.212,0,.366.115.366.289s-.135.231-.318.3a16.182,16.182,0,0,1-1.688.482c-.3.5-.6,1.012-.926,1.475a2.17,2.17,0,0,1,1.158-.464.835.835,0,0,1,.887.82c.019.116.019.29.029.453a22.609,22.609,0,0,0,1.929-1.205.288.288,0,0,0,.145-.2c0-.048-.039-.087-.116-.135a1.337,1.337,0,0,0-.289-.106c-.058-.019-.1-.039-.1-.067s.068-.1.145-.126a.6.6,0,0,1,.241-.038,1.7,1.7,0,0,1,.733.241c.289.154.444.318.444.511a.248.248,0,0,1-.251.25,1.367,1.367,0,0,0-.376.106c-.472.2-.954.424-1.619.771-.28.145-.6.338-.869.482v1.35c0,.27-.105.405-.3.405a.305.305,0,0,1-.327-.347c0-.231.019-.636.039-1.109-.849.482-1.35.858-1.35,1.456,0,.4.347.7,1.244.7a10.556,10.556,0,0,0,1.35-.068,5.549,5.549,0,0,0,.569-.116,1.616,1.616,0,0,1,.327-.057c.338,0,.666.192.666.424,0,.154-.107.251-.482.309a12.85,12.85,0,0,1-1.823.1c-1.312,0-2.2-.318-2.2-1.234,0-.839.665-1.388,1.7-2.005Z" transform="translate(-62.356 -0.332)" fill="#070203"/>
        <path id="パス_37994" data-name="パス 37994" d="M-439.577,1203.98c0-.309.048-.627.048-.906,0-.685-.154-.849-.762-1.023-.058-.019-.039-.145.019-.135a3.375,3.375,0,0,0,.366.039.5.5,0,0,0,.482-.26,29.012,29.012,0,0,0,1.6-3.037c.019-.049.135,0,.116.048-.434,1.137-.82,2.141-1.234,3.124a1.666,1.666,0,0,0-.106.617c0,.473.347.916.347,1.408,0,.367-.2.608-.5.608C-439.442,1204.462-439.577,1204.317-439.577,1203.98Zm.212-4.474a2.161,2.161,0,0,0-.849-1.11c-.029-.019.01-.087.048-.077.9.116,1.466.53,1.466.984a.421.421,0,0,1-.376.444C-439.2,1199.747-439.287,1199.679-439.365,1199.506Zm.5-2.44a1.993,1.993,0,0,0-.752-.936c-.029-.019.01-.087.048-.077.935.144,1.456.52,1.456.993a.4.4,0,0,1-.376.414C-438.651,1197.461-438.71,1197.4-438.863,1197.066Zm4.339,3.712a4.3,4.3,0,0,0,1.312,1.379,5.624,5.624,0,0,0,1.958.772c.039.01.039.1,0,.106a.57.57,0,0,0-.434.492c-.038.135-.057.183-.125.183a1.006,1.006,0,0,1-.347-.125,5.544,5.544,0,0,1-1.418-1.052,5.583,5.583,0,0,1-1.09-1.62c.029,2.006.077,3.105.077,3.346,0,.2-.154.3-.434.3-.222,0-.318-.077-.318-.231,0-.231.048-1.186.1-2.883a7,7,0,0,1-3.1,2.324c-.058.029-.135-.1-.077-.135a8.09,8.09,0,0,0,2.826-2.855h-1.62a3.231,3.231,0,0,0-.579.058l-.106-.366a3.7,3.7,0,0,0,.694.067h1.919v-.231a7.259,7.259,0,0,0-.039-1.06c.858.106.983.154.983.279,0,.068-.038.116-.3.241v.771h1.716c.405-.473.482-.52.54-.52s.135.047.559.376c.193.164.241.221.241.279,0,.077-.038.106-.135.106Zm-2.285-4.021c0,.763-.28,1.312-.723,1.3a.338.338,0,0,1-.338-.366c0-.174.077-.27.27-.415a1.276,1.276,0,0,0,.6-1.167c0-.058.125-.068.135-.01a3.28,3.28,0,0,1,.058.414h4.166c.27-.318.318-.366.366-.366s.164.03.569.406c.154.135.165.193.165.27,0,.116-.087.173-.329.164a.328.328,0,0,0-.27.125,5,5,0,0,1-.646.541c-.038.029-.106-.029-.086-.068a3.647,3.647,0,0,0,.327-.829h-1.2v1.659c0,.289.106.366.656.366.473,0,.617-.048.732-.165a1.678,1.678,0,0,0,.347-.81c.01-.047.106-.038.106.01-.009.212-.029.491-.029.617,0,.106.029.144.145.193a.268.268,0,0,1,.174.26c0,.164-.116.279-.357.357a4.829,4.829,0,0,1-1.205.106c-.935,0-1.216-.2-1.216-.8,0-.134.019-.375.019-.732v-1.061h-.79c-.048,1.63-.781,2.46-2.5,2.922-.068.02-.106-.115-.048-.144a2.727,2.727,0,0,0,1.889-2.778Z" transform="translate(-67.233 -0.23)" fill="#070203"/>
        <path id="パス_37995" data-name="パス 37995" d="M-421.04,1197.964a2.283,2.283,0,0,0-.193.434,8.9,8.9,0,0,0-.54,2.719,5.583,5.583,0,0,0,.058,1c.01.038.029.057.058.057s.048-.019.068-.068c.241-.578.55-1.35.752-1.841.029-.068.068-.116.125-.116a.124.124,0,0,1,.106.1.48.48,0,0,1-.029.135c-.183.7-.473,1.649-.559,2.035a2.481,2.481,0,0,0-.087.5,3.537,3.537,0,0,0,.019.424,2.346,2.346,0,0,1,.03.28c0,.164-.077.27-.251.27s-.357-.154-.482-.492a6.569,6.569,0,0,1-.26-2.169,14,14,0,0,1,.444-3.038,4.043,4.043,0,0,0,.116-.771,1.215,1.215,0,0,0-.231-.782.348.348,0,0,1-.068-.164c0-.067.068-.1.116-.1a.275.275,0,0,1,.154.058,1.493,1.493,0,0,1,.55.6,1.3,1.3,0,0,1,.2.627A.64.64,0,0,1-421.04,1197.964Zm3.78,1.031c0-.3,0-.376-.039-.453a.315.315,0,0,0-.212-.125,1.409,1.409,0,0,0-.173-.019c-.039,0-.068-.02-.068-.049,0-.057.058-.1.106-.125a.723.723,0,0,1,.319-.087,1.02,1.02,0,0,1,.539.174.242.242,0,0,1,.145.222.25.25,0,0,1-.048.144,1.047,1.047,0,0,0-.058.338c-.01.192-.01.3-.01.424a6.556,6.556,0,0,0,.829-.3.682.682,0,0,1,.28-.077.243.243,0,0,1,.26.241c0,.144-.067.241-.3.356a4.671,4.671,0,0,1-1.079.357c0,.675.019,1.331.067,1.938a4.671,4.671,0,0,1,1.582.791.589.589,0,0,1,.241.424.309.309,0,0,1-.289.338.485.485,0,0,1-.376-.174,4.08,4.08,0,0,0-1.128-.791c-.01.791-.617,1.167-1.4,1.167s-1.359-.328-1.359-.926c0-.733.819-.983,1.494-.983a4.131,4.131,0,0,1,.7.048c-.01-.579-.019-1.167-.029-1.756a6.567,6.567,0,0,1-.811.077,2.433,2.433,0,0,1-.964-.125.6.6,0,0,1-.327-.521,1.161,1.161,0,0,1,.3-.82.167.167,0,0,1,.126-.077c.039,0,.086.03.086.058a.327.327,0,0,1-.048.135,1.272,1.272,0,0,0-.145.462.309.309,0,0,0,.125.29c.087.077.251.1.53.1a6.792,6.792,0,0,0,1.128-.125Zm1.33-1.938c0,.183-.144.27-.376.27-.318,0-.511-.01-.858.009a7.928,7.928,0,0,0-1.986.424.418.418,0,0,1-.145.049.112.112,0,0,1-.1-.1.186.186,0,0,1,.1-.144,4.289,4.289,0,0,1,1.272-.656,4.6,4.6,0,0,1,1.369-.241C-416.219,1196.672-415.929,1196.788-415.929,1197.058Zm-2.314,5.13c-.559,0-.868.241-.868.559,0,.367.424.482,1,.482a.794.794,0,0,0,.878-.867A2.6,2.6,0,0,0-418.243,1202.187Zm2.43-6.114a2.15,2.15,0,0,1,.819.511c.222.212.357.386.347.588a.268.268,0,0,1-.279.28c-.125,0-.231-.1-.309-.27a3.176,3.176,0,0,0-.78-.955.133.133,0,0,1-.058-.1.1.1,0,0,1,.106-.1A.537.537,0,0,1-415.813,1196.073Zm.858-.617a2.287,2.287,0,0,1,.762.405.943.943,0,0,1,.424.627.285.285,0,0,1-.28.3c-.125-.01-.193-.058-.3-.251a2.994,2.994,0,0,0-.848-.935.116.116,0,0,1-.068-.1.106.106,0,0,1,.106-.1A1.224,1.224,0,0,1-414.955,1195.456Z" transform="translate(-73.696)" fill="#070203"/>
        <path id="パス_37996" data-name="パス 37996" d="M-404.378,1200.917a3.322,3.322,0,0,1,2.025-.761,1.971,1.971,0,0,1,2.2,1.929,2.456,2.456,0,0,1-2.729,2.275c-1.051,0-1.794-.434-1.794-1.09,0-.521.433-.8.964-.8a1.841,1.841,0,0,1,1.62,1.234,1.726,1.726,0,0,0,1.215-1.668,1.413,1.413,0,0,0-1.524-1.533,3.08,3.08,0,0,0-2.179.983,7.619,7.619,0,0,0-.752.849.313.313,0,0,1-.241.126.359.359,0,0,1-.347-.376.484.484,0,0,1,.164-.347c.743-.8,1.542-1.63,2.237-2.479.415-.511.811-.993,1.292-1.629.068-.087.039-.106,0-.106a.911.911,0,0,0-.183.047c-.435.145-.926.329-1.312.482a.711.711,0,0,0-.328.2.365.365,0,0,1-.26.106.773.773,0,0,1-.482-.28,1.093,1.093,0,0,1-.347-.7c0-.1.058-.2.116-.2.039,0,.077.038.125.106.212.279.347.376.511.376a2.282,2.282,0,0,0,.5-.068c.434-.106.839-.221,1.273-.366a.619.619,0,0,0,.289-.174.307.307,0,0,1,.222-.1,1.354,1.354,0,0,1,.608.3c.193.135.289.26.289.414,0,.1-.077.164-.251.2-.1.019-.183.067-.4.279-.318.319-.713.733-1.282,1.4-.357.415-.878.916-1.263,1.35Zm.55,1.852a.469.469,0,0,0-.53.444c0,.4.511.665,1.283.665a1.957,1.957,0,0,0,.386-.029A1.427,1.427,0,0,0-403.828,1202.768Z" transform="translate(-79.518 -0.552)" fill="#070203"/>
      </g>
      <g id="グループ_32187" data-name="グループ 32187" transform="translate(-187.18 -1219.279)" style="isolation: isolate">
        <path id="パス_38087" data-name="パス 38087" d="M465.224,1287.46a2.7,2.7,0,0,1-1.513-.382,2.334,2.334,0,0,1-.864-1.045,3.225,3.225,0,0,1-.287-1.286,5.18,5.18,0,0,1,.723-2.554,5.665,5.665,0,0,1,1.952-2.058,4.541,4.541,0,0,1,2.426-.773,2.7,2.7,0,0,1,1.332.351,2.475,2.475,0,0,1,.982.985,2.621,2.621,0,0,1,.351,1.279,5.393,5.393,0,0,1-.918,2.9,5.985,5.985,0,0,1-2.065,2.1A4.245,4.245,0,0,1,465.224,1287.46Zm2.253-7.63a1.658,1.658,0,0,0-.769.163,2.456,2.456,0,0,0-.659.542,4.864,4.864,0,0,0-.7,1.091,9.9,9.9,0,0,0-.662,1.931,8.589,8.589,0,0,0-.308,2.041,1.58,1.58,0,0,0,.3,1.048.971.971,0,0,0,.776.354,1.5,1.5,0,0,0,1.063-.411,6,6,0,0,0,1.424-2.431,8.861,8.861,0,0,0,.552-2.848,1.753,1.753,0,0,0-.294-1.13A.912.912,0,0,0,467.478,1279.83Z" fill="#070203"/>
        <path id="パス_38088" data-name="パス 38088" d="M480.834,1281.991l-1.169,4.053a2.3,2.3,0,0,0-.092.461.172.172,0,0,0,.05.113.14.14,0,0,0,.106.057.283.283,0,0,0,.191-.085,3.354,3.354,0,0,0,.616-.766l.2.114q-.864,1.5-1.835,1.5a.818.818,0,0,1-.588-.209.7.7,0,0,1-.22-.528,1.919,1.919,0,0,1,.1-.538l.793-2.728a2.323,2.323,0,0,0,.114-.588.3.3,0,0,0-.11-.227.42.42,0,0,0-.294-.1c-.062,0-.13,0-.206.007l.071-.227,1.934-.311Zm-.354-2.629a.806.806,0,0,1,.6.248.817.817,0,0,1,.245.595.8.8,0,0,1-.248.592.821.821,0,0,1-.6.245.835.835,0,0,1-.829-.836.824.824,0,0,1,.241-.595A.787.787,0,0,1,480.479,1279.362Z" transform="translate(-7.483)" fill="#070203"/>
        <path id="パス_38089" data-name="パス 38089" d="M488.239,1284.435l-.248,1.764h-.213a1.654,1.654,0,0,0-.418-1.08,1.1,1.1,0,0,0-.8-.393.624.624,0,0,0-.432.152.481.481,0,0,0-.17.372.808.808,0,0,0,.074.344,1.881,1.881,0,0,0,.33.428,8.642,8.642,0,0,1,1.094,1.335,1.636,1.636,0,0,1,.195.783,1.677,1.677,0,0,1-.914,1.5,1.963,1.963,0,0,1-.943.244,3.126,3.126,0,0,1-.815-.135,1.926,1.926,0,0,0-.482-.092.46.46,0,0,0-.219.043.587.587,0,0,0-.177.184h-.212l.283-1.906h.177a4.751,4.751,0,0,0,.379.988,1.316,1.316,0,0,0,.464.467,1.09,1.09,0,0,0,.56.173.715.715,0,0,0,.517-.2.629.629,0,0,0,.206-.468,1.09,1.09,0,0,0-.135-.521,4.791,4.791,0,0,0-.616-.783,5.83,5.83,0,0,1-.879-1.119,1.367,1.367,0,0,1-.149-.645,1.338,1.338,0,0,1,.446-1.027,1.783,1.783,0,0,1,1.254-.411,3.956,3.956,0,0,1,.872.12,1.784,1.784,0,0,0,.411.064.419.419,0,0,0,.354-.184Z" transform="translate(-10.276 -2.444)" fill="#070203"/>
        <path id="パス_38090" data-name="パス 38090" d="M495.873,1281.991l-1.169,4.053a2.3,2.3,0,0,0-.092.461.172.172,0,0,0,.05.113.14.14,0,0,0,.106.057.283.283,0,0,0,.191-.085,3.365,3.365,0,0,0,.617-.766l.2.114q-.864,1.5-1.835,1.5a.818.818,0,0,1-.588-.209.7.7,0,0,1-.22-.528,1.919,1.919,0,0,1,.1-.538l.793-2.728a2.324,2.324,0,0,0,.113-.588.3.3,0,0,0-.11-.227.42.42,0,0,0-.294-.1c-.062,0-.13,0-.206.007l.071-.227,1.935-.311Zm-.354-2.629a.806.806,0,0,1,.6.248.817.817,0,0,1,.245.595.8.8,0,0,1-.248.592.821.821,0,0,1-.6.245.834.834,0,0,1-.829-.836.823.823,0,0,1,.24-.595A.787.787,0,0,1,495.518,1279.362Z" transform="translate(-14.728)" fill="#070203"/>
        <path id="パス_38091" data-name="パス 38091" d="M498.979,1284.775l1.991-.34a5.822,5.822,0,0,1,.765,1.87q.56-.828.843-1.162a2.605,2.605,0,0,1,.631-.574,1.083,1.083,0,0,1,.524-.134.648.648,0,0,1,.485.17.706.706,0,0,1,0,.91.559.559,0,0,1-.421.173,1.52,1.52,0,0,1-.418-.067,1.4,1.4,0,0,0-.326-.067.742.742,0,0,0-.461.17,3.764,3.764,0,0,0-.73,1,8.085,8.085,0,0,0,.779,2.09.463.463,0,0,0,.347.22.45.45,0,0,0,.255-.071,3.141,3.141,0,0,0,.51-.6l.205.12a3.728,3.728,0,0,1-.985,1.141,1.22,1.22,0,0,1-.716.262,1.063,1.063,0,0,1-.609-.163,1.378,1.378,0,0,1-.429-.532,8.641,8.641,0,0,1-.45-1.183q-.666.851-1.045,1.244a2.484,2.484,0,0,1-.631.513,1.222,1.222,0,0,1-.535.12.635.635,0,0,1-.471-.174.6.6,0,0,1-.174-.443.661.661,0,0,1,.188-.482.643.643,0,0,1,.478-.191.817.817,0,0,1,.347.092,1.151,1.151,0,0,0,.411.141.6.6,0,0,0,.3-.071,1.719,1.719,0,0,0,.432-.369q.163-.176.588-.758a9.745,9.745,0,0,0-.85-2.43.6.6,0,0,0-.5-.255,1.813,1.813,0,0,0-.375.05Z" transform="translate(-17.033 -2.444)" fill="#070203"/>
        <path id="パス_38092" data-name="パス 38092" d="M518.788,1284.435l-.858,3.2a12.306,12.306,0,0,1,1.595-2.883.941.941,0,0,1,.666-.319.479.479,0,0,1,.382.174.735.735,0,0,1,.149.492,1.553,1.553,0,0,1-.269.928.473.473,0,0,1-.376.241.37.37,0,0,1-.347-.213,1,1,0,0,0-.16-.248.153.153,0,0,0-.1-.035.246.246,0,0,0-.12.035,1.157,1.157,0,0,0-.33.33,5.345,5.345,0,0,0-.5.889q-.295.623-.461,1.052a15.788,15.788,0,0,0-.464,1.64h-1.382l.942-3.784a3.075,3.075,0,0,0,.1-.56.44.44,0,0,0-.053-.234.327.327,0,0,0-.146-.128,1.115,1.115,0,0,0-.389-.042l.049-.163,1.722-.375Z" transform="translate(-25.853 -2.444)" fill="#070203"/>
        <path id="パス_38093" data-name="パス 38093" d="M530.425,1284.513l-1.105,3.79-.12.468a.793.793,0,0,0-.015.12.164.164,0,0,0,.05.121.142.142,0,0,0,.1.049.615.615,0,0,0,.333-.177,5.392,5.392,0,0,0,.411-.524l.2.1a3.258,3.258,0,0,1-.864,1.084,1.64,1.64,0,0,1-.992.34.671.671,0,0,1-.5-.17.576.576,0,0,1-.17-.425,3.462,3.462,0,0,1,.184-.829l.135-.46a5.635,5.635,0,0,1-1.268,1.608,1.21,1.21,0,0,1-.758.276.8.8,0,0,1-.758-.432,2,2,0,0,1-.234-.971,4.417,4.417,0,0,1,.492-1.849,4.6,4.6,0,0,1,1.286-1.672,2.03,2.03,0,0,1,1.233-.524.717.717,0,0,1,.514.184,1.246,1.246,0,0,1,.287.673l.206-.7ZM528.6,1285.6a1.2,1.2,0,0,0-.142-.666.329.329,0,0,0-.276-.142.569.569,0,0,0-.368.17,4.283,4.283,0,0,0-.826,1.435,5.058,5.058,0,0,0-.443,1.867.737.737,0,0,0,.1.436.278.278,0,0,0,.22.131.73.73,0,0,0,.524-.29,4.575,4.575,0,0,0,.673-1.035A4.329,4.329,0,0,0,528.6,1285.6Z" transform="translate(-30.108 -2.444)" fill="#070203"/>
        <path id="パス_38094" data-name="パス 38094" d="M548.1,1279.362l-1.85,6.384a4.258,4.258,0,0,0-.177.723.158.158,0,0,0,.042.11.131.131,0,0,0,.1.046.4.4,0,0,0,.22-.092,2.757,2.757,0,0,0,.517-.609l.205.114q-.808,1.4-1.771,1.4a.73.73,0,0,1-.528-.18.617.617,0,0,1-.188-.464,2.9,2.9,0,0,1,.149-.758l.171-.588a6.028,6.028,0,0,1-1.233,1.68,1.29,1.29,0,0,1-.779.311.9.9,0,0,1-.719-.351,1.544,1.544,0,0,1-.294-1.016,4.012,4.012,0,0,1,.375-1.676,5.4,5.4,0,0,1,.872-1.378,3.6,3.6,0,0,1,.942-.79,1.861,1.861,0,0,1,.879-.237.85.85,0,0,1,.4.092,1.485,1.485,0,0,1,.4.34l.425-1.424a3.182,3.182,0,0,0,.149-.751.3.3,0,0,0-.1-.23.384.384,0,0,0-.273-.1,1.7,1.7,0,0,0-.2.015l.057-.22,1.878-.354Zm-2.508,3.621a.764.764,0,0,0-.138-.507.41.41,0,0,0-.315-.16.628.628,0,0,0-.4.184,4.227,4.227,0,0,0-.847,1.47,5.171,5.171,0,0,0-.443,1.86.681.681,0,0,0,.1.4.269.269,0,0,0,.216.131.6.6,0,0,0,.4-.184,5.918,5.918,0,0,0,1.424-3.2Z" transform="translate(-38.256)" fill="#070203"/>
        <path id="パス_38095" data-name="パス 38095" d="M558.589,1284.513l-1.105,3.79-.12.468a.793.793,0,0,0-.015.12.165.165,0,0,0,.05.121.143.143,0,0,0,.1.049.615.615,0,0,0,.333-.177,5.354,5.354,0,0,0,.411-.524l.2.1a3.258,3.258,0,0,1-.864,1.084,1.64,1.64,0,0,1-.992.34.671.671,0,0,1-.5-.17.576.576,0,0,1-.17-.425,3.463,3.463,0,0,1,.184-.829l.135-.46a5.635,5.635,0,0,1-1.268,1.608,1.208,1.208,0,0,1-.758.276.8.8,0,0,1-.758-.432,2,2,0,0,1-.234-.971,4.416,4.416,0,0,1,.492-1.849,4.6,4.6,0,0,1,1.286-1.672,2.03,2.03,0,0,1,1.233-.524.717.717,0,0,1,.514.184,1.245,1.245,0,0,1,.287.673l.206-.7Zm-1.828,1.084a1.2,1.2,0,0,0-.142-.666.329.329,0,0,0-.276-.142.569.569,0,0,0-.368.17,4.29,4.29,0,0,0-.826,1.435,5.059,5.059,0,0,0-.443,1.867.736.736,0,0,0,.1.436.278.278,0,0,0,.22.131.73.73,0,0,0,.524-.29,4.6,4.6,0,0,0,.673-1.035A4.336,4.336,0,0,0,556.762,1285.6Z" transform="translate(-43.677 -2.444)" fill="#070203"/>
        <path id="パス_38096" data-name="パス 38096" d="M567.24,1281.991l-1.169,4.053a2.293,2.293,0,0,0-.092.461.172.172,0,0,0,.05.113.14.14,0,0,0,.106.057.281.281,0,0,0,.191-.085,3.354,3.354,0,0,0,.617-.766l.2.114q-.865,1.5-1.835,1.5a.818.818,0,0,1-.588-.209.7.7,0,0,1-.22-.528,1.917,1.917,0,0,1,.1-.538l.794-2.728a2.343,2.343,0,0,0,.113-.588.3.3,0,0,0-.11-.227.42.42,0,0,0-.294-.1c-.062,0-.13,0-.205.007l.07-.227,1.935-.311Zm-.354-2.629a.808.808,0,0,1,.6.248.818.818,0,0,1,.244.595.8.8,0,0,1-.248.592.821.821,0,0,1-.6.245.834.834,0,0,1-.829-.836.824.824,0,0,1,.241-.595A.786.786,0,0,1,566.885,1279.362Z" transform="translate(-49.111)" fill="#070203"/>
        <path id="パス_38097" data-name="パス 38097" d="M574.977,1288.346l.17.156a4.267,4.267,0,0,1-1.091.971,2.9,2.9,0,0,1-1.474.411,1.834,1.834,0,0,1-.911-.22,1.377,1.377,0,0,1-.584-.616,1.851,1.851,0,0,1-.192-.815,3.7,3.7,0,0,1,.51-1.839,3.97,3.97,0,0,1,1.343-1.431,3.042,3.042,0,0,1,1.633-.528,1.445,1.445,0,0,1,.971.283.9.9,0,0,1,.326.709.922.922,0,0,1-.245.648.734.734,0,0,1-.549.265.6.6,0,0,1-.436-.17.545.545,0,0,1-.174-.4.669.669,0,0,1,.311-.538q.206-.156.206-.276a.2.2,0,0,0-.085-.163.46.46,0,0,0-.3-.092,1.32,1.32,0,0,0-.9.39,3.275,3.275,0,0,0-.854,1.3,4.267,4.267,0,0,0-.294,1.5,1.282,1.282,0,0,0,.3.893.938.938,0,0,0,.719.333,1.968,1.968,0,0,0,.787-.188A2.664,2.664,0,0,0,574.977,1288.346Z" transform="translate(-52.193 -2.444)" fill="#070203"/>
        <path id="パス_38098" data-name="パス 38098" d="M584.288,1279.362l-1.488,5.144q.773-1.133,1.12-1.538a3.8,3.8,0,0,1,.9-.776,1.494,1.494,0,0,1,.712-.2.666.666,0,0,1,.5.219.81.81,0,0,1,.209.581,2.857,2.857,0,0,1-.135.773l-.722,2.43a1.833,1.833,0,0,0-.1.425.146.146,0,0,0,.039.1.113.113,0,0,0,.089.046.226.226,0,0,0,.141-.057,2.162,2.162,0,0,0,.382-.461c.038-.052.094-.132.17-.241l.22.127a3.657,3.657,0,0,1-.928,1.113,1.487,1.487,0,0,1-.836.3.779.779,0,0,1-.552-.185.6.6,0,0,1-.2-.461,2.734,2.734,0,0,1,.135-.708l.708-2.43a1.5,1.5,0,0,0,.07-.368.149.149,0,0,0-.049-.106.156.156,0,0,0-.114-.05.98.98,0,0,0-.56.34,7.832,7.832,0,0,0-1.488,2.2l-.5,1.694H580.59l1.87-6.448a2.562,2.562,0,0,0,.114-.588.251.251,0,0,0-.114-.22.723.723,0,0,0-.453-.092l.035-.227,1.9-.34Z" transform="translate(-56.863)" fill="#070203"/>
        <path id="パス_38099" data-name="パス 38099" d="M596.047,1281.991l-1.169,4.053a2.3,2.3,0,0,0-.092.461.172.172,0,0,0,.05.113.14.14,0,0,0,.106.057.283.283,0,0,0,.191-.085,3.354,3.354,0,0,0,.616-.766l.2.114q-.864,1.5-1.835,1.5a.82.82,0,0,1-.588-.209.7.7,0,0,1-.219-.528,1.919,1.919,0,0,1,.1-.538l.793-2.728a2.321,2.321,0,0,0,.114-.588.3.3,0,0,0-.11-.227.422.422,0,0,0-.294-.1c-.062,0-.13,0-.206.007l.071-.227,1.934-.311Zm-.354-2.629a.806.806,0,0,1,.6.248.816.816,0,0,1,.245.595.8.8,0,0,1-.248.592.819.819,0,0,1-.595.245.835.835,0,0,1-.829-.836.824.824,0,0,1,.241-.595A.787.787,0,0,1,595.692,1279.362Z" transform="translate(-62.989)" fill="#070203"/>
      </g>
    </g>
  </g>
</svg>
