<svg xmlns="http://www.w3.org/2000/svg" width="426" height="40.77" viewBox="0 0 426 40.77">
  <g id="グループ_32221" data-name="グループ 32221" transform="translate(-6589 1971)">
    <g id="ORDig" transform="translate(6370.927 -2373.116)" style="isolation: isolate">
      <g id="グループ_31967" data-name="グループ 31967" transform="translate(218.073 402.116)" style="isolation: isolate">
        <path id="パス_37905" data-name="パス 37905" d="M227.026,429.33a9.061,9.061,0,0,1-5.083-1.286,7.853,7.853,0,0,1-2.9-3.512,10.838,10.838,0,0,1-.965-4.321,17.4,17.4,0,0,1,2.429-8.584,19.049,19.049,0,0,1,6.559-6.917,15.267,15.267,0,0,1,8.155-2.595,9.074,9.074,0,0,1,4.476,1.178,8.318,8.318,0,0,1,3.3,3.309,8.8,8.8,0,0,1,1.179,4.3,18.123,18.123,0,0,1-3.083,9.738,20.133,20.133,0,0,1-6.94,7.048A14.267,14.267,0,0,1,227.026,429.33Zm7.571-25.643a5.571,5.571,0,0,0-2.583.548,8.189,8.189,0,0,0-2.215,1.821,16.4,16.4,0,0,0-2.345,3.667,33.32,33.32,0,0,0-2.226,6.488,28.915,28.915,0,0,0-1.035,6.857,5.311,5.311,0,0,0,1.012,3.524,3.263,3.263,0,0,0,2.607,1.191,5.039,5.039,0,0,0,3.571-1.381,20.152,20.152,0,0,0,4.786-8.167,29.8,29.8,0,0,0,1.857-9.572,5.885,5.885,0,0,0-.988-3.8A3.064,3.064,0,0,0,234.6,403.687Z" transform="translate(-218.073 -402.116)" fill="#070203"/>
      </g>
      <g id="グループ_31968" data-name="グループ 31968" transform="translate(241.634 402.116)" style="isolation: isolate">
        <path id="パス_37906" data-name="パス 37906" d="M259.564,416.157l-2.285,7.881a9.652,9.652,0,0,0-.5,2.452,1.4,1.4,0,0,0,.595,1.179,4.734,4.734,0,0,0,2.476.464l-.286.714h-12.5l.215-.714a4.253,4.253,0,0,0,2.75-.727,6.974,6.974,0,0,0,1.607-3.25l4.834-16.69a8.307,8.307,0,0,0,.4-2.191,1.413,1.413,0,0,0-.5-1.166,4.809,4.809,0,0,0-2.31-.548l.19-.714h10.762q4.619,0,6.5,1.619a5.222,5.222,0,0,1,1.881,4.143,6.585,6.585,0,0,1-2.191,4.809,11.7,11.7,0,0,1-4.88,2.31l2.333,7.881q.928,3.166,1.631,3.821a3.551,3.551,0,0,0,2.345.7v.714h-8.1l-3.69-12.691-.618.048Q260.017,416.205,259.564,416.157Zm.286-1.143c.444.015.818.024,1.119.024a6.038,6.038,0,0,0,4.607-1.916,7.033,7.033,0,0,0,1.8-5.012,3.79,3.79,0,0,0-.965-2.8,3.428,3.428,0,0,0-2.536-.964c-.254,0-.548.008-.881.024Z" transform="translate(-247.064 -402.253)" fill="#070203"/>
        <path id="パス_37907" data-name="パス 37907" d="M278.057,428.848l.238-.714a4.472,4.472,0,0,0,2.845-.774,5.846,5.846,0,0,0,1.607-2.893l4.714-16.4a10.08,10.08,0,0,0,.453-2.643,1.539,1.539,0,0,0-.536-1.3,6.012,6.012,0,0,0-2.726-.56l.215-.714h8.9q7.022,0,10.142,2.857a10.272,10.272,0,0,1,3.119,7.976,11.748,11.748,0,0,1-1.452,6.072,18.055,18.055,0,0,1-6.679,6.953,20.388,20.388,0,0,1-9.94,2.143ZM294.294,404.4l-5.714,19.691a8.15,8.15,0,0,0-.4,1.953,1.043,1.043,0,0,0,.452.881,2.847,2.847,0,0,0,1.715.428,7.506,7.506,0,0,0,4.809-1.69,13.506,13.506,0,0,0,4.167-5.821,19.806,19.806,0,0,0,1.429-7.25,11.634,11.634,0,0,0-.822-4.56,5.971,5.971,0,0,0-2.56-2.94A6.152,6.152,0,0,0,294.294,404.4Z" transform="translate(-252.869 -402.253)" fill="#070203"/>
        <path id="パス_37908" data-name="パス 37908" d="M324.888,410.949l-3.928,13.619a7.781,7.781,0,0,0-.31,1.547.579.579,0,0,0,.167.381.475.475,0,0,0,.357.191.943.943,0,0,0,.643-.286,11.24,11.24,0,0,0,2.072-2.571l.667.381q-2.906,5.047-6.167,5.048a2.745,2.745,0,0,1-1.976-.7,2.344,2.344,0,0,1-.738-1.773,6.469,6.469,0,0,1,.333-1.81l2.666-9.167a7.828,7.828,0,0,0,.381-1.976,1,1,0,0,0-.369-.762,1.422,1.422,0,0,0-.988-.333c-.206,0-.437.008-.691.024l.238-.762,6.5-1.048Zm-1.191-8.833a2.716,2.716,0,0,1,2.011.833,2.748,2.748,0,0,1,.822,2,2.689,2.689,0,0,1-.833,1.988,2.75,2.75,0,0,1-2,.822,2.805,2.805,0,0,1-2.786-2.809,2.769,2.769,0,0,1,.809-2A2.651,2.651,0,0,1,323.7,402.116Z" transform="translate(-259.916 -402.116)" fill="#070203"/>
        <path id="パス_37909" data-name="パス 37909" d="M342.849,414.151h5.1l-.619,2.1h-2.643a4.563,4.563,0,0,1,.619,2.167,5.823,5.823,0,0,1-.953,3.214,6.62,6.62,0,0,1-2.8,2.358,9.421,9.421,0,0,1-4.107.88,11.744,11.744,0,0,1-1.321-.083c-.485-.055-1-.139-1.56-.25a6.369,6.369,0,0,0-1.6,1.048.811.811,0,0,0-.238.548.789.789,0,0,0,.286.6,3.362,3.362,0,0,0,1.476.643,39.44,39.44,0,0,1,5.167,1.357,6.2,6.2,0,0,1,2.583,1.833,4.256,4.256,0,0,1,.87,2.691,5.294,5.294,0,0,1-2.2,4.179q-2.2,1.8-6.822,1.8-4.666,0-6.881-1.548a3.173,3.173,0,0,1-1.571-2.643,2.984,2.984,0,0,1,1.035-2.167q1.036-1,4.488-1.762a4.586,4.586,0,0,1-1.572-1.191,2.367,2.367,0,0,1-.571-1.5,3.035,3.035,0,0,1,1.024-2.262,11.187,11.187,0,0,1,3.452-1.953,5.8,5.8,0,0,1-2.714-1.916,4.634,4.634,0,0,1-.834-2.75,5.617,5.617,0,0,1,1-3.167,7.174,7.174,0,0,1,2.964-2.44,10.333,10.333,0,0,1,4.512-.94,10.7,10.7,0,0,1,2.9.357A5.555,5.555,0,0,1,342.849,414.151ZM332.23,431.557a5.955,5.955,0,0,0-2.488,1.536,2.784,2.784,0,0,0-.654,1.773,2.857,2.857,0,0,0,1.309,2.25,6.891,6.891,0,0,0,4.19,1.012,5.486,5.486,0,0,0,3.452-.869,2.566,2.566,0,0,0,1.072-2.036,1.971,1.971,0,0,0-.988-1.7,13.515,13.515,0,0,0-3.774-1.345Q333.039,431.819,332.23,431.557Zm6.595-17.643a2.179,2.179,0,0,0-1.571.619,7.446,7.446,0,0,0-1.822,3.143,12.677,12.677,0,0,0-.774,4.167,2.023,2.023,0,0,0,.548,1.5,1.841,1.841,0,0,0,1.357.548,1.892,1.892,0,0,0,1.357-.548,8.45,8.45,0,0,0,1.893-3.357,12.967,12.967,0,0,0,.8-4.19,1.859,1.859,0,0,0-.511-1.357A1.711,1.711,0,0,0,338.825,413.913Z" transform="translate(-261.781 -404.152)" fill="#070203"/>
      </g>
    </g>
    <g id="グループ_32220" data-name="グループ 32220">
      <rect id="長方形_376" data-name="長方形 376" width="299" height="24" rx="12" transform="translate(6716 -1968)" fill="#fff"/>
      <g id="グループ_32188" data-name="グループ 32188" transform="translate(6460.617 -2020.583)">
        <g id="グループ_32187" data-name="グループ 32187" transform="translate(275.38 60.083)" style="isolation: isolate">
          <path id="パス_38087" data-name="パス 38087" d="M465.323,1287.762a2.8,2.8,0,0,1-1.569-.4,2.421,2.421,0,0,1-.9-1.084,3.346,3.346,0,0,1-.3-1.334,5.372,5.372,0,0,1,.75-2.65,5.876,5.876,0,0,1,2.025-2.135,4.711,4.711,0,0,1,2.517-.8,2.8,2.8,0,0,1,1.381.364,2.567,2.567,0,0,1,1.018,1.021,2.719,2.719,0,0,1,.364,1.327,5.593,5.593,0,0,1-.952,3.006,6.207,6.207,0,0,1-2.142,2.175A4.4,4.4,0,0,1,465.323,1287.762Zm2.337-7.915a1.72,1.72,0,0,0-.8.169,2.547,2.547,0,0,0-.683.562,5.041,5.041,0,0,0-.724,1.131,10.267,10.267,0,0,0-.687,2,8.908,8.908,0,0,0-.32,2.117,1.639,1.639,0,0,0,.312,1.087,1.007,1.007,0,0,0,.8.368,1.557,1.557,0,0,0,1.1-.426,6.223,6.223,0,0,0,1.477-2.521,9.19,9.19,0,0,0,.573-2.954,1.819,1.819,0,0,0-.3-1.172A.946.946,0,0,0,467.661,1279.848Z" transform="translate(-462.56 -1279.362)" fill="#070203"/>
          <path id="パス_38088" data-name="パス 38088" d="M480.936,1282.089l-1.213,4.2a2.383,2.383,0,0,0-.1.478.178.178,0,0,0,.052.117.145.145,0,0,0,.11.059.294.294,0,0,0,.2-.088,3.479,3.479,0,0,0,.639-.794l.206.118q-.9,1.558-1.9,1.558a.849.849,0,0,1-.61-.217.723.723,0,0,1-.228-.548,1.991,1.991,0,0,1,.1-.558l.823-2.829a2.41,2.41,0,0,0,.118-.61.311.311,0,0,0-.114-.235.435.435,0,0,0-.3-.1c-.064,0-.135,0-.213.008l.074-.236,2.006-.323Zm-.368-2.727a.836.836,0,0,1,.621.257.847.847,0,0,1,.254.617.832.832,0,0,1-.257.614.852.852,0,0,1-.618.254.867.867,0,0,1-.86-.868.855.855,0,0,1,.25-.617A.816.816,0,0,1,480.568,1279.362Z" transform="translate(-469.743 -1279.362)" fill="#070203"/>
          <path id="パス_38089" data-name="パス 38089" d="M488.4,1284.435l-.257,1.83h-.221a1.716,1.716,0,0,0-.433-1.121,1.145,1.145,0,0,0-.831-.408.647.647,0,0,0-.448.158.5.5,0,0,0-.176.386.839.839,0,0,0,.077.357,1.953,1.953,0,0,0,.342.444,8.97,8.97,0,0,1,1.135,1.385,1.7,1.7,0,0,1,.2.812,1.739,1.739,0,0,1-.948,1.555,2.036,2.036,0,0,1-.978.253,3.239,3.239,0,0,1-.845-.14,2,2,0,0,0-.5-.1.478.478,0,0,0-.227.044.61.61,0,0,0-.184.191h-.22l.293-1.977h.184a4.926,4.926,0,0,0,.393,1.025,1.365,1.365,0,0,0,.481.485,1.13,1.13,0,0,0,.581.18.742.742,0,0,0,.537-.206.653.653,0,0,0,.213-.485,1.13,1.13,0,0,0-.14-.54,4.972,4.972,0,0,0-.639-.812,6.047,6.047,0,0,1-.912-1.161,1.418,1.418,0,0,1-.154-.669,1.388,1.388,0,0,1,.463-1.065,1.849,1.849,0,0,1,1.3-.426,4.108,4.108,0,0,1,.9.125,1.851,1.851,0,0,0,.426.066.435.435,0,0,0,.368-.191Z" transform="translate(-472.424 -1281.708)" fill="#070203"/>
          <path id="パス_38090" data-name="パス 38090" d="M495.975,1282.089l-1.213,4.2a2.38,2.38,0,0,0-.1.478.179.179,0,0,0,.052.117.145.145,0,0,0,.11.059.294.294,0,0,0,.2-.088,3.489,3.489,0,0,0,.64-.794l.205.118q-.9,1.558-1.9,1.558a.849.849,0,0,1-.61-.217.723.723,0,0,1-.228-.548,1.991,1.991,0,0,1,.1-.558l.823-2.829a2.412,2.412,0,0,0,.118-.61.311.311,0,0,0-.114-.235.435.435,0,0,0-.3-.1c-.064,0-.135,0-.213.008l.074-.236,2.007-.323Zm-.368-2.727a.836.836,0,0,1,.621.257.847.847,0,0,1,.254.617.832.832,0,0,1-.257.614.852.852,0,0,1-.618.254.866.866,0,0,1-.859-.868.854.854,0,0,1,.249-.617A.816.816,0,0,1,495.607,1279.362Z" transform="translate(-476.698 -1279.362)" fill="#070203"/>
          <path id="パス_38091" data-name="パス 38091" d="M499.018,1284.788l2.065-.353a6.041,6.041,0,0,1,.794,1.94q.58-.859.875-1.2a2.7,2.7,0,0,1,.654-.6,1.123,1.123,0,0,1,.544-.139.672.672,0,0,1,.5.176.732.732,0,0,1,0,.944.58.58,0,0,1-.437.18,1.577,1.577,0,0,1-.434-.069,1.458,1.458,0,0,0-.338-.07.769.769,0,0,0-.478.176,3.9,3.9,0,0,0-.757,1.036,8.385,8.385,0,0,0,.808,2.168.48.48,0,0,0,.36.228.467.467,0,0,0,.264-.074,3.259,3.259,0,0,0,.529-.625l.213.125a3.866,3.866,0,0,1-1.021,1.183,1.265,1.265,0,0,1-.742.272,1.1,1.1,0,0,1-.632-.169,1.429,1.429,0,0,1-.445-.551,8.965,8.965,0,0,1-.467-1.227q-.691.882-1.084,1.29a2.578,2.578,0,0,1-.654.533,1.268,1.268,0,0,1-.555.125.658.658,0,0,1-.489-.18.622.622,0,0,1-.18-.459.685.685,0,0,1,.195-.5.667.667,0,0,1,.5-.2.849.849,0,0,1,.36.1,1.2,1.2,0,0,0,.426.147.626.626,0,0,0,.309-.073,1.784,1.784,0,0,0,.448-.382q.169-.183.61-.786a10.109,10.109,0,0,0-.882-2.521.627.627,0,0,0-.514-.265,1.88,1.88,0,0,0-.389.052Z" transform="translate(-478.911 -1281.708)" fill="#070203"/>
          <path id="パス_38092" data-name="パス 38092" d="M518.883,1284.435l-.89,3.322a12.767,12.767,0,0,1,1.654-2.991.976.976,0,0,1,.691-.331.5.5,0,0,1,.4.18.763.763,0,0,1,.154.511,1.611,1.611,0,0,1-.279.963.491.491,0,0,1-.39.25.384.384,0,0,1-.36-.221,1.037,1.037,0,0,0-.166-.257.159.159,0,0,0-.1-.036.255.255,0,0,0-.125.036,1.2,1.2,0,0,0-.342.342,5.541,5.541,0,0,0-.514.922q-.306.647-.478,1.092a16.359,16.359,0,0,0-.481,1.7h-1.433l.977-3.925a3.192,3.192,0,0,0,.1-.58.456.456,0,0,0-.055-.242.339.339,0,0,0-.151-.132,1.156,1.156,0,0,0-.4-.044l.051-.169,1.786-.389Z" transform="translate(-487.377 -1281.708)" fill="#070203"/>
          <path id="パス_38093" data-name="パス 38093" d="M530.626,1284.516l-1.147,3.932-.125.485a.826.826,0,0,0-.015.125.17.17,0,0,0,.052.125.148.148,0,0,0,.1.051.638.638,0,0,0,.346-.183,5.6,5.6,0,0,0,.426-.544l.206.1a3.38,3.38,0,0,1-.9,1.125,1.7,1.7,0,0,1-1.029.353.7.7,0,0,1-.514-.176.6.6,0,0,1-.176-.441,3.593,3.593,0,0,1,.191-.86l.14-.477a5.844,5.844,0,0,1-1.315,1.668,1.255,1.255,0,0,1-.786.287.827.827,0,0,1-.786-.448,2.079,2.079,0,0,1-.242-1.007,4.581,4.581,0,0,1,.511-1.918,4.777,4.777,0,0,1,1.334-1.734,2.106,2.106,0,0,1,1.279-.544.743.743,0,0,1,.533.191,1.291,1.291,0,0,1,.3.7l.214-.728Zm-1.9,1.125a1.249,1.249,0,0,0-.147-.691.342.342,0,0,0-.287-.147.59.59,0,0,0-.382.177,4.445,4.445,0,0,0-.856,1.488,5.246,5.246,0,0,0-.459,1.936.764.764,0,0,0,.1.452.289.289,0,0,0,.228.136.757.757,0,0,0,.544-.3,4.746,4.746,0,0,0,.7-1.073A4.491,4.491,0,0,0,528.73,1285.64Z" transform="translate(-491.462 -1281.708)" fill="#070203"/>
          <path id="パス_38094" data-name="パス 38094" d="M548.331,1279.362l-1.918,6.622a4.42,4.42,0,0,0-.184.749.164.164,0,0,0,.044.114.136.136,0,0,0,.1.048.418.418,0,0,0,.228-.1,2.859,2.859,0,0,0,.536-.632l.213.118q-.838,1.455-1.837,1.455a.757.757,0,0,1-.547-.187.64.64,0,0,1-.2-.482,3,3,0,0,1,.154-.786l.177-.61a6.251,6.251,0,0,1-1.279,1.742,1.337,1.337,0,0,1-.809.323.937.937,0,0,1-.746-.364,1.6,1.6,0,0,1-.3-1.054,4.162,4.162,0,0,1,.389-1.739,5.6,5.6,0,0,1,.9-1.429,3.728,3.728,0,0,1,.977-.819,1.93,1.93,0,0,1,.912-.246.883.883,0,0,1,.411.1,1.543,1.543,0,0,1,.412.353l.441-1.477a3.3,3.3,0,0,0,.154-.779.315.315,0,0,0-.106-.239.4.4,0,0,0-.283-.1,1.759,1.759,0,0,0-.206.015l.059-.228,1.948-.368Zm-2.6,3.756a.793.793,0,0,0-.143-.526.426.426,0,0,0-.327-.165.651.651,0,0,0-.412.191,4.385,4.385,0,0,0-.878,1.525,5.365,5.365,0,0,0-.459,1.929.706.706,0,0,0,.1.415.279.279,0,0,0,.224.136.62.62,0,0,0,.419-.191,6.14,6.14,0,0,0,1.477-3.314Z" transform="translate(-499.283 -1279.362)" fill="#070203"/>
          <path id="パス_38095" data-name="パス 38095" d="M558.79,1284.516l-1.147,3.932-.125.485a.826.826,0,0,0-.015.125.171.171,0,0,0,.052.125.149.149,0,0,0,.1.051.638.638,0,0,0,.346-.183,5.552,5.552,0,0,0,.426-.544l.206.1a3.38,3.38,0,0,1-.9,1.125,1.7,1.7,0,0,1-1.029.353.7.7,0,0,1-.514-.176.6.6,0,0,1-.176-.441,3.594,3.594,0,0,1,.191-.86l.14-.477a5.846,5.846,0,0,1-1.315,1.668,1.254,1.254,0,0,1-.786.287.827.827,0,0,1-.786-.448,2.08,2.08,0,0,1-.242-1.007,4.579,4.579,0,0,1,.511-1.918,4.776,4.776,0,0,1,1.334-1.734,2.106,2.106,0,0,1,1.279-.544.743.743,0,0,1,.533.191,1.29,1.29,0,0,1,.3.7l.214-.728Zm-1.9,1.125a1.249,1.249,0,0,0-.147-.691.341.341,0,0,0-.286-.147.59.59,0,0,0-.382.177,4.451,4.451,0,0,0-.856,1.488,5.246,5.246,0,0,0-.459,1.936.763.763,0,0,0,.1.452.289.289,0,0,0,.228.136.757.757,0,0,0,.544-.3,4.77,4.77,0,0,0,.7-1.073A4.5,4.5,0,0,0,556.894,1285.64Z" transform="translate(-504.487 -1281.708)" fill="#070203"/>
          <path id="パス_38096" data-name="パス 38096" d="M567.342,1282.089l-1.213,4.2a2.38,2.38,0,0,0-.1.478.179.179,0,0,0,.052.117.146.146,0,0,0,.11.059.292.292,0,0,0,.2-.088,3.481,3.481,0,0,0,.64-.794l.206.118q-.9,1.558-1.9,1.558a.849.849,0,0,1-.61-.217.723.723,0,0,1-.228-.548,1.987,1.987,0,0,1,.1-.558l.823-2.829a2.431,2.431,0,0,0,.117-.61.309.309,0,0,0-.114-.235.435.435,0,0,0-.3-.1c-.064,0-.135,0-.213.008l.073-.236,2.007-.323Zm-.368-2.727a.838.838,0,0,1,.621.257.849.849,0,0,1,.253.617.83.83,0,0,1-.257.614.851.851,0,0,1-.618.254.866.866,0,0,1-.859-.868.854.854,0,0,1,.25-.617A.815.815,0,0,1,566.974,1279.362Z" transform="translate(-509.703 -1279.362)" fill="#070203"/>
          <path id="パス_38097" data-name="パス 38097" d="M575.129,1288.491l.176.162a4.427,4.427,0,0,1-1.131,1.007,3,3,0,0,1-1.529.426,1.9,1.9,0,0,1-.945-.228,1.428,1.428,0,0,1-.606-.639,1.921,1.921,0,0,1-.2-.845,3.834,3.834,0,0,1,.529-1.907,4.12,4.12,0,0,1,1.393-1.485,3.156,3.156,0,0,1,1.694-.547,1.5,1.5,0,0,1,1.007.294.936.936,0,0,1,.338.735.957.957,0,0,1-.254.672.761.761,0,0,1-.569.275.619.619,0,0,1-.452-.176.565.565,0,0,1-.18-.419.694.694,0,0,1,.323-.558q.214-.161.213-.287a.2.2,0,0,0-.088-.169.478.478,0,0,0-.309-.1,1.369,1.369,0,0,0-.934.4,3.4,3.4,0,0,0-.885,1.345,4.425,4.425,0,0,0-.305,1.551,1.33,1.33,0,0,0,.312.926.973.973,0,0,0,.746.345,2.042,2.042,0,0,0,.816-.195A2.763,2.763,0,0,0,575.129,1288.491Z" transform="translate(-512.662 -1281.708)" fill="#070203"/>
          <path id="パス_38098" data-name="パス 38098" d="M584.426,1279.362l-1.543,5.335q.8-1.176,1.162-1.595a3.945,3.945,0,0,1,.929-.8,1.55,1.55,0,0,1,.739-.209.691.691,0,0,1,.518.228.841.841,0,0,1,.217.6,2.963,2.963,0,0,1-.14.8l-.749,2.521a1.9,1.9,0,0,0-.1.441.151.151,0,0,0,.04.1.118.118,0,0,0,.092.048.235.235,0,0,0,.147-.059,2.243,2.243,0,0,0,.4-.478c.039-.054.1-.137.176-.25l.228.132a3.8,3.8,0,0,1-.963,1.154,1.542,1.542,0,0,1-.867.316.808.808,0,0,1-.573-.191.624.624,0,0,1-.206-.478,2.836,2.836,0,0,1,.14-.735l.735-2.521a1.562,1.562,0,0,0,.073-.382.155.155,0,0,0-.051-.11.162.162,0,0,0-.118-.052,1.017,1.017,0,0,0-.581.353,8.119,8.119,0,0,0-1.543,2.286l-.522,1.757h-1.47l1.94-6.688a2.657,2.657,0,0,0,.118-.61.26.26,0,0,0-.118-.228.75.75,0,0,0-.47-.1l.037-.235,1.97-.353Z" transform="translate(-517.145 -1279.362)" fill="#070203"/>
          <path id="パス_38099" data-name="パス 38099" d="M596.149,1282.089l-1.213,4.2a2.386,2.386,0,0,0-.1.478.179.179,0,0,0,.052.117.145.145,0,0,0,.11.059.294.294,0,0,0,.2-.088,3.479,3.479,0,0,0,.639-.794l.206.118q-.9,1.558-1.9,1.558a.851.851,0,0,1-.61-.217.724.724,0,0,1-.227-.548,1.989,1.989,0,0,1,.1-.558l.823-2.829a2.406,2.406,0,0,0,.118-.61.312.312,0,0,0-.114-.235.437.437,0,0,0-.3-.1c-.064,0-.135,0-.213.008l.074-.236,2.006-.323Zm-.368-2.727a.836.836,0,0,1,.621.257.847.847,0,0,1,.254.617.83.83,0,0,1-.257.614.85.85,0,0,1-.617.254.867.867,0,0,1-.86-.868.854.854,0,0,1,.25-.617A.816.816,0,0,1,595.781,1279.362Z" transform="translate(-523.025 -1279.362)" fill="#070203"/>
        </g>
      </g>
      <g id="グループ_32209" data-name="グループ 32209" transform="translate(6508 -2044)">
        <g id="グループ_32202" data-name="グループ 32202" transform="translate(443.268 83.931)">
          <path id="パス_38109" data-name="パス 38109" d="M453.7,346.156h-.522a2.245,2.245,0,0,0-.513.053l-.089-.336a2.837,2.837,0,0,0,.594.062h.531v-.381a11.9,11.9,0,0,0-.053-1.69c.876.106.974.15.974.247,0,.08-.053.133-.292.239v1.584h.177c.239-.372.31-.416.372-.416s.106.044.389.328c.106.1.142.169.142.221s-.027.089-.115.089h-.965v1.762c.354-.115.69-.248.974-.372.044-.018.106.08.062.115a10.6,10.6,0,0,1-1.036.646c0,2.231.018,2.558.018,2.912a.73.73,0,0,1-.221.566.8.8,0,0,1-.54.186c-.07,0-.115-.062-.124-.159-.018-.266-.142-.372-.779-.513-.044-.009-.044-.115,0-.115.46.027.7.035.867.035.115,0,.15-.027.15-.142v-2.443c-.195.089-.389.177-.593.266-.035.239-.08.319-.177.319s-.133-.053-.381-.85c.15-.018.363-.062.611-.115.177-.044.355-.089.54-.142ZM458,348.6a3.865,3.865,0,0,0,1.036,1.222,4.591,4.591,0,0,0,1.744.8c.044.009.035.089-.009.106-.212.071-.309.212-.4.5-.027.053-.062.1-.106.1a.672.672,0,0,1-.345-.133,4.529,4.529,0,0,1-1.089-.912,6.193,6.193,0,0,1-.956-1.611c.035,1.531.062,2.762.062,3.01,0,.195-.115.3-.381.3-.231,0-.3-.089-.3-.257,0-.186.044-1.257.07-2.479a5.858,5.858,0,0,1-2.664,2.071c-.062.027-.142-.089-.089-.124a6.959,6.959,0,0,0,2.443-2.594h-1.39a2.908,2.908,0,0,0-.531.053l-.089-.345a2.664,2.664,0,0,0,.62.071H457.3v-.106a8.659,8.659,0,0,0-.027-.921c.806.08.894.124.894.212,0,.071-.053.124-.248.2v.611h1.522c.345-.434.416-.478.469-.478s.132.044.5.345c.168.15.212.212.212.266s-.026.089-.115.089Zm-2.664-3.5a14.241,14.241,0,0,0,3.213-.85,3.676,3.676,0,0,0,.859-.452c.548.417.672.54.672.628,0,.053-.026.1-.15.1a1.161,1.161,0,0,1-.293-.044,13.869,13.869,0,0,1-4.293.744C455.3,345.218,455.286,345.1,455.339,345.095Zm.549,1.841a2.231,2.231,0,0,0-.434-1.213c-.018-.026.027-.071.062-.053.637.31,1.009.761,1.009,1.16,0,.266-.124.425-.372.425C456,347.254,455.924,347.148,455.888,346.935Zm1.62-.195a2.288,2.288,0,0,0-.389-1.257c-.018-.026.027-.07.062-.053a1.516,1.516,0,0,1,.983,1.2c0,.257-.124.425-.381.425C457.614,347.059,457.525,346.944,457.508,346.741Zm1.089.726a9.128,9.128,0,0,0,.788-1.548,5.633,5.633,0,0,0,.221-.744c.823.354.859.381.859.5,0,.089-.053.133-.336.159a8.087,8.087,0,0,1-1.434,1.717C458.65,347.582,458.57,347.511,458.6,347.466Z" transform="translate(-452.551 -343.643)"/>
          <path id="パス_38110" data-name="パス 38110" d="M469.815,348.83a7.632,7.632,0,0,1-.212,1.2,3.89,3.89,0,0,1-1.256,2.062c-.045.044-.16-.009-.124-.062a5.941,5.941,0,0,0,.823-2.1,17.106,17.106,0,0,0,.187-3.151c0-1.54-.018-1.956-.063-2.452a3.947,3.947,0,0,1,.814.407h4.859c.319-.309.364-.345.425-.345s.106.036.407.293c.133.106.169.159.169.212,0,.071-.035.115-.248.257v1.752c0,3.62.035,3.913.035,4.329a.626.626,0,0,1-.327.646.945.945,0,0,1-.514.159c-.123,0-.159-.053-.177-.186-.045-.3-.23-.389-.956-.531-.062-.009-.062-.142,0-.142.531.035.823.053,1.115.053a.146.146,0,0,0,.168-.168v-2.24H472.7c.009,1.345.027,2.355.027,2.709,0,.212-.125.292-.416.292-.23,0-.31-.071-.31-.274,0-.124.035-.611.035-1.877v-.85Zm.089-1.983c0,.584-.027,1.177-.071,1.762h2.2v-1.762Zm0-1.885v1.664h2.133v-1.664Zm2.8,1.664h2.24v-1.664H472.7Zm2.24.221H472.7v1.762h2.24Z" transform="translate(-458.972 -343.865)"/>
          <path id="パス_38111" data-name="パス 38111" d="M488.308,346.281a1.474,1.474,0,0,0,.107-.478.361.361,0,0,0-.177-.283,1.6,1.6,0,0,0-.345-.194.074.074,0,0,1-.054-.1c.009-.054.221-.116.355-.116a1.447,1.447,0,0,1,.752.31c.231.15.425.318.425.522a.309.309,0,0,1-.186.266.74.74,0,0,0-.266.363c-.256.54-.487.991-.832,1.584a4.89,4.89,0,0,1,.761.717.987.987,0,0,1,.292.628.314.314,0,0,1-.309.336c-.124,0-.231-.071-.355-.257a5,5,0,0,0-.725-.885,10.133,10.133,0,0,1-1.682,1.885,8.461,8.461,0,0,1-1.814,1.2.685.685,0,0,1-.248.089.116.116,0,0,1-.107-.115c0-.053.027-.1.107-.15a11.022,11.022,0,0,0,1.823-1.487,12.16,12.16,0,0,0,1.469-1.832,7.867,7.867,0,0,0-1.434-.929c-.071-.035-.088-.071-.088-.124,0-.071.062-.115.141-.115a1.14,1.14,0,0,1,.221.044,6.966,6.966,0,0,1,1.435.655A13.812,13.812,0,0,0,488.308,346.281Z" transform="translate(-465.4 -344.184)"/>
          <path id="パス_38112" data-name="パス 38112" d="M498.969,347.46a1.908,1.908,0,0,0-.637.186.4.4,0,0,1-.212.053.941.941,0,0,1-.558-.345.718.718,0,0,1-.266-.469c0-.106.035-.177.08-.177.027,0,.071.035.151.1a.953.953,0,0,0,.592.274c.159,0,.319-.018.514-.035.681-.08,1.256-.142,2.071-.2.664-.044,1.266-.089,1.885-.15a1,1,0,0,0,.319-.08.739.739,0,0,1,.283-.07,1.509,1.509,0,0,1,.7.212.326.326,0,0,1,.186.283.2.2,0,0,1-.2.2,5.317,5.317,0,0,1-.567-.035,9.236,9.236,0,0,0-.991-.018c-.381,0-.885.018-1.292.044.221.124.407.283.407.416a.257.257,0,0,1-.053.142.827.827,0,0,0-.124.266,5.481,5.481,0,0,1-.921,1.868,5.68,5.68,0,0,1-1.744,1.593.254.254,0,0,1-.133.044.113.113,0,0,1-.124-.106c0-.053.026-.106.133-.195a7.263,7.263,0,0,0,1.416-1.655,5.778,5.778,0,0,0,.717-1.682,1.52,1.52,0,0,0,.062-.363.394.394,0,0,0-.115-.292A14.714,14.714,0,0,0,498.969,347.46Zm3.647-2.531a.281.281,0,0,1,.159.283c0,.106-.1.2-.274.212s-.345.009-.575.035c-.62.053-1.372.115-1.983.168-.177.018-.5.044-.593.044a.753.753,0,0,1-.558-.257.645.645,0,0,1-.248-.46c0-.071.018-.114.053-.114s.071.027.124.079a.931.931,0,0,0,.717.266,8.861,8.861,0,0,0,.894-.054,10.108,10.108,0,0,0,1.018-.141,2.725,2.725,0,0,0,.443-.107,1.13,1.13,0,0,1,.328-.1A1.065,1.065,0,0,1,502.616,344.929Zm.443-.761a1.978,1.978,0,0,1,.769.443c.213.185.337.345.337.531a.247.247,0,0,1-.248.266c-.116,0-.213-.08-.292-.24a3.081,3.081,0,0,0-.744-.85.137.137,0,0,1-.062-.089.09.09,0,0,1,.1-.088A.484.484,0,0,1,503.059,344.168Zm.769-.593a2.069,2.069,0,0,1,.708.345c.213.15.408.354.408.557a.252.252,0,0,1-.239.283c-.116,0-.186-.044-.283-.212a2.7,2.7,0,0,0-.815-.833.106.106,0,0,1-.061-.089.088.088,0,0,1,.089-.088A1.1,1.1,0,0,1,503.828,343.574Z" transform="translate(-470.891 -343.539)"/>
          <path id="パス_38113" data-name="パス 38113" d="M513.937,349.84a.576.576,0,0,1-.027.115,2.72,2.72,0,0,0-.018.451c0,.283-.008.673,0,1.1.009.487.009.912.009,1.275,0,.195-.088.31-.212.31a.323.323,0,0,1-.274-.177,1.011,1.011,0,0,1-.151-.434.738.738,0,0,1,.053-.221,1.034,1.034,0,0,0,.044-.336c.017-.248.017-.531.027-.912,0-.363.009-.761.009-1.1,0-.159-.009-.212-.045-.266a10.666,10.666,0,0,1-2.345,1.868.46.46,0,0,1-.177.071.152.152,0,0,1-.124-.115c0-.044.035-.1.106-.15a15.82,15.82,0,0,0,2.026-1.85,9.774,9.774,0,0,0,1.009-1.266.49.49,0,0,0,.116-.274c0-.071-.089-.159-.221-.248-.1-.071-.169-.115-.169-.159s.08-.1.231-.1a1.384,1.384,0,0,1,.7.266c.176.114.31.247.31.371a.2.2,0,0,1-.151.2.526.526,0,0,0-.2.151c-.283.345-.558.646-.876.991C513.821,349.592,513.937,349.724,513.937,349.84Z" transform="translate(-476.388 -345.131)"/>
          <path id="パス_38114" data-name="パス 38114" d="M525.185,350.032a4.7,4.7,0,0,1-1.947,2.116.612.612,0,0,1-.266.1.1.1,0,0,1-.1-.1c0-.053.035-.1.124-.168a5.216,5.216,0,0,0,1.691-2.2,5.864,5.864,0,0,0,.443-2.089.542.542,0,0,0-.071-.345.735.735,0,0,0-.416-.115c-.053,0-.089,0-.089-.052s.062-.116.142-.169a.594.594,0,0,1,.31-.071,1.868,1.868,0,0,1,.69.115c.132.053.186.125.186.239a.581.581,0,0,1-.044.151,1.364,1.364,0,0,0-.044.266,10.415,10.415,0,0,0,1.664-1.4.113.113,0,0,0,.044-.1c0-.027-.035-.035-.106-.035-.257.018-1.062.071-1.762.151-.61.062-1.247.15-1.805.248a2.7,2.7,0,0,0-.717.176.424.424,0,0,1-.266.1,1,1,0,0,1-.6-.407.758.758,0,0,1-.23-.478c0-.106.027-.2.061-.2.053,0,.1.044.142.1a.711.711,0,0,0,.575.3,7.664,7.664,0,0,0,.894-.053c1.124-.107,2.257-.2,3.381-.3a1,1,0,0,0,.407-.079.413.413,0,0,1,.23-.1c.133,0,.283.088.513.292.2.177.345.328.345.5,0,.124-.088.177-.256.2a1.058,1.058,0,0,0-.5.195,18.911,18.911,0,0,1-2.062,1.239A6.208,6.208,0,0,1,525.185,350.032Z" transform="translate(-481.024 -344.394)"/>
        </g>
        <g id="グループ_32068" data-name="グループ 32068" transform="translate(304 83.9)">
          <g id="グループ_32067" data-name="グループ 32067">
            <path id="パス_37980" data-name="パス 37980" d="M-625.141,1198.983a3.535,3.535,0,0,1-.23,1.035,8.91,8.91,0,0,1-1.266,2.293,1.185,1.185,0,0,1-.894.575.815.815,0,0,1-.664-.354,1.943,1.943,0,0,1-.407-1.309,3.221,3.221,0,0,1,.832-2.089,3.783,3.783,0,0,1,2.833-1.159,3.251,3.251,0,0,1,2.054.682,2.526,2.526,0,0,1,.983,2.009,2.5,2.5,0,0,1-.956,2.071,5.284,5.284,0,0,1-2.948.991.125.125,0,0,1-.124-.106c0-.071.044-.1.159-.124a4.923,4.923,0,0,0,2.408-1.124,2.5,2.5,0,0,0,.8-1.833,2.234,2.234,0,0,0-.744-1.691,2.565,2.565,0,0,0-1.646-.575,3.7,3.7,0,0,0-.469.018A1.032,1.032,0,0,1-625.141,1198.983Zm-2.231.212a2.761,2.761,0,0,0-.77,1.912,1.528,1.528,0,0,0,.195.824.5.5,0,0,0,.416.3c.186,0,.363-.159.62-.5a9.41,9.41,0,0,0,1.266-2.3,1.943,1.943,0,0,0,.124-.7.548.548,0,0,0-.142-.407A3.123,3.123,0,0,0-627.372,1199.195Z" transform="translate(628.602 -1196.46)"/>
            <path id="パス_37981" data-name="パス 37981" d="M-608.952,1195.745h-2.461v7.01h-.354v-7.347h2.815Z" transform="translate(621.702 -1195.408)"/>
            <path id="パス_37982" data-name="パス 37982" d="M-598.684,1200.992a5.743,5.743,0,0,0,2.726,2.071.059.059,0,0,1-.01.106c-.238.063-.353.16-.46.46-.044.115-.089.151-.159.151a1.214,1.214,0,0,1-.407-.2,6.941,6.941,0,0,1-2.222-2.55,7.564,7.564,0,0,1-.779-2.664,6.431,6.431,0,0,1-2.018,4.231,8.939,8.939,0,0,1-1.956,1.266c-.054.026-.124-.089-.071-.124a7.267,7.267,0,0,0,3.381-6.045,7.31,7.31,0,0,0,0-1.532c.921.089,1.071.124,1.071.275,0,.08-.062.124-.31.23-.008.239-.018.469-.027.708A6.713,6.713,0,0,0-598.684,1200.992Z" transform="translate(618.542 -1195.715)"/>
            <path id="パス_37983" data-name="パス 37983" d="M-587.557,1204.159h2.461v-7.011h.354v7.347h-2.815Z" transform="translate(611.778 -1196.121)"/>
            <path id="パス_37984" data-name="パス 37984" d="M-575.8,1199.324c-.044-.46-.053-1.115-.088-1.858-.01-.2-.018-.257-.08-.327a.49.49,0,0,0-.248-.115,1.96,1.96,0,0,0-.212-.027c-.045-.009-.062-.018-.062-.053a.23.23,0,0,1,.107-.15.535.535,0,0,1,.328-.124,1.317,1.317,0,0,1,.769.336.41.41,0,0,1,.168.319.341.341,0,0,1-.1.213.455.455,0,0,0-.061.212,11.819,11.819,0,0,0-.027,1.7c.018.23.08.381.221.381a.948.948,0,0,0,.292-.062c.381-.167.85-.381,1.23-.584.08-.044.115-.071.115-.133,0-.1-.132-.239-.283-.336-.053-.036-.08-.044-.08-.071s.089-.107.186-.107a1.18,1.18,0,0,1,.646.363.75.75,0,0,1,.3.479c0,.159-.133.229-.274.265s-.31.08-.5.134c-.451.132-.929.292-1.416.477a5.46,5.46,0,0,0-1.318.726,1.283,1.283,0,0,0-.6,1.036.756.756,0,0,0,.443.664,3.111,3.111,0,0,0,1.416.212,7.108,7.108,0,0,0,1.328-.133,2.462,2.462,0,0,1,.443-.1.982.982,0,0,1,.381.08c.195.089.292.195.292.336,0,.177-.106.257-.487.319a12.736,12.736,0,0,1-1.655.089,4.342,4.342,0,0,1-1.841-.328,1.171,1.171,0,0,1-.717-1.089,1.545,1.545,0,0,1,.434-1.036,5.061,5.061,0,0,1,1.283-.964A.888.888,0,0,1-575.8,1199.324Z" transform="translate(607.524 -1195.925)"/>
            <path id="パス_37985" data-name="パス 37985" d="M-561.237,1195.745H-563.7v7.01h-.354v-7.347h2.815Z" transform="translate(602.144 -1195.408)"/>
            <path id="パス_37986" data-name="パス 37986" d="M-554.576,1201.208a.339.339,0,0,1-.027.124,1.556,1.556,0,0,0-.106.584.893.893,0,0,0,.567.868,3.348,3.348,0,0,0,1.6.292,5.265,5.265,0,0,0,1.514-.186,1.693,1.693,0,0,1,.54-.08c.328,0,.567.151.567.381s-.186.319-.5.363a13.366,13.366,0,0,1-1.973.142,4.277,4.277,0,0,1-1.673-.283,1.422,1.422,0,0,1-.965-1.345,1.446,1.446,0,0,1,.238-.851.15.15,0,0,1,.115-.088C-554.629,1201.127-554.576,1201.163-554.576,1201.208Zm.576-2.266a1.363,1.363,0,0,1-.558-.434.155.155,0,0,1-.035-.106.1.1,0,0,1,.088-.1.211.211,0,0,1,.116.044,1.686,1.686,0,0,0,.592.23,3.558,3.558,0,0,0,.656.052,5.946,5.946,0,0,0,.841-.079,5.2,5.2,0,0,0,.788-.177,1.072,1.072,0,0,1,.256-.062,1.142,1.142,0,0,1,.319.045c.221.071.292.186.292.345s-.106.256-.407.283a5.919,5.919,0,0,0-1.23.213,6.431,6.431,0,0,0-1.461.877.471.471,0,0,1-.195.079.137.137,0,0,1-.1-.1.335.335,0,0,1,.1-.142c.195-.177.584-.513.9-.8A2.364,2.364,0,0,1-554,1198.941Z" transform="translate(598.449 -1196.595)"/>
            <path id="パス_37987" data-name="パス 37987" d="M-539.926,1199.877a17.771,17.771,0,0,1,1.424-1.4,2.351,2.351,0,0,1,1.23-.673.88.88,0,0,1,.895.938c0,.345-.107.912-.177,1.443-.08.664-.151,1.346-.151,1.691,0,.451.142.584.5.584a2.293,2.293,0,0,0,1.646-1.3c.036-.062.08-.133.159-.133a.114.114,0,0,1,.1.106.4.4,0,0,1-.035.159,3.114,3.114,0,0,1-.761,1.186,1.658,1.658,0,0,1-1.106.513c-.664,0-1.017-.372-1.017-1.1,0-.443.044-1.062.106-1.77.053-.575.1-.991.1-1.337,0-.5-.089-.637-.31-.637a2.113,2.113,0,0,0-1.106.647,14.433,14.433,0,0,0-1.513,1.531c0,.5,0,.991.008,1.372,0,.08.01.283.027.611.009.124.018.266.027.381a2.609,2.609,0,0,1,.018.319c0,.38-.124.655-.327.655-.107,0-.187-.071-.221-.23a1.644,1.644,0,0,0-.248-.6,6.7,6.7,0,0,0-.673-.823c-.194.266-.274.389-.353.487a.311.311,0,0,1-.257.142c-.142-.009-.221-.107-.221-.3a.652.652,0,0,1,.2-.433c.044-.045.115-.107.185-.177a10.514,10.514,0,0,0,1.417-1.912c.018-.283.026-.513.035-.716a3.832,3.832,0,0,0-.8.407.319.319,0,0,1-.23.124.492.492,0,0,1-.345-.212,1.016,1.016,0,0,1-.266-.532c0-.106.027-.195.061-.195s.071.027.107.08c.177.248.274.3.407.3a.937.937,0,0,0,.319-.071c.257-.1.532-.2.761-.31.018-.531.045-1.133.045-1.416,0-.381-.071-.487-.478-.62-.115-.036-.133-.054-.133-.089s.009-.062.08-.106a.5.5,0,0,1,.257-.063,1.263,1.263,0,0,1,.664.248c.195.133.327.24.327.425a.262.262,0,0,1-.1.2.536.536,0,0,0-.132.309c-.018.187-.053.5-.071.938a.412.412,0,0,1,.142-.027c.044,0,.1.027.177.107a.278.278,0,0,1,.1.177.266.266,0,0,1-.089.168,3.786,3.786,0,0,0-.389.664Zm-.531,2.594c.062.045.089.027.089-.044,0-.611,0-1.23.009-1.744-.3.4-.638.859-.841,1.169C-540.972,1202.063-540.671,1202.3-540.458,1202.47Z" transform="translate(593.173 -1195.814)"/>
            <path id="パス_37988" data-name="パス 37988" d="M-522.049,1198.717a.819.819,0,0,1,.7.363,1.85,1.85,0,0,1,.256,1.053,5.709,5.709,0,0,1-.345,1.877,2.9,2.9,0,0,1-.69,1.133,1.168,1.168,0,0,1-.788.4c-.2,0-.292-.053-.327-.23a.583.583,0,0,0-.133-.318c-.142-.168-.3-.336-.513-.558a.121.121,0,0,1-.044-.089c0-.035.044-.1.088-.1a.158.158,0,0,1,.1.044c.257.177.469.319.7.452a.578.578,0,0,0,.257.062.457.457,0,0,0,.336-.168,3.057,3.057,0,0,0,.628-1.2,5.87,5.87,0,0,0,.23-1.5,1.2,1.2,0,0,0-.15-.743.4.4,0,0,0-.38-.151,2.563,2.563,0,0,0-.611.106c-.274.567-.522,1.125-.788,1.638-.46.893-.859,1.672-1.336,2.487a.331.331,0,0,1-.31.177.262.262,0,0,1-.283-.247.55.55,0,0,1,.115-.328c.523-.788,1-1.584,1.443-2.4.23-.433.424-.8.6-1.168-.328.115-.673.256-.929.362a.966.966,0,0,0-.257.133.32.32,0,0,1-.221.1.591.591,0,0,1-.4-.213.991.991,0,0,1-.336-.619c0-.1.044-.213.089-.213s.052.018.1.08c.159.2.292.328.434.328a2.692,2.692,0,0,0,.637-.116c.31-.071.646-.159,1.071-.274a10.04,10.04,0,0,0,.4-1.072,1,1,0,0,0,.063-.345c0-.08-.018-.124-.133-.2a1.269,1.269,0,0,0-.389-.132c-.089-.018-.125-.036-.125-.08s.054-.08.115-.115a.766.766,0,0,1,.319-.071,1.436,1.436,0,0,1,.885.372.37.37,0,0,1,.142.292c0,.088-.053.151-.168.2a.6.6,0,0,0-.213.284c-.106.238-.23.5-.354.77A2.688,2.688,0,0,1-522.049,1198.717Zm3.523,2.726a.41.41,0,0,1-.256-.1.5.5,0,0,0-.328-.1c-.283,0-.593.017-1,.044a.109.109,0,0,1-.124-.115c0-.053.026-.089.1-.107a7.59,7.59,0,0,0,.991-.248c.106-.036.142-.062.142-.159a1.446,1.446,0,0,0-.3-.682,3.81,3.81,0,0,0-.974-.929.183.183,0,0,1-.089-.124c0-.044.054-.088.133-.088a.159.159,0,0,1,.079.018,3.487,3.487,0,0,1,1.239.841,2.1,2.1,0,0,1,.708,1.363C-518.207,1201.328-518.357,1201.443-518.526,1201.443Z" transform="translate(586.324 -1195.999)"/>
            <path id="パス_37989" data-name="パス 37989" d="M-507.533,1197.259a1.249,1.249,0,0,1-.372-.814c0-.08.035-.106.071-.106s.071.017.115.1a1.972,1.972,0,0,0,1.107.814,1.434,1.434,0,0,1,.522.283.5.5,0,0,1,.185.381.24.24,0,0,1-.238.248.827.827,0,0,1-.275-.044,1.3,1.3,0,0,0-.424-.053,3.262,3.262,0,0,0-1.115.256c-.142.062-.221.151-.221.24a.605.605,0,0,0,.071.239.964.964,0,0,1,.071.38,5.108,5.108,0,0,1-.062.62,9.559,9.559,0,0,0-.116,1.275c0,.035.009.063.045.063s.053-.01.106-.054a9.306,9.306,0,0,1,1.186-.8,3.164,3.164,0,0,1,1.637-.522,1.892,1.892,0,0,1,1.381.5,1.333,1.333,0,0,1,.416.974,2.024,2.024,0,0,1-1.425,1.779,7.375,7.375,0,0,1-2.806.584c-.1,0-.177-.026-.177-.106a.151.151,0,0,1,.133-.133,7.567,7.567,0,0,0,2.478-.761c.709-.407,1.116-.894,1.116-1.46a1.1,1.1,0,0,0-.31-.824,1.264,1.264,0,0,0-.859-.274,2.185,2.185,0,0,0-1.168.38,5.452,5.452,0,0,0-1.08.912,2.313,2.313,0,0,0-.469.655c-.053.168-.115.23-.257.23-.115,0-.23-.089-.336-.257a.946.946,0,0,1-.142-.513,10.03,10.03,0,0,1,.212-1.805,3.457,3.457,0,0,0,.07-.673c0-.1-.017-.221-.017-.336a.583.583,0,0,1,.345-.513,5.381,5.381,0,0,1,1.115-.443A1.959,1.959,0,0,1-507.533,1197.259Z" transform="translate(579.475 -1195.789)"/>
            <path id="パス_37990" data-name="パス 37990" d="M-491.65,1198.983a3.519,3.519,0,0,1-.231,1.035,8.907,8.907,0,0,1-1.265,2.293,1.185,1.185,0,0,1-.894.575.815.815,0,0,1-.664-.354,1.943,1.943,0,0,1-.407-1.309,3.221,3.221,0,0,1,.832-2.089,3.781,3.781,0,0,1,2.833-1.159,3.248,3.248,0,0,1,2.053.682,2.526,2.526,0,0,1,.983,2.009,2.5,2.5,0,0,1-.956,2.071,5.281,5.281,0,0,1-2.947.991.125.125,0,0,1-.124-.106c0-.071.044-.1.159-.124a4.923,4.923,0,0,0,2.408-1.124,2.5,2.5,0,0,0,.8-1.833,2.234,2.234,0,0,0-.744-1.691,2.564,2.564,0,0,0-1.646-.575,3.706,3.706,0,0,0-.469.018A1.03,1.03,0,0,1-491.65,1198.983Zm-2.231.212a2.761,2.761,0,0,0-.77,1.912,1.528,1.528,0,0,0,.195.824.5.5,0,0,0,.416.3c.186,0,.362-.159.62-.5a9.387,9.387,0,0,0,1.265-2.3,1.929,1.929,0,0,0,.124-.7.549.549,0,0,0-.142-.407A3.121,3.121,0,0,0-493.881,1199.195Z" transform="translate(573.887 -1196.46)"/>
            <path id="パス_37991" data-name="パス 37991" d="M-478.453,1200.13c0-.716-.009-1.292-.027-1.832a10.871,10.871,0,0,1-1.7.823c-.061.027-.106-.106-.053-.132a10.86,10.86,0,0,0,3.027-2.523,3.074,3.074,0,0,0,.549-.983c.744.221.974.345.974.434,0,.071-.08.115-.292.142a5.68,5.68,0,0,0,1.77,1.513,6.827,6.827,0,0,0,2.31.77c.044.01.036.089-.009.1-.23.036-.327.124-.443.46-.035.116-.079.151-.15.151a.879.879,0,0,1-.24-.071,7.4,7.4,0,0,1-1.15-.593c0,.071-.027.116-.186.213v.5c0,1.027.035,1.425.035,1.558,0,.195-.114.275-.372.275-.185,0-.256-.036-.274-.151h-1.672a4.672,4.672,0,0,0,1.053,1.186,9.708,9.708,0,0,0,1.071-.93,3.485,3.485,0,0,0,.425-.548c.62.372.717.469.717.567,0,.079-.1.106-.381.079a8.235,8.235,0,0,1-1.681.938,5.152,5.152,0,0,0,.531.319,6.428,6.428,0,0,0,2.372.584c.035,0,.035.08,0,.089a.56.56,0,0,0-.477.452c-.036.106-.1.167-.186.167a1.553,1.553,0,0,1-.4-.089,6.486,6.486,0,0,1-1.478-.664,4.668,4.668,0,0,1-1.779-2.151h-1.266v1.938a17.241,17.241,0,0,0,1.965-.5c.053-.018.079.089.035.115a15.7,15.7,0,0,1-3.089,1.213c-.062.23-.115.283-.186.283-.089,0-.159-.141-.389-.894a9.753,9.753,0,0,0,1.044-.106Zm3.718-1.92a1.825,1.825,0,0,1,.266-.221,6.412,6.412,0,0,1-1.655-1.832,7.805,7.805,0,0,1-1.983,1.9c.1.044.186.088.319.151h1.168v-.417a5.646,5.646,0,0,0-.044-.619c.85.079.938.142.938.239,0,.061-.063.133-.274.238v.558Zm.044.221h-3.142v.938h3.142Zm-3.142,2.133h3.142v-.974h-3.142Z" transform="translate(567.798 -1195.439)"/>
            <path id="パス_37992" data-name="パス 37992" d="M-463.461,1204.159H-461v-7.011h.354v7.347h-2.815Z" transform="translate(560.914 -1196.121)"/>
            <path id="パス_37993" data-name="パス 37993" d="M-451.122,1200.2c0-.5-.124-.717-.443-.717a1.719,1.719,0,0,0-1.089.62,6.959,6.959,0,0,0-.7.885.45.45,0,0,1-.3.212c-.168,0-.292-.106-.292-.353,0-.133.1-.257.274-.434a9.571,9.571,0,0,0,.859-1.017,11.419,11.419,0,0,0,.654-1.045,5.062,5.062,0,0,1-.761.053,1.07,1.07,0,0,1-1.027-.566.213.213,0,0,1-.035-.115.072.072,0,0,1,.071-.08.172.172,0,0,1,.106.07,1.137,1.137,0,0,0,.876.292,4.914,4.914,0,0,0,1-.141,5.063,5.063,0,0,0,.292-.752,1,1,0,0,0,.044-.23c0-.115-.061-.168-.176-.2a2.211,2.211,0,0,0-.363-.07c-.044-.009-.071-.027-.071-.054a.171.171,0,0,1,.071-.1.543.543,0,0,1,.345-.115,1.51,1.51,0,0,1,.664.2c.212.124.292.239.292.345a.233.233,0,0,1-.1.2.851.851,0,0,0-.221.24c-.052.088-.15.265-.221.407a3.739,3.739,0,0,0,.771-.31.914.914,0,0,1,.451-.15c.195,0,.336.106.336.266s-.124.212-.292.274a14.854,14.854,0,0,1-1.549.443c-.274.46-.549.929-.85,1.354a1.992,1.992,0,0,1,1.063-.426.766.766,0,0,1,.814.752c.017.106.017.266.027.416a20.806,20.806,0,0,0,1.77-1.106.265.265,0,0,0,.133-.186c0-.044-.035-.08-.106-.124a1.234,1.234,0,0,0-.266-.1c-.053-.017-.089-.035-.089-.061s.063-.089.133-.116a.553.553,0,0,1,.221-.035,1.563,1.563,0,0,1,.673.221c.266.142.407.292.407.469a.228.228,0,0,1-.231.229,1.265,1.265,0,0,0-.345.1c-.433.187-.876.39-1.487.708-.257.133-.549.31-.8.443v1.239c0,.248-.1.372-.274.372a.28.28,0,0,1-.3-.319c0-.212.018-.584.035-1.018-.779.443-1.239.788-1.239,1.337,0,.363.319.646,1.142.646a9.658,9.658,0,0,0,1.239-.062,5.218,5.218,0,0,0,.522-.106,1.477,1.477,0,0,1,.3-.053c.31,0,.611.176.611.389,0,.142-.1.23-.443.283a11.816,11.816,0,0,1-1.673.088c-1.2,0-2.018-.291-2.018-1.133,0-.77.611-1.274,1.558-1.841Z" transform="translate(557.028 -1195.789)"/>
            <path id="パス_37994" data-name="パス 37994" d="M-439.638,1203.329c0-.283.044-.575.044-.832,0-.629-.142-.78-.7-.939-.053-.017-.035-.133.018-.124a3.1,3.1,0,0,0,.336.036.455.455,0,0,0,.443-.239,26.623,26.623,0,0,0,1.469-2.788c.018-.045.124,0,.106.044-.4,1.044-.752,1.965-1.133,2.867a1.527,1.527,0,0,0-.1.566c0,.434.319.841.319,1.292,0,.336-.186.558-.46.558C-439.514,1203.771-439.638,1203.639-439.638,1203.329Zm.195-4.107a1.984,1.984,0,0,0-.779-1.018c-.027-.017.009-.08.044-.071.823.107,1.345.487,1.345.9a.386.386,0,0,1-.345.408C-439.293,1199.444-439.373,1199.381-439.444,1199.222Zm.46-2.239a1.828,1.828,0,0,0-.69-.859c-.027-.018.009-.08.044-.071.859.132,1.337.477,1.337.912a.366.366,0,0,1-.345.38C-438.789,1197.345-438.842,1197.292-438.983,1196.983Zm3.983,3.407a3.944,3.944,0,0,0,1.2,1.266,5.158,5.158,0,0,0,1.8.708c.036.01.036.089,0,.1a.523.523,0,0,0-.4.451c-.035.124-.053.168-.115.168a.923.923,0,0,1-.318-.115,5.085,5.085,0,0,1-1.3-.965,5.122,5.122,0,0,1-1-1.487c.027,1.841.071,2.85.071,3.072,0,.186-.142.274-.4.274-.2,0-.292-.071-.292-.212,0-.212.044-1.089.089-2.647a6.43,6.43,0,0,1-2.841,2.133c-.053.027-.124-.089-.071-.124a7.425,7.425,0,0,0,2.594-2.62h-1.487a2.96,2.96,0,0,0-.531.053l-.1-.336a3.409,3.409,0,0,0,.637.062h1.762v-.212a6.665,6.665,0,0,0-.035-.973c.788.1.9.142.9.256,0,.063-.035.107-.274.221v.708h1.575c.372-.434.443-.477.5-.477s.124.043.513.345c.177.151.221.2.221.256,0,.071-.035.1-.124.1Zm-2.1-3.691c0,.7-.257,1.2-.664,1.2a.31.31,0,0,1-.31-.336c0-.159.071-.248.248-.381a1.172,1.172,0,0,0,.549-1.071c0-.053.115-.062.124-.009a3.008,3.008,0,0,1,.053.38h3.824c.248-.292.292-.336.336-.336s.15.027.522.372c.142.124.151.177.151.248,0,.106-.08.158-.3.15a.3.3,0,0,0-.248.114,4.571,4.571,0,0,1-.593.5c-.035.027-.1-.027-.079-.062a3.343,3.343,0,0,0,.3-.761h-1.1v1.523c0,.266.1.336.6.336.434,0,.567-.044.672-.151a1.541,1.541,0,0,0,.319-.744c.009-.044.1-.035.1.01-.008.195-.027.451-.027.566,0,.1.027.132.133.177a.247.247,0,0,1,.159.239c0,.15-.106.256-.328.327a4.438,4.438,0,0,1-1.106.1c-.859,0-1.116-.187-1.116-.735,0-.123.018-.344.018-.672v-.974h-.725c-.044,1.5-.717,2.258-2.293,2.682-.062.018-.1-.105-.044-.132a2.5,2.5,0,0,0,1.734-2.55Z" transform="translate(551.431 -1195.672)"/>
            <path id="パス_37995" data-name="パス 37995" d="M-421.137,1197.754a2.1,2.1,0,0,0-.177.4,8.174,8.174,0,0,0-.5,2.5,5.127,5.127,0,0,0,.053.921c.009.035.027.052.053.052s.044-.018.062-.062c.221-.531.5-1.239.69-1.69.027-.062.062-.107.115-.107a.114.114,0,0,1,.1.089.441.441,0,0,1-.027.124c-.168.646-.434,1.514-.513,1.868a2.276,2.276,0,0,0-.08.46,3.239,3.239,0,0,0,.017.389,2.15,2.15,0,0,1,.027.257c0,.151-.071.248-.23.248s-.328-.142-.443-.451a6.031,6.031,0,0,1-.239-1.991,12.852,12.852,0,0,1,.407-2.789,3.712,3.712,0,0,0,.106-.708,1.116,1.116,0,0,0-.212-.718.319.319,0,0,1-.062-.151c0-.061.062-.088.106-.088a.253.253,0,0,1,.142.053,1.371,1.371,0,0,1,.5.548,1.193,1.193,0,0,1,.186.576A.587.587,0,0,1-421.137,1197.754Zm3.47.947c0-.274,0-.345-.036-.416a.289.289,0,0,0-.195-.114,1.3,1.3,0,0,0-.159-.018c-.036,0-.063-.018-.063-.045,0-.052.053-.089.1-.115a.665.665,0,0,1,.293-.08.937.937,0,0,1,.5.16.222.222,0,0,1,.133.2.23.23,0,0,1-.044.132.96.96,0,0,0-.053.31c-.009.177-.009.274-.009.39a6.015,6.015,0,0,0,.761-.274.627.627,0,0,1,.257-.071.223.223,0,0,1,.238.221c0,.132-.061.221-.274.327a4.3,4.3,0,0,1-.991.328c0,.62.018,1.221.061,1.779a4.292,4.292,0,0,1,1.452.726.541.541,0,0,1,.221.389.283.283,0,0,1-.265.31.445.445,0,0,1-.345-.159,3.748,3.748,0,0,0-1.036-.726c-.009.726-.567,1.071-1.284,1.071s-1.247-.3-1.247-.85c0-.673.752-.9,1.371-.9a3.808,3.808,0,0,1,.647.044c-.009-.532-.018-1.072-.027-1.612a6,6,0,0,1-.744.071,2.232,2.232,0,0,1-.885-.115.55.55,0,0,1-.3-.478,1.066,1.066,0,0,1,.274-.752.153.153,0,0,1,.116-.071c.035,0,.079.027.079.054a.3.3,0,0,1-.044.124,1.168,1.168,0,0,0-.133.424.284.284,0,0,0,.115.266c.08.071.23.088.487.088a6.218,6.218,0,0,0,1.036-.115Zm1.221-1.779c0,.168-.132.248-.345.248-.292,0-.469-.009-.788.008a7.274,7.274,0,0,0-1.823.39.384.384,0,0,1-.133.045.1.1,0,0,1-.089-.089.17.17,0,0,1,.089-.132,3.936,3.936,0,0,1,1.168-.6,4.219,4.219,0,0,1,1.257-.221C-416.712,1196.568-416.446,1196.674-416.446,1196.922Zm-2.124,4.708c-.513,0-.8.221-.8.513,0,.337.389.443.921.443a.729.729,0,0,0,.805-.8A2.386,2.386,0,0,0-418.57,1201.631Zm2.231-5.612a1.97,1.97,0,0,1,.752.469c.2.195.328.354.319.54a.246.246,0,0,1-.256.257c-.115,0-.212-.089-.284-.248a2.914,2.914,0,0,0-.716-.876.122.122,0,0,1-.053-.089.091.091,0,0,1,.1-.088A.492.492,0,0,1-416.34,1196.019Zm.787-.567a2.1,2.1,0,0,1,.7.372.865.865,0,0,1,.389.576.261.261,0,0,1-.257.274c-.115-.009-.177-.053-.274-.23a2.749,2.749,0,0,0-.778-.859.106.106,0,0,1-.062-.088.1.1,0,0,1,.1-.089A1.116,1.116,0,0,1-415.552,1195.452Z" transform="translate(544.012 -1195.408)"/>
            <path id="パス_37996" data-name="パス 37996" d="M-404.5,1200.591a3.05,3.05,0,0,1,1.859-.7,1.809,1.809,0,0,1,2.018,1.77,2.254,2.254,0,0,1-2.505,2.089c-.965,0-1.646-.4-1.646-1,0-.478.4-.735.885-.735a1.69,1.69,0,0,1,1.487,1.133,1.585,1.585,0,0,0,1.115-1.531,1.3,1.3,0,0,0-1.4-1.407,2.828,2.828,0,0,0-2,.9,6.994,6.994,0,0,0-.69.779.288.288,0,0,1-.221.116.33.33,0,0,1-.319-.345.444.444,0,0,1,.15-.319c.682-.735,1.416-1.5,2.053-2.276.381-.469.744-.912,1.186-1.5.063-.08.036-.1,0-.1a.834.834,0,0,0-.168.044c-.4.133-.85.3-1.2.443a.651.651,0,0,0-.3.186.335.335,0,0,1-.239.1.709.709,0,0,1-.443-.257,1,1,0,0,1-.319-.647c0-.088.053-.185.106-.185.035,0,.071.035.115.1.195.256.319.345.469.345a2.1,2.1,0,0,0,.46-.063c.4-.1.77-.2,1.168-.336a.566.566,0,0,0,.266-.159.282.282,0,0,1,.2-.089,1.244,1.244,0,0,1,.558.275c.177.124.266.239.266.38,0,.089-.071.151-.231.187-.088.017-.168.061-.363.256-.292.293-.654.673-1.177,1.284-.328.381-.805.841-1.16,1.239Zm.5,1.7a.43.43,0,0,0-.487.407c0,.363.469.611,1.177.611a1.785,1.785,0,0,0,.354-.027A1.31,1.31,0,0,0-404,1202.291Z" transform="translate(537.329 -1196.041)"/>
          </g>
        </g>
      </g>
    </g>
    <g id="グループ_32204" data-name="グループ 32204" transform="translate(6312.785 -2314.275)">
      <path id="パス_38115" data-name="パス 38115" d="M309.37,379.111a.783.783,0,0,1,.264-.079,2.134,2.134,0,0,1,.712.141.418.418,0,0,1,.281.325.257.257,0,0,1-.255.281h-.078c-.413-.035-.913-.061-1.485-.061-.254,0-.474.009-.939.026,0,.395.01.86.018,1.15.017,1.009.043,1.808.061,2.4a.7.7,0,0,1-.184.6,1.222,1.222,0,0,1-.676.281c-.158,0-.21-.008-.228-.1a.578.578,0,0,0-.211-.413,2.951,2.951,0,0,0-.685-.325c-.1-.035-.114-.061-.114-.123,0-.044.044-.061.114-.061.035,0,.07.009.158.018a6.575,6.575,0,0,0,.9.088c.149,0,.176-.061.176-.2,0-1.15-.009-1.878-.026-2.713a9.348,9.348,0,0,1-1.651,1.756,8.377,8.377,0,0,1-2.028,1.291.582.582,0,0,1-.2.061c-.061,0-.079-.061-.079-.105s.044-.088.132-.149a11.587,11.587,0,0,0,1.8-1.537,12.933,12.933,0,0,0,1.458-1.826c-.641.079-1.133.175-1.493.254a1.441,1.441,0,0,0-.483.167.422.422,0,0,1-.29.088c-.14,0-.333-.122-.6-.412a.868.868,0,0,1-.281-.518c0-.1.053-.2.114-.2.035,0,.07.026.113.07a1.035,1.035,0,0,0,.72.316c.1,0,.237-.009.448-.026.518-.053,1.176-.123,2.3-.22,0-.913-.01-1.15-.018-1.282-.018-.228-.043-.29-.141-.343a1.533,1.533,0,0,0-.413-.141c-.088-.017-.113-.017-.113-.078,0-.045.061-.106.132-.15a.547.547,0,0,1,.342-.087,2.292,2.292,0,0,1,.8.166c.238.105.352.211.352.36a.583.583,0,0,1-.132.307c-.035.053-.07.123-.1.439-.008.175-.017.413-.017.764.421-.035.712-.053,1.168-.1A.714.714,0,0,0,309.37,379.111Z" transform="translate(0 -0.264)" fill="#070203"/>
      <path id="パス_38116" data-name="パス 38116" d="M322.23,382.1c-.272,0-.87-.044-1.3-.044-.693,0-2.2.035-3.283.132a2.5,2.5,0,0,0-.869.166.381.381,0,0,1-.237.071c-.228,0-.43-.212-.7-.606a.716.716,0,0,1-.166-.474c0-.14.053-.211.1-.211.027,0,.071.036.115.079a.867.867,0,0,0,.738.334c.236,0,.4-.009.921-.044,1.089-.07,2.248-.123,3.108-.141a1.677,1.677,0,0,0,.685-.123.579.579,0,0,1,.245-.07,1.008,1.008,0,0,1,.4.087c.334.141.562.272.562.492A.334.334,0,0,1,322.23,382.1Z" transform="translate(-3.337 -1.301)" fill="#070203"/>
      <path id="パス_38117" data-name="パス 38117" d="M331.009,379.3c.9-.07,1.212-.088,1.66-.141a1.557,1.557,0,0,0,.334-.1.922.922,0,0,1,.324-.079,1.753,1.753,0,0,1,.835.237.383.383,0,0,1,.193.343.248.248,0,0,1-.2.264,2.677,2.677,0,0,1-.535-.036,9.219,9.219,0,0,0-1.089-.061c-.3,0-.79,0-1.185.026.281.194.4.369.4.492a.266.266,0,0,1-.045.141,1.641,1.641,0,0,0-.175.4,5.813,5.813,0,0,1-.958,1.73,5.366,5.366,0,0,1-1.791,1.483.371.371,0,0,1-.149.053c-.061,0-.088-.026-.088-.087,0-.045.07-.106.22-.238a7.355,7.355,0,0,0,1.291-1.615,6.659,6.659,0,0,0,.649-1.554,2.751,2.751,0,0,0,.08-.466.414.414,0,0,0-.1-.3c-.624.061-1.274.141-1.677.22a1.085,1.085,0,0,0-.413.149.406.406,0,0,1-.264.079c-.158,0-.316-.088-.588-.395a.785.785,0,0,1-.228-.483c0-.132.044-.211.1-.211s.08.053.133.1a.933.933,0,0,0,.6.281c.21,0,.518-.026.772-.053C329.71,379.41,330.219,379.357,331.009,379.3Zm.562-1.862a.96.96,0,0,0,.264-.1,1.086,1.086,0,0,1,.333-.1,1.6,1.6,0,0,1,.755.176.291.291,0,0,1,.141.264.3.3,0,0,1-.325.307c-.193.009-.422.009-.7.035-.535.044-1.448.114-1.94.158-.167.018-.334.035-.457.035a.75.75,0,0,1-.7-.316.622.622,0,0,1-.2-.466c0-.079.018-.132.061-.132.026,0,.053.036.114.079a.941.941,0,0,0,.7.272,9.026,9.026,0,0,0,.949-.07C330.948,377.539,331.29,377.5,331.571,377.434Zm2.485-.272a.66.66,0,0,1,.325.527.3.3,0,0,1-.29.307.315.315,0,0,1-.3-.2,3.306,3.306,0,0,0-.553-.773c-.035-.034-.1-.078-.1-.113,0-.053.044-.061.105-.061a.765.765,0,0,1,.2.035A1.6,1.6,0,0,1,334.056,377.162Zm.808-.605a.534.534,0,0,1,.316.448.294.294,0,0,1-.272.324.335.335,0,0,1-.324-.193,2.23,2.23,0,0,0-.615-.685c-.035-.026-.1-.07-.1-.105a.069.069,0,0,1,.07-.07,1.215,1.215,0,0,1,.228.026A2.063,2.063,0,0,1,334.864,376.556Z" transform="translate(-6.511 0)" fill="#070203"/>
      <path id="パス_38118" data-name="パス 38118" d="M340.711,383.079a.342.342,0,0,1-.149.061.082.082,0,0,1-.088-.087c0-.036.043-.088.123-.141a14.913,14.913,0,0,0,2.16-2.09,6.266,6.266,0,0,0,.79-1.089.609.609,0,0,0,.105-.29c0-.062-.088-.149-.219-.228-.071-.044-.141-.061-.141-.115,0-.1.132-.141.3-.141a1.834,1.834,0,0,1,.791.281c.184.114.334.246.334.378,0,.105-.071.193-.229.246a.247.247,0,0,0-.149.1c-.378.413-.72.781-.975,1.045.264.184.43.334.43.466a.3.3,0,0,1-.026.132,4.347,4.347,0,0,0-.018.544v.914c.009.623.009,1,.009,1.2,0,.315-.141.413-.3.413a.373.373,0,0,1-.316-.167.833.833,0,0,1-.14-.474.608.608,0,0,1,.035-.158,1.859,1.859,0,0,0,.053-.466c.009-.2.017-.378.017-.711,0-.246.009-.729.009-.949a.968.968,0,0,0-.052-.447A9.3,9.3,0,0,1,340.711,383.079Z" transform="translate(-9.983 -0.72)" fill="#070203"/>
      <path id="パス_38119" data-name="パス 38119" d="M357.6,379a.314.314,0,0,1-.229.3c-.14.061-.185.158-.272.3a15.166,15.166,0,0,1-2.028,2.634,7.688,7.688,0,0,1-2.845,1.914.582.582,0,0,1-.2.053c-.053,0-.089-.018-.089-.079s.045-.088.15-.157a11.088,11.088,0,0,0,2.563-2.248,11.994,11.994,0,0,0,1.731-2.652.3.3,0,0,0,.026-.088.04.04,0,0,0-.044-.035c-.211.026-.5.1-.887.167a3.586,3.586,0,0,1-.474.088,1.413,1.413,0,0,1-.482-.149,9.851,9.851,0,0,1-1.045,1.176,8.3,8.3,0,0,1-1.272.975.678.678,0,0,1-.281.131c-.079,0-.106-.034-.106-.1s.123-.158.335-.369a12.345,12.345,0,0,0,1.089-1.273c.246-.325.482-.676.711-1.045a1.8,1.8,0,0,0,.29-.676c0-.149-.149-.255-.316-.343-.079-.044-.105-.07-.105-.105s.114-.14.29-.14a1.845,1.845,0,0,1,.86.316c.272.167.325.281.325.413a.391.391,0,0,1-.193.272,1.713,1.713,0,0,0-.36.439.535.535,0,0,0,.131.01,6.249,6.249,0,0,0,.685-.1c.36-.061.589-.115.7-.141a.362.362,0,0,0,.185-.1.359.359,0,0,1,.228-.123c.211,0,.4.105.712.387A.563.563,0,0,1,357.6,379Zm.447-1.194a.657.657,0,0,1,.324.527.294.294,0,0,1-.289.307.314.314,0,0,1-.3-.2,3.311,3.311,0,0,0-.553-.773c-.035-.035-.1-.079-.1-.114,0-.053.044-.061.105-.061a.77.77,0,0,1,.2.035A1.607,1.607,0,0,1,358.048,377.81Zm.808-.605a.533.533,0,0,1,.315.447.294.294,0,0,1-.272.325.335.335,0,0,1-.324-.193,2.227,2.227,0,0,0-.615-.685c-.035-.027-.105-.07-.105-.105a.069.069,0,0,1,.07-.07,1.212,1.212,0,0,1,.228.026A2.036,2.036,0,0,1,358.857,377.2Z" transform="translate(-13.021 -0.174)" fill="#070203"/>
    </g>
  </g>
</svg>
