<svg xmlns="http://www.w3.org/2000/svg" width="106.002" height="33.882" viewBox="0 0 106.002 33.882">
  <g id="ORDig" transform="translate(-218.073 -402.116)" style="isolation: isolate">
    <g id="グループ_31967" data-name="グループ 31967" transform="translate(218.073 402.116)" style="isolation: isolate">
      <path id="パス_37905" data-name="パス 37905" d="M226.722,428.407a8.753,8.753,0,0,1-4.911-1.242A7.587,7.587,0,0,1,219,423.772a10.47,10.47,0,0,1-.932-4.175,16.811,16.811,0,0,1,2.347-8.292,18.4,18.4,0,0,1,6.337-6.682,14.749,14.749,0,0,1,7.878-2.507,8.766,8.766,0,0,1,4.324,1.138,8.036,8.036,0,0,1,3.185,3.2,8.5,8.5,0,0,1,1.139,4.152,17.508,17.508,0,0,1-2.979,9.408,19.45,19.45,0,0,1-6.7,6.809A13.783,13.783,0,0,1,226.722,428.407Zm7.314-24.774a5.382,5.382,0,0,0-2.5.529,7.91,7.91,0,0,0-2.139,1.759,15.842,15.842,0,0,0-2.266,3.542,32.191,32.191,0,0,0-2.15,6.268,27.935,27.935,0,0,0-1,6.625,5.131,5.131,0,0,0,.977,3.4,3.153,3.153,0,0,0,2.519,1.15,4.868,4.868,0,0,0,3.45-1.334,19.469,19.469,0,0,0,4.624-7.89,28.793,28.793,0,0,0,1.794-9.247,5.685,5.685,0,0,0-.955-3.668A2.96,2.96,0,0,0,234.036,403.634Z" transform="translate(-218.073 -402.116)" fill="#070203"/>
    </g>
    <g id="グループ_31968" data-name="グループ 31968" transform="translate(240.835 402.116)" style="isolation: isolate">
      <path id="パス_37906" data-name="パス 37906" d="M259.14,415.706l-2.208,7.614a9.325,9.325,0,0,0-.483,2.369,1.347,1.347,0,0,0,.575,1.139,4.573,4.573,0,0,0,2.392.448l-.276.69H247.064l.207-.69a4.109,4.109,0,0,0,2.657-.7,6.738,6.738,0,0,0,1.552-3.14l4.67-16.124a8.024,8.024,0,0,0,.391-2.117,1.365,1.365,0,0,0-.483-1.127,4.645,4.645,0,0,0-2.231-.529l.184-.69h10.4q4.462,0,6.279,1.564a5.045,5.045,0,0,1,1.818,4,6.362,6.362,0,0,1-2.117,4.646,11.3,11.3,0,0,1-4.715,2.231l2.254,7.614A9.916,9.916,0,0,0,269.5,426.6a3.43,3.43,0,0,0,2.265.678v.69h-7.821l-3.565-12.261-.6.046Q259.577,415.752,259.14,415.706Zm.276-1.1c.429.015.79.023,1.081.023a5.833,5.833,0,0,0,4.451-1.851,6.8,6.8,0,0,0,1.737-4.842,3.662,3.662,0,0,0-.932-2.7,3.312,3.312,0,0,0-2.45-.931c-.245,0-.529.008-.851.023Z" transform="translate(-247.064 -402.273)" fill="#070203"/>
      <path id="パス_37907" data-name="パス 37907" d="M278.057,427.966l.23-.69a4.32,4.32,0,0,0,2.749-.747,5.647,5.647,0,0,0,1.552-2.8l4.555-15.849a9.738,9.738,0,0,0,.437-2.553,1.487,1.487,0,0,0-.518-1.253,5.809,5.809,0,0,0-2.633-.541l.207-.69h8.6q6.784,0,9.8,2.76a9.923,9.923,0,0,1,3.013,7.705,11.35,11.35,0,0,1-1.4,5.866,17.442,17.442,0,0,1-6.452,6.717,19.7,19.7,0,0,1-9.6,2.07Zm15.687-23.624-5.52,19.023a7.873,7.873,0,0,0-.391,1.887,1.008,1.008,0,0,0,.437.851,2.75,2.75,0,0,0,1.657.414,7.251,7.251,0,0,0,4.646-1.633,13.047,13.047,0,0,0,4.025-5.624,19.134,19.134,0,0,0,1.38-7,11.24,11.24,0,0,0-.794-4.405,5.768,5.768,0,0,0-2.473-2.841A5.943,5.943,0,0,0,293.744,404.343Z" transform="translate(-253.724 -402.273)" fill="#070203"/>
      <path id="パス_37908" data-name="パス 37908" d="M324.576,410.65l-3.8,13.157a7.514,7.514,0,0,0-.3,1.495.56.56,0,0,0,.161.368.459.459,0,0,0,.345.185.911.911,0,0,0,.621-.276,10.861,10.861,0,0,0,2-2.484l.645.368q-2.808,4.876-5.958,4.876a2.652,2.652,0,0,1-1.909-.679,2.264,2.264,0,0,1-.713-1.713A6.249,6.249,0,0,1,316,424.2l2.576-8.856a7.563,7.563,0,0,0,.368-1.909.97.97,0,0,0-.356-.736,1.374,1.374,0,0,0-.955-.322c-.2,0-.422.008-.667.023l.23-.736,6.279-1.012Zm-1.15-8.534a2.624,2.624,0,0,1,1.943.8,2.654,2.654,0,0,1,.794,1.932,2.6,2.6,0,0,1-.8,1.92,2.657,2.657,0,0,1-1.932.794,2.71,2.71,0,0,1-2.691-2.714,2.675,2.675,0,0,1,.782-1.932A2.561,2.561,0,0,1,323.426,402.116Z" transform="translate(-261.807 -402.116)" fill="#070203"/>
      <path id="パス_37909" data-name="パス 37909" d="M342.265,414.112h4.923l-.6,2.025h-2.553a4.408,4.408,0,0,1,.6,2.093,5.626,5.626,0,0,1-.92,3.105,6.4,6.4,0,0,1-2.7,2.278,9.1,9.1,0,0,1-3.968.85,11.35,11.35,0,0,1-1.277-.08c-.469-.053-.97-.134-1.507-.242a6.154,6.154,0,0,0-1.541,1.012.783.783,0,0,0-.23.529.763.763,0,0,0,.276.576,3.248,3.248,0,0,0,1.426.621,38.1,38.1,0,0,1,4.992,1.311,5.99,5.99,0,0,1,2.5,1.77,4.112,4.112,0,0,1,.84,2.6,5.114,5.114,0,0,1-2.128,4.037q-2.128,1.736-6.59,1.737-4.508,0-6.648-1.5a3.065,3.065,0,0,1-1.518-2.553,2.882,2.882,0,0,1,1-2.093q1-.966,4.336-1.7a4.43,4.43,0,0,1-1.518-1.15,2.287,2.287,0,0,1-.552-1.449,2.932,2.932,0,0,1,.989-2.185,10.807,10.807,0,0,1,3.335-1.887,5.6,5.6,0,0,1-2.622-1.851,4.477,4.477,0,0,1-.806-2.657,5.427,5.427,0,0,1,.966-3.06,6.93,6.93,0,0,1,2.863-2.358,9.983,9.983,0,0,1,4.359-.908,10.334,10.334,0,0,1,2.806.345A5.365,5.365,0,0,1,342.265,414.112Zm-10.258,16.815a5.753,5.753,0,0,0-2.4,1.484,2.689,2.689,0,0,0-.632,1.713,2.76,2.76,0,0,0,1.265,2.174,6.657,6.657,0,0,0,4.048.977,5.3,5.3,0,0,0,3.335-.839,2.479,2.479,0,0,0,1.036-1.967,1.9,1.9,0,0,0-.955-1.645,13.057,13.057,0,0,0-3.646-1.3Q332.788,431.18,332.006,430.927Zm6.371-17.045a2.105,2.105,0,0,0-1.518.6,7.193,7.193,0,0,0-1.76,3.036,12.248,12.248,0,0,0-.747,4.026,1.954,1.954,0,0,0,.529,1.449,1.778,1.778,0,0,0,1.311.529,1.828,1.828,0,0,0,1.311-.529,8.163,8.163,0,0,0,1.829-3.243,12.527,12.527,0,0,0,.77-4.048,1.8,1.8,0,0,0-.494-1.311A1.653,1.653,0,0,0,338.378,413.882Z" transform="translate(-263.947 -404.451)" fill="#070203"/>
    </g>
  </g>
</svg>
