<svg id="レイヤー_1" data-name="レイヤー 1" xmlns="http://www.w3.org/2000/svg" width="218.318" height="16.342" viewBox="0 0 218.318 16.342">
  <path id="パス_32" data-name="パス 32" d="M5.375,16.335a5.429,5.429,0,0,1-3.052-.772A4.693,4.693,0,0,1,.6,13.451,6.49,6.49,0,0,1,0,10.858,10.472,10.472,0,0,1,1.46,5.706a11.461,11.461,0,0,1,3.933-4.15A9.181,9.181,0,0,1,10.291,0a5.429,5.429,0,0,1,2.684.706A4.946,4.946,0,0,1,14.953,2.7a5.266,5.266,0,0,1,.73,2.576,10.906,10.906,0,0,1-1.846,5.845A12.064,12.064,0,0,1,9.669,15.34a8.566,8.566,0,0,1-4.295,1ZM9.917.941a3.366,3.366,0,0,0-1.55.332A4.9,4.9,0,0,0,7.039,2.365a9.808,9.808,0,0,0-1.412,2.2A20.219,20.219,0,0,0,4.295,8.445a17.318,17.318,0,0,0-.6,4.12,3.149,3.149,0,0,0,.6,2.111,1.954,1.954,0,0,0,1.562.718A3.016,3.016,0,0,0,8,14.561a11.98,11.98,0,0,0,2.859-4.91A17.777,17.777,0,0,0,11.974,3.9a3.541,3.541,0,0,0-.6-2.274A1.81,1.81,0,0,0,9.917.941Z" transform="translate(0 0.001)" fill="#fff"/>
  <path id="パス_33" data-name="パス 33" d="M32.159,5.3,29.8,13.475a4.488,4.488,0,0,0-.187.929.356.356,0,0,0,.1.229.277.277,0,0,0,.211.115.567.567,0,0,0,.386-.175,6.569,6.569,0,0,0,1.243-1.538l.4.223q-1.749,3.016-3.7,3.016a1.671,1.671,0,0,1-1.206-.422,1.436,1.436,0,0,1-.44-1.068,3.933,3.933,0,0,1,.2-1.086l1.6-5.5a4.693,4.693,0,0,0,.223-1.206.6.6,0,0,0-.217-.458.869.869,0,0,0-.6-.2h-.41l.139-.458,3.9-.6ZM31.441,0a1.653,1.653,0,0,1,1.206.5,1.659,1.659,0,0,1,.489,1.206,1.611,1.611,0,0,1-.5,1.206,1.647,1.647,0,0,1-1.206.489,1.611,1.611,0,0,1-1.176-.489,1.629,1.629,0,0,1-.495-1.206A1.659,1.659,0,0,1,30.247.5,1.586,1.586,0,0,1,31.441,0Z" transform="translate(-10.558 0.001)" fill="#fff"/>
  <path id="パス_34" data-name="パス 34" d="M45.407,8.786l-.5,3.559h-.428a3.306,3.306,0,0,0-.844-2.178,2.2,2.2,0,0,0-1.611-.8,1.261,1.261,0,0,0-.875.308.965.965,0,0,0-.344.748,1.665,1.665,0,0,0,.151.694,3.915,3.915,0,0,0,.664.869,17.089,17.089,0,0,1,2.208,2.69,3.287,3.287,0,0,1,.4,1.58,3.384,3.384,0,0,1-1.846,3.016,3.987,3.987,0,0,1-1.906.495,6.273,6.273,0,0,1-1.641-.271,3.794,3.794,0,0,0-.977-.187.965.965,0,0,0-.44.084,1.255,1.255,0,0,0-.356.374H36.63l.567-3.848h.362a9.742,9.742,0,0,0,.76,2,2.654,2.654,0,0,0,.947.947,2.172,2.172,0,0,0,1.128.35,1.454,1.454,0,0,0,1.044-.4,1.279,1.279,0,0,0,.41-.941,2.238,2.238,0,0,0-.271-1.056,9.308,9.308,0,0,0-1.243-1.574,11.805,11.805,0,0,1-1.773-2.262,2.757,2.757,0,0,1-.3-1.3,2.69,2.69,0,0,1,.9-2.075,3.619,3.619,0,0,1,2.515-.826,7.981,7.981,0,0,1,1.761.241,3.7,3.7,0,0,0,.826.133.851.851,0,0,0,.718-.374Z" transform="translate(-14.535 -3.483)" fill="#fff"/>
  <path id="パス_35" data-name="パス 35" d="M57.969,5.3l-2.359,8.173a4.488,4.488,0,0,0-.187.929.344.344,0,0,0,.1.229.284.284,0,0,0,.217.115.6.6,0,0,0,.386-.175,6.726,6.726,0,0,0,1.243-1.538l.4.223c-1.158,2.021-2.413,3.016-3.7,3.016a1.671,1.671,0,0,1-1.206-.422,1.418,1.418,0,0,1-.44-1.068,3.933,3.933,0,0,1,.2-1.086l1.6-5.5a4.765,4.765,0,0,0,.229-1.206.6.6,0,0,0-.223-.458.845.845,0,0,0-.6-.2H53.2l.169-.4,3.9-.6ZM57.251,0a1.629,1.629,0,0,1,1.206.5,1.641,1.641,0,0,1,.495,1.206,1.635,1.635,0,0,1-.5,1.206,1.659,1.659,0,0,1-1.206.489,1.6,1.6,0,0,1-1.206-.489,1.629,1.629,0,0,1-.495-1.206A1.677,1.677,0,0,1,56.027.5,1.611,1.611,0,0,1,57.251,0Z" transform="translate(-20.8 0.002)" fill="#fff"/>
  <path id="パス_36" data-name="パス 36" d="M63.341,9.476l4.017-.688a11.811,11.811,0,0,1,1.562,3.746c.754-1.11,1.321-1.894,1.7-2.34a5.187,5.187,0,0,1,1.255-1.134,2.166,2.166,0,0,1,1.056-.271,1.3,1.3,0,0,1,.977.344,1.273,1.273,0,0,1,.338.929,1.255,1.255,0,0,1-.338.9,1.122,1.122,0,0,1-.851.35,3.016,3.016,0,0,1-.838-.133,3.016,3.016,0,0,0-.657-.139,1.478,1.478,0,0,0-.929.344A7.491,7.491,0,0,0,69.162,13.4a16.548,16.548,0,0,0,1.568,4.222.929.929,0,0,0,.7.44.917.917,0,0,0,.519-.139,6.346,6.346,0,0,0,1.025-1.206l.416.247a7.582,7.582,0,0,1-1.985,2.3,2.5,2.5,0,0,1-1.448.531,2.093,2.093,0,0,1-1.206-.332,2.751,2.751,0,0,1-.869-1.068,17.418,17.418,0,0,1-.9-2.413c-.9,1.14-1.6,1.979-2.111,2.509a4.784,4.784,0,0,1-1.273,1.031,2.413,2.413,0,0,1-1.074.247,1.3,1.3,0,0,1-.953-.35,1.206,1.206,0,0,1-.368-.857,1.339,1.339,0,0,1,.38-.977,1.3,1.3,0,0,1,.965-.38,1.7,1.7,0,0,1,.7.181,2.286,2.286,0,0,0,.826.29,1.206,1.206,0,0,0,.6-.145,3.444,3.444,0,0,0,.869-.778c.217-.241.6-.748,1.206-1.532a20.064,20.064,0,0,0-1.713-4.9,1.206,1.206,0,0,0-1-.519,3.788,3.788,0,0,0-.76.1Z" transform="translate(-24.283 -3.485)" fill="#fff"/>
  <path id="パス_37" data-name="パス 37" d="M139.4,0l-3.728,12.878a8.8,8.8,0,0,0-.356,1.454.332.332,0,0,0,.084.223.278.278,0,0,0,.2.09.8.8,0,0,0,.44-.169,5.6,5.6,0,0,0,1.044-1.206l.41.229c-1.086,1.882-2.274,2.829-3.571,2.829a1.436,1.436,0,0,1-1.062-.368,1.206,1.206,0,0,1-.38-.935,5.61,5.61,0,0,1,.3-1.526l.338-1.206a12.1,12.1,0,0,1-2.479,3.39,2.588,2.588,0,0,1-1.568.633,1.81,1.81,0,0,1-1.478-.736,3.125,3.125,0,0,1-.6-2.051,8.155,8.155,0,0,1,.754-3.378,10.936,10.936,0,0,1,1.761-2.781,7.178,7.178,0,0,1,1.9-1.592,3.728,3.728,0,0,1,1.773-.477,1.665,1.665,0,0,1,.8.187,2.914,2.914,0,0,1,.857.682l.857-2.871a6.5,6.5,0,0,0,.3-1.514.6.6,0,0,0-.211-.464.772.772,0,0,0-.549-.193,3.89,3.89,0,0,0-.4,0l.115-.446L138.722,0Zm-5.055,7.3a1.58,1.58,0,0,0-.277-1.025.838.838,0,0,0-.639-.32,1.273,1.273,0,0,0-.8.368A8.578,8.578,0,0,0,130.923,9.3a10.557,10.557,0,0,0-.911,3.752,1.388,1.388,0,0,0,.193.808.561.561,0,0,0,.434.265,1.206,1.206,0,0,0,.82-.374,9.047,9.047,0,0,0,1.918-3.016,9.047,9.047,0,0,0,.971-3.426Z" transform="translate(-50.389 0.001)" fill="#fff"/>
  <path id="パス_38" data-name="パス 38" d="M156.959,8.946l-2.232,7.643-.241.947a1.935,1.935,0,0,0-.03.241.326.326,0,0,0,.1.241.289.289,0,0,0,.2.1,1.243,1.243,0,0,0,.67-.356,11.086,11.086,0,0,0,.832-1.062l.4.205a6.635,6.635,0,0,1-1.743,2.184,3.3,3.3,0,0,1-2,.682,1.363,1.363,0,0,1-1-.344,1.158,1.158,0,0,1-.344-.857,7.016,7.016,0,0,1,.374-1.671l.271-.929a11.305,11.305,0,0,1-2.533,3.245,2.413,2.413,0,0,1-1.526.561,1.611,1.611,0,0,1-1.532-.875,4.036,4.036,0,0,1-.47-1.954,8.915,8.915,0,0,1,1-3.734,9.259,9.259,0,0,1,2.594-3.372,4.078,4.078,0,0,1,2.485-1.056,1.411,1.411,0,0,1,1.031.374,2.461,2.461,0,0,1,.6,1.357l.416-1.418ZM153.3,11.129a2.413,2.413,0,0,0-.284-1.339.663.663,0,0,0-.555-.29,1.152,1.152,0,0,0-.748.344,8.711,8.711,0,0,0-1.665,2.9,10.309,10.309,0,0,0-.893,3.764,1.442,1.442,0,0,0,.205.881.561.561,0,0,0,.44.265,1.484,1.484,0,0,0,1.056-.6,9.175,9.175,0,0,0,1.357-2.087A8.759,8.759,0,0,0,153.3,11.129Z" transform="translate(-57.991 -3.486)" fill="#fff"/>
  <path id="パス_39" data-name="パス 39" d="M114.317,8.942l-2.226,7.643-.241.947a1.938,1.938,0,0,0,0,.241.326.326,0,0,0,.1.241.314.314,0,0,0,.205.1,1.243,1.243,0,0,0,.67-.356,10.469,10.469,0,0,0,.826-1.062l.4.205a6.635,6.635,0,0,1-1.743,2.184,3.3,3.3,0,0,1-2.033.682,1.351,1.351,0,0,1-1-.344,1.158,1.158,0,0,1-.344-.857A7.016,7.016,0,0,1,109.3,16.9l.271-.929a11.3,11.3,0,0,1-2.558,3.239,2.413,2.413,0,0,1-1.532.561,1.6,1.6,0,0,1-1.526-.875,4.035,4.035,0,0,1-.471-1.954,8.988,8.988,0,0,1,.989-3.734,9.326,9.326,0,0,1,2.594-3.372,4.1,4.1,0,0,1,2.491-1.056,1.412,1.412,0,0,1,1.031.374,2.461,2.461,0,0,1,.6,1.357l.416-1.418Zm-3.686,2.184a2.413,2.413,0,0,0-.284-1.339.67.67,0,0,0-.555-.29,1.152,1.152,0,0,0-.748.344,8.71,8.71,0,0,0-1.665,2.9,10.309,10.309,0,0,0-.893,3.764,1.5,1.5,0,0,0,.2.881.6.6,0,0,0,.446.265,1.484,1.484,0,0,0,1.056-.6,9.175,9.175,0,0,0,1.357-2.087A8.759,8.759,0,0,0,110.632,11.125Z" transform="translate(-41.064 -3.482)" fill="#fff"/>
  <path id="パス_40" data-name="パス 40" d="M171.015,5.3l-2.359,8.173a4.96,4.96,0,0,0-.187.929.356.356,0,0,0,.1.229.283.283,0,0,0,.217.115.555.555,0,0,0,.38-.175,6.563,6.563,0,0,0,1.249-1.538l.4.223c-1.164,2.021-2.413,3.016-3.7,3.016a1.659,1.659,0,0,1-1.206-.422,1.418,1.418,0,0,1-.446-1.068,3.932,3.932,0,0,1,.2-1.086l1.6-5.5a4.764,4.764,0,0,0,.229-1.206.6.6,0,0,0-.223-.458.845.845,0,0,0-.6-.2h-.416l.145-.458,3.9-.6ZM170.3,0a1.641,1.641,0,0,1,1.206.5A1.665,1.665,0,0,1,172,1.706a1.635,1.635,0,0,1-.5,1.206A1.665,1.665,0,0,1,170.3,3.4a1.629,1.629,0,0,1-1.206-.489,1.647,1.647,0,0,1-.489-1.206A1.653,1.653,0,0,1,169.085.5,1.6,1.6,0,0,1,170.3,0Z" transform="translate(-65.653 0.002)" fill="#fff"/>
  <path id="パス_41" data-name="パス 41" d="M184.378,16.673l.344.314a8.505,8.505,0,0,1-2.2,1.954,5.821,5.821,0,0,1-2.968.826,3.71,3.71,0,0,1-1.81-.446,2.756,2.756,0,0,1-1.206-1.243,3.7,3.7,0,0,1-.386-1.641,7.491,7.491,0,0,1,1.025-3.71,8.107,8.107,0,0,1,2.708-2.889,6.183,6.183,0,0,1,3.293-1.062,2.925,2.925,0,0,1,1.96.6,1.919,1.919,0,0,1,.163,2.733,1.448,1.448,0,0,1-1.1.537,1.206,1.206,0,0,1-.881-.344,1.1,1.1,0,0,1-.35-.814,1.351,1.351,0,0,1,.6-1.086c.277-.205.416-.392.416-.555a.41.41,0,0,0-.175-.332.929.929,0,0,0-.6-.181,2.654,2.654,0,0,0-1.81.784,6.551,6.551,0,0,0-1.719,2.588,8.583,8.583,0,0,0-.6,3.016,2.588,2.588,0,0,0,.6,1.81,1.888,1.888,0,0,0,1.448.67,3.915,3.915,0,0,0,1.586-.38,5.29,5.29,0,0,0,1.665-1.152Z" transform="translate(-69.895 -3.479)" fill="#fff"/>
  <path id="パス_42" data-name="パス 42" d="M198.952,0l-3.016,10.375q1.556-2.286,2.256-3.1A7.7,7.7,0,0,1,200,5.706a3.016,3.016,0,0,1,1.436-.4,1.339,1.339,0,0,1,1.007.44,1.653,1.653,0,0,1,.422,1.206,5.771,5.771,0,0,1-.271,1.556l-1.46,4.9a3.8,3.8,0,0,0-.2.863.3.3,0,0,0,.078.193.229.229,0,0,0,.181.09.452.452,0,0,0,.284-.115,4.366,4.366,0,0,0,.772-.929l.344-.489.44.259a7.371,7.371,0,0,1-1.87,2.244,3.016,3.016,0,0,1-1.689.6,1.586,1.586,0,0,1-1.116-.374,1.206,1.206,0,0,1-.4-.929,5.573,5.573,0,0,1,.271-1.43l1.43-4.9a2.96,2.96,0,0,0,.145-.742.308.308,0,0,0-.1-.217.314.314,0,0,0-.229-.1,1.954,1.954,0,0,0-1.128.682,15.683,15.683,0,0,0-3.016,4.446l-1.019,3.414H191.46l3.806-13.023a5.248,5.248,0,0,0,.229-1.206.519.519,0,0,0-.229-.446,1.46,1.46,0,0,0-.917-.181l.072-.458L198.252,0Z" transform="translate(-75.97 0.001)" fill="#fff"/>
  <path id="パス_43" data-name="パス 43" d="M218.455,5.3,216.1,13.476a4.955,4.955,0,0,0-.187.929.356.356,0,0,0,.1.229.277.277,0,0,0,.211.115.555.555,0,0,0,.386-.175,6.569,6.569,0,0,0,1.243-1.538l.4.223c-1.164,2.021-2.413,3.016-3.7,3.016a1.659,1.659,0,0,1-1.206-.422,1.417,1.417,0,0,1-.446-1.068,3.933,3.933,0,0,1,.2-1.086l1.6-5.5a4.694,4.694,0,0,0,.223-1.206.6.6,0,0,0-.217-.458.863.863,0,0,0-.6-.2h-.41l.139-.458,3.9-.6ZM217.737,0a1.653,1.653,0,0,1,1.206.5,1.659,1.659,0,0,1,.489,1.206,1.611,1.611,0,0,1-.5,1.206,1.647,1.647,0,0,1-1.206.489,1.623,1.623,0,0,1-1.146-.507,1.647,1.647,0,0,1-.495-1.206,1.659,1.659,0,0,1,.489-1.206A1.593,1.593,0,0,1,217.737,0Z" transform="translate(-84.477 0.001)" fill="#fff"/>
  <path id="パス_44" data-name="パス 44" d="M94.059,9.35,92.328,15.8Q94.47,11.081,95.543,10a1.9,1.9,0,0,1,1.339-.645.983.983,0,0,1,.772.35,1.5,1.5,0,0,1,.3,1,3.131,3.131,0,0,1-.543,1.87.947.947,0,0,1-.76.483.742.742,0,0,1-.7-.428,1.9,1.9,0,0,0-.32-.495.308.308,0,0,0-.193-.072.483.483,0,0,0-.241.072,2.22,2.22,0,0,0-.664.664,10.919,10.919,0,0,0-1,1.81c-.392.832-.706,1.544-.929,2.117A32.908,32.908,0,0,0,91.671,20H88.89l1.876-7.618a6.147,6.147,0,0,0,.2-1.128.875.875,0,0,0-.109-.47.651.651,0,0,0-.29-.253,2.178,2.178,0,0,0-.79-.09l.1-.326,3.468-.76Z" transform="translate(-35.271 -3.709)" fill="#fff"/>
  <path id="パス_45" data-name="パス 45" d="M238.03,18.4v2.932h-1.81V13.419h2.57a5.176,5.176,0,0,1,1.466.181,2.666,2.666,0,0,1,.989.489,1.882,1.882,0,0,1,.555.742,2.5,2.5,0,0,1,.175.935,2.6,2.6,0,0,1-.1.73,2.413,2.413,0,0,1-.308.6,2.268,2.268,0,0,1-.5.519,2.654,2.654,0,0,1-.682.38,1.465,1.465,0,0,1,.344.223,1.528,1.528,0,0,1,.284.332l1.683,2.757h-1.665a.7.7,0,0,1-.657-.35l-1.315-2.3a.549.549,0,0,0-.205-.217.693.693,0,0,0-.326-.066Zm0-1.261h.736a1.955,1.955,0,0,0,.639-.1,1.122,1.122,0,0,0,.434-.265.978.978,0,0,0,.241-.392,1.424,1.424,0,0,0,.078-.483,1.019,1.019,0,0,0-.338-.814,1.574,1.574,0,0,0-1.056-.3h-.736Z" transform="translate(-93.731 -5.323)" fill="#fff"/>
  <path id="パス_46" data-name="パス 46" d="M253.241,13.42v1.412H250v1.846h2.485v1.357H250v1.888h3.245v1.412H248.15V13.42Z" transform="translate(-98.464 -5.324)" fill="#fff"/>
  <path id="パス_47" data-name="パス 47" d="M263.333,19.227a.561.561,0,0,1,.133,0,.4.4,0,0,1,.121.084l.73.766a3.016,3.016,0,0,1-1.206.941,4.174,4.174,0,0,1-1.7.32,4.066,4.066,0,0,1-1.617-.308,3.619,3.619,0,0,1-1.206-.844,3.812,3.812,0,0,1-.76-1.261,4.827,4.827,0,0,1-.265-1.611,4.223,4.223,0,0,1,.308-1.623,3.655,3.655,0,0,1,.85-1.279,3.843,3.843,0,0,1,1.3-.838,4.554,4.554,0,0,1,1.677-.3,4.126,4.126,0,0,1,.838.078,4.374,4.374,0,0,1,.736.217,3.4,3.4,0,0,1,1.14.742l-.6.832a.787.787,0,0,1-.145.139.368.368,0,0,1-.229.06.362.362,0,0,1-.181-.042l-.187-.1-.217-.139a1.628,1.628,0,0,0-.271-.133,2.317,2.317,0,0,0-.881-.151,2.359,2.359,0,0,0-.911.175,2.05,2.05,0,0,0-.706.507,2.255,2.255,0,0,0-.464.8,3.131,3.131,0,0,0-.163,1.044,3.343,3.343,0,0,0,.163,1.086,2.245,2.245,0,0,0,.452.79,1.894,1.894,0,0,0,.664.495,2.05,2.05,0,0,0,.814.169h.458a2.342,2.342,0,0,0,.38-.084,1.718,1.718,0,0,0,.338-.157,2.082,2.082,0,0,0,.326-.235.549.549,0,0,1,.139-.09.35.35,0,0,1,.145-.048Z" transform="translate(-102.198 -5.268)" fill="#fff"/>
  <path id="パス_48" data-name="パス 48" d="M272,18.4v2.932h-1.81V13.419h2.57a5.175,5.175,0,0,1,1.466.181,2.636,2.636,0,0,1,.983.489,1.894,1.894,0,0,1,.561.742,2.5,2.5,0,0,1,.175.935,2.413,2.413,0,0,1-.109.73,2.233,2.233,0,0,1-.3.6,2.411,2.411,0,0,1-.5.519,2.761,2.761,0,0,1-.682.38,1.758,1.758,0,0,1,.344.223,1.35,1.35,0,0,1,.277.332l1.683,2.757H275a.712.712,0,0,1-.7-.3l-1.315-2.3a.543.543,0,0,0-.2-.217.718.718,0,0,0-.332-.066Zm0-1.261h.736a1.978,1.978,0,0,0,.639-.1,1.056,1.056,0,0,0,.428-.265.989.989,0,0,0,.247-.392,1.587,1.587,0,0,0,.078-.483,1.007,1.007,0,0,0-.344-.814,1.544,1.544,0,0,0-1.05-.3H272Z" transform="translate(-107.21 -5.323)" fill="#fff"/>
  <path id="パス_49" data-name="パス 49" d="M285.32,19.88a1.725,1.725,0,0,0,.658-.121,1.448,1.448,0,0,0,.495-.35,1.5,1.5,0,0,0,.3-.555,2.416,2.416,0,0,0,.109-.748V13.42h1.81v4.687a3.662,3.662,0,0,1-.235,1.333,2.937,2.937,0,0,1-.676,1.05,3.058,3.058,0,0,1-1.068.682,4.222,4.222,0,0,1-2.841,0,2.944,2.944,0,0,1-1.743-1.731,3.66,3.66,0,0,1-.229-1.333V13.42h1.81V18.1a2.578,2.578,0,0,0,.1.748,1.683,1.683,0,0,0,.308.561,1.34,1.34,0,0,0,.495.35A1.725,1.725,0,0,0,285.32,19.88Z" transform="translate(-111.856 -5.324)" fill="#fff"/>
  <path id="パス_50" data-name="パス 50" d="M297.3,21.334H295.45V13.42H297.3Z" transform="translate(-117.233 -5.324)" fill="#fff"/>
  <path id="パス_51" data-name="パス 51" d="M306.31,13.42v1.454h-2.226v6.46h-1.81v-6.46H300V13.42Z" transform="translate(-119.038 -5.324)" fill="#fff"/>
  <path id="パス_52" data-name="パス 52" d="M315.975,18.147c.066.151.127.3.193.458.06-.163.127-.314.193-.464s.139-.3.211-.44l2.033-4a.707.707,0,0,1,.109-.157.3.3,0,0,1,.127-.084.459.459,0,0,1,.163-.03h1.611v7.908h-1.623V16.79a4.938,4.938,0,0,1,.036-.712l-2.1,4.066a.6.6,0,0,1-.259.284.718.718,0,0,1-.38.1h-.247a.73.73,0,0,1-.38-.1.663.663,0,0,1-.259-.284L313.3,16.072a1.544,1.544,0,0,0,.03.374,1.311,1.311,0,0,1,0,.344v4.554H311.71V13.43h1.6a.458.458,0,0,1,.163.03.3.3,0,0,1,.127.084.97.97,0,0,1,.115.157l2.033,4.017A3.6,3.6,0,0,1,315.975,18.147Z" transform="translate(-123.685 -5.328)" fill="#fff"/>
  <path id="パス_53" data-name="パス 53" d="M333.721,13.42v1.412h-3.245v1.846h2.485v1.357h-2.485v1.888h3.245v1.412H328.63V13.42Z" transform="translate(-130.398 -5.324)" fill="#fff"/>
  <path id="パス_54" data-name="パス 54" d="M339.964,13.432a.434.434,0,0,1,.151.042.4.4,0,0,1,.121.084,1.659,1.659,0,0,1,.139.145l3.758,4.753c0-.157-.03-.3-.036-.446s0-.277,0-.4V13.42h1.623v7.914h-.959a.892.892,0,0,1-.356-.066.79.79,0,0,1-.284-.241l-3.728-4.711v5H338.8v-7.9h.965Z" transform="translate(-134.434 -5.324)" fill="#fff"/>
  <path id="パス_55" data-name="パス 55" d="M357.811,13.42v1.454h-2.226v6.46h-1.81v-6.46H351.55V13.42Z" transform="translate(-139.493 -5.324)" fill="#fff"/>
</svg>
