<svg xmlns="http://www.w3.org/2000/svg" viewBox="0 0 200.58 49.48"><defs><style>.cls-1{isolation:isolate;}.cls-2{fill:#fff;}</style></defs><g id="レイヤー_2" data-name="レイヤー 2"><g id="レイヤー_1-2" data-name="レイヤー 1"><g id="グループ_15181" data-name="グループ 15181"><g id="Oisix_ra_daichi" data-name="Oisix ra daichi" class="cls-1"><g class="cls-1"><path class="cls-2" d="M7.53,22.88A7.65,7.65,0,0,1,3.25,21.8,6.62,6.62,0,0,1,.81,18.85,9.14,9.14,0,0,1,0,15.21,14.64,14.64,0,0,1,2,8,16.06,16.06,0,0,1,7.56,2.18,12.86,12.86,0,0,1,14.41,0a7.64,7.64,0,0,1,3.77,1A7,7,0,0,1,21,3.77a7.43,7.43,0,0,1,1,3.62,15.18,15.18,0,0,1-2.59,8.18,16.83,16.83,0,0,1-5.84,5.93A12,12,0,0,1,7.53,22.88ZM13.89,1.32a4.67,4.67,0,0,0-2.17.46A7.13,7.13,0,0,0,9.86,3.31a13.45,13.45,0,0,0-2,3.09A27.84,27.84,0,0,0,6,11.85a24.39,24.39,0,0,0-.87,5.77,4.47,4.47,0,0,0,.85,3,2.71,2.71,0,0,0,2.19,1,4.26,4.26,0,0,0,3-1.16,16.93,16.93,0,0,0,4-6.87,24.82,24.82,0,0,0,1.57-8A5,5,0,0,0,16,2.31,2.59,2.59,0,0,0,13.89,1.32Z"/><path class="cls-2" d="M30.49,7.43l-3.3,11.45a6.06,6.06,0,0,0-.26,1.3.46.46,0,0,0,.14.32.38.38,0,0,0,.3.16.82.82,0,0,0,.54-.24,9.6,9.6,0,0,0,1.74-2.16l.56.32Q27.76,22.83,25,22.82a2.34,2.34,0,0,1-1.66-.59,2,2,0,0,1-.62-1.49A5.68,5.68,0,0,1,23,19.22l2.24-7.71a6.27,6.27,0,0,0,.32-1.66.86.86,0,0,0-.3-.64,1.2,1.2,0,0,0-.84-.28l-.58,0,.2-.64,5.47-.88ZM29.49,0a2.26,2.26,0,0,1,1.69.7,2.32,2.32,0,0,1,.69,1.68,2.24,2.24,0,0,1-.7,1.67,2.32,2.32,0,0,1-1.68.69,2.25,2.25,0,0,1-1.65-.69,2.26,2.26,0,0,1-.69-1.67A2.31,2.31,0,0,1,27.83.7,2.2,2.2,0,0,1,29.49,0Z"/><path class="cls-2" d="M43.52,7.43l-.7,5h-.6A4.66,4.66,0,0,0,41,9.36a3.12,3.12,0,0,0-2.26-1.11,1.73,1.73,0,0,0-1.22.43,1.35,1.35,0,0,0-.48,1.05,2.25,2.25,0,0,0,.21,1,5.33,5.33,0,0,0,.93,1.21,25.28,25.28,0,0,1,3.09,3.77,4.62,4.62,0,0,1,.55,2.22,4.73,4.73,0,0,1-2.58,4.23,5.55,5.55,0,0,1-2.66.69,9,9,0,0,1-2.31-.38A5.53,5.53,0,0,0,33,22.18a1.34,1.34,0,0,0-.62.12,1.66,1.66,0,0,0-.5.52h-.6l.8-5.38h.5a14,14,0,0,0,1.07,2.79,3.85,3.85,0,0,0,1.31,1.32A3.09,3.09,0,0,0,36.5,22,2,2,0,0,0,38,21.48a1.79,1.79,0,0,0,.58-1.32,3.1,3.1,0,0,0-.38-1.47,13.92,13.92,0,0,0-1.74-2.21,16.94,16.94,0,0,1-2.49-3.17,3.85,3.85,0,0,1-.42-1.82,3.77,3.77,0,0,1,1.26-2.9,5,5,0,0,1,3.55-1.16,11,11,0,0,1,2.46.34A5.06,5.06,0,0,0,41.94,8a1.2,1.2,0,0,0,1-.52Z"/><path class="cls-2" d="M52.51,7.43l-3.3,11.45a6.06,6.06,0,0,0-.26,1.3.46.46,0,0,0,.14.32.38.38,0,0,0,.3.16.8.8,0,0,0,.54-.24,9.6,9.6,0,0,0,1.74-2.16l.56.32q-2.44,4.25-5.18,4.24a2.35,2.35,0,0,1-1.67-.59,2,2,0,0,1-.62-1.49A5.68,5.68,0,0,1,45,19.22l2.25-7.71a6.72,6.72,0,0,0,.32-1.66.87.87,0,0,0-.31-.64,1.19,1.19,0,0,0-.83-.28l-.59,0,.2-.64,5.47-.88ZM51.51,0A2.26,2.26,0,0,1,53.2.7a2.32,2.32,0,0,1,.69,1.68,2.24,2.24,0,0,1-.7,1.67,2.32,2.32,0,0,1-1.68.69,2.25,2.25,0,0,1-1.65-.69,2.26,2.26,0,0,1-.69-1.67A2.31,2.31,0,0,1,49.85.7,2.21,2.21,0,0,1,51.51,0Z"/><path class="cls-2" d="M54.77,8.39l5.63-1a16.61,16.61,0,0,1,2.16,5.28c1.06-1.56,1.85-2.65,2.38-3.28a7.22,7.22,0,0,1,1.79-1.62,3,3,0,0,1,1.48-.38,1.84,1.84,0,0,1,1.37.48,1.79,1.79,0,0,1,.47,1.3,1.78,1.78,0,0,1-.47,1.27,1.58,1.58,0,0,1-1.19.49,4.18,4.18,0,0,1-1.18-.19,3.84,3.84,0,0,0-.92-.19,2.12,2.12,0,0,0-1.31.48,10.66,10.66,0,0,0-2.06,2.82c.92,3.23,1.66,5.2,2.2,5.91a1.32,1.32,0,0,0,1,.62,1.35,1.35,0,0,0,.73-.2,9.43,9.43,0,0,0,1.44-1.7l.58.34a10.51,10.51,0,0,1-2.79,3.22,3.45,3.45,0,0,1-2,.74,3,3,0,0,1-1.72-.46,3.94,3.94,0,0,1-1.21-1.5,24.64,24.64,0,0,1-1.27-3.34q-1.89,2.4-3,3.51a7.06,7.06,0,0,1-1.79,1.45,3.38,3.38,0,0,1-1.51.34,1.79,1.79,0,0,1-1.33-.49,1.68,1.68,0,0,1-.49-1.25,1.87,1.87,0,0,1,.53-1.36,1.83,1.83,0,0,1,1.35-.54,2.32,2.32,0,0,1,1,.26,3.23,3.23,0,0,0,1.16.4,1.75,1.75,0,0,0,.85-.2,5.07,5.07,0,0,0,1.22-1c.3-.34.86-1.05,1.66-2.14Q58,10.73,57.12,9.59a1.72,1.72,0,0,0-1.41-.72A5.42,5.42,0,0,0,54.65,9Z"/><path class="cls-2" d="M85.82,7.43,83.4,16.48q3-6.63,4.51-8.15a2.65,2.65,0,0,1,1.88-.9,1.35,1.35,0,0,1,1.08.49,2.06,2.06,0,0,1,.42,1.39,4.36,4.36,0,0,1-.76,2.62,1.35,1.35,0,0,1-1.06.68,1,1,0,0,1-1-.6,3.43,3.43,0,0,0-.45-.7.43.43,0,0,0-.27-.1.66.66,0,0,0-.34.1,3.28,3.28,0,0,0-.93.93,14.93,14.93,0,0,0-1.41,2.51c-.55,1.18-1,2.17-1.3,3a45,45,0,0,0-1.31,4.63h-3.9l2.66-10.69a8.35,8.35,0,0,0,.28-1.58,1.24,1.24,0,0,0-.15-.66A1,1,0,0,0,81,9.07,3.16,3.16,0,0,0,79.86,9L80,8.49l4.86-1.06Z"/><path class="cls-2" d="M106.68,7.65l-3.12,10.71-.34,1.32a2,2,0,0,0,0,.34.48.48,0,0,0,.14.34.42.42,0,0,0,.28.14,1.75,1.75,0,0,0,.94-.5,14.74,14.74,0,0,0,1.16-1.48l.56.28a9.13,9.13,0,0,1-2.44,3.06,4.63,4.63,0,0,1-2.8,1,1.89,1.89,0,0,1-1.4-.48,1.63,1.63,0,0,1-.48-1.2,9.56,9.56,0,0,1,.52-2.34l.38-1.3A15.84,15.84,0,0,1,96.45,22a3.4,3.4,0,0,1-2.14.78,2.25,2.25,0,0,1-2.14-1.22,5.66,5.66,0,0,1-.66-2.74,12.47,12.47,0,0,1,1.39-5.23,13.1,13.1,0,0,1,3.63-4.72A5.77,5.77,0,0,1,100,7.43a2,2,0,0,1,1.45.52,3.44,3.44,0,0,1,.81,1.9l.58-2Zm-5.16,3.06a3.37,3.37,0,0,0-.4-1.88.92.92,0,0,0-.78-.4,1.59,1.59,0,0,0-1,.48A12.27,12.27,0,0,0,97,13a14.44,14.44,0,0,0-1.25,5.28A2.14,2.14,0,0,0,96,19.47a.79.79,0,0,0,.62.37A2.07,2.07,0,0,0,98.1,19,13.39,13.39,0,0,0,100,16.1,12.32,12.32,0,0,0,101.52,10.71Z"/><path class="cls-2" d="M133.61,0l-5.22,18a11.7,11.7,0,0,0-.51,2,.45.45,0,0,0,.12.31.37.37,0,0,0,.29.13,1.16,1.16,0,0,0,.62-.26,8,8,0,0,0,1.46-1.72l.58.32q-2.28,4-5,4a2.06,2.06,0,0,1-1.49-.51,1.76,1.76,0,0,1-.53-1.31,8.15,8.15,0,0,1,.42-2.14l.48-1.66a17,17,0,0,1-3.48,4.74,3.63,3.63,0,0,1-2.2.88,2.58,2.58,0,0,1-2-1,4.38,4.38,0,0,1-.83-2.87,11.49,11.49,0,0,1,1.06-4.74,15.19,15.19,0,0,1,2.47-3.89,10,10,0,0,1,2.66-2.23,5.23,5.23,0,0,1,2.48-.67,2.29,2.29,0,0,1,1.12.26,4,4,0,0,1,1.12,1l1.21-4a8.92,8.92,0,0,0,.42-2.12.87.87,0,0,0-.29-.65,1.1,1.1,0,0,0-.77-.27,4.43,4.43,0,0,0-.57,0l.16-.62,5.31-1Zm-7.09,10.23a2.16,2.16,0,0,0-.39-1.43,1.15,1.15,0,0,0-.89-.45,1.77,1.77,0,0,0-1.12.52A11.85,11.85,0,0,0,121.73,13a14.54,14.54,0,0,0-1.25,5.26,1.92,1.92,0,0,0,.27,1.13.75.75,0,0,0,.61.37,1.65,1.65,0,0,0,1.14-.52,12.71,12.71,0,0,0,2.69-4.21A12.52,12.52,0,0,0,126.52,10.23Z"/><path class="cls-2" d="M147.92,7.65,144.8,18.36l-.34,1.32a2,2,0,0,0,0,.34.48.48,0,0,0,.14.34.42.42,0,0,0,.28.14,1.75,1.75,0,0,0,.94-.5,14.74,14.74,0,0,0,1.16-1.48l.56.28a9.13,9.13,0,0,1-2.44,3.06,4.63,4.63,0,0,1-2.8,1,1.89,1.89,0,0,1-1.4-.48,1.63,1.63,0,0,1-.48-1.2,9.56,9.56,0,0,1,.52-2.34l.38-1.3A15.84,15.84,0,0,1,137.69,22a3.4,3.4,0,0,1-2.14.78,2.25,2.25,0,0,1-2.14-1.22,5.66,5.66,0,0,1-.66-2.74,12.47,12.47,0,0,1,1.39-5.23,13.1,13.1,0,0,1,3.63-4.72,5.77,5.77,0,0,1,3.49-1.48,2,2,0,0,1,1.45.52,3.44,3.44,0,0,1,.81,1.9l.58-2Zm-5.16,3.06a3.37,3.37,0,0,0-.4-1.88.92.92,0,0,0-.78-.4,1.59,1.59,0,0,0-1,.48A12.11,12.11,0,0,0,138.21,13,14.28,14.28,0,0,0,137,18.24a2.14,2.14,0,0,0,.28,1.23.79.79,0,0,0,.62.37,2.07,2.07,0,0,0,1.49-.82,13.39,13.39,0,0,0,1.9-2.92A12.32,12.32,0,0,0,142.76,10.71Z"/><path class="cls-2" d="M157,7.43l-3.3,11.45a6.8,6.8,0,0,0-.26,1.3.51.51,0,0,0,.14.32.38.38,0,0,0,.3.16.78.78,0,0,0,.54-.24,9.6,9.6,0,0,0,1.74-2.16l.56.32c-1.63,2.83-3.35,4.24-5.18,4.24a2.31,2.31,0,0,1-1.66-.59,1.94,1.94,0,0,1-.62-1.49,5.31,5.31,0,0,1,.28-1.52l2.24-7.71a6.72,6.72,0,0,0,.32-1.66.87.87,0,0,0-.31-.64,1.19,1.19,0,0,0-.83-.28l-.58,0,.2-.64,5.46-.88ZM156,0a2.26,2.26,0,0,1,1.69.7,2.28,2.28,0,0,1,.69,1.68,2.24,2.24,0,0,1-.7,1.67,2.29,2.29,0,0,1-1.68.69,2.25,2.25,0,0,1-1.65-.69,2.26,2.26,0,0,1-.69-1.67A2.35,2.35,0,0,1,154.35.7,2.21,2.21,0,0,1,156,0Z"/><path class="cls-2" d="M170.17,18.48l.48.44a12,12,0,0,1-3.09,2.74,8.2,8.2,0,0,1-4.16,1.16,5.2,5.2,0,0,1-2.57-.62,3.86,3.86,0,0,1-1.65-1.74,5.25,5.25,0,0,1-.55-2.3,10.49,10.49,0,0,1,1.45-5.2,11.16,11.16,0,0,1,3.79-4,8.56,8.56,0,0,1,4.61-1.49,4.07,4.07,0,0,1,2.75.8,2.55,2.55,0,0,1,.92,2,2.6,2.6,0,0,1-.69,1.83,2.07,2.07,0,0,1-1.55.75,1.7,1.7,0,0,1-1.24-.48,1.57,1.57,0,0,1-.49-1.14,1.9,1.9,0,0,1,.89-1.52c.38-.29.58-.55.58-.78a.55.55,0,0,0-.24-.46,1.29,1.29,0,0,0-.85-.26A3.74,3.74,0,0,0,166,9.27a9.22,9.22,0,0,0-2.41,3.66,12.15,12.15,0,0,0-.83,4.23,3.61,3.61,0,0,0,.85,2.52,2.64,2.64,0,0,0,2,.94,5.59,5.59,0,0,0,2.22-.53A7.54,7.54,0,0,0,170.17,18.48Z"/><path class="cls-2" d="M183.28,0l-4.2,14.53q2.17-3.19,3.16-4.34A10.81,10.81,0,0,1,184.77,8a4.22,4.22,0,0,1,2-.57,1.85,1.85,0,0,1,1.41.62,2.25,2.25,0,0,1,.59,1.64,7.79,7.79,0,0,1-.38,2.18l-2,6.87a5,5,0,0,0-.28,1.2.45.45,0,0,0,.11.27.31.31,0,0,0,.25.13.6.6,0,0,0,.4-.16,5.64,5.64,0,0,0,1.08-1.3l.48-.68.62.36a10.22,10.22,0,0,1-2.62,3.14,4.21,4.21,0,0,1-2.36.86,2.18,2.18,0,0,1-1.56-.52,1.68,1.68,0,0,1-.56-1.3,7.48,7.48,0,0,1,.38-2l2-6.87a4.4,4.4,0,0,0,.2-1,.42.42,0,0,0-.14-.3.45.45,0,0,0-.32-.14,2.74,2.74,0,0,0-1.58,1,22.32,22.32,0,0,0-4.21,6.23l-1.42,4.78h-4l5.28-18.22a6.8,6.8,0,0,0,.32-1.66.69.69,0,0,0-.32-.62,2,2,0,0,0-1.28-.26l.1-.64,5.37-1Z"/><path class="cls-2" d="M199.19,7.43l-3.3,11.45a6.8,6.8,0,0,0-.26,1.3.51.51,0,0,0,.14.32.38.38,0,0,0,.3.16.78.78,0,0,0,.54-.24,9.07,9.07,0,0,0,1.74-2.16l.56.32q-2.43,4.25-5.18,4.24a2.32,2.32,0,0,1-1.66-.59,1.94,1.94,0,0,1-.62-1.49,5.31,5.31,0,0,1,.28-1.52L194,11.51a6.72,6.72,0,0,0,.32-1.66.84.84,0,0,0-.31-.64,1.18,1.18,0,0,0-.83-.28l-.58,0,.2-.64,5.46-.88Zm-1-7.43a2.26,2.26,0,0,1,1.69.7,2.29,2.29,0,0,1,.7,1.68,2.27,2.27,0,0,1-.7,1.67,2.33,2.33,0,0,1-1.69.69,2.25,2.25,0,0,1-1.65-.69,2.26,2.26,0,0,1-.69-1.67A2.35,2.35,0,0,1,196.53.7,2.23,2.23,0,0,1,198.19,0Z"/></g></g><g id="Recruitment" class="cls-1"><g class="cls-1"><path class="cls-2" d="M61,42.36a3.08,3.08,0,0,1-2,3.25l2.65,3.75H58.81L56.49,46H54.87v3.34H52.53V38.88h4A5.7,5.7,0,0,1,60,39.7,3.18,3.18,0,0,1,61,42.36ZM58.21,43.6a1.58,1.58,0,0,0,.44-1.24,1.33,1.33,0,0,0-.45-1.16,2.91,2.91,0,0,0-1.58-.31H54.87V44h1.71A2.5,2.5,0,0,0,58.21,43.6Z"/><path class="cls-2" d="M70.2,48.19A4.51,4.51,0,0,1,67,49.48a4.27,4.27,0,0,1-3-1.13,4,4,0,0,1-1.2-3,3.93,3.93,0,0,1,1.22-3,4.13,4.13,0,0,1,2.89-1.12,4.19,4.19,0,0,1,2.83,1,3.47,3.47,0,0,1,1.16,2.76v1.2H65a1.6,1.6,0,0,0,.69,1.08,2.21,2.21,0,0,0,1.32.42,2.59,2.59,0,0,0,2-.79ZM68,43.41A1.71,1.71,0,0,0,66.91,43a2,2,0,0,0-1.23.4,1.55,1.55,0,0,0-.64,1.1h3.54A1.6,1.6,0,0,0,68,43.41Z"/><path class="cls-2" d="M76.35,47.49a2.58,2.58,0,0,0,2-1.13l1.34,1.5a4.65,4.65,0,0,1-3.38,1.62,4.33,4.33,0,0,1-3.06-1.15,3.85,3.85,0,0,1-1.26-3,3.91,3.91,0,0,1,1.27-3,4.29,4.29,0,0,1,3-1.16,4.66,4.66,0,0,1,1.76.36,4.41,4.41,0,0,1,1.57,1.06l-1.17,1.53a2.75,2.75,0,0,0-2.07-1,2.19,2.19,0,0,0-1.52.57,2.05,2.05,0,0,0-.64,1.61,2,2,0,0,0,.64,1.6A2.15,2.15,0,0,0,76.35,47.49Z"/><path class="cls-2" d="M85.45,43.27A1.71,1.71,0,0,0,84,44a3.27,3.27,0,0,0-.49,1.89v3.49H81.21V41.29h2.25v1.07a3.72,3.72,0,0,1,1.09-.84,2.91,2.91,0,0,1,1.32-.36l0,2.11Z"/><path class="cls-2" d="M92.58,45.64V41.29h2.26v8.07H92.58V48.3a2.56,2.56,0,0,1-2.17,1.18,3,3,0,0,1-3.13-3.3V41.29h2.27v4.4c0,1.24.45,1.86,1.36,1.86a1.63,1.63,0,0,0,1.17-.49A1.92,1.92,0,0,0,92.58,45.64Z"/><path class="cls-2" d="M97.16,40.26a1.27,1.27,0,0,1-.38-.93,1.29,1.29,0,0,1,.38-.94,1.35,1.35,0,0,1,1.88,0,1.29,1.29,0,0,1,.38.94,1.32,1.32,0,0,1-2.26.93Zm2.06,9.1H97V41.29h2.25Z"/><path class="cls-2" d="M104,42.91v3.62a1,1,0,0,0,.24.72.74.74,0,0,0,.57.27,1.29,1.29,0,0,0,1.06-.57l.84,1.57a3.23,3.23,0,0,1-2.21,1,2.69,2.69,0,0,1-2.77-2.85V42.91h-.94V41.29h.94V38.88H104v2.41H106v1.62Z"/><path class="cls-2" d="M115.36,45v4.35H113.1V45a2.7,2.7,0,0,0-.29-1.41,1.05,1.05,0,0,0-1-.45,1.58,1.58,0,0,0-1.15.49A1.88,1.88,0,0,0,110.2,45v4.35H108V41.29h2.25v.92a2.78,2.78,0,0,1,2.13-1.05,2.31,2.31,0,0,1,1.39.45,2.88,2.88,0,0,1,.94,1.09,3.19,3.19,0,0,1,1.25-1.14,3.43,3.43,0,0,1,1.58-.4,3.18,3.18,0,0,1,2.3.84,3.3,3.3,0,0,1,.87,2.46v4.9h-2.27V45c0-1.24-.45-1.86-1.36-1.86a1.59,1.59,0,0,0-1.17.49A1.91,1.91,0,0,0,115.36,45Z"/><path class="cls-2" d="M129.69,48.19a4.51,4.51,0,0,1-3.2,1.29,4.27,4.27,0,0,1-3-1.13,4,4,0,0,1-1.2-3,3.93,3.93,0,0,1,1.22-3,4.13,4.13,0,0,1,2.89-1.12,4.19,4.19,0,0,1,2.83,1,3.47,3.47,0,0,1,1.16,2.76v1.2h-5.88a1.6,1.6,0,0,0,.69,1.08,2.21,2.21,0,0,0,1.32.42,2.59,2.59,0,0,0,2-.79Zm-2.16-4.78A1.71,1.71,0,0,0,126.4,43a2,2,0,0,0-1.23.4,1.55,1.55,0,0,0-.64,1.1h3.54A1.6,1.6,0,0,0,127.53,43.41Z"/><path class="cls-2" d="M134.22,44.86v4.5H132V41.29h2.25v.9a3.13,3.13,0,0,1,2.29-1,2.84,2.84,0,0,1,2.14.9,3.34,3.34,0,0,1,.86,2.4v4.9h-2.25V44.8c0-1.24-.45-1.86-1.36-1.86a1.62,1.62,0,0,0-1.18.49A1.87,1.87,0,0,0,134.22,44.86Z"/><path class="cls-2" d="M144.12,42.91v3.62a1,1,0,0,0,.24.72.74.74,0,0,0,.57.27A1.29,1.29,0,0,0,146,47l.84,1.57a3.25,3.25,0,0,1-2.21,1,2.71,2.71,0,0,1-2-.76,2.74,2.74,0,0,1-.81-2.09V42.91h-.94V41.29h.94V38.88h2.27v2.41h1.95v1.62Z"/></g></g></g></g></g></svg>