<svg xmlns="http://www.w3.org/2000/svg" width="346.166" height="25.114" viewBox="0 0 346.166 25.114">
  <g id="グループ_15172" data-name="グループ 15172" transform="translate(-103 -51)">
    <g id="Oisix_ra_daichi" data-name="Oisix ra daichi" transform="translate(743.263 -1193.158)" style="isolation: isolate">
      <g id="グループ_32069" data-name="グループ 32069" transform="translate(0 -17)" style="isolation: isolate">
        <path id="パス_37997" data-name="パス 37997" d="M-632,1286.272a8.357,8.357,0,0,1-4.691-1.186,7.249,7.249,0,0,1-2.681-3.241,10.005,10.005,0,0,1-.89-3.988,16.057,16.057,0,0,1,2.242-7.921,17.569,17.569,0,0,1,6.053-6.383,14.089,14.089,0,0,1,7.526-2.4,8.38,8.38,0,0,1,4.13,1.087,7.671,7.671,0,0,1,3.043,3.055,8.108,8.108,0,0,1,1.088,3.966,16.717,16.717,0,0,1-2.845,8.986,18.561,18.561,0,0,1-6.405,6.5A13.153,13.153,0,0,1-632,1286.272Zm6.987-23.665a5.137,5.137,0,0,0-2.383.506,7.58,7.58,0,0,0-2.044,1.681,15.157,15.157,0,0,0-2.164,3.384,30.746,30.746,0,0,0-2.055,5.988,26.7,26.7,0,0,0-.955,6.328,4.9,4.9,0,0,0,.933,3.252,3.011,3.011,0,0,0,2.407,1.1,4.65,4.65,0,0,0,3.3-1.274,18.617,18.617,0,0,0,4.416-7.537,27.507,27.507,0,0,0,1.713-8.833,5.428,5.428,0,0,0-.912-3.505A2.829,2.829,0,0,0-625.014,1262.607Z"/>
        <path id="パス_37998" data-name="パス 37998" d="M-606.8,1269.31l-3.626,12.568a7.189,7.189,0,0,0-.285,1.429.537.537,0,0,0,.153.351.442.442,0,0,0,.33.176.869.869,0,0,0,.593-.264,10.312,10.312,0,0,0,1.912-2.373l.616.352q-2.682,4.658-5.692,4.658a2.538,2.538,0,0,1-1.823-.648,2.168,2.168,0,0,1-.682-1.637,5.989,5.989,0,0,1,.308-1.67l2.461-8.46a7.22,7.22,0,0,0,.351-1.823.927.927,0,0,0-.339-.7,1.315,1.315,0,0,0-.913-.309c-.19,0-.4.008-.637.022l.219-.7,6-.966Zm-1.1-8.152a2.5,2.5,0,0,1,1.856.769,2.532,2.532,0,0,1,.758,1.845,2.48,2.48,0,0,1-.769,1.835,2.535,2.535,0,0,1-1.845.758,2.474,2.474,0,0,1-1.813-.758,2.5,2.5,0,0,1-.759-1.835,2.553,2.553,0,0,1,.747-1.845A2.447,2.447,0,0,1-607.9,1261.158Z"/>
        <path id="パス_37999" data-name="パス 37999" d="M-592.494,1269.31l-.769,5.471h-.659a5.134,5.134,0,0,0-1.3-3.351,3.417,3.417,0,0,0-2.482-1.219,1.935,1.935,0,0,0-1.341.472,1.49,1.49,0,0,0-.527,1.153,2.485,2.485,0,0,0,.231,1.066,5.73,5.73,0,0,0,1.022,1.329,26.777,26.777,0,0,1,3.394,4.142,5.093,5.093,0,0,1,.6,2.428,5.237,5.237,0,0,1-.714,2.648,5.249,5.249,0,0,1-2.121,2,6.074,6.074,0,0,1-2.922.759,9.707,9.707,0,0,1-2.528-.418,5.948,5.948,0,0,0-1.494-.285,1.435,1.435,0,0,0-.68.131,1.846,1.846,0,0,0-.55.572h-.659l.879-5.911h.549a14.849,14.849,0,0,0,1.176,3.065,4.082,4.082,0,0,0,1.439,1.451,3.394,3.394,0,0,0,1.736.538,2.21,2.21,0,0,0,1.6-.616,1.95,1.95,0,0,0,.638-1.45,3.375,3.375,0,0,0-.418-1.615,14.751,14.751,0,0,0-1.911-2.428,18.228,18.228,0,0,1-2.725-3.471,4.244,4.244,0,0,1-.461-2,4.151,4.151,0,0,1,1.384-3.186,5.528,5.528,0,0,1,3.889-1.274,12.3,12.3,0,0,1,2.7.374,5.625,5.625,0,0,0,1.275.2,1.3,1.3,0,0,0,1.1-.571Z"/>
        <path id="パス_38000" data-name="パス 38000" d="M-582.628,1269.31l-3.626,12.568a7.194,7.194,0,0,0-.285,1.429.537.537,0,0,0,.153.351.442.442,0,0,0,.33.176.869.869,0,0,0,.593-.264,10.312,10.312,0,0,0,1.912-2.373l.615.352q-2.681,4.658-5.691,4.658a2.538,2.538,0,0,1-1.823-.648,2.168,2.168,0,0,1-.682-1.637,5.987,5.987,0,0,1,.308-1.67l2.461-8.46a7.222,7.222,0,0,0,.351-1.823.925.925,0,0,0-.34-.7,1.31,1.31,0,0,0-.912-.309c-.19,0-.4.008-.637.022l.219-.7,6-.966Zm-1.1-8.152a2.5,2.5,0,0,1,1.857.769,2.532,2.532,0,0,1,.758,1.845,2.48,2.48,0,0,1-.769,1.835,2.538,2.538,0,0,1-1.846.758,2.473,2.473,0,0,1-1.812-.758,2.5,2.5,0,0,1-.759-1.835,2.553,2.553,0,0,1,.747-1.845A2.446,2.446,0,0,1-583.727,1261.158Z"/>
        <path id="パス_38001" data-name="パス 38001" d="M-580.146,1270.364l6.175-1.054a18.036,18.036,0,0,1,2.373,5.8q1.737-2.571,2.615-3.6a8.17,8.17,0,0,1,1.956-1.78,3.357,3.357,0,0,1,1.626-.417,2.013,2.013,0,0,1,1.505.527,1.958,1.958,0,0,1,.516,1.429,1.935,1.935,0,0,1-.516,1.394,1.734,1.734,0,0,1-1.308.539,4.746,4.746,0,0,1-1.3-.209,4.387,4.387,0,0,0-1.011-.209,2.3,2.3,0,0,0-1.428.528,11.665,11.665,0,0,0-2.263,3.1q1.517,5.319,2.417,6.483a1.431,1.431,0,0,0,1.076.681,1.389,1.389,0,0,0,.791-.22,9.722,9.722,0,0,0,1.582-1.868l.638.373a11.536,11.536,0,0,1-3.055,3.539,3.774,3.774,0,0,1-2.219.813,3.3,3.3,0,0,1-1.889-.506,4.262,4.262,0,0,1-1.329-1.648,26.919,26.919,0,0,1-1.4-3.669q-2.066,2.637-3.241,3.856a7.692,7.692,0,0,1-1.955,1.593,3.8,3.8,0,0,1-1.659.374,1.971,1.971,0,0,1-1.461-.539,1.853,1.853,0,0,1-.539-1.373,2.041,2.041,0,0,1,.583-1.494,1.983,1.983,0,0,1,1.482-.594,2.524,2.524,0,0,1,1.077.286,3.562,3.562,0,0,0,1.275.44,1.871,1.871,0,0,0,.922-.22,5.352,5.352,0,0,0,1.34-1.143q.506-.549,1.824-2.351-1.691-6.283-2.636-7.536a1.875,1.875,0,0,0-1.538-.791,5.675,5.675,0,0,0-1.165.153Z"/>
        <path id="パス_38002" data-name="パス 38002" d="M-546.065,1269.31l-2.66,9.931q3.3-7.272,4.945-8.942a2.917,2.917,0,0,1,2.065-.989,1.491,1.491,0,0,1,1.187.538,2.281,2.281,0,0,1,.461,1.527,4.817,4.817,0,0,1-.835,2.879,1.461,1.461,0,0,1-1.164.746,1.149,1.149,0,0,1-1.078-.658,3.136,3.136,0,0,0-.494-.77.481.481,0,0,0-.3-.109.773.773,0,0,0-.373.109,3.618,3.618,0,0,0-1.021,1.022,16.572,16.572,0,0,0-1.538,2.758q-.914,1.933-1.429,3.262a48.866,48.866,0,0,0-1.439,5.087h-4.285l2.922-11.733a9.514,9.514,0,0,0,.308-1.736,1.371,1.371,0,0,0-.164-.725,1.033,1.033,0,0,0-.451-.4,3.476,3.476,0,0,0-1.208-.132l.153-.5,5.34-1.165Z"/>
        <path id="パス_38003" data-name="パス 38003" d="M-523.17,1269.551l-3.428,11.756-.374,1.45a2.7,2.7,0,0,0-.044.374.508.508,0,0,0,.155.373.445.445,0,0,0,.307.154,1.9,1.9,0,0,0,1.033-.55,16.455,16.455,0,0,0,1.274-1.626l.615.308a10.071,10.071,0,0,1-2.681,3.362,5.078,5.078,0,0,1-3.076,1.055,2.086,2.086,0,0,1-1.538-.527,1.792,1.792,0,0,1-.527-1.319,10.754,10.754,0,0,1,.571-2.571l.418-1.429a17.462,17.462,0,0,1-3.933,4.989,3.757,3.757,0,0,1-2.351.857,2.476,2.476,0,0,1-2.352-1.341,6.224,6.224,0,0,1-.724-3.011,13.709,13.709,0,0,1,1.527-5.734,14.275,14.275,0,0,1,3.987-5.185,6.306,6.306,0,0,1,3.824-1.626,2.224,2.224,0,0,1,1.593.571,3.857,3.857,0,0,1,.89,2.088l.637-2.176Zm-5.669,3.362a3.728,3.728,0,0,0-.439-2.065,1.026,1.026,0,0,0-.858-.44,1.757,1.757,0,0,0-1.142.528,13.275,13.275,0,0,0-2.56,4.449,15.7,15.7,0,0,0-1.373,5.79,2.282,2.282,0,0,0,.308,1.351.862.862,0,0,0,.68.407,2.26,2.26,0,0,0,1.626-.9,14.244,14.244,0,0,0,2.088-3.207A13.444,13.444,0,0,0-528.839,1272.913Z"/>
        <path id="パス_38004" data-name="パス 38004" d="M-493.617,1261.158l-5.735,19.8a13.244,13.244,0,0,0-.549,2.241.49.49,0,0,0,.131.341.409.409,0,0,0,.308.143,1.242,1.242,0,0,0,.682-.285,8.546,8.546,0,0,0,1.6-1.891l.638.351q-2.505,4.352-5.493,4.352a2.263,2.263,0,0,1-1.637-.561,1.907,1.907,0,0,1-.583-1.439,8.959,8.959,0,0,1,.462-2.352l.527-1.823a18.651,18.651,0,0,1-3.823,5.208,4,4,0,0,1-2.417.967,2.806,2.806,0,0,1-2.23-1.088,4.783,4.783,0,0,1-.913-3.153,12.424,12.424,0,0,1,1.166-5.2,16.678,16.678,0,0,1,2.7-4.274,11.145,11.145,0,0,1,2.923-2.45,5.768,5.768,0,0,1,2.724-.736,2.626,2.626,0,0,1,1.231.286,4.63,4.63,0,0,1,1.23,1.054l1.318-4.417a9.87,9.87,0,0,0,.461-2.329.943.943,0,0,0-.318-.714,1.191,1.191,0,0,0-.846-.3,5.292,5.292,0,0,0-.615.044l.176-.682,5.822-1.1Zm-7.779,11.228a2.378,2.378,0,0,0-.427-1.572,1.274,1.274,0,0,0-.979-.494,1.946,1.946,0,0,0-1.23.572,13.054,13.054,0,0,0-2.625,4.559,16.059,16.059,0,0,0-1.374,5.768,2.108,2.108,0,0,0,.3,1.241.836.836,0,0,0,.67.407,1.843,1.843,0,0,0,1.252-.572,13.852,13.852,0,0,0,2.956-4.613A13.9,13.9,0,0,0-501.4,1272.386Z"/>
        <path id="パス_38005" data-name="パス 38005" d="M-477.906,1269.551l-3.428,11.756-.374,1.45a2.7,2.7,0,0,0-.044.374.511.511,0,0,0,.154.373.447.447,0,0,0,.308.154,1.9,1.9,0,0,0,1.032-.55,16.229,16.229,0,0,0,1.275-1.626l.615.308a10.084,10.084,0,0,1-2.681,3.362,5.078,5.078,0,0,1-3.076,1.055,2.085,2.085,0,0,1-1.538-.527,1.788,1.788,0,0,1-.527-1.319,10.753,10.753,0,0,1,.571-2.571l.418-1.429a17.446,17.446,0,0,1-3.934,4.989,3.752,3.752,0,0,1-2.35.857,2.475,2.475,0,0,1-2.352-1.341,6.224,6.224,0,0,1-.725-3.011,13.7,13.7,0,0,1,1.528-5.734,14.254,14.254,0,0,1,3.987-5.185,6.3,6.3,0,0,1,3.823-1.626,2.224,2.224,0,0,1,1.594.571,3.872,3.872,0,0,1,.89,2.088l.636-2.176Zm-5.669,3.362a3.727,3.727,0,0,0-.44-2.065,1.024,1.024,0,0,0-.857-.44,1.761,1.761,0,0,0-1.143.528,13.276,13.276,0,0,0-2.559,4.449,15.7,15.7,0,0,0-1.373,5.79,2.282,2.282,0,0,0,.307,1.351.863.863,0,0,0,.681.407,2.26,2.26,0,0,0,1.626-.9,14.276,14.276,0,0,0,2.088-3.207A13.444,13.444,0,0,0-483.575,1272.913Z"/>
        <path id="パス_38006" data-name="パス 38006" d="M-467.931,1269.31l-3.626,12.568a7.19,7.19,0,0,0-.285,1.429.534.534,0,0,0,.154.351.439.439,0,0,0,.33.176.867.867,0,0,0,.592-.264,10.312,10.312,0,0,0,1.912-2.373l.616.352q-2.68,4.658-5.692,4.658a2.54,2.54,0,0,1-1.823-.648,2.168,2.168,0,0,1-.682-1.637,5.988,5.988,0,0,1,.308-1.67l2.461-8.46a7.233,7.233,0,0,0,.352-1.823.928.928,0,0,0-.34-.7,1.314,1.314,0,0,0-.912-.309c-.191,0-.4.008-.638.022l.22-.7,6-.966Zm-1.1-8.152a2.5,2.5,0,0,1,1.856.769,2.532,2.532,0,0,1,.758,1.845,2.48,2.48,0,0,1-.769,1.835,2.535,2.535,0,0,1-1.845.758,2.475,2.475,0,0,1-1.813-.758,2.5,2.5,0,0,1-.759-1.835,2.553,2.553,0,0,1,.747-1.845A2.448,2.448,0,0,1-469.029,1261.158Z"/>
        <path id="パス_38007" data-name="パス 38007" d="M-453.495,1281.438l.527.484a13.211,13.211,0,0,1-3.384,3.01,8.99,8.99,0,0,1-4.57,1.275,5.694,5.694,0,0,1-2.823-.682,4.268,4.268,0,0,1-1.813-1.912,5.757,5.757,0,0,1-.593-2.526,11.471,11.471,0,0,1,1.582-5.7,12.324,12.324,0,0,1,4.164-4.439,9.434,9.434,0,0,1,5.064-1.636,4.483,4.483,0,0,1,3.011.878,2.793,2.793,0,0,1,1.011,2.2,2.861,2.861,0,0,1-.758,2.01,2.275,2.275,0,0,1-1.7.825,1.853,1.853,0,0,1-1.352-.528,1.693,1.693,0,0,1-.538-1.253,2.073,2.073,0,0,1,.967-1.669q.637-.484.637-.857a.608.608,0,0,0-.264-.506,1.42,1.42,0,0,0-.923-.285,4.084,4.084,0,0,0-2.79,1.208,10.133,10.133,0,0,0-2.647,4.021,13.224,13.224,0,0,0-.913,4.636,3.97,3.97,0,0,0,.934,2.769,2.908,2.908,0,0,0,2.231,1.032,6.064,6.064,0,0,0,2.438-.582A8.31,8.31,0,0,0-453.495,1281.438Z"/>
        <path id="パス_38008" data-name="パス 38008" d="M-439.1,1261.158l-4.614,15.951q2.4-3.513,3.472-4.767a11.821,11.821,0,0,1,2.779-2.406,4.642,4.642,0,0,1,2.208-.626,2.07,2.07,0,0,1,1.55.68,2.508,2.508,0,0,1,.647,1.8,8.811,8.811,0,0,1-.417,2.4l-2.241,7.537a5.68,5.68,0,0,0-.307,1.318.45.45,0,0,0,.121.3.351.351,0,0,0,.274.143.705.705,0,0,0,.44-.175,6.756,6.756,0,0,0,1.186-1.429q.176-.242.527-.747l.681.4a11.343,11.343,0,0,1-2.878,3.451,4.6,4.6,0,0,1-2.593.944,2.424,2.424,0,0,1-1.713-.571,1.867,1.867,0,0,1-.616-1.428,8.524,8.524,0,0,1,.417-2.2l2.2-7.537a4.672,4.672,0,0,0,.219-1.143.461.461,0,0,0-.153-.33.487.487,0,0,0-.352-.153,3.044,3.044,0,0,0-1.736,1.054,24.281,24.281,0,0,0-4.614,6.833l-1.56,5.252h-4.394l5.8-19.995a7.971,7.971,0,0,0,.351-1.823.781.781,0,0,0-.351-.682,2.246,2.246,0,0,0-1.407-.285l.11-.7,5.888-1.055Z"/>
        <path id="パス_38009" data-name="パス 38009" d="M-421.635,1269.31l-3.625,12.568a7.218,7.218,0,0,0-.286,1.429.539.539,0,0,0,.154.351.44.44,0,0,0,.329.176.87.87,0,0,0,.594-.264,10.313,10.313,0,0,0,1.911-2.373l.616.352q-2.681,4.658-5.691,4.658a2.541,2.541,0,0,1-1.824-.648,2.167,2.167,0,0,1-.681-1.637,5.987,5.987,0,0,1,.308-1.67l2.461-8.46a7.221,7.221,0,0,0,.351-1.823.928.928,0,0,0-.34-.7,1.315,1.315,0,0,0-.913-.309c-.19,0-.4.008-.636.022l.219-.7,6-.966Zm-1.1-8.152a2.5,2.5,0,0,1,1.856.769,2.532,2.532,0,0,1,.759,1.845,2.481,2.481,0,0,1-.77,1.835,2.535,2.535,0,0,1-1.845.758,2.473,2.473,0,0,1-1.813-.758,2.5,2.5,0,0,1-.758-1.835,2.553,2.553,0,0,1,.747-1.845A2.444,2.444,0,0,1-422.733,1261.158Z"/>
      </g>
    </g>
    <g id="Recruitment" transform="translate(895 -1260.747)" style="isolation: isolate">
      <g id="グループ_32070" data-name="グループ 32070" style="isolation: isolate">
        <path id="パス_38010" data-name="パス 38010" d="M-548.793,1325.967q0,3.024-2.395,3.906l3.187,4.5h-3.457l-2.79-4.014h-1.943v4.014H-559v-12.582h4.771a6.839,6.839,0,0,1,4.185.99A3.819,3.819,0,0,1-548.793,1325.967Zm-3.384,1.494a1.9,1.9,0,0,0,.522-1.485,1.591,1.591,0,0,0-.54-1.395,3.458,3.458,0,0,0-1.89-.378h-2.106v3.726h2.052A3.022,3.022,0,0,0-552.177,1327.461Z"/>
        <path id="パス_38011" data-name="パス 38011" d="M-537.795,1332.969a5.416,5.416,0,0,1-3.843,1.548,5.1,5.1,0,0,1-3.645-1.359,4.771,4.771,0,0,1-1.441-3.645,4.7,4.7,0,0,1,1.468-3.636,4.946,4.946,0,0,1,3.464-1.35,5.017,5.017,0,0,1,3.394,1.206,4.151,4.151,0,0,1,1.4,3.312v1.44h-7.057a1.925,1.925,0,0,0,.829,1.3,2.65,2.65,0,0,0,1.584.5,3.1,3.1,0,0,0,2.339-.954Zm-2.592-5.742a2.045,2.045,0,0,0-1.36-.468,2.428,2.428,0,0,0-1.466.486,1.852,1.852,0,0,0-.774,1.314h4.248A1.924,1.924,0,0,0-540.387,1327.227Z"/>
        <path id="パス_38012" data-name="パス 38012" d="M-530.416,1332.123a3.1,3.1,0,0,0,2.431-1.35l1.6,1.8a5.57,5.57,0,0,1-4.051,1.944,5.247,5.247,0,0,1-3.68-1.377,4.65,4.65,0,0,1-1.5-3.6,4.686,4.686,0,0,1,1.521-3.618,5.158,5.158,0,0,1,3.609-1.4,5.62,5.62,0,0,1,2.114.432,5.35,5.35,0,0,1,1.882,1.278l-1.4,1.836a3.183,3.183,0,0,0-1.143-.864,3.223,3.223,0,0,0-1.34-.306,2.633,2.633,0,0,0-1.828.693,2.468,2.468,0,0,0-.764,1.926,2.438,2.438,0,0,0,.764,1.917A2.6,2.6,0,0,0-530.416,1332.123Z"/>
        <path id="パス_38013" data-name="パス 38013" d="M-519.49,1327.065a2.046,2.046,0,0,0-1.8.855,3.885,3.885,0,0,0-.594,2.259v4.194h-2.7v-9.684h2.7v1.278a4.535,4.535,0,0,1,1.3-1.008,3.558,3.558,0,0,1,1.593-.432l.018,2.538Z"/>
        <path id="パス_38014" data-name="パス 38014" d="M-510.94,1329.909v-5.22h2.718v9.684h-2.718v-1.278a3.064,3.064,0,0,1-2.6,1.422,3.788,3.788,0,0,1-2.673-1,3.837,3.837,0,0,1-1.08-2.961v-5.868h2.718v5.274q0,2.232,1.638,2.232a1.934,1.934,0,0,0,1.4-.585A2.282,2.282,0,0,0-510.94,1329.909Z"/>
        <path id="パス_38015" data-name="パス 38015" d="M-505.441,1323.456a1.53,1.53,0,0,1-.459-1.125,1.531,1.531,0,0,1,.459-1.125,1.53,1.53,0,0,1,1.125-.459,1.53,1.53,0,0,1,1.125.459,1.531,1.531,0,0,1,.459,1.125,1.53,1.53,0,0,1-.459,1.125,1.53,1.53,0,0,1-1.125.459A1.53,1.53,0,0,1-505.441,1323.456Zm2.475,10.917h-2.7v-9.684h2.7Z"/>
        <path id="パス_38016" data-name="パス 38016" d="M-497.188,1326.633v4.338a1.246,1.246,0,0,0,.288.873.9.9,0,0,0,.684.315,1.557,1.557,0,0,0,1.278-.684l1.008,1.89a3.9,3.9,0,0,1-2.655,1.152,3.289,3.289,0,0,1-2.358-.918,3.293,3.293,0,0,1-.963-2.5v-4.464h-1.134v-1.944h1.134v-2.9h2.718v2.9h2.34v1.944Z"/>
        <path id="パス_38017" data-name="パス 38017" d="M-483.6,1329.153v5.22h-2.717v-5.292a3.186,3.186,0,0,0-.351-1.692,1.254,1.254,0,0,0-1.135-.54,1.934,1.934,0,0,0-1.386.585,2.289,2.289,0,0,0-.6,1.719v5.22h-2.7v-9.684h2.7v1.1a3.342,3.342,0,0,1,2.557-1.26,2.78,2.78,0,0,1,1.665.54,3.53,3.53,0,0,1,1.125,1.314,3.789,3.789,0,0,1,1.5-1.368,4.111,4.111,0,0,1,1.9-.486,3.778,3.778,0,0,1,2.753,1.017,3.924,3.924,0,0,1,1.044,2.943v5.886h-2.717v-5.292q0-2.232-1.639-2.232a1.932,1.932,0,0,0-1.4.585A2.309,2.309,0,0,0-483.6,1329.153Z"/>
        <path id="パス_38018" data-name="パス 38018" d="M-466.409,1332.969a5.414,5.414,0,0,1-3.842,1.548,5.1,5.1,0,0,1-3.645-1.359,4.771,4.771,0,0,1-1.441-3.645,4.7,4.7,0,0,1,1.467-3.636,4.948,4.948,0,0,1,3.465-1.35,5.015,5.015,0,0,1,3.393,1.206,4.148,4.148,0,0,1,1.395,3.312v1.44h-7.056a1.924,1.924,0,0,0,.828,1.3,2.652,2.652,0,0,0,1.584.5,3.107,3.107,0,0,0,2.34-.954Zm-2.591-5.742a2.049,2.049,0,0,0-1.36-.468,2.433,2.433,0,0,0-1.467.486,1.859,1.859,0,0,0-.774,1.314h4.248A1.919,1.919,0,0,0-469,1327.227Z"/>
        <path id="パス_38019" data-name="パス 38019" d="M-460.973,1328.973v5.4h-2.7v-9.684h2.7v1.081a3.777,3.777,0,0,1,2.754-1.243,3.409,3.409,0,0,1,2.565,1.08,3.988,3.988,0,0,1,1.035,2.88v5.886h-2.7V1328.9q0-2.232-1.638-2.232a1.964,1.964,0,0,0-1.413.585A2.29,2.29,0,0,0-460.973,1328.973Z"/>
        <path id="パス_38020" data-name="パス 38020" d="M-449.093,1326.633v4.338a1.246,1.246,0,0,0,.288.873.9.9,0,0,0,.684.315,1.557,1.557,0,0,0,1.278-.684l1.008,1.89a3.9,3.9,0,0,1-2.655,1.152,3.289,3.289,0,0,1-2.358-.918,3.293,3.293,0,0,1-.963-2.5v-4.464h-1.134v-1.944h1.134v-2.9h2.718v2.9h2.34v1.944Z"/>
      </g>
    </g>
  </g>
</svg>
