<svg xmlns="http://www.w3.org/2000/svg" viewBox="0 0 109.72 40.78"><defs><style>.cls-1{fill:#070203;}</style></defs><g id="レイヤー_2" data-name="レイヤー 2"><g id="レイヤー_1-2" data-name="レイヤー 1"><g id="ORDig"><g id="グループ_31967" data-name="グループ 31967"><path id="パス_37905" data-name="パス 37905" class="cls-1" d="M9,27.22a9.11,9.11,0,0,1-5.09-1.29A7.89,7.89,0,0,1,1,22.42,10.92,10.92,0,0,1,0,18.1,17.42,17.42,0,0,1,2.43,9.51,19,19,0,0,1,9,2.6,15.2,15.2,0,0,1,17.14,0a9.14,9.14,0,0,1,4.48,1.18,8.28,8.28,0,0,1,3.3,3.31,8.9,8.9,0,0,1,1.18,4.3A18.07,18.07,0,0,1,23,18.52a20.19,20.19,0,0,1-6.94,7.05A14.28,14.28,0,0,1,9,27.22ZM16.52,1.57a5.6,5.6,0,0,0-2.58.55,8.28,8.28,0,0,0-2.22,1.82A16.22,16.22,0,0,0,9.38,7.61,33,33,0,0,0,7.15,14.1a28.31,28.31,0,0,0-1,6.85,5.25,5.25,0,0,0,1,3.53,3.3,3.3,0,0,0,2.6,1.19,5,5,0,0,0,3.57-1.38,20.09,20.09,0,0,0,4.79-8.17A29.84,29.84,0,0,0,20,6.55a5.94,5.94,0,0,0-1-3.8,3.07,3.07,0,0,0-2.44-1.18Z"/></g><g id="グループ_31968" data-name="グループ 31968"><path id="パス_37906" data-name="パス 37906" class="cls-1" d="M36.06,13.91l-2.29,7.88a9.7,9.7,0,0,0-.5,2.45,1.39,1.39,0,0,0,.6,1.18,4.77,4.77,0,0,0,2.47.46l-.28.72H23.56l.21-.72a4.27,4.27,0,0,0,2.75-.73,7,7,0,0,0,1.61-3.25L33,5.21A8.14,8.14,0,0,0,33.36,3a1.39,1.39,0,0,0-.5-1.16,4.74,4.74,0,0,0-2.31-.55L30.74.6H41.5c3.08,0,5.25.53,6.5,1.61a5.26,5.26,0,0,1,1.89,4.15,6.61,6.61,0,0,1-2.2,4.81,11.65,11.65,0,0,1-4.88,2.31l2.34,7.88c.62,2.11,1.16,3.38,1.63,3.82a3.56,3.56,0,0,0,2.34.7v.71H41L37.33,13.9l-.62,0C36.58,14,36.36,13.94,36.06,13.91Zm.28-1.15,1.12,0a6.08,6.08,0,0,0,4.61-1.92,7,7,0,0,0,1.8-5,3.78,3.78,0,0,0-1-2.8,3.4,3.4,0,0,0-2.53-1l-.88,0Z"/><path id="パス_37907" data-name="パス 37907" class="cls-1" d="M48.74,26.6l.24-.72a4.51,4.51,0,0,0,2.85-.77,5.85,5.85,0,0,0,1.6-2.89l4.72-16.4a9.94,9.94,0,0,0,.45-2.65,1.54,1.54,0,0,0-.54-1.3,5.93,5.93,0,0,0-2.72-.56L55.55.6h8.9q7,0,10.15,2.86a10.22,10.22,0,0,1,3.11,8,11.58,11.58,0,0,1-1.45,6.07,18,18,0,0,1-6.68,7,20.36,20.36,0,0,1-9.94,2.14ZM65,2.15,59.27,21.84a7.69,7.69,0,0,0-.4,1.95,1,1,0,0,0,.45.88A2.86,2.86,0,0,0,61,25.1a7.43,7.43,0,0,0,4.81-1.69A13.48,13.48,0,0,0,70,17.59a19.84,19.84,0,0,0,1.43-7.25,11.84,11.84,0,0,0-.82-4.56,6,6,0,0,0-2.56-2.94A6.21,6.21,0,0,0,65,2.15Z"/><path id="パス_37908" data-name="パス 37908" class="cls-1" d="M88.53,8.83,84.6,22.45A7.6,7.6,0,0,0,84.29,24a.6.6,0,0,0,.17.38.48.48,0,0,0,.35.19,1,1,0,0,0,.65-.28,11.4,11.4,0,0,0,2.07-2.57l.67.38q-2.91,5-6.17,5a2.72,2.72,0,0,1-2-.7,2.39,2.39,0,0,1-.74-1.77,6.58,6.58,0,0,1,.34-1.81l2.66-9.17a7.39,7.39,0,0,0,.38-2,1,1,0,0,0-.36-.76,1.39,1.39,0,0,0-1-.34l-.69,0,.23-.76,6.5-1.05ZM87.34,0a2.77,2.77,0,0,1,2,.83,2.78,2.78,0,0,1,.82,2,2.71,2.71,0,0,1-.83,2,2.74,2.74,0,0,1-2,.82,2.8,2.8,0,0,1-2.79-2.8,2.75,2.75,0,0,1,.81-2,2.65,2.65,0,0,1,2-.84Z"/><path id="パス_37909" data-name="パス 37909" class="cls-1" d="M104.62,10h5.1l-.61,2.1h-2.65a4.47,4.47,0,0,1,.62,2.17,5.8,5.8,0,0,1-1,3.21,6.75,6.75,0,0,1-2.8,2.36,9.41,9.41,0,0,1-4.11.88,11.69,11.69,0,0,1-1.32-.08c-.48-.06-1-.14-1.56-.25a6.47,6.47,0,0,0-1.6,1,.84.84,0,0,0-.24.55.79.79,0,0,0,.29.6,3.48,3.48,0,0,0,1.47.65,38.13,38.13,0,0,1,5.17,1.35A6.1,6.1,0,0,1,104,26.42a4.21,4.21,0,0,1,.87,2.69,5.29,5.29,0,0,1-2.2,4.18c-1.46,1.2-3.74,1.8-6.82,1.8s-5.4-.52-6.88-1.55a3.17,3.17,0,0,1-1.57-2.65,3,3,0,0,1,1-2.16c.7-.67,2.19-1.26,4.49-1.76a4.61,4.61,0,0,1-1.57-1.2,2.33,2.33,0,0,1-.57-1.5,3.06,3.06,0,0,1,1-2.26,11.27,11.27,0,0,1,3.46-2,5.79,5.79,0,0,1-2.72-1.92,4.64,4.64,0,0,1-.83-2.75,5.51,5.51,0,0,1,1-3.16,7.17,7.17,0,0,1,3-2.44,10.35,10.35,0,0,1,4.51-.94,10.48,10.48,0,0,1,2.9.35A5.72,5.72,0,0,1,104.62,10ZM94,27.41a5.86,5.86,0,0,0-2.49,1.53,2.83,2.83,0,0,0-.66,1.78A2.88,2.88,0,0,0,92.17,33a6.93,6.93,0,0,0,4.19,1,5.52,5.52,0,0,0,3.45-.87,2.59,2.59,0,0,0,1.08-2,2,2,0,0,0-1-1.7A13.74,13.74,0,0,0,96.12,28C95.25,27.79,94.54,27.58,94,27.41ZM100.6,9.76a2.18,2.18,0,0,0-1.57.62,7.4,7.4,0,0,0-1.82,3.15,12.83,12.83,0,0,0-.78,4.16,2,2,0,0,0,.55,1.5,2,2,0,0,0,2.72,0,8.59,8.59,0,0,0,1.89-3.35,13.36,13.36,0,0,0,.8-4.19,1.88,1.88,0,0,0-.51-1.36,1.73,1.73,0,0,0-1.28-.53Z"/></g></g><g id="グループ_32204" data-name="グループ 32204"><path id="パス_38115" data-name="パス 38115" class="cls-1" d="M33.15,35.57a.79.79,0,0,1,.26-.08,2.2,2.2,0,0,1,.72.15.42.42,0,0,1,.28.32.26.26,0,0,1-.23.28h-.11c-.41,0-.91-.06-1.48-.06l-.94,0c0,.39,0,.86,0,1.15,0,1,0,1.8.06,2.4a.7.7,0,0,1-.18.6,1.32,1.32,0,0,1-.68.28c-.16,0-.21,0-.23-.1a.59.59,0,0,0-.21-.42,3.26,3.26,0,0,0-.68-.32c-.1,0-.12-.06-.12-.12s.05-.06.12-.06h.15a6.86,6.86,0,0,0,.9.09c.15,0,.18-.06.18-.2,0-1.15,0-1.88,0-2.71a9.12,9.12,0,0,1-1.65,1.75,8.46,8.46,0,0,1-2,1.3.66.66,0,0,1-.2.06c-.06,0-.07-.06-.07-.11s0-.09.13-.15a11.94,11.94,0,0,0,1.8-1.53,13.47,13.47,0,0,0,1.46-1.83c-.65.08-1.14.17-1.5.25a1.62,1.62,0,0,0-.48.17.44.44,0,0,1-.29.09c-.14,0-.33-.12-.6-.41a.89.89,0,0,1-.28-.52c0-.1.05-.2.11-.2s.07,0,.12.07a1,1,0,0,0,.72.31,4.16,4.16,0,0,0,.44,0l2.3-.22c0-.91,0-1.15,0-1.28s-.05-.29-.15-.35a1.8,1.8,0,0,0-.41-.14c-.09,0-.11,0-.11-.08s.06-.1.13-.15a.57.57,0,0,1,.34-.08,2.15,2.15,0,0,1,.8.16c.24.11.35.21.35.36a.51.51,0,0,1-.13.31.93.93,0,0,0-.1.44c0,.17,0,.41,0,.76.42,0,.71-.05,1.16-.1A.65.65,0,0,0,33.15,35.57Z"/><path id="パス_38116" data-name="パス 38116" class="cls-1" d="M42.67,37.53c-.27,0-.87-.05-1.3-.05-.69,0-2.2,0-3.28.13a2.59,2.59,0,0,0-.87.17.4.4,0,0,1-.24.07c-.22,0-.43-.21-.7-.61a.67.67,0,0,1-.16-.47c0-.14.05-.21.1-.21s.07,0,.11.08a.89.89,0,0,0,.74.33c.24,0,.4,0,.92,0,1.09-.07,2.25-.12,3.11-.14a1.84,1.84,0,0,0,.69-.13.61.61,0,0,1,.24-.07,1.37,1.37,0,0,1,.4.09c.33.14.56.27.56.49a.33.33,0,0,1-.31.35Z"/><path id="パス_38117" data-name="パス 38117" class="cls-1" d="M48.28,36c.9-.07,1.21-.09,1.66-.14l.33-.1a.73.73,0,0,1,.33-.08,1.73,1.73,0,0,1,.83.23.38.38,0,0,1,.19.35.24.24,0,0,1-.2.26,2.41,2.41,0,0,1-.53,0,10,10,0,0,0-1.09-.06c-.3,0-.79,0-1.18,0,.28.19.4.37.4.49a.34.34,0,0,1-.05.14,1.55,1.55,0,0,0-.17.4,6,6,0,0,1-1,1.73,5.47,5.47,0,0,1-1.79,1.49l-.15.05a.08.08,0,0,1-.09-.09s.07-.1.22-.24a7.42,7.42,0,0,0,1.29-1.61A6.68,6.68,0,0,0,48,37.28a2.33,2.33,0,0,0,.08-.46.41.41,0,0,0-.1-.3c-.62.06-1.27.14-1.68.22a1.07,1.07,0,0,0-.41.15.5.5,0,0,1-.26.08c-.16,0-.32-.09-.59-.4a.8.8,0,0,1-.23-.48c0-.13,0-.21.1-.21s.08,0,.13.1a1,1,0,0,0,.6.28c.21,0,.52,0,.77,0C47,36.14,47.49,36.08,48.28,36Zm.56-1.87a.82.82,0,0,0,.26-.1,1.33,1.33,0,0,1,.34-.1,1.63,1.63,0,0,1,.75.18.31.31,0,0,1-.15.57h0c-.19,0-.42,0-.7,0l-1.94.15a4.53,4.53,0,0,1-.46,0,.75.75,0,0,1-.7-.32.63.63,0,0,1-.2-.46c0-.08,0-.13.06-.13s.06,0,.12.07a.92.92,0,0,0,.7.28c.31,0,.63,0,1-.07a7.63,7.63,0,0,0,1-.15Zm2.49-.27a.67.67,0,0,1,.32.53.32.32,0,0,1-.29.31.33.33,0,0,1-.3-.2,3.33,3.33,0,0,0-.55-.78s-.1-.07-.1-.11,0-.06.1-.06a.64.64,0,0,1,.2,0,1.65,1.65,0,0,1,.62.28Zm.8-.6a.55.55,0,0,1,.32.45.29.29,0,0,1-.26.32h0a.35.35,0,0,1-.33-.19,2.13,2.13,0,0,0-.61-.69s-.1-.07-.1-.1a.07.07,0,0,1,.07-.07h0l.23,0a2.12,2.12,0,0,1,.69.25Z"/><path id="パス_38118" data-name="パス 38118" class="cls-1" d="M54.51,39.09l-.15.06a.08.08,0,0,1-.09-.08h0s0-.09.12-.14a14.24,14.24,0,0,0,2.16-2.09,5.93,5.93,0,0,0,.79-1.09.65.65,0,0,0,.11-.29c0-.06-.09-.15-.22-.23s-.14-.06-.14-.11.13-.14.3-.14a1.75,1.75,0,0,1,.79.28c.18.11.33.24.33.37s-.07.2-.22.25a.21.21,0,0,0-.15.1l-1,1.05c.27.18.43.33.43.46a.51.51,0,0,1,0,.13,3.37,3.37,0,0,0,0,.55v.91c0,.62,0,1,0,1.2s-.14.41-.3.41a.36.36,0,0,1-.32-.16A.9.9,0,0,1,56.8,40a.42.42,0,0,1,0-.15,2.5,2.5,0,0,0,0-.47c0-.2,0-.38,0-.71v-1a1,1,0,0,0,0-.45A9.52,9.52,0,0,1,54.51,39.09Z"/><path id="パス_38119" data-name="パス 38119" class="cls-1" d="M68.36,35.55a.31.31,0,0,1-.23.3c-.14.06-.18.16-.27.3a15.32,15.32,0,0,1-2,2.64A7.75,7.75,0,0,1,63,40.7a.53.53,0,0,1-.2,0c-.06,0-.09,0-.09-.08s0-.08.15-.15a11.22,11.22,0,0,0,2.56-2.25,12.21,12.21,0,0,0,1.73-2.65l0-.09a.07.07,0,0,0,0,0c-.21,0-.5.1-.88.17a4,4,0,0,1-.48.09,1.34,1.34,0,0,1-.48-.15,10.67,10.67,0,0,1-1,1.18,8,8,0,0,1-1.27,1,.6.6,0,0,1-.28.13c-.08,0-.1,0-.1-.1s.12-.16.33-.37A12,12,0,0,0,64,36.14c.25-.32.48-.68.71-1a1.94,1.94,0,0,0,.29-.68c0-.15-.15-.26-.32-.34s-.1-.07-.1-.11a.31.31,0,0,1,.29-.14,1.81,1.81,0,0,1,.86.32c.27.16.32.28.32.41a.38.38,0,0,1-.19.27,2.17,2.17,0,0,0-.36.44h.13a5.46,5.46,0,0,0,.69-.1c.36-.06.59-.11.7-.14a.32.32,0,0,0,.18-.1.35.35,0,0,1,.23-.12c.21,0,.4.1.71.38A.57.57,0,0,1,68.36,35.55Zm.45-1.19a.65.65,0,0,1,.32.53.29.29,0,0,1-.28.3h0a.3.3,0,0,1-.3-.2,3.19,3.19,0,0,0-.55-.77s-.1-.08-.1-.11,0-.07.1-.07l.2,0a1.67,1.67,0,0,1,.62.28Zm.8-.61a.55.55,0,0,1,.32.45.29.29,0,0,1-.26.32h0a.35.35,0,0,1-.33-.2,2.09,2.09,0,0,0-.61-.68s-.11-.07-.11-.11a.07.07,0,0,1,.07-.07h0a.85.85,0,0,1,.23,0,2,2,0,0,1,.71.25Z"/></g></g></g></svg>